%TF.GenerationSoftware,KiCad,Pcbnew,8.0.8*%
%TF.CreationDate,2025-03-02T04:32:36-08:00*%
%TF.ProjectId,motor_driver,6d6f746f-725f-4647-9269-7665722e6b69,rev?*%
%TF.SameCoordinates,Original*%
%TF.FileFunction,Drillmap*%
%TF.FilePolarity,Positive*%
%FSLAX45Y45*%
G04 Gerber Fmt 4.5, Leading zero omitted, Abs format (unit mm)*
G04 Created by KiCad (PCBNEW 8.0.8) date 2025-03-02 04:32:36*
%MOMM*%
%LPD*%
G01*
G04 APERTURE LIST*
%ADD10C,0.050000*%
%ADD11C,0.200000*%
G04 APERTURE END LIST*
D10*
X7700000Y-14800000D02*
X21146447Y-14800000D01*
X7200000Y-4600000D02*
X7200000Y-14300000D01*
X21146447Y-4100000D02*
X7700000Y-4100000D01*
X21646447Y-14300000D02*
X21646447Y-4600000D01*
X21146447Y-4100000D02*
G75*
G02*
X21646447Y-4600000I0J-500000D01*
G01*
X21646447Y-14300000D02*
G75*
G02*
X21146447Y-14800000I-500000J0D01*
G01*
X7700000Y-14800000D02*
G75*
G02*
X7200000Y-14300000I0J500000D01*
G01*
X7200000Y-4600000D02*
G75*
G02*
X7700000Y-4100000I500000J0D01*
G01*
D11*
X7458277Y-15113984D02*
X7458277Y-14913984D01*
X7458277Y-14913984D02*
X7505896Y-14913984D01*
X7505896Y-14913984D02*
X7534467Y-14923508D01*
X7534467Y-14923508D02*
X7553515Y-14942555D01*
X7553515Y-14942555D02*
X7563039Y-14961603D01*
X7563039Y-14961603D02*
X7572562Y-14999698D01*
X7572562Y-14999698D02*
X7572562Y-15028269D01*
X7572562Y-15028269D02*
X7563039Y-15066365D01*
X7563039Y-15066365D02*
X7553515Y-15085412D01*
X7553515Y-15085412D02*
X7534467Y-15104460D01*
X7534467Y-15104460D02*
X7505896Y-15113984D01*
X7505896Y-15113984D02*
X7458277Y-15113984D01*
X7658277Y-15113984D02*
X7658277Y-14980650D01*
X7658277Y-15018746D02*
X7667800Y-14999698D01*
X7667800Y-14999698D02*
X7677324Y-14990174D01*
X7677324Y-14990174D02*
X7696372Y-14980650D01*
X7696372Y-14980650D02*
X7715420Y-14980650D01*
X7782086Y-15113984D02*
X7782086Y-14980650D01*
X7782086Y-14913984D02*
X7772562Y-14923508D01*
X7772562Y-14923508D02*
X7782086Y-14933031D01*
X7782086Y-14933031D02*
X7791610Y-14923508D01*
X7791610Y-14923508D02*
X7782086Y-14913984D01*
X7782086Y-14913984D02*
X7782086Y-14933031D01*
X7905896Y-15113984D02*
X7886848Y-15104460D01*
X7886848Y-15104460D02*
X7877324Y-15085412D01*
X7877324Y-15085412D02*
X7877324Y-14913984D01*
X8010658Y-15113984D02*
X7991610Y-15104460D01*
X7991610Y-15104460D02*
X7982086Y-15085412D01*
X7982086Y-15085412D02*
X7982086Y-14913984D01*
X8239229Y-15113984D02*
X8239229Y-14913984D01*
X8239229Y-14913984D02*
X8305896Y-15056841D01*
X8305896Y-15056841D02*
X8372562Y-14913984D01*
X8372562Y-14913984D02*
X8372562Y-15113984D01*
X8553515Y-15113984D02*
X8553515Y-15009222D01*
X8553515Y-15009222D02*
X8543991Y-14990174D01*
X8543991Y-14990174D02*
X8524943Y-14980650D01*
X8524943Y-14980650D02*
X8486848Y-14980650D01*
X8486848Y-14980650D02*
X8467801Y-14990174D01*
X8553515Y-15104460D02*
X8534467Y-15113984D01*
X8534467Y-15113984D02*
X8486848Y-15113984D01*
X8486848Y-15113984D02*
X8467801Y-15104460D01*
X8467801Y-15104460D02*
X8458277Y-15085412D01*
X8458277Y-15085412D02*
X8458277Y-15066365D01*
X8458277Y-15066365D02*
X8467801Y-15047317D01*
X8467801Y-15047317D02*
X8486848Y-15037793D01*
X8486848Y-15037793D02*
X8534467Y-15037793D01*
X8534467Y-15037793D02*
X8553515Y-15028269D01*
X8648753Y-14980650D02*
X8648753Y-15180650D01*
X8648753Y-14990174D02*
X8667801Y-14980650D01*
X8667801Y-14980650D02*
X8705896Y-14980650D01*
X8705896Y-14980650D02*
X8724943Y-14990174D01*
X8724943Y-14990174D02*
X8734467Y-14999698D01*
X8734467Y-14999698D02*
X8743991Y-15018746D01*
X8743991Y-15018746D02*
X8743991Y-15075888D01*
X8743991Y-15075888D02*
X8734467Y-15094936D01*
X8734467Y-15094936D02*
X8724943Y-15104460D01*
X8724943Y-15104460D02*
X8705896Y-15113984D01*
X8705896Y-15113984D02*
X8667801Y-15113984D01*
X8667801Y-15113984D02*
X8648753Y-15104460D01*
X8829705Y-15094936D02*
X8839229Y-15104460D01*
X8839229Y-15104460D02*
X8829705Y-15113984D01*
X8829705Y-15113984D02*
X8820182Y-15104460D01*
X8820182Y-15104460D02*
X8829705Y-15094936D01*
X8829705Y-15094936D02*
X8829705Y-15113984D01*
X8829705Y-14990174D02*
X8839229Y-14999698D01*
X8839229Y-14999698D02*
X8829705Y-15009222D01*
X8829705Y-15009222D02*
X8820182Y-14999698D01*
X8820182Y-14999698D02*
X8829705Y-14990174D01*
X8829705Y-14990174D02*
X8829705Y-15009222D01*
M02*
