M48
; DRILL file {KiCad 8.0.8} date 2025-03-02T14:03:52-0800
; FORMAT={-:-/ absolute / inch / decimal}
; #@! TF.CreationDate,2025-03-02T14:03:52-08:00
; #@! TF.GenerationSoftware,Kicad,Pcbnew,8.0.8
; #@! TF.FileFunction,Plated,1,4,PTH
FMAT,2
INCH
; #@! TA.AperFunction,Plated,PTH,ViaDrill
T1C0.0118
; #@! TA.AperFunction,Plated,PTH,ViaDrill
T2C0.0197
; #@! TA.AperFunction,Plated,PTH,ComponentDrill
T3C0.0276
; #@! TA.AperFunction,Plated,PTH,ViaDrill
T4C0.0315
; #@! TA.AperFunction,Plated,PTH,ComponentDrill
T5C0.0315
; #@! TA.AperFunction,Plated,PTH,ComponentDrill
T6C0.0394
; #@! TA.AperFunction,Plated,PTH,ComponentDrill
T7C0.0433
; #@! TA.AperFunction,Plated,PTH,ComponentDrill
T8C0.0512
; #@! TA.AperFunction,Plated,PTH,ComponentDrill
T9C0.1181
; #@! TA.AperFunction,Plated,PTH,ViaDrill
T10C0.1260
%
G90
G05
T1
X3.1255Y-2.1855
X3.1845Y-2.3036
X3.2598Y-2.5571
X3.2908Y-2.3391
X3.3342Y-2.1895
X3.3366Y-2.9232
X3.3583Y-2.6654
X3.409Y-2.4729
X3.4134Y-1.9035
X3.4134Y-1.935
X3.4134Y-3.0512
X3.4232Y-2.252
X3.4232Y-2.2913
X3.4286Y-2.4296
X3.4528Y-3.0512
X3.5709Y-2.3799
X3.5787Y-2.0256
X3.7205Y-2.8051
X3.7205Y-2.8445
X3.7303Y-3.5138
X3.7303Y-3.563
X3.75Y-4.2392
X3.752Y-4.2913
X3.7598Y-2.9724
X3.7598Y-3.3858
X3.7598Y-3.9469
X3.7598Y-3.9961
X3.7913Y-2.252
X3.7953Y-1.9055
X3.8177Y-3.6549
X3.8189Y-4.5276
X3.9331Y-2.3701
X3.9567Y-2.282
X3.9646Y-1.9277
X3.969Y-2.2387
X3.9769Y-1.8844
X4.1614Y-2.3209
X4.1693Y-1.9665
X4.3287Y-2.2224
X4.3366Y-1.8681
X4.4724Y-2.185
X4.5157Y-2.2953
X4.5236Y-1.8878
X4.5236Y-1.9764
X4.6378Y-1.9016
X4.6398Y-1.9429
X4.6412Y-1.9946
X4.6457Y-2.4213
X4.6457Y-2.4606
X4.7343Y-1.6929
X6.9341Y-2.9675
X6.9606Y-2.9941
X6.9882Y-4.6161
X7.0079Y-3.1988
X7.0373Y-2.9139
X7.0374Y-2.8642
X7.0374Y-2.9626
X7.1654Y-5.4823
X7.252Y-3.2106
X7.3622Y-4.7244
X7.3819Y-5.7283
X7.4783Y-3.25
X7.4902Y-2.8248
X7.5197Y-4.3898
X7.5394Y-4.4685
X7.5571Y-3.25
X7.5591Y-5.4035
X7.7657Y-4.4685
X7.8445Y-4.3307
X7.8839Y-4.3307
X7.9035Y-5.4921
X7.9232Y-4.626
X7.9232Y-4.6752
X7.9232Y-4.7244
X7.9426Y-5.738
X7.9429Y-5.6398
X7.9429Y-5.689
X8.0906Y-5.5118
X8.0906Y-5.5492
T2
X3.4744Y-4.5079
X3.5039Y-4.5374
X3.5335Y-4.5669
X4.4587Y-3.8386
X4.4587Y-3.9075
X4.4587Y-4.5965
X4.4587Y-4.6654
X4.4685Y-3.0709
X4.4685Y-3.1299
X5.4921Y-3.2382
X5.6102Y-4.3209
X5.8169Y-4.311
T3
X3.3614Y-3.1661
X3.3614Y-3.2661
X3.3614Y-3.3661
X3.3614Y-3.4661
X3.3614Y-3.6173
X3.3614Y-3.7173
X3.3614Y-3.8173
X3.3614Y-3.9173
X3.3614Y-4.0748
X3.3614Y-4.1748
X3.3614Y-4.2748
X3.3614Y-4.3748
X3.6614Y-3.1661
X3.6614Y-3.2661
X3.6614Y-3.3661
X3.6614Y-3.4661
X3.6614Y-3.6173
X3.6614Y-3.7173
X3.6614Y-3.8173
X3.6614Y-3.9173
X3.6614Y-4.0748
X3.6614Y-4.1748
X3.6614Y-4.2748
X3.6614Y-4.3748
T4
X3.1693Y-2.5886
X3.1693Y-2.6476
X3.1693Y-2.7067
X4.9213Y-1.9685
X4.9213Y-5.315
X4.9213Y-5.5118
X4.9213Y-5.7087
X5.1181Y-1.9685
X5.1181Y-5.7087
X5.1203Y-5.5096
X5.5118Y-1.9685
X5.5118Y-2.3622
X5.5118Y-5.5118
X5.5118Y-5.7087
X5.7066Y-5.7087
X5.7085Y-3.5427
X5.7087Y-1.9685
X5.7087Y-2.3622
X5.7087Y-3.3465
X5.7087Y-4.5276
X5.7087Y-4.7244
X5.7087Y-4.9213
X5.7087Y-5.5118
X5.9055Y-3.3465
X5.9055Y-3.5433
X6.1024Y-1.9685
X6.1024Y-2.3622
X6.1024Y-2.9528
X6.1024Y-3.1496
X6.1024Y-3.3465
X6.1024Y-3.5433
X6.1024Y-4.5276
X6.1024Y-4.7244
X6.1024Y-5.5118
X6.1024Y-5.7087
X6.4961Y-2.7559
X6.4961Y-3.3465
X6.4961Y-3.5433
X6.4961Y-4.7244
X6.6929Y-2.1654
X6.6929Y-3.3465
X6.6929Y-3.5433
X6.6929Y-3.7402
X6.6929Y-5.5118
X6.6929Y-5.7087
X6.8504Y-5.1673
X6.8504Y-5.2264
X6.8504Y-5.2854
X6.8504Y-5.3445
X6.8898Y-3.5433
X6.8898Y-3.7402
X6.8898Y-4.7933
X6.8898Y-4.8524
X6.8898Y-4.9114
X6.8898Y-4.9705
X6.8898Y-5.5118
X6.8898Y-5.7087
X6.9094Y-5.1673
X6.9094Y-5.2264
X6.9094Y-5.2854
X6.9094Y-5.3445
X6.9488Y-4.7933
X6.9488Y-4.8524
X6.9488Y-4.9114
X6.9488Y-4.9705
X7.0866Y-1.9685
X7.0866Y-3.7402
X7.2638Y-5.1673
X7.2638Y-5.2264
X7.2638Y-5.2854
X7.2638Y-5.3445
X7.2835Y-1.9685
X7.2835Y-2.1654
X7.2835Y-2.9528
X7.2835Y-3.7402
X7.2835Y-3.937
X7.2835Y-4.1339
X7.313Y-4.7933
X7.313Y-4.8524
X7.313Y-4.9114
X7.313Y-4.9705
X7.3228Y-5.1673
X7.3228Y-5.2264
X7.3228Y-5.2854
X7.3228Y-5.3445
X7.372Y-4.7933
X7.372Y-4.8524
X7.372Y-4.9114
X7.372Y-4.9705
X7.4803Y-1.9685
X7.4803Y-2.1654
X7.4803Y-2.3622
X7.4803Y-3.937
X7.4803Y-4.1339
X7.5866Y-2.6299
X7.5866Y-2.689
X7.5866Y-2.748
X7.5866Y-2.8071
X7.6457Y-2.6299
X7.6457Y-2.689
X7.6457Y-2.748
X7.6457Y-2.8071
X7.6772Y-1.9685
X7.6772Y-2.1654
X7.6772Y-2.3622
X7.874Y-1.9685
X7.874Y-2.1654
X7.874Y-2.3622
X7.874Y-3.1496
X8.0098Y-2.6299
X8.0098Y-2.689
X8.0098Y-2.748
X8.0098Y-2.8071
X8.0689Y-2.6299
X8.0689Y-2.689
X8.0689Y-2.748
X8.0689Y-2.8071
X8.0709Y-2.1654
X8.2677Y-2.1654
X8.2677Y-2.3622
X8.2677Y-2.5591
X8.3858Y-2.9528
X8.3858Y-3.1496
X8.3858Y-3.3465
X8.3858Y-3.5433
X8.3858Y-3.7402
X8.3858Y-3.937
X8.3858Y-4.1339
T5
X3.9421Y-4.2228
X3.9421Y-4.3228
X3.9421Y-4.4228
X3.9421Y-4.5228
X3.9421Y-4.6228
X3.9421Y-4.7228
X3.9421Y-4.8228
X3.9441Y-2.7071
X3.9441Y-2.8071
X3.9441Y-2.9071
X3.9441Y-3.0071
X3.9441Y-3.1071
X3.9441Y-3.2071
X3.9441Y-3.3071
X3.9441Y-3.465
X3.9441Y-3.565
X3.9441Y-3.665
X3.9441Y-3.765
X3.9441Y-3.865
X3.9441Y-3.965
X3.9441Y-4.065
X4.2421Y-4.2228
X4.2421Y-4.3228
X4.2421Y-4.4228
X4.2421Y-4.5228
X4.2421Y-4.6228
X4.2421Y-4.7228
X4.2421Y-4.8228
X4.2441Y-2.7071
X4.2441Y-2.8071
X4.2441Y-2.9071
X4.2441Y-3.0071
X4.2441Y-3.1071
X4.2441Y-3.2071
X4.2441Y-3.3071
X4.2441Y-3.465
X4.2441Y-3.565
X4.2441Y-3.665
X4.2441Y-3.765
X4.2441Y-3.865
X4.2441Y-3.965
X4.2441Y-4.065
T6
X3.0709Y-2.7134
X3.0709Y-2.8134
X3.0709Y-2.9134
X3.0709Y-3.0134
X3.0709Y-3.1134
X3.0709Y-3.5173
X3.0709Y-3.6173
X3.0709Y-3.7173
X3.0709Y-3.8173
X3.0709Y-3.9173
X3.0709Y-4.0173
T7
X3.4909Y-4.6949
X3.5909Y-4.6949
X3.6909Y-4.6949
X4.5472Y-3.5795
X4.5472Y-3.9795
X4.5571Y-2.802
X4.5571Y-3.202
X4.5571Y-4.3571
X4.5571Y-4.7571
X5.1516Y-2.4111
X5.1516Y-2.5111
X5.1516Y-2.6111
X5.1614Y-4.9505
X5.1614Y-5.0505
X5.1614Y-5.1505
X5.4131Y-3.9429
X5.5131Y-3.9429
X5.6131Y-3.9429
X6.2303Y-2.4076
X6.2303Y-2.5076
X6.2303Y-2.6076
X6.2441Y-4.9472
X6.2441Y-5.0472
X6.2441Y-5.1472
X6.8698Y-3.9429
X6.9698Y-3.9429
X7.0698Y-3.9429
T8
X3.7205Y-5.2657
X3.9173Y-5.2657
X4.2323Y-5.2559
X4.626Y-5.2559
X8.189Y-4.4783
X8.189Y-4.872
X8.189Y-5.2657
T9
X5.0131Y-3.7697
X5.3248Y-2.0111
X5.3248Y-3.0111
X5.3346Y-4.5505
X5.3346Y-5.5505
X6.0131Y-3.7697
X6.4035Y-2.0076
X6.4035Y-3.0076
X6.4173Y-4.5472
X6.4173Y-5.5472
X6.4698Y-3.7697
X7.4698Y-3.7697
T10
X3.1102Y-1.8504
X3.1102Y-5.5906
X8.2283Y-1.8504
X8.2283Y-5.5906
M30
