%TF.GenerationSoftware,KiCad,Pcbnew,8.0.8*%
%TF.CreationDate,2025-03-02T13:54:36-08:00*%
%TF.ProjectId,motor_driver,6d6f746f-725f-4647-9269-7665722e6b69,rev?*%
%TF.SameCoordinates,Original*%
%TF.FileFunction,Copper,L2,Inr*%
%TF.FilePolarity,Positive*%
%FSLAX46Y46*%
G04 Gerber Fmt 4.6, Leading zero omitted, Abs format (unit mm)*
G04 Created by KiCad (PCBNEW 8.0.8) date 2025-03-02 13:54:36*
%MOMM*%
%LPD*%
G01*
G04 APERTURE LIST*
G04 Aperture macros list*
%AMRoundRect*
0 Rectangle with rounded corners*
0 $1 Rounding radius*
0 $2 $3 $4 $5 $6 $7 $8 $9 X,Y pos of 4 corners*
0 Add a 4 corners polygon primitive as box body*
4,1,4,$2,$3,$4,$5,$6,$7,$8,$9,$2,$3,0*
0 Add four circle primitives for the rounded corners*
1,1,$1+$1,$2,$3*
1,1,$1+$1,$4,$5*
1,1,$1+$1,$6,$7*
1,1,$1+$1,$8,$9*
0 Add four rect primitives between the rounded corners*
20,1,$1+$1,$2,$3,$4,$5,0*
20,1,$1+$1,$4,$5,$6,$7,0*
20,1,$1+$1,$6,$7,$8,$9,0*
20,1,$1+$1,$8,$9,$2,$3,0*%
G04 Aperture macros list end*
%TA.AperFunction,ComponentPad*%
%ADD10R,2.600000X2.600000*%
%TD*%
%TA.AperFunction,ComponentPad*%
%ADD11C,2.600000*%
%TD*%
%TA.AperFunction,ComponentPad*%
%ADD12RoundRect,0.250001X-1.149999X-1.149999X1.149999X-1.149999X1.149999X1.149999X-1.149999X1.149999X0*%
%TD*%
%TA.AperFunction,ComponentPad*%
%ADD13C,2.800000*%
%TD*%
%TA.AperFunction,ComponentPad*%
%ADD14R,1.600000X1.600000*%
%TD*%
%TA.AperFunction,ComponentPad*%
%ADD15O,1.600000X1.600000*%
%TD*%
%TA.AperFunction,ComponentPad*%
%ADD16R,1.700000X1.700000*%
%TD*%
%TA.AperFunction,ComponentPad*%
%ADD17O,1.700000X1.700000*%
%TD*%
%TA.AperFunction,ComponentPad*%
%ADD18R,2.200000X2.200000*%
%TD*%
%TA.AperFunction,ComponentPad*%
%ADD19O,2.200000X2.200000*%
%TD*%
%TA.AperFunction,ComponentPad*%
%ADD20C,1.500000*%
%TD*%
%TA.AperFunction,ComponentPad*%
%ADD21R,1.905000X2.000000*%
%TD*%
%TA.AperFunction,ComponentPad*%
%ADD22O,1.905000X2.000000*%
%TD*%
%TA.AperFunction,ComponentPad*%
%ADD23C,5.000000*%
%TD*%
%TA.AperFunction,ComponentPad*%
%ADD24R,2.000000X1.905000*%
%TD*%
%TA.AperFunction,ComponentPad*%
%ADD25O,2.000000X1.905000*%
%TD*%
%TA.AperFunction,ViaPad*%
%ADD26C,6.000000*%
%TD*%
%TA.AperFunction,ViaPad*%
%ADD27C,1.200000*%
%TD*%
%TA.AperFunction,ViaPad*%
%ADD28C,0.900000*%
%TD*%
%TA.AperFunction,ViaPad*%
%ADD29C,0.600000*%
%TD*%
%TA.AperFunction,ViaPad*%
%ADD30C,1.000000*%
%TD*%
%TA.AperFunction,ViaPad*%
%ADD31C,0.700000*%
%TD*%
%TA.AperFunction,Conductor*%
%ADD32C,0.500000*%
%TD*%
G04 APERTURE END LIST*
D10*
%TO.N,+100V*%
%TO.C,J1*%
X117500000Y-133500000D03*
D11*
%TO.N,GND*%
X107500000Y-133500000D03*
%TD*%
D10*
%TO.N,/PHASE_A*%
%TO.C,J3*%
X208000000Y-113750000D03*
D11*
%TO.N,/PHASE_B*%
X208000000Y-123750000D03*
%TO.N,/PHASE_C*%
X208000000Y-133750000D03*
%TD*%
D12*
%TO.N,+15V*%
%TO.C,J2*%
X94500000Y-133750000D03*
D13*
%TO.N,GND*%
X99500000Y-133750000D03*
%TD*%
D14*
%TO.N,Net-(U18-LO)*%
%TO.C,U18*%
X107750000Y-122500000D03*
D15*
%TO.N,GND*%
X107750000Y-119960000D03*
%TO.N,+15V*%
X107750000Y-117420000D03*
%TO.N,unconnected-(U18-NC-Pad4)*%
X107750000Y-114880000D03*
%TO.N,Net-(Q5-S)*%
X107750000Y-112340000D03*
%TO.N,Net-(D3-K)*%
X107750000Y-109800000D03*
%TO.N,Net-(U18-HO)*%
X107750000Y-107260000D03*
%TO.N,unconnected-(U18-NC-Pad8)*%
X100130000Y-107260000D03*
%TO.N,+5V*%
X100130000Y-109800000D03*
%TO.N,Net-(U18-HIN)*%
X100130000Y-112340000D03*
%TO.N,GND*%
X100130000Y-114880000D03*
%TO.N,Net-(U18-LIN)*%
X100130000Y-117420000D03*
%TO.N,GND*%
X100130000Y-119960000D03*
%TO.N,unconnected-(U18-NC-Pad14)*%
X100130000Y-122500000D03*
%TD*%
D16*
%TO.N,/HI_A*%
%TO.C,J4*%
X78000000Y-89340000D03*
D17*
%TO.N,/LO_A*%
X78000000Y-91880000D03*
%TO.N,/HI_B*%
X78000000Y-94420000D03*
%TO.N,/LO_B*%
X78000000Y-96960000D03*
%TO.N,/HI_C*%
X78000000Y-99500000D03*
%TO.N,/LO_C*%
X78000000Y-102040000D03*
%TD*%
D18*
%TO.N,Net-(D1-K)*%
%TO.C,D1*%
X115750000Y-71170000D03*
D19*
%TO.N,+15V*%
X115750000Y-81330000D03*
%TD*%
D20*
%TO.N,Net-(R42-Pad2)*%
%TO.C,U15*%
X85380000Y-103500000D03*
%TO.N,MCU_GND*%
X85380000Y-106040000D03*
X85380000Y-108580000D03*
%TO.N,Net-(R45-Pad2)*%
X85380000Y-111120000D03*
%TO.N,GND*%
X93000000Y-111120000D03*
%TO.N,Net-(U18-LIN)*%
X93000000Y-108580000D03*
%TO.N,Net-(U18-HIN)*%
X93000000Y-106040000D03*
%TO.N,GND*%
X93000000Y-103500000D03*
%TD*%
D21*
%TO.N,+15V*%
%TO.C,U1*%
X88670000Y-119250000D03*
D22*
%TO.N,GND*%
X91210000Y-119250000D03*
%TO.N,+5V*%
X93750000Y-119250000D03*
%TD*%
D18*
%TO.N,Net-(D2-K)*%
%TO.C,D2*%
X115500000Y-90920000D03*
D19*
%TO.N,+15V*%
X115500000Y-101080000D03*
%TD*%
D14*
%TO.N,Net-(U5-LO)*%
%TO.C,U5*%
X107800000Y-84000000D03*
D15*
%TO.N,GND*%
X107800000Y-81460000D03*
%TO.N,+15V*%
X107800000Y-78920000D03*
%TO.N,unconnected-(U5-NC-Pad4)*%
X107800000Y-76380000D03*
%TO.N,Net-(Q1-S)*%
X107800000Y-73840000D03*
%TO.N,Net-(D1-K)*%
X107800000Y-71300000D03*
%TO.N,Net-(U5-HO)*%
X107800000Y-68760000D03*
%TO.N,unconnected-(U5-NC-Pad8)*%
X100180000Y-68760000D03*
%TO.N,+5V*%
X100180000Y-71300000D03*
%TO.N,Net-(U5-HIN)*%
X100180000Y-73840000D03*
%TO.N,GND*%
X100180000Y-76380000D03*
%TO.N,Net-(U5-LIN)*%
X100180000Y-78920000D03*
%TO.N,GND*%
X100180000Y-81460000D03*
%TO.N,unconnected-(U5-NC-Pad14)*%
X100180000Y-84000000D03*
%TD*%
D18*
%TO.N,Net-(D3-K)*%
%TO.C,D3*%
X115750000Y-110670000D03*
D19*
%TO.N,+15V*%
X115750000Y-120830000D03*
%TD*%
D14*
%TO.N,Net-(U11-LO)*%
%TO.C,U11*%
X107800000Y-103250000D03*
D15*
%TO.N,GND*%
X107800000Y-100710000D03*
%TO.N,+15V*%
X107800000Y-98170000D03*
%TO.N,unconnected-(U11-NC-Pad4)*%
X107800000Y-95630000D03*
%TO.N,Net-(Q3-S)*%
X107800000Y-93090000D03*
%TO.N,Net-(D2-K)*%
X107800000Y-90550000D03*
%TO.N,Net-(U11-HO)*%
X107800000Y-88010000D03*
%TO.N,unconnected-(U11-NC-Pad8)*%
X100180000Y-88010000D03*
%TO.N,+5V*%
X100180000Y-90550000D03*
%TO.N,Net-(U11-HIN)*%
X100180000Y-93090000D03*
%TO.N,GND*%
X100180000Y-95630000D03*
%TO.N,Net-(U11-LIN)*%
X100180000Y-98170000D03*
%TO.N,GND*%
X100180000Y-100710000D03*
%TO.N,unconnected-(U11-NC-Pad14)*%
X100180000Y-103250000D03*
%TD*%
D20*
%TO.N,Net-(R10-Pad2)*%
%TO.C,U4*%
X85380000Y-80420000D03*
%TO.N,MCU_GND*%
X85380000Y-82960000D03*
X85380000Y-85500000D03*
%TO.N,Net-(R13-Pad2)*%
X85380000Y-88040000D03*
%TO.N,GND*%
X93000000Y-88040000D03*
%TO.N,Net-(U5-LIN)*%
X93000000Y-85500000D03*
%TO.N,Net-(U5-HIN)*%
X93000000Y-82960000D03*
%TO.N,GND*%
X93000000Y-80420000D03*
%TD*%
%TO.N,Net-(R26-Pad2)*%
%TO.C,U9*%
X85380000Y-91880000D03*
%TO.N,MCU_GND*%
X85380000Y-94420000D03*
X85380000Y-96960000D03*
%TO.N,Net-(R29-Pad2)*%
X85380000Y-99500000D03*
%TO.N,GND*%
X93000000Y-99500000D03*
%TO.N,Net-(U11-LIN)*%
X93000000Y-96960000D03*
%TO.N,Net-(U11-HIN)*%
X93000000Y-94420000D03*
%TO.N,GND*%
X93000000Y-91880000D03*
%TD*%
D16*
%TO.N,/I_A*%
%TO.C,J5*%
X78000000Y-68920000D03*
D17*
%TO.N,/I_B*%
X78000000Y-71460000D03*
%TO.N,/I_C*%
X78000000Y-74000000D03*
%TO.N,MCU_GND*%
X78000000Y-76540000D03*
%TO.N,+3.3V*%
X78000000Y-79080000D03*
%TD*%
D23*
%TO.N,*%
%TO.C,Q6*%
X163000000Y-115500000D03*
X163000000Y-140900000D03*
D24*
%TO.N,Net-(Q6-G)*%
X158600000Y-125660000D03*
D25*
%TO.N,Net-(Q5-S)*%
X158600000Y-128200000D03*
%TO.N,GND*%
X158600000Y-130740000D03*
%TD*%
D23*
%TO.N,*%
%TO.C,Q5*%
X135500000Y-115582500D03*
X135500000Y-140982500D03*
D24*
%TO.N,Net-(Q5-G)*%
X131100000Y-125742500D03*
D25*
%TO.N,+100V*%
X131100000Y-128282500D03*
%TO.N,Net-(Q5-S)*%
X131100000Y-130822500D03*
%TD*%
D23*
%TO.N,*%
%TO.C,Q4*%
X164332500Y-95750000D03*
X189732500Y-95750000D03*
D21*
%TO.N,Net-(Q4-G)*%
X174492500Y-100150000D03*
D22*
%TO.N,Net-(Q3-S)*%
X177032500Y-100150000D03*
%TO.N,GND*%
X179572500Y-100150000D03*
%TD*%
D23*
%TO.N,*%
%TO.C,Q3*%
X127332500Y-95750000D03*
X152732500Y-95750000D03*
D21*
%TO.N,Net-(Q3-G)*%
X137492500Y-100150000D03*
D22*
%TO.N,+100V*%
X140032500Y-100150000D03*
%TO.N,Net-(Q3-S)*%
X142572500Y-100150000D03*
%TD*%
D23*
%TO.N,*%
%TO.C,Q2*%
X162650000Y-50992500D03*
X162650000Y-76392500D03*
D24*
%TO.N,Net-(Q2-G)*%
X158250000Y-61152500D03*
D25*
%TO.N,Net-(Q1-S)*%
X158250000Y-63692500D03*
%TO.N,GND*%
X158250000Y-66232500D03*
%TD*%
D23*
%TO.N,*%
%TO.C,Q1*%
X135250000Y-51082500D03*
X135250000Y-76482500D03*
D24*
%TO.N,Net-(Q1-G)*%
X130850000Y-61242500D03*
D25*
%TO.N,+100V*%
X130850000Y-63782500D03*
%TO.N,Net-(Q1-S)*%
X130850000Y-66322500D03*
%TD*%
D26*
%TO.N,*%
X79000000Y-142000000D03*
X209000000Y-142000000D03*
X209000000Y-47000000D03*
X79000000Y-47000000D03*
D27*
%TO.N,GND*%
X130000000Y-50000000D03*
X125000000Y-140000000D03*
X140000000Y-145000000D03*
X140000000Y-140000000D03*
X180000000Y-95000000D03*
X155000000Y-90000000D03*
X165000000Y-70000000D03*
X125000000Y-50000000D03*
X185000000Y-55000000D03*
X190000000Y-50000000D03*
X190000000Y-55000000D03*
X125000000Y-145000000D03*
X185000000Y-100000000D03*
X165000000Y-90000000D03*
X213000000Y-80000000D03*
X145000000Y-125000000D03*
X155000000Y-140000000D03*
X200000000Y-55000000D03*
X180000000Y-50000000D03*
X210000000Y-60000000D03*
X155000000Y-85000000D03*
X170000000Y-55000000D03*
X213000000Y-105000000D03*
X145000000Y-85000000D03*
D28*
X113500000Y-79500000D03*
D27*
X130055773Y-139944226D03*
D28*
X89000000Y-115250000D03*
D27*
X175000000Y-145000000D03*
X200000000Y-50000000D03*
X150000000Y-90000000D03*
X144947392Y-145000000D03*
X213000000Y-100000000D03*
X205000000Y-55000000D03*
X175000000Y-140000000D03*
X185000000Y-95000000D03*
X170000000Y-90000000D03*
X145000000Y-50000000D03*
X140000000Y-50000000D03*
X170000000Y-140000000D03*
X195000000Y-50000000D03*
X210000000Y-55000000D03*
X170000000Y-145000000D03*
X213000000Y-85000000D03*
X155000000Y-145000000D03*
X190000000Y-105000000D03*
X170000000Y-85000000D03*
X165000000Y-120000000D03*
X195000000Y-60000000D03*
D29*
X94500000Y-72250000D03*
D27*
X190000000Y-60000000D03*
X190000000Y-100000000D03*
D28*
X88250000Y-114500000D03*
D27*
X125000000Y-135000000D03*
X145000000Y-60000000D03*
D28*
X113250000Y-116750000D03*
X113250000Y-99250000D03*
X113250000Y-97500000D03*
D27*
X175000000Y-95000000D03*
D29*
X94750000Y-89250000D03*
D27*
X155000000Y-50000000D03*
D29*
X95250000Y-107675000D03*
X94500000Y-71250000D03*
D27*
X200000000Y-80000000D03*
D28*
X89750000Y-116000000D03*
D27*
X145000000Y-115000000D03*
X155000000Y-80000000D03*
D29*
X95300000Y-109000000D03*
D27*
X144996834Y-89983519D03*
X140000000Y-60000000D03*
X213000000Y-95000000D03*
X210000000Y-65000000D03*
X130000000Y-145000000D03*
X155000000Y-60000000D03*
X213000000Y-75000000D03*
X213000000Y-90000000D03*
X185000000Y-50000000D03*
X155000000Y-115000000D03*
X185000000Y-105000000D03*
X165000000Y-85000000D03*
D28*
X113250000Y-118500000D03*
D27*
X185000000Y-75000000D03*
X195000000Y-55000000D03*
D28*
X113500000Y-78000000D03*
D27*
X155000000Y-120000000D03*
X145000000Y-140000000D03*
X145000000Y-120000000D03*
X170000000Y-95000000D03*
X200000000Y-60000000D03*
X175000000Y-90000000D03*
X150000000Y-85000000D03*
X155000000Y-75000000D03*
D29*
X94750000Y-90500000D03*
%TO.N,+5V*%
X95500000Y-86000000D03*
X97000000Y-115000000D03*
X95500000Y-75500000D03*
X95500000Y-101500000D03*
X95500000Y-100250000D03*
X96970729Y-92834129D03*
D30*
%TO.N,Net-(D1-K)*%
X139500000Y-82250000D03*
D31*
%TO.N,MCU_GND*%
X86700000Y-49150000D03*
X201742088Y-145745089D03*
X109950000Y-56450000D03*
X87087500Y-61712500D03*
X84687500Y-55612500D03*
X110150000Y-47450000D03*
X176125000Y-75375000D03*
X86700000Y-77500000D03*
X205500000Y-140000000D03*
X200250000Y-110000000D03*
X85300000Y-67700000D03*
X114900000Y-50200000D03*
X96400000Y-48400000D03*
X101012500Y-47862500D03*
X86950000Y-58200000D03*
X86950000Y-57200000D03*
X87700000Y-77500000D03*
X201250000Y-120000000D03*
X114700000Y-58300000D03*
X100700000Y-48962500D03*
X80887500Y-58512500D03*
X100812500Y-56862500D03*
X96300000Y-57200000D03*
X178750000Y-72750000D03*
X100500000Y-57962500D03*
X86700000Y-48350000D03*
X86587500Y-62812500D03*
X205500000Y-140950000D03*
X176800000Y-76050000D03*
X199250000Y-110000000D03*
%TO.N,+3.3V*%
X83587500Y-59412500D03*
X114900000Y-47950000D03*
X105900000Y-49950000D03*
X90700000Y-60450000D03*
X113600000Y-55500000D03*
X105700000Y-58950000D03*
X79387500Y-55512500D03*
D27*
X80500000Y-67250000D03*
D31*
X84750000Y-74250000D03*
X197250000Y-113500000D03*
X178000000Y-81250000D03*
D27*
X80500000Y-68750000D03*
X80500000Y-65750000D03*
D31*
X200750000Y-139500000D03*
X90900000Y-51450000D03*
D27*
%TO.N,Net-(Q1-S)*%
X192700000Y-69800000D03*
X194200000Y-68300000D03*
X194200000Y-69800000D03*
X192700000Y-71300000D03*
X194200000Y-71300000D03*
X192700000Y-68300000D03*
D31*
X190250000Y-71750000D03*
X189950000Y-82550000D03*
D27*
X194200000Y-66800000D03*
X192700000Y-66800000D03*
D31*
X184200000Y-81550000D03*
X191950000Y-82550000D03*
D30*
%TO.N,Net-(D3-K)*%
X142500000Y-109750000D03*
D27*
%TO.N,Net-(Q3-S)*%
X175000000Y-124750000D03*
X176500000Y-124750000D03*
X176500000Y-121750000D03*
X175000000Y-123250000D03*
X175000000Y-126250000D03*
D31*
X191500000Y-113500000D03*
D27*
X176500000Y-126250000D03*
D31*
X177500000Y-117250000D03*
D27*
X176500000Y-123250000D03*
D31*
X187000000Y-120000000D03*
X191000000Y-111500000D03*
D27*
X175000000Y-121750000D03*
%TO.N,Net-(Q5-S)*%
X174000000Y-132750000D03*
X174000000Y-135750000D03*
D31*
X187500000Y-145500000D03*
D27*
X175500000Y-131250000D03*
X175500000Y-132750000D03*
D31*
X192000000Y-137250000D03*
D27*
X175500000Y-134250000D03*
X174000000Y-134250000D03*
X174000000Y-131250000D03*
X175500000Y-135750000D03*
D31*
X182000000Y-139250000D03*
D30*
%TO.N,Net-(D2-K)*%
X147750000Y-109500000D03*
D27*
%TO.N,/PHASE_C*%
X184500000Y-131250000D03*
X184500000Y-132750000D03*
X184500000Y-135750000D03*
X186000000Y-131250000D03*
X186000000Y-135750000D03*
X186000000Y-134250000D03*
X186000000Y-132750000D03*
X184500000Y-134250000D03*
%TO.N,/PHASE_A*%
X203450000Y-66800000D03*
X203450000Y-69800000D03*
X204950000Y-69800000D03*
X203450000Y-68300000D03*
X204950000Y-71300000D03*
X204950000Y-66800000D03*
X203450000Y-71300000D03*
X204950000Y-68300000D03*
%TO.N,/PHASE_B*%
X185750000Y-126250000D03*
X185750000Y-123250000D03*
X187250000Y-126250000D03*
X187250000Y-124750000D03*
X185750000Y-121750000D03*
X185750000Y-124750000D03*
X187250000Y-121750000D03*
X187250000Y-123250000D03*
D31*
%TO.N,Net-(U7-OUTP)*%
X117800000Y-48300000D03*
X201250000Y-117500000D03*
%TO.N,Net-(U7-OUTN)*%
X201250000Y-118750000D03*
X120250000Y-43000000D03*
%TO.N,Net-(U13-OUTP)*%
X118000000Y-61500000D03*
X201750000Y-143250000D03*
%TO.N,Net-(U13-OUTN)*%
X201750000Y-144500000D03*
D30*
X82800000Y-64950000D03*
D31*
X118000000Y-62500000D03*
%TO.N,Net-(U2-OUTP)*%
X117850000Y-49350000D03*
D30*
X99900000Y-60200000D03*
D31*
X178750000Y-75250000D03*
%TO.N,Net-(U2-OUTN)*%
X117887500Y-50662500D03*
X178748113Y-74013011D03*
%TD*%
D32*
%TO.N,Net-(Q1-S)*%
X192000000Y-82500000D02*
X193000000Y-81500000D01*
X192000000Y-82500000D02*
X190000000Y-82500000D01*
X184250000Y-81500000D02*
X183250000Y-80500000D01*
X183250000Y-80500000D02*
X183250000Y-80250000D01*
X183250000Y-80250000D02*
X183250000Y-72000000D01*
X193000000Y-81500000D02*
X193000000Y-72250000D01*
%TO.N,Net-(Q3-S)*%
X191000000Y-111500000D02*
X179500000Y-111500000D01*
X185000000Y-118000000D02*
X179500000Y-118000000D01*
X187000000Y-120000000D02*
X185000000Y-118000000D01*
X191500000Y-112000000D02*
X191000000Y-111500000D01*
X191500000Y-113500000D02*
X191500000Y-112000000D01*
%TO.N,Net-(Q5-S)*%
X178250000Y-137500000D02*
X178250000Y-136500000D01*
X192000000Y-139250000D02*
X190500000Y-140750000D01*
X187500000Y-145500000D02*
X183250000Y-145500000D01*
X177000000Y-137750000D02*
X177000000Y-136500000D01*
X177250000Y-138000000D02*
X177000000Y-137750000D01*
X182000000Y-139250000D02*
X180000000Y-139250000D01*
X192000000Y-138250000D02*
X192000000Y-139250000D01*
X180000000Y-139250000D02*
X178250000Y-137500000D01*
X190500000Y-140750000D02*
X180000000Y-140750000D01*
X183250000Y-145500000D02*
X175500000Y-137750000D01*
X175500000Y-137750000D02*
X175500000Y-136750000D01*
X192000000Y-137250000D02*
X192000000Y-138250000D01*
X180000000Y-140750000D02*
X177250000Y-138000000D01*
%TD*%
%TA.AperFunction,Conductor*%
%TO.N,MCU_GND*%
G36*
X76909007Y-75519685D02*
G01*
X76954762Y-75572489D01*
X76964706Y-75641647D01*
X76943543Y-75695123D01*
X76826400Y-75862420D01*
X76826399Y-75862422D01*
X76726570Y-76076507D01*
X76726567Y-76076513D01*
X76669364Y-76289999D01*
X76669364Y-76290000D01*
X77566988Y-76290000D01*
X77534075Y-76347007D01*
X77500000Y-76474174D01*
X77500000Y-76605826D01*
X77534075Y-76732993D01*
X77566988Y-76790000D01*
X76669364Y-76790000D01*
X76726567Y-77003486D01*
X76726570Y-77003492D01*
X76826399Y-77217578D01*
X76961894Y-77411082D01*
X77128917Y-77578105D01*
X77314595Y-77708119D01*
X77358219Y-77762696D01*
X77365412Y-77832195D01*
X77333890Y-77894549D01*
X77314595Y-77911269D01*
X77128594Y-78041508D01*
X76961505Y-78208597D01*
X76825965Y-78402169D01*
X76825964Y-78402171D01*
X76726098Y-78616335D01*
X76726094Y-78616344D01*
X76664938Y-78844586D01*
X76664936Y-78844596D01*
X76644341Y-79079999D01*
X76644341Y-79080000D01*
X76664936Y-79315403D01*
X76664938Y-79315413D01*
X76726094Y-79543655D01*
X76726096Y-79543659D01*
X76726097Y-79543663D01*
X76825965Y-79757830D01*
X76825967Y-79757834D01*
X76934281Y-79912521D01*
X76961505Y-79951401D01*
X77128599Y-80118495D01*
X77225384Y-80186265D01*
X77322165Y-80254032D01*
X77322167Y-80254033D01*
X77322170Y-80254035D01*
X77536337Y-80353903D01*
X77764592Y-80415063D01*
X77952918Y-80431539D01*
X77999999Y-80435659D01*
X78000000Y-80435659D01*
X78000001Y-80435659D01*
X78039234Y-80432226D01*
X78179012Y-80419997D01*
X84124723Y-80419997D01*
X84124723Y-80420002D01*
X84143793Y-80637975D01*
X84143793Y-80637979D01*
X84200422Y-80849322D01*
X84200424Y-80849326D01*
X84200425Y-80849330D01*
X84246661Y-80948484D01*
X84292897Y-81047638D01*
X84292898Y-81047639D01*
X84418402Y-81226877D01*
X84573123Y-81381598D01*
X84752360Y-81507101D01*
X84752361Y-81507102D01*
X84904175Y-81577894D01*
X84956614Y-81624066D01*
X84975766Y-81691260D01*
X84955550Y-81758141D01*
X84904175Y-81802658D01*
X84752614Y-81873332D01*
X84752612Y-81873333D01*
X84690428Y-81916875D01*
X84690427Y-81916875D01*
X85380000Y-82606446D01*
X85380001Y-82606446D01*
X86069571Y-81916874D01*
X86007387Y-81873333D01*
X85855824Y-81802658D01*
X85803385Y-81756486D01*
X85784233Y-81689292D01*
X85804449Y-81622411D01*
X85855822Y-81577895D01*
X86007639Y-81507102D01*
X86186877Y-81381598D01*
X86341598Y-81226877D01*
X86467102Y-81047639D01*
X86559575Y-80849330D01*
X86616207Y-80637977D01*
X86635277Y-80420000D01*
X86616207Y-80202023D01*
X86559575Y-79990670D01*
X86467102Y-79792362D01*
X86467100Y-79792359D01*
X86467099Y-79792357D01*
X86341599Y-79613124D01*
X86272130Y-79543655D01*
X86186877Y-79458402D01*
X86007639Y-79332898D01*
X86007640Y-79332898D01*
X86007638Y-79332897D01*
X85908484Y-79286661D01*
X85809330Y-79240425D01*
X85809326Y-79240424D01*
X85809322Y-79240422D01*
X85597977Y-79183793D01*
X85380002Y-79164723D01*
X85379998Y-79164723D01*
X85234682Y-79177436D01*
X85162023Y-79183793D01*
X85162020Y-79183793D01*
X84950677Y-79240422D01*
X84950668Y-79240426D01*
X84752361Y-79332898D01*
X84752357Y-79332900D01*
X84573121Y-79458402D01*
X84418402Y-79613121D01*
X84292900Y-79792357D01*
X84292898Y-79792361D01*
X84200426Y-79990668D01*
X84200422Y-79990677D01*
X84143793Y-80202020D01*
X84143793Y-80202024D01*
X84124723Y-80419997D01*
X78179012Y-80419997D01*
X78235408Y-80415063D01*
X78463663Y-80353903D01*
X78677830Y-80254035D01*
X78871401Y-80118495D01*
X79038495Y-79951401D01*
X79174035Y-79757830D01*
X79273903Y-79543663D01*
X79335063Y-79315408D01*
X79355659Y-79080000D01*
X79335063Y-78844592D01*
X79273903Y-78616337D01*
X79174035Y-78402171D01*
X79038495Y-78208599D01*
X79038494Y-78208597D01*
X78871402Y-78041506D01*
X78871401Y-78041505D01*
X78685405Y-77911269D01*
X78641781Y-77856692D01*
X78634588Y-77787193D01*
X78666110Y-77724839D01*
X78685405Y-77708119D01*
X78871082Y-77578105D01*
X79038105Y-77411082D01*
X79173600Y-77217578D01*
X79273429Y-77003492D01*
X79273432Y-77003486D01*
X79330636Y-76790000D01*
X78433012Y-76790000D01*
X78465925Y-76732993D01*
X78500000Y-76605826D01*
X78500000Y-76474174D01*
X78465925Y-76347007D01*
X78433012Y-76290000D01*
X79330636Y-76290000D01*
X79330635Y-76289999D01*
X79273432Y-76076513D01*
X79273429Y-76076507D01*
X79173600Y-75862422D01*
X79173599Y-75862420D01*
X79056457Y-75695123D01*
X79034130Y-75628917D01*
X79051140Y-75561150D01*
X79102088Y-75513337D01*
X79158032Y-75500000D01*
X88126000Y-75500000D01*
X88193039Y-75519685D01*
X88238794Y-75572489D01*
X88250000Y-75624000D01*
X88250000Y-109876000D01*
X88230315Y-109943039D01*
X88177511Y-109988794D01*
X88126000Y-110000000D01*
X85964579Y-110000000D01*
X85912175Y-109988382D01*
X85855823Y-109962105D01*
X85803384Y-109915932D01*
X85784233Y-109848738D01*
X85804449Y-109781857D01*
X85855825Y-109737340D01*
X86007388Y-109666666D01*
X86069571Y-109623124D01*
X85380001Y-108933553D01*
X85380000Y-108933553D01*
X84690427Y-109623124D01*
X84752613Y-109666667D01*
X84752615Y-109666668D01*
X84904174Y-109737341D01*
X84956614Y-109783513D01*
X84975766Y-109850706D01*
X84955551Y-109917588D01*
X84904177Y-109962104D01*
X84847829Y-109988381D01*
X84795422Y-110000000D01*
X76124000Y-110000000D01*
X76056961Y-109980315D01*
X76011206Y-109927511D01*
X76000000Y-109876000D01*
X76000000Y-108579999D01*
X84125225Y-108579999D01*
X84125225Y-108580000D01*
X84144287Y-108797884D01*
X84144289Y-108797894D01*
X84200894Y-109009150D01*
X84200898Y-109009159D01*
X84293333Y-109207387D01*
X84336874Y-109269571D01*
X85026446Y-108580000D01*
X85026446Y-108579999D01*
X84980369Y-108533922D01*
X85030000Y-108533922D01*
X85030000Y-108626078D01*
X85053852Y-108715095D01*
X85099930Y-108794905D01*
X85165095Y-108860070D01*
X85244905Y-108906148D01*
X85333922Y-108930000D01*
X85426078Y-108930000D01*
X85515095Y-108906148D01*
X85594905Y-108860070D01*
X85660070Y-108794905D01*
X85706148Y-108715095D01*
X85730000Y-108626078D01*
X85730000Y-108579999D01*
X85733553Y-108579999D01*
X85733553Y-108580000D01*
X86423124Y-109269570D01*
X86466668Y-109207385D01*
X86466669Y-109207383D01*
X86559100Y-109009164D01*
X86559105Y-109009150D01*
X86615710Y-108797894D01*
X86615712Y-108797884D01*
X86634775Y-108580000D01*
X86634775Y-108579999D01*
X86615712Y-108362115D01*
X86615710Y-108362105D01*
X86559105Y-108150849D01*
X86559101Y-108150840D01*
X86466668Y-107952615D01*
X86423123Y-107890428D01*
X85733553Y-108579999D01*
X85730000Y-108579999D01*
X85730000Y-108533922D01*
X85706148Y-108444905D01*
X85660070Y-108365095D01*
X85594905Y-108299930D01*
X85515095Y-108253852D01*
X85426078Y-108230000D01*
X85333922Y-108230000D01*
X85244905Y-108253852D01*
X85165095Y-108299930D01*
X85099930Y-108365095D01*
X85053852Y-108444905D01*
X85030000Y-108533922D01*
X84980369Y-108533922D01*
X84336875Y-107890427D01*
X84336875Y-107890428D01*
X84293333Y-107952612D01*
X84293332Y-107952614D01*
X84200898Y-108150840D01*
X84200894Y-108150849D01*
X84144289Y-108362105D01*
X84144287Y-108362115D01*
X84125225Y-108579999D01*
X76000000Y-108579999D01*
X76000000Y-107083124D01*
X84690427Y-107083124D01*
X84752612Y-107126667D01*
X84904767Y-107197618D01*
X84957206Y-107243790D01*
X84976358Y-107310984D01*
X84956142Y-107377865D01*
X84904767Y-107422382D01*
X84752614Y-107493332D01*
X84752612Y-107493333D01*
X84690428Y-107536875D01*
X84690427Y-107536875D01*
X85380000Y-108226446D01*
X85380001Y-108226446D01*
X86069571Y-107536874D01*
X86007387Y-107493333D01*
X85855232Y-107422382D01*
X85802793Y-107376210D01*
X85783641Y-107309016D01*
X85803857Y-107242135D01*
X85855233Y-107197618D01*
X86007383Y-107126669D01*
X86007385Y-107126668D01*
X86069571Y-107083124D01*
X85380001Y-106393553D01*
X85380000Y-106393553D01*
X84690427Y-107083124D01*
X76000000Y-107083124D01*
X76000000Y-106039999D01*
X84125225Y-106039999D01*
X84125225Y-106040000D01*
X84144287Y-106257884D01*
X84144289Y-106257894D01*
X84200894Y-106469150D01*
X84200898Y-106469159D01*
X84293333Y-106667387D01*
X84336874Y-106729571D01*
X85026446Y-106040000D01*
X85026446Y-106039999D01*
X84980369Y-105993922D01*
X85030000Y-105993922D01*
X85030000Y-106086078D01*
X85053852Y-106175095D01*
X85099930Y-106254905D01*
X85165095Y-106320070D01*
X85244905Y-106366148D01*
X85333922Y-106390000D01*
X85426078Y-106390000D01*
X85515095Y-106366148D01*
X85594905Y-106320070D01*
X85660070Y-106254905D01*
X85706148Y-106175095D01*
X85730000Y-106086078D01*
X85730000Y-106039999D01*
X85733553Y-106039999D01*
X85733553Y-106040000D01*
X86423124Y-106729570D01*
X86466668Y-106667385D01*
X86466669Y-106667383D01*
X86559100Y-106469164D01*
X86559105Y-106469150D01*
X86615710Y-106257894D01*
X86615712Y-106257884D01*
X86634775Y-106040000D01*
X86634775Y-106039999D01*
X86615712Y-105822115D01*
X86615710Y-105822105D01*
X86559105Y-105610849D01*
X86559101Y-105610840D01*
X86466668Y-105412615D01*
X86423123Y-105350428D01*
X85733553Y-106039999D01*
X85730000Y-106039999D01*
X85730000Y-105993922D01*
X85706148Y-105904905D01*
X85660070Y-105825095D01*
X85594905Y-105759930D01*
X85515095Y-105713852D01*
X85426078Y-105690000D01*
X85333922Y-105690000D01*
X85244905Y-105713852D01*
X85165095Y-105759930D01*
X85099930Y-105825095D01*
X85053852Y-105904905D01*
X85030000Y-105993922D01*
X84980369Y-105993922D01*
X84336875Y-105350427D01*
X84336875Y-105350428D01*
X84293333Y-105412612D01*
X84293332Y-105412614D01*
X84200898Y-105610840D01*
X84200894Y-105610849D01*
X84144289Y-105822105D01*
X84144287Y-105822115D01*
X84125225Y-106039999D01*
X76000000Y-106039999D01*
X76000000Y-103499997D01*
X84124723Y-103499997D01*
X84124723Y-103500002D01*
X84143793Y-103717975D01*
X84143793Y-103717979D01*
X84200422Y-103929322D01*
X84200424Y-103929326D01*
X84200425Y-103929330D01*
X84246661Y-104028484D01*
X84292897Y-104127638D01*
X84292898Y-104127639D01*
X84418402Y-104306877D01*
X84573123Y-104461598D01*
X84752360Y-104587101D01*
X84752361Y-104587102D01*
X84904175Y-104657894D01*
X84956614Y-104704066D01*
X84975766Y-104771260D01*
X84955550Y-104838141D01*
X84904175Y-104882658D01*
X84752614Y-104953332D01*
X84752612Y-104953333D01*
X84690428Y-104996875D01*
X84690427Y-104996875D01*
X85380000Y-105686446D01*
X85380001Y-105686446D01*
X86069571Y-104996874D01*
X86007387Y-104953333D01*
X85855824Y-104882658D01*
X85803385Y-104836486D01*
X85784233Y-104769292D01*
X85804449Y-104702411D01*
X85855822Y-104657895D01*
X86007639Y-104587102D01*
X86186877Y-104461598D01*
X86341598Y-104306877D01*
X86467102Y-104127639D01*
X86559575Y-103929330D01*
X86616207Y-103717977D01*
X86635277Y-103500000D01*
X86616207Y-103282023D01*
X86559575Y-103070670D01*
X86467102Y-102872362D01*
X86467100Y-102872359D01*
X86467099Y-102872357D01*
X86341599Y-102693124D01*
X86341596Y-102693121D01*
X86186877Y-102538402D01*
X86007639Y-102412898D01*
X86007640Y-102412898D01*
X86007638Y-102412897D01*
X85908484Y-102366661D01*
X85809330Y-102320425D01*
X85809326Y-102320424D01*
X85809322Y-102320422D01*
X85597977Y-102263793D01*
X85380002Y-102244723D01*
X85379998Y-102244723D01*
X85234682Y-102257436D01*
X85162023Y-102263793D01*
X85162020Y-102263793D01*
X84950677Y-102320422D01*
X84950668Y-102320426D01*
X84752361Y-102412898D01*
X84752357Y-102412900D01*
X84573121Y-102538402D01*
X84418402Y-102693121D01*
X84292900Y-102872357D01*
X84292898Y-102872361D01*
X84200426Y-103070668D01*
X84200422Y-103070677D01*
X84143793Y-103282020D01*
X84143793Y-103282024D01*
X84124723Y-103499997D01*
X76000000Y-103499997D01*
X76000000Y-91879999D01*
X76644341Y-91879999D01*
X76644341Y-91880000D01*
X76664936Y-92115403D01*
X76664938Y-92115413D01*
X76726094Y-92343655D01*
X76726096Y-92343659D01*
X76726097Y-92343663D01*
X76825965Y-92557830D01*
X76825967Y-92557834D01*
X76961501Y-92751395D01*
X76961506Y-92751402D01*
X77128597Y-92918493D01*
X77128603Y-92918498D01*
X77314158Y-93048425D01*
X77357783Y-93103002D01*
X77364977Y-93172500D01*
X77333454Y-93234855D01*
X77314158Y-93251575D01*
X77128597Y-93381505D01*
X76961505Y-93548597D01*
X76825965Y-93742169D01*
X76825964Y-93742171D01*
X76726098Y-93956335D01*
X76726094Y-93956344D01*
X76664938Y-94184586D01*
X76664936Y-94184596D01*
X76644341Y-94419999D01*
X76644341Y-94420000D01*
X76664936Y-94655403D01*
X76664938Y-94655413D01*
X76726094Y-94883655D01*
X76726096Y-94883659D01*
X76726097Y-94883663D01*
X76802441Y-95047383D01*
X76825965Y-95097830D01*
X76825967Y-95097834D01*
X76961501Y-95291395D01*
X76961506Y-95291402D01*
X77128597Y-95458493D01*
X77128603Y-95458498D01*
X77314158Y-95588425D01*
X77357783Y-95643002D01*
X77364977Y-95712500D01*
X77333454Y-95774855D01*
X77314158Y-95791575D01*
X77128597Y-95921505D01*
X76961505Y-96088597D01*
X76825965Y-96282169D01*
X76825964Y-96282171D01*
X76726098Y-96496335D01*
X76726094Y-96496344D01*
X76664938Y-96724586D01*
X76664936Y-96724596D01*
X76644341Y-96959999D01*
X76644341Y-96960000D01*
X76664936Y-97195403D01*
X76664938Y-97195413D01*
X76726094Y-97423655D01*
X76726096Y-97423659D01*
X76726097Y-97423663D01*
X76802441Y-97587383D01*
X76825965Y-97637830D01*
X76825967Y-97637834D01*
X76961501Y-97831395D01*
X76961506Y-97831402D01*
X77128597Y-97998493D01*
X77128603Y-97998498D01*
X77314158Y-98128425D01*
X77357783Y-98183002D01*
X77364977Y-98252500D01*
X77333454Y-98314855D01*
X77314158Y-98331575D01*
X77128597Y-98461505D01*
X76961505Y-98628597D01*
X76825965Y-98822169D01*
X76825964Y-98822171D01*
X76726098Y-99036335D01*
X76726094Y-99036344D01*
X76664938Y-99264586D01*
X76664936Y-99264596D01*
X76644341Y-99499999D01*
X76644341Y-99500000D01*
X76664936Y-99735403D01*
X76664938Y-99735413D01*
X76726094Y-99963655D01*
X76726096Y-99963659D01*
X76726097Y-99963663D01*
X76825965Y-100177830D01*
X76825967Y-100177834D01*
X76961501Y-100371395D01*
X76961506Y-100371402D01*
X77128597Y-100538493D01*
X77128603Y-100538498D01*
X77314158Y-100668425D01*
X77357783Y-100723002D01*
X77364977Y-100792500D01*
X77333454Y-100854855D01*
X77314158Y-100871575D01*
X77128597Y-101001505D01*
X76961505Y-101168597D01*
X76825965Y-101362169D01*
X76825964Y-101362171D01*
X76726098Y-101576335D01*
X76726094Y-101576344D01*
X76664938Y-101804586D01*
X76664936Y-101804596D01*
X76644341Y-102039999D01*
X76644341Y-102040000D01*
X76664936Y-102275403D01*
X76664938Y-102275413D01*
X76726094Y-102503655D01*
X76726096Y-102503659D01*
X76726097Y-102503663D01*
X76742297Y-102538403D01*
X76825965Y-102717830D01*
X76825967Y-102717834D01*
X76934166Y-102872357D01*
X76961505Y-102911401D01*
X77128599Y-103078495D01*
X77225384Y-103146265D01*
X77322165Y-103214032D01*
X77322167Y-103214033D01*
X77322170Y-103214035D01*
X77536337Y-103313903D01*
X77764592Y-103375063D01*
X77952918Y-103391539D01*
X77999999Y-103395659D01*
X78000000Y-103395659D01*
X78000001Y-103395659D01*
X78039234Y-103392226D01*
X78235408Y-103375063D01*
X78463663Y-103313903D01*
X78677830Y-103214035D01*
X78871401Y-103078495D01*
X79038495Y-102911401D01*
X79174035Y-102717830D01*
X79273903Y-102503663D01*
X79335063Y-102275408D01*
X79355659Y-102040000D01*
X79335063Y-101804592D01*
X79273903Y-101576337D01*
X79174035Y-101362171D01*
X79038495Y-101168599D01*
X79038494Y-101168597D01*
X78871402Y-101001506D01*
X78871396Y-101001501D01*
X78685842Y-100871575D01*
X78642217Y-100816998D01*
X78635023Y-100747500D01*
X78666546Y-100685145D01*
X78685842Y-100668425D01*
X78801983Y-100587102D01*
X78871401Y-100538495D01*
X79038495Y-100371401D01*
X79174035Y-100177830D01*
X79273903Y-99963663D01*
X79335063Y-99735408D01*
X79355659Y-99500000D01*
X79355659Y-99499997D01*
X84124723Y-99499997D01*
X84124723Y-99500002D01*
X84143793Y-99717975D01*
X84143793Y-99717979D01*
X84200422Y-99929322D01*
X84200424Y-99929326D01*
X84200425Y-99929330D01*
X84246661Y-100028484D01*
X84292897Y-100127638D01*
X84292898Y-100127639D01*
X84418402Y-100306877D01*
X84573123Y-100461598D01*
X84752361Y-100587102D01*
X84950670Y-100679575D01*
X85162023Y-100736207D01*
X85344926Y-100752208D01*
X85379998Y-100755277D01*
X85380000Y-100755277D01*
X85380002Y-100755277D01*
X85408254Y-100752805D01*
X85597977Y-100736207D01*
X85809330Y-100679575D01*
X86007639Y-100587102D01*
X86186877Y-100461598D01*
X86341598Y-100306877D01*
X86467102Y-100127639D01*
X86559575Y-99929330D01*
X86616207Y-99717977D01*
X86635277Y-99500000D01*
X86616207Y-99282023D01*
X86559575Y-99070670D01*
X86467102Y-98872362D01*
X86467100Y-98872359D01*
X86467099Y-98872357D01*
X86341599Y-98693124D01*
X86277072Y-98628597D01*
X86186877Y-98538402D01*
X86007639Y-98412898D01*
X86007640Y-98412898D01*
X86007638Y-98412897D01*
X85855824Y-98342105D01*
X85803385Y-98295932D01*
X85784233Y-98228739D01*
X85804449Y-98161858D01*
X85855825Y-98117340D01*
X86007388Y-98046666D01*
X86069571Y-98003124D01*
X85380001Y-97313553D01*
X85380000Y-97313553D01*
X84690427Y-98003124D01*
X84752613Y-98046667D01*
X84752615Y-98046668D01*
X84904174Y-98117341D01*
X84956614Y-98163513D01*
X84975766Y-98230706D01*
X84955551Y-98297588D01*
X84904176Y-98342105D01*
X84752358Y-98412900D01*
X84752357Y-98412900D01*
X84573121Y-98538402D01*
X84418402Y-98693121D01*
X84292900Y-98872357D01*
X84292898Y-98872361D01*
X84200426Y-99070668D01*
X84200422Y-99070677D01*
X84143793Y-99282020D01*
X84143793Y-99282024D01*
X84124723Y-99499997D01*
X79355659Y-99499997D01*
X79335063Y-99264592D01*
X79273903Y-99036337D01*
X79174035Y-98822171D01*
X79038495Y-98628599D01*
X79038494Y-98628597D01*
X78871402Y-98461506D01*
X78871396Y-98461501D01*
X78685842Y-98331575D01*
X78642217Y-98276998D01*
X78635023Y-98207500D01*
X78666546Y-98145145D01*
X78685842Y-98128425D01*
X78708026Y-98112891D01*
X78871401Y-97998495D01*
X79038495Y-97831401D01*
X79174035Y-97637830D01*
X79273903Y-97423663D01*
X79335063Y-97195408D01*
X79355659Y-96960000D01*
X79355659Y-96959999D01*
X84125225Y-96959999D01*
X84125225Y-96960000D01*
X84144287Y-97177884D01*
X84144289Y-97177894D01*
X84200894Y-97389150D01*
X84200898Y-97389159D01*
X84293333Y-97587387D01*
X84336874Y-97649571D01*
X85026446Y-96960000D01*
X85026446Y-96959999D01*
X84980369Y-96913922D01*
X85030000Y-96913922D01*
X85030000Y-97006078D01*
X85053852Y-97095095D01*
X85099930Y-97174905D01*
X85165095Y-97240070D01*
X85244905Y-97286148D01*
X85333922Y-97310000D01*
X85426078Y-97310000D01*
X85515095Y-97286148D01*
X85594905Y-97240070D01*
X85660070Y-97174905D01*
X85706148Y-97095095D01*
X85730000Y-97006078D01*
X85730000Y-96959999D01*
X85733553Y-96959999D01*
X85733553Y-96960000D01*
X86423124Y-97649570D01*
X86466668Y-97587385D01*
X86466669Y-97587383D01*
X86559100Y-97389164D01*
X86559105Y-97389150D01*
X86615710Y-97177894D01*
X86615712Y-97177884D01*
X86634775Y-96960000D01*
X86634775Y-96959999D01*
X86615712Y-96742115D01*
X86615710Y-96742105D01*
X86559105Y-96530849D01*
X86559101Y-96530840D01*
X86466668Y-96332615D01*
X86423123Y-96270428D01*
X85733553Y-96959999D01*
X85730000Y-96959999D01*
X85730000Y-96913922D01*
X85706148Y-96824905D01*
X85660070Y-96745095D01*
X85594905Y-96679930D01*
X85515095Y-96633852D01*
X85426078Y-96610000D01*
X85333922Y-96610000D01*
X85244905Y-96633852D01*
X85165095Y-96679930D01*
X85099930Y-96745095D01*
X85053852Y-96824905D01*
X85030000Y-96913922D01*
X84980369Y-96913922D01*
X84336875Y-96270427D01*
X84336875Y-96270428D01*
X84293333Y-96332612D01*
X84293332Y-96332614D01*
X84200898Y-96530840D01*
X84200894Y-96530849D01*
X84144289Y-96742105D01*
X84144287Y-96742115D01*
X84125225Y-96959999D01*
X79355659Y-96959999D01*
X79335063Y-96724592D01*
X79273903Y-96496337D01*
X79174035Y-96282171D01*
X79165813Y-96270428D01*
X79038494Y-96088597D01*
X78871402Y-95921506D01*
X78871396Y-95921501D01*
X78685842Y-95791575D01*
X78642217Y-95736998D01*
X78635023Y-95667500D01*
X78666546Y-95605145D01*
X78685842Y-95588425D01*
X78802601Y-95506669D01*
X78864790Y-95463124D01*
X84690427Y-95463124D01*
X84752612Y-95506667D01*
X84904767Y-95577618D01*
X84957206Y-95623790D01*
X84976358Y-95690984D01*
X84956142Y-95757865D01*
X84904767Y-95802382D01*
X84752614Y-95873332D01*
X84752612Y-95873333D01*
X84690428Y-95916875D01*
X84690427Y-95916875D01*
X85380000Y-96606446D01*
X85380001Y-96606446D01*
X86069571Y-95916874D01*
X86007387Y-95873333D01*
X85855232Y-95802382D01*
X85802793Y-95756210D01*
X85783641Y-95689016D01*
X85803857Y-95622135D01*
X85855233Y-95577618D01*
X86007383Y-95506669D01*
X86007385Y-95506668D01*
X86069571Y-95463124D01*
X85380001Y-94773553D01*
X85380000Y-94773553D01*
X84690427Y-95463124D01*
X78864790Y-95463124D01*
X78871401Y-95458495D01*
X79038495Y-95291401D01*
X79174035Y-95097830D01*
X79273903Y-94883663D01*
X79335063Y-94655408D01*
X79355659Y-94420000D01*
X79355659Y-94419999D01*
X84125225Y-94419999D01*
X84125225Y-94420000D01*
X84144287Y-94637884D01*
X84144289Y-94637894D01*
X84200894Y-94849150D01*
X84200898Y-94849159D01*
X84293333Y-95047387D01*
X84336874Y-95109571D01*
X85026446Y-94420000D01*
X85026446Y-94419999D01*
X84980369Y-94373922D01*
X85030000Y-94373922D01*
X85030000Y-94466078D01*
X85053852Y-94555095D01*
X85099930Y-94634905D01*
X85165095Y-94700070D01*
X85244905Y-94746148D01*
X85333922Y-94770000D01*
X85426078Y-94770000D01*
X85515095Y-94746148D01*
X85594905Y-94700070D01*
X85660070Y-94634905D01*
X85706148Y-94555095D01*
X85730000Y-94466078D01*
X85730000Y-94419999D01*
X85733553Y-94419999D01*
X85733553Y-94420000D01*
X86423124Y-95109570D01*
X86466668Y-95047385D01*
X86466669Y-95047383D01*
X86559100Y-94849164D01*
X86559105Y-94849150D01*
X86615710Y-94637894D01*
X86615712Y-94637884D01*
X86634775Y-94420000D01*
X86634775Y-94419999D01*
X86615712Y-94202115D01*
X86615710Y-94202105D01*
X86559105Y-93990849D01*
X86559101Y-93990840D01*
X86466668Y-93792615D01*
X86423123Y-93730428D01*
X85733553Y-94419999D01*
X85730000Y-94419999D01*
X85730000Y-94373922D01*
X85706148Y-94284905D01*
X85660070Y-94205095D01*
X85594905Y-94139930D01*
X85515095Y-94093852D01*
X85426078Y-94070000D01*
X85333922Y-94070000D01*
X85244905Y-94093852D01*
X85165095Y-94139930D01*
X85099930Y-94205095D01*
X85053852Y-94284905D01*
X85030000Y-94373922D01*
X84980369Y-94373922D01*
X84336875Y-93730427D01*
X84336875Y-93730428D01*
X84293333Y-93792612D01*
X84293332Y-93792614D01*
X84200898Y-93990840D01*
X84200894Y-93990849D01*
X84144289Y-94202105D01*
X84144287Y-94202115D01*
X84125225Y-94419999D01*
X79355659Y-94419999D01*
X79335063Y-94184592D01*
X79273903Y-93956337D01*
X79174035Y-93742171D01*
X79165813Y-93730428D01*
X79038494Y-93548597D01*
X78871402Y-93381506D01*
X78871396Y-93381501D01*
X78685842Y-93251575D01*
X78642217Y-93196998D01*
X78635023Y-93127500D01*
X78666546Y-93065145D01*
X78685842Y-93048425D01*
X78801983Y-92967102D01*
X78871401Y-92918495D01*
X79038495Y-92751401D01*
X79174035Y-92557830D01*
X79273903Y-92343663D01*
X79335063Y-92115408D01*
X79355659Y-91880000D01*
X79355659Y-91879997D01*
X84124723Y-91879997D01*
X84124723Y-91880002D01*
X84143793Y-92097975D01*
X84143793Y-92097979D01*
X84200422Y-92309322D01*
X84200424Y-92309326D01*
X84200425Y-92309330D01*
X84246661Y-92408484D01*
X84292897Y-92507638D01*
X84292898Y-92507639D01*
X84418402Y-92686877D01*
X84573123Y-92841598D01*
X84752360Y-92967101D01*
X84752361Y-92967102D01*
X84904175Y-93037894D01*
X84956614Y-93084066D01*
X84975766Y-93151260D01*
X84955550Y-93218141D01*
X84904175Y-93262658D01*
X84752614Y-93333332D01*
X84752612Y-93333333D01*
X84690428Y-93376875D01*
X84690427Y-93376875D01*
X85380000Y-94066446D01*
X85380001Y-94066446D01*
X86069571Y-93376874D01*
X86007387Y-93333333D01*
X85855824Y-93262658D01*
X85803385Y-93216486D01*
X85784233Y-93149292D01*
X85804449Y-93082411D01*
X85855822Y-93037895D01*
X86007639Y-92967102D01*
X86186877Y-92841598D01*
X86341598Y-92686877D01*
X86467102Y-92507639D01*
X86559575Y-92309330D01*
X86616207Y-92097977D01*
X86635277Y-91880000D01*
X86616207Y-91662023D01*
X86559575Y-91450670D01*
X86467102Y-91252362D01*
X86467100Y-91252359D01*
X86467099Y-91252357D01*
X86341599Y-91073124D01*
X86277074Y-91008599D01*
X86186877Y-90918402D01*
X86007639Y-90792898D01*
X86007640Y-90792898D01*
X86007638Y-90792897D01*
X85861347Y-90724681D01*
X85809330Y-90700425D01*
X85809326Y-90700424D01*
X85809322Y-90700422D01*
X85597977Y-90643793D01*
X85380002Y-90624723D01*
X85379998Y-90624723D01*
X85234682Y-90637436D01*
X85162023Y-90643793D01*
X85162020Y-90643793D01*
X84950677Y-90700422D01*
X84950670Y-90700424D01*
X84950670Y-90700425D01*
X84925631Y-90712100D01*
X84752361Y-90792898D01*
X84752357Y-90792900D01*
X84573121Y-90918402D01*
X84418402Y-91073121D01*
X84292900Y-91252357D01*
X84292898Y-91252361D01*
X84200426Y-91450668D01*
X84200422Y-91450677D01*
X84143793Y-91662020D01*
X84143793Y-91662024D01*
X84124723Y-91879997D01*
X79355659Y-91879997D01*
X79335063Y-91644592D01*
X79273903Y-91416337D01*
X79174035Y-91202171D01*
X79038495Y-91008599D01*
X78916567Y-90886671D01*
X78883084Y-90825351D01*
X78888068Y-90755659D01*
X78929939Y-90699725D01*
X78960915Y-90682810D01*
X79092331Y-90633796D01*
X79207546Y-90547546D01*
X79293796Y-90432331D01*
X79344091Y-90297483D01*
X79350500Y-90237873D01*
X79350499Y-88442128D01*
X79344091Y-88382517D01*
X79297641Y-88257979D01*
X79293797Y-88247671D01*
X79293793Y-88247664D01*
X79207547Y-88132455D01*
X79207544Y-88132452D01*
X79092335Y-88046206D01*
X79092328Y-88046202D01*
X79075691Y-88039997D01*
X84124723Y-88039997D01*
X84124723Y-88040002D01*
X84125266Y-88046204D01*
X84142891Y-88247671D01*
X84143793Y-88257975D01*
X84143793Y-88257979D01*
X84200422Y-88469322D01*
X84200424Y-88469326D01*
X84200425Y-88469330D01*
X84246661Y-88568484D01*
X84292897Y-88667638D01*
X84292898Y-88667639D01*
X84418402Y-88846877D01*
X84573123Y-89001598D01*
X84752361Y-89127102D01*
X84950670Y-89219575D01*
X85162023Y-89276207D01*
X85344926Y-89292208D01*
X85379998Y-89295277D01*
X85380000Y-89295277D01*
X85380002Y-89295277D01*
X85408254Y-89292805D01*
X85597977Y-89276207D01*
X85809330Y-89219575D01*
X86007639Y-89127102D01*
X86186877Y-89001598D01*
X86341598Y-88846877D01*
X86467102Y-88667639D01*
X86559575Y-88469330D01*
X86616207Y-88257977D01*
X86634734Y-88046204D01*
X86635277Y-88040002D01*
X86635277Y-88039997D01*
X86630859Y-87989500D01*
X86616207Y-87822023D01*
X86559575Y-87610670D01*
X86467102Y-87412362D01*
X86467100Y-87412359D01*
X86467099Y-87412357D01*
X86341599Y-87233124D01*
X86341596Y-87233121D01*
X86186877Y-87078402D01*
X86007639Y-86952898D01*
X86007640Y-86952898D01*
X86007638Y-86952897D01*
X85855824Y-86882105D01*
X85803385Y-86835932D01*
X85784233Y-86768739D01*
X85804449Y-86701858D01*
X85855825Y-86657340D01*
X86007388Y-86586666D01*
X86069571Y-86543124D01*
X85380001Y-85853553D01*
X85380000Y-85853553D01*
X84690427Y-86543124D01*
X84752613Y-86586667D01*
X84752615Y-86586668D01*
X84904174Y-86657341D01*
X84956614Y-86703513D01*
X84975766Y-86770706D01*
X84955551Y-86837588D01*
X84904176Y-86882105D01*
X84752358Y-86952900D01*
X84752357Y-86952900D01*
X84573121Y-87078402D01*
X84418402Y-87233121D01*
X84292900Y-87412357D01*
X84292898Y-87412361D01*
X84200426Y-87610668D01*
X84200422Y-87610677D01*
X84143793Y-87822020D01*
X84143793Y-87822024D01*
X84124723Y-88039997D01*
X79075691Y-88039997D01*
X78957482Y-87995908D01*
X78957483Y-87995908D01*
X78897883Y-87989501D01*
X78897881Y-87989500D01*
X78897873Y-87989500D01*
X78897864Y-87989500D01*
X77102129Y-87989500D01*
X77102123Y-87989501D01*
X77042516Y-87995908D01*
X76907671Y-88046202D01*
X76907664Y-88046206D01*
X76792455Y-88132452D01*
X76792452Y-88132455D01*
X76706206Y-88247664D01*
X76706202Y-88247671D01*
X76655908Y-88382517D01*
X76649501Y-88442116D01*
X76649501Y-88442123D01*
X76649500Y-88442135D01*
X76649500Y-90237870D01*
X76649501Y-90237876D01*
X76655908Y-90297483D01*
X76706202Y-90432328D01*
X76706206Y-90432335D01*
X76792452Y-90547544D01*
X76792455Y-90547547D01*
X76907664Y-90633793D01*
X76907671Y-90633797D01*
X77039081Y-90682810D01*
X77095015Y-90724681D01*
X77119432Y-90790145D01*
X77104580Y-90858418D01*
X77083430Y-90886673D01*
X76961503Y-91008600D01*
X76825965Y-91202169D01*
X76825964Y-91202171D01*
X76726098Y-91416335D01*
X76726094Y-91416344D01*
X76664938Y-91644586D01*
X76664936Y-91644596D01*
X76644341Y-91879999D01*
X76000000Y-91879999D01*
X76000000Y-85499999D01*
X84125225Y-85499999D01*
X84125225Y-85500000D01*
X84144287Y-85717884D01*
X84144289Y-85717894D01*
X84200894Y-85929150D01*
X84200898Y-85929159D01*
X84293333Y-86127387D01*
X84336874Y-86189571D01*
X85026446Y-85500000D01*
X85026446Y-85499999D01*
X84980369Y-85453922D01*
X85030000Y-85453922D01*
X85030000Y-85546078D01*
X85053852Y-85635095D01*
X85099930Y-85714905D01*
X85165095Y-85780070D01*
X85244905Y-85826148D01*
X85333922Y-85850000D01*
X85426078Y-85850000D01*
X85515095Y-85826148D01*
X85594905Y-85780070D01*
X85660070Y-85714905D01*
X85706148Y-85635095D01*
X85730000Y-85546078D01*
X85730000Y-85499999D01*
X85733553Y-85499999D01*
X85733553Y-85500000D01*
X86423124Y-86189570D01*
X86466668Y-86127385D01*
X86466669Y-86127383D01*
X86559100Y-85929164D01*
X86559105Y-85929150D01*
X86615710Y-85717894D01*
X86615712Y-85717884D01*
X86634775Y-85500000D01*
X86634775Y-85499999D01*
X86615712Y-85282115D01*
X86615710Y-85282105D01*
X86559105Y-85070849D01*
X86559101Y-85070840D01*
X86466668Y-84872615D01*
X86423123Y-84810428D01*
X85733553Y-85499999D01*
X85730000Y-85499999D01*
X85730000Y-85453922D01*
X85706148Y-85364905D01*
X85660070Y-85285095D01*
X85594905Y-85219930D01*
X85515095Y-85173852D01*
X85426078Y-85150000D01*
X85333922Y-85150000D01*
X85244905Y-85173852D01*
X85165095Y-85219930D01*
X85099930Y-85285095D01*
X85053852Y-85364905D01*
X85030000Y-85453922D01*
X84980369Y-85453922D01*
X84336875Y-84810427D01*
X84336875Y-84810428D01*
X84293333Y-84872612D01*
X84293332Y-84872614D01*
X84200898Y-85070840D01*
X84200894Y-85070849D01*
X84144289Y-85282105D01*
X84144287Y-85282115D01*
X84125225Y-85499999D01*
X76000000Y-85499999D01*
X76000000Y-84003124D01*
X84690427Y-84003124D01*
X84752612Y-84046667D01*
X84904767Y-84117618D01*
X84957206Y-84163790D01*
X84976358Y-84230984D01*
X84956142Y-84297865D01*
X84904767Y-84342382D01*
X84752614Y-84413332D01*
X84752612Y-84413333D01*
X84690428Y-84456875D01*
X84690427Y-84456875D01*
X85380000Y-85146446D01*
X85380001Y-85146446D01*
X86069571Y-84456874D01*
X86007387Y-84413333D01*
X85855232Y-84342382D01*
X85802793Y-84296210D01*
X85783641Y-84229016D01*
X85803857Y-84162135D01*
X85855233Y-84117618D01*
X86007383Y-84046669D01*
X86007385Y-84046668D01*
X86069571Y-84003124D01*
X85380001Y-83313553D01*
X85380000Y-83313553D01*
X84690427Y-84003124D01*
X76000000Y-84003124D01*
X76000000Y-82959999D01*
X84125225Y-82959999D01*
X84125225Y-82960000D01*
X84144287Y-83177884D01*
X84144289Y-83177894D01*
X84200894Y-83389150D01*
X84200898Y-83389159D01*
X84293333Y-83587387D01*
X84336874Y-83649571D01*
X85026446Y-82960000D01*
X85026446Y-82959999D01*
X84980369Y-82913922D01*
X85030000Y-82913922D01*
X85030000Y-83006078D01*
X85053852Y-83095095D01*
X85099930Y-83174905D01*
X85165095Y-83240070D01*
X85244905Y-83286148D01*
X85333922Y-83310000D01*
X85426078Y-83310000D01*
X85515095Y-83286148D01*
X85594905Y-83240070D01*
X85660070Y-83174905D01*
X85706148Y-83095095D01*
X85730000Y-83006078D01*
X85730000Y-82959999D01*
X85733553Y-82959999D01*
X85733553Y-82960000D01*
X86423124Y-83649570D01*
X86466668Y-83587385D01*
X86466669Y-83587383D01*
X86559100Y-83389164D01*
X86559105Y-83389150D01*
X86615710Y-83177894D01*
X86615712Y-83177884D01*
X86634775Y-82960000D01*
X86634775Y-82959999D01*
X86615712Y-82742115D01*
X86615710Y-82742105D01*
X86559105Y-82530849D01*
X86559101Y-82530840D01*
X86466668Y-82332615D01*
X86423123Y-82270428D01*
X85733553Y-82959999D01*
X85730000Y-82959999D01*
X85730000Y-82913922D01*
X85706148Y-82824905D01*
X85660070Y-82745095D01*
X85594905Y-82679930D01*
X85515095Y-82633852D01*
X85426078Y-82610000D01*
X85333922Y-82610000D01*
X85244905Y-82633852D01*
X85165095Y-82679930D01*
X85099930Y-82745095D01*
X85053852Y-82824905D01*
X85030000Y-82913922D01*
X84980369Y-82913922D01*
X84336875Y-82270427D01*
X84336875Y-82270428D01*
X84293333Y-82332612D01*
X84293332Y-82332614D01*
X84200898Y-82530840D01*
X84200894Y-82530849D01*
X84144289Y-82742105D01*
X84144287Y-82742115D01*
X84125225Y-82959999D01*
X76000000Y-82959999D01*
X76000000Y-75624000D01*
X76019685Y-75556961D01*
X76072489Y-75511206D01*
X76124000Y-75500000D01*
X76841968Y-75500000D01*
X76909007Y-75519685D01*
G37*
%TD.AperFunction*%
%TD*%
%TA.AperFunction,Conductor*%
%TO.N,Net-(Q1-S)*%
G36*
X170272145Y-60269685D02*
G01*
X170284489Y-60278741D01*
X173076599Y-62605499D01*
X176250000Y-65250000D01*
X196876000Y-65250000D01*
X196943039Y-65269685D01*
X196988794Y-65322489D01*
X197000000Y-65374000D01*
X197000000Y-72374701D01*
X196980315Y-72441740D01*
X196927511Y-72487495D01*
X196874708Y-72498694D01*
X179553111Y-72318260D01*
X179486281Y-72297878D01*
X179447015Y-72256266D01*
X179444489Y-72251891D01*
X179441859Y-72247335D01*
X179418434Y-72221319D01*
X179322235Y-72114478D01*
X179322232Y-72114476D01*
X179322231Y-72114475D01*
X179322230Y-72114474D01*
X179177593Y-72009388D01*
X179014267Y-71936671D01*
X179014265Y-71936670D01*
X178886594Y-71909533D01*
X178839391Y-71899500D01*
X178660609Y-71899500D01*
X178629954Y-71906015D01*
X178485733Y-71936670D01*
X178485728Y-71936672D01*
X178322408Y-72009387D01*
X178177768Y-72114475D01*
X178058139Y-72247337D01*
X178055838Y-72250504D01*
X178054038Y-72251891D01*
X178053793Y-72252164D01*
X178053743Y-72252119D01*
X178000505Y-72293167D01*
X177954232Y-72301606D01*
X173044523Y-72250463D01*
X172977693Y-72230081D01*
X172965942Y-72221319D01*
X168250000Y-68250000D01*
X161500000Y-68250000D01*
X161499999Y-68250000D01*
X158144068Y-71286319D01*
X157031237Y-72293167D01*
X156285424Y-72967950D01*
X156222505Y-72998331D01*
X156202231Y-73000000D01*
X130301362Y-73000000D01*
X130234323Y-72980315D01*
X130213681Y-72963681D01*
X128536319Y-71286319D01*
X128502834Y-71224996D01*
X128500000Y-71198638D01*
X128500000Y-66118146D01*
X156749500Y-66118146D01*
X156749500Y-66346853D01*
X156785278Y-66572746D01*
X156785278Y-66572749D01*
X156855950Y-66790255D01*
X156855952Y-66790258D01*
X156959783Y-66994038D01*
X157094214Y-67179066D01*
X157255934Y-67340786D01*
X157440962Y-67475217D01*
X157644742Y-67579048D01*
X157644744Y-67579049D01*
X157862251Y-67649721D01*
X157862252Y-67649721D01*
X157862255Y-67649722D01*
X158088146Y-67685500D01*
X158088147Y-67685500D01*
X158411853Y-67685500D01*
X158411854Y-67685500D01*
X158637745Y-67649722D01*
X158637748Y-67649721D01*
X158637749Y-67649721D01*
X158855255Y-67579049D01*
X158855255Y-67579048D01*
X158855258Y-67579048D01*
X159059038Y-67475217D01*
X159244066Y-67340786D01*
X159405786Y-67179066D01*
X159540217Y-66994038D01*
X159644048Y-66790258D01*
X159714722Y-66572745D01*
X159750500Y-66346854D01*
X159750500Y-66118146D01*
X159714722Y-65892255D01*
X159714721Y-65892251D01*
X159714721Y-65892250D01*
X159644049Y-65674744D01*
X159540216Y-65470961D01*
X159405786Y-65285934D01*
X159244066Y-65124214D01*
X159059038Y-64989783D01*
X158855255Y-64885950D01*
X158637748Y-64815278D01*
X158468326Y-64788444D01*
X158411854Y-64779500D01*
X158088146Y-64779500D01*
X158012849Y-64791426D01*
X157862253Y-64815278D01*
X157862250Y-64815278D01*
X157644744Y-64885950D01*
X157440961Y-64989783D01*
X157392191Y-65025217D01*
X157255934Y-65124214D01*
X157255932Y-65124216D01*
X157255931Y-65124216D01*
X157094216Y-65285931D01*
X157094216Y-65285932D01*
X157094214Y-65285934D01*
X157078937Y-65306961D01*
X156959783Y-65470961D01*
X156855950Y-65674744D01*
X156785278Y-65892250D01*
X156785278Y-65892253D01*
X156749500Y-66118146D01*
X128500000Y-66118146D01*
X128500000Y-65374000D01*
X128519685Y-65306961D01*
X128572489Y-65261206D01*
X128624000Y-65250000D01*
X152000000Y-65250000D01*
X156539986Y-60926203D01*
X156602104Y-60894225D01*
X156671654Y-60900907D01*
X156726549Y-60944130D01*
X156749363Y-61010170D01*
X156749500Y-61015998D01*
X156749500Y-62152870D01*
X156749501Y-62152876D01*
X156755908Y-62212483D01*
X156806202Y-62347328D01*
X156806206Y-62347335D01*
X156892452Y-62462544D01*
X156892455Y-62462547D01*
X157007664Y-62548793D01*
X157007671Y-62548797D01*
X157142517Y-62599091D01*
X157142516Y-62599091D01*
X157149444Y-62599835D01*
X157202127Y-62605500D01*
X159297872Y-62605499D01*
X159357483Y-62599091D01*
X159492331Y-62548796D01*
X159607546Y-62462546D01*
X159693796Y-62347331D01*
X159744091Y-62212483D01*
X159750500Y-62152873D01*
X159750499Y-60373999D01*
X159770184Y-60306961D01*
X159822987Y-60261206D01*
X159874499Y-60250000D01*
X170205106Y-60250000D01*
X170272145Y-60269685D01*
G37*
%TD.AperFunction*%
%TD*%
%TA.AperFunction,Conductor*%
%TO.N,Net-(Q3-S)*%
G36*
X149692785Y-96019685D02*
G01*
X149738540Y-96072489D01*
X149747862Y-96102468D01*
X149807928Y-96443127D01*
X149807930Y-96443134D01*
X149908174Y-96777972D01*
X150046607Y-97098895D01*
X150046613Y-97098908D01*
X150221370Y-97401597D01*
X150430084Y-97681949D01*
X150430089Y-97681955D01*
X150553963Y-97813253D01*
X150669942Y-97936183D01*
X150846403Y-98084251D01*
X150937686Y-98160847D01*
X150937694Y-98160853D01*
X151229703Y-98352911D01*
X151229707Y-98352913D01*
X151542049Y-98509777D01*
X151870489Y-98629319D01*
X152210586Y-98709923D01*
X152557741Y-98750500D01*
X152557748Y-98750500D01*
X152907252Y-98750500D01*
X152907259Y-98750500D01*
X153254414Y-98709923D01*
X153594511Y-98629319D01*
X153922951Y-98509777D01*
X154235293Y-98352913D01*
X154527311Y-98160849D01*
X154795058Y-97936183D01*
X155034912Y-97681953D01*
X155243630Y-97401596D01*
X155418389Y-97098904D01*
X155556826Y-96777971D01*
X155657069Y-96443136D01*
X155717138Y-96102468D01*
X155748164Y-96039865D01*
X155808111Y-96003974D01*
X155839254Y-96000000D01*
X161225746Y-96000000D01*
X161292785Y-96019685D01*
X161338540Y-96072489D01*
X161347862Y-96102468D01*
X161407928Y-96443127D01*
X161407930Y-96443134D01*
X161508174Y-96777972D01*
X161646607Y-97098895D01*
X161646613Y-97098908D01*
X161821370Y-97401597D01*
X162030084Y-97681949D01*
X162030089Y-97681955D01*
X162153963Y-97813253D01*
X162269942Y-97936183D01*
X162446403Y-98084251D01*
X162537686Y-98160847D01*
X162537694Y-98160853D01*
X162829703Y-98352911D01*
X162829707Y-98352913D01*
X163142049Y-98509777D01*
X163470489Y-98629319D01*
X163810586Y-98709923D01*
X164157741Y-98750500D01*
X164157748Y-98750500D01*
X164507252Y-98750500D01*
X164507259Y-98750500D01*
X164854414Y-98709923D01*
X165194511Y-98629319D01*
X165522951Y-98509777D01*
X165835293Y-98352913D01*
X166127311Y-98160849D01*
X166395058Y-97936183D01*
X166634912Y-97681953D01*
X166843630Y-97401596D01*
X167018389Y-97098904D01*
X167156826Y-96777971D01*
X167257069Y-96443136D01*
X167317138Y-96102468D01*
X167348164Y-96039865D01*
X167408111Y-96003974D01*
X167439254Y-96000000D01*
X169511678Y-96000000D01*
X169556472Y-96008373D01*
X169563785Y-96011206D01*
X169697544Y-96063024D01*
X169898024Y-96100500D01*
X169898026Y-96100500D01*
X170101974Y-96100500D01*
X170101976Y-96100500D01*
X170302456Y-96063024D01*
X170436215Y-96011206D01*
X170443528Y-96008373D01*
X170488322Y-96000000D01*
X174511678Y-96000000D01*
X174556472Y-96008373D01*
X174563785Y-96011206D01*
X174697544Y-96063024D01*
X174898024Y-96100500D01*
X174898026Y-96100500D01*
X175101974Y-96100500D01*
X175101976Y-96100500D01*
X175302456Y-96063024D01*
X175436215Y-96011206D01*
X175443528Y-96008373D01*
X175488322Y-96000000D01*
X176451517Y-96000000D01*
X176518556Y-96019685D01*
X176535624Y-96032884D01*
X176608875Y-96100500D01*
X179207437Y-98499173D01*
X179243346Y-98559108D01*
X179241151Y-98628943D01*
X179201549Y-98686506D01*
X179161648Y-98708219D01*
X179014744Y-98755950D01*
X178810961Y-98859783D01*
X178745050Y-98907671D01*
X178625934Y-98994214D01*
X178625932Y-98994216D01*
X178625931Y-98994216D01*
X178464216Y-99155931D01*
X178464216Y-99155932D01*
X178464214Y-99155934D01*
X178406480Y-99235396D01*
X178329783Y-99340961D01*
X178225950Y-99544744D01*
X178155278Y-99762250D01*
X178155278Y-99762253D01*
X178119500Y-99988146D01*
X178119500Y-100311853D01*
X178155278Y-100537746D01*
X178155278Y-100537749D01*
X178225950Y-100755255D01*
X178225952Y-100755258D01*
X178329783Y-100959038D01*
X178464214Y-101144066D01*
X178625934Y-101305786D01*
X178810962Y-101440217D01*
X178943099Y-101507544D01*
X179014744Y-101544049D01*
X179232251Y-101614721D01*
X179232252Y-101614721D01*
X179232255Y-101614722D01*
X179458146Y-101650500D01*
X179458147Y-101650500D01*
X179626000Y-101650500D01*
X179693039Y-101670185D01*
X179738794Y-101722989D01*
X179750000Y-101774500D01*
X179750000Y-128126000D01*
X179730315Y-128193039D01*
X179677511Y-128238794D01*
X179626000Y-128250000D01*
X172124000Y-128250000D01*
X172056961Y-128230315D01*
X172011206Y-128177511D01*
X172000000Y-128126000D01*
X172000000Y-106250000D01*
X170750000Y-105000000D01*
X141624000Y-105000000D01*
X141556961Y-104980315D01*
X141511206Y-104927511D01*
X141500000Y-104876000D01*
X141500000Y-99102135D01*
X173039500Y-99102135D01*
X173039500Y-101197870D01*
X173039501Y-101197876D01*
X173045908Y-101257483D01*
X173096202Y-101392328D01*
X173096206Y-101392335D01*
X173182452Y-101507544D01*
X173182455Y-101507547D01*
X173297664Y-101593793D01*
X173297671Y-101593797D01*
X173432517Y-101644091D01*
X173432516Y-101644091D01*
X173439444Y-101644835D01*
X173492127Y-101650500D01*
X175492872Y-101650499D01*
X175552483Y-101644091D01*
X175687331Y-101593796D01*
X175802546Y-101507546D01*
X175888796Y-101392331D01*
X175939091Y-101257483D01*
X175945500Y-101197873D01*
X175945499Y-99102128D01*
X175939091Y-99042517D01*
X175888796Y-98907669D01*
X175888795Y-98907668D01*
X175888793Y-98907664D01*
X175802547Y-98792455D01*
X175802544Y-98792452D01*
X175687335Y-98706206D01*
X175687328Y-98706202D01*
X175552482Y-98655908D01*
X175552483Y-98655908D01*
X175492883Y-98649501D01*
X175492881Y-98649500D01*
X175492873Y-98649500D01*
X175492864Y-98649500D01*
X173492129Y-98649500D01*
X173492123Y-98649501D01*
X173432516Y-98655908D01*
X173297671Y-98706202D01*
X173297664Y-98706206D01*
X173182455Y-98792452D01*
X173182452Y-98792455D01*
X173096206Y-98907664D01*
X173096202Y-98907671D01*
X173045908Y-99042517D01*
X173039501Y-99102116D01*
X173039501Y-99102123D01*
X173039500Y-99102135D01*
X141500000Y-99102135D01*
X141500000Y-96124000D01*
X141519685Y-96056961D01*
X141572489Y-96011206D01*
X141624000Y-96000000D01*
X149625746Y-96000000D01*
X149692785Y-96019685D01*
G37*
%TD.AperFunction*%
%TD*%
%TA.AperFunction,Conductor*%
%TO.N,/PHASE_A*%
G36*
X205764054Y-65269685D02*
G01*
X205786623Y-65288288D01*
X207438922Y-67015692D01*
X211215608Y-70964045D01*
X211247722Y-71026096D01*
X211250000Y-71049756D01*
X211250000Y-117626000D01*
X211230315Y-117693039D01*
X211177511Y-117738794D01*
X211126000Y-117750000D01*
X203124000Y-117750000D01*
X203056961Y-117730315D01*
X203011206Y-117677511D01*
X203000000Y-117626000D01*
X203000000Y-73750000D01*
X201750000Y-72500000D01*
X200624000Y-72500000D01*
X200556961Y-72480315D01*
X200511206Y-72427511D01*
X200500000Y-72376000D01*
X200500000Y-65374000D01*
X200519685Y-65306961D01*
X200572489Y-65261206D01*
X200624000Y-65250000D01*
X205697015Y-65250000D01*
X205764054Y-65269685D01*
G37*
%TD.AperFunction*%
%TD*%
%TA.AperFunction,Conductor*%
%TO.N,/PHASE_C*%
G36*
X211943039Y-129519685D02*
G01*
X211988794Y-129572489D01*
X212000000Y-129624000D01*
X212000000Y-136626000D01*
X211980315Y-136693039D01*
X211927511Y-136738794D01*
X211876000Y-136750000D01*
X192749467Y-136750000D01*
X192682428Y-136730315D01*
X192657317Y-136708972D01*
X192572235Y-136614478D01*
X192572232Y-136614476D01*
X192572231Y-136614475D01*
X192572230Y-136614474D01*
X192427593Y-136509388D01*
X192264267Y-136436671D01*
X192264265Y-136436670D01*
X192136594Y-136409533D01*
X192089391Y-136399500D01*
X191910609Y-136399500D01*
X191879954Y-136406015D01*
X191735733Y-136436670D01*
X191735728Y-136436672D01*
X191572408Y-136509387D01*
X191427768Y-136614475D01*
X191375162Y-136672900D01*
X191342682Y-136708972D01*
X191283198Y-136745621D01*
X191250534Y-136750000D01*
X181624000Y-136750000D01*
X181556961Y-136730315D01*
X181511206Y-136677511D01*
X181500000Y-136626000D01*
X181500000Y-129624000D01*
X181519685Y-129556961D01*
X181572489Y-129511206D01*
X181624000Y-129500000D01*
X211876000Y-129500000D01*
X211943039Y-129519685D01*
G37*
%TD.AperFunction*%
%TD*%
%TA.AperFunction,Conductor*%
%TO.N,/PHASE_B*%
G36*
X186617570Y-120760719D02*
G01*
X186735733Y-120813329D01*
X186910609Y-120850500D01*
X186910610Y-120850500D01*
X187089389Y-120850500D01*
X187089391Y-120850500D01*
X187264267Y-120813329D01*
X187382429Y-120760719D01*
X187432864Y-120750000D01*
X200817136Y-120750000D01*
X200867570Y-120760719D01*
X200985733Y-120813329D01*
X201160609Y-120850500D01*
X201160610Y-120850500D01*
X201339389Y-120850500D01*
X201339391Y-120850500D01*
X201514267Y-120813329D01*
X201632429Y-120760719D01*
X201682864Y-120750000D01*
X211876000Y-120750000D01*
X211943039Y-120769685D01*
X211988794Y-120822489D01*
X212000000Y-120874000D01*
X212000000Y-128126000D01*
X211980315Y-128193039D01*
X211927511Y-128238794D01*
X211876000Y-128250000D01*
X182874000Y-128250000D01*
X182806961Y-128230315D01*
X182761206Y-128177511D01*
X182750000Y-128126000D01*
X182750000Y-120874000D01*
X182769685Y-120806961D01*
X182822489Y-120761206D01*
X182874000Y-120750000D01*
X186567136Y-120750000D01*
X186617570Y-120760719D01*
G37*
%TD.AperFunction*%
%TD*%
%TA.AperFunction,Conductor*%
%TO.N,+3.3V*%
G36*
X116193039Y-43769685D02*
G01*
X116238794Y-43822489D01*
X116250000Y-43874000D01*
X116250000Y-54198638D01*
X116230315Y-54265677D01*
X116213681Y-54286319D01*
X109536319Y-60963681D01*
X109474996Y-60997166D01*
X109448638Y-61000000D01*
X100799923Y-61000000D01*
X100732884Y-60980315D01*
X100687129Y-60927511D01*
X100677185Y-60858353D01*
X100704070Y-60797335D01*
X100735909Y-60758539D01*
X100735913Y-60758532D01*
X100828811Y-60584733D01*
X100828811Y-60584732D01*
X100828814Y-60584727D01*
X100886024Y-60396132D01*
X100905341Y-60200000D01*
X100886024Y-60003868D01*
X100828814Y-59815273D01*
X100828811Y-59815269D01*
X100828811Y-59815266D01*
X100735913Y-59641467D01*
X100735909Y-59641460D01*
X100610883Y-59489116D01*
X100458539Y-59364090D01*
X100458532Y-59364086D01*
X100284733Y-59271188D01*
X100284727Y-59271186D01*
X100096132Y-59213976D01*
X100096129Y-59213975D01*
X99900000Y-59194659D01*
X99703870Y-59213975D01*
X99515266Y-59271188D01*
X99341467Y-59364086D01*
X99341460Y-59364090D01*
X99189116Y-59489116D01*
X99064090Y-59641460D01*
X99064086Y-59641467D01*
X98971188Y-59815266D01*
X98913975Y-60003870D01*
X98894659Y-60200000D01*
X98913975Y-60396129D01*
X98971188Y-60584733D01*
X99064086Y-60758532D01*
X99064090Y-60758539D01*
X99095930Y-60797335D01*
X99123243Y-60861644D01*
X99111452Y-60930512D01*
X99064301Y-60982072D01*
X99000077Y-61000000D01*
X93249999Y-61000000D01*
X86500000Y-67749999D01*
X86500000Y-74626000D01*
X86480315Y-74693039D01*
X86427511Y-74738794D01*
X86376000Y-74750000D01*
X80124000Y-74750000D01*
X80056961Y-74730315D01*
X80011206Y-74677511D01*
X80000000Y-74626000D01*
X80000000Y-67700000D01*
X84444815Y-67700000D01*
X84463503Y-67877805D01*
X84463504Y-67877807D01*
X84518747Y-68047829D01*
X84518750Y-68047835D01*
X84608141Y-68202665D01*
X84649812Y-68248946D01*
X84727764Y-68335521D01*
X84727767Y-68335523D01*
X84727770Y-68335526D01*
X84872407Y-68440612D01*
X85035733Y-68513329D01*
X85210609Y-68550500D01*
X85210610Y-68550500D01*
X85389389Y-68550500D01*
X85389391Y-68550500D01*
X85564267Y-68513329D01*
X85727593Y-68440612D01*
X85872230Y-68335526D01*
X85991859Y-68202665D01*
X86081250Y-68047835D01*
X86136497Y-67877803D01*
X86155185Y-67700000D01*
X86136497Y-67522197D01*
X86081250Y-67352165D01*
X85991859Y-67197335D01*
X85945003Y-67145296D01*
X85872235Y-67064478D01*
X85872232Y-67064476D01*
X85872231Y-67064475D01*
X85872230Y-67064474D01*
X85727593Y-66959388D01*
X85564267Y-66886671D01*
X85564265Y-66886670D01*
X85436594Y-66859533D01*
X85389391Y-66849500D01*
X85210609Y-66849500D01*
X85179954Y-66856015D01*
X85035733Y-66886670D01*
X85035728Y-66886672D01*
X84872408Y-66959387D01*
X84727768Y-67064475D01*
X84608140Y-67197336D01*
X84518750Y-67352164D01*
X84518747Y-67352170D01*
X84463504Y-67522192D01*
X84463503Y-67522194D01*
X84444815Y-67700000D01*
X80000000Y-67700000D01*
X80000000Y-67250001D01*
X80000000Y-67250000D01*
X79264925Y-66392412D01*
X78529852Y-65534827D01*
X78501169Y-65471116D01*
X78500000Y-65454129D01*
X78500000Y-64950000D01*
X81794659Y-64950000D01*
X81813975Y-65146129D01*
X81871188Y-65334733D01*
X81964086Y-65508532D01*
X81964090Y-65508539D01*
X82089116Y-65660883D01*
X82241460Y-65785909D01*
X82241467Y-65785913D01*
X82415266Y-65878811D01*
X82415269Y-65878811D01*
X82415273Y-65878814D01*
X82603868Y-65936024D01*
X82800000Y-65955341D01*
X82996132Y-65936024D01*
X83184727Y-65878814D01*
X83358538Y-65785910D01*
X83510883Y-65660883D01*
X83635910Y-65508538D01*
X83728814Y-65334727D01*
X83786024Y-65146132D01*
X83805341Y-64950000D01*
X83786024Y-64753868D01*
X83728814Y-64565273D01*
X83728811Y-64565269D01*
X83728811Y-64565266D01*
X83635913Y-64391467D01*
X83635909Y-64391460D01*
X83510883Y-64239116D01*
X83358539Y-64114090D01*
X83358532Y-64114086D01*
X83184733Y-64021188D01*
X83184727Y-64021186D01*
X82996132Y-63963976D01*
X82996129Y-63963975D01*
X82800000Y-63944659D01*
X82603870Y-63963975D01*
X82415266Y-64021188D01*
X82241467Y-64114086D01*
X82241460Y-64114090D01*
X82089116Y-64239116D01*
X81964090Y-64391460D01*
X81964086Y-64391467D01*
X81871188Y-64565266D01*
X81813975Y-64753870D01*
X81794659Y-64950000D01*
X78500000Y-64950000D01*
X78500000Y-62812500D01*
X85732315Y-62812500D01*
X85751003Y-62990305D01*
X85751004Y-62990307D01*
X85806247Y-63160329D01*
X85806250Y-63160335D01*
X85895641Y-63315165D01*
X85937312Y-63361446D01*
X86015264Y-63448021D01*
X86015267Y-63448023D01*
X86015270Y-63448026D01*
X86159907Y-63553112D01*
X86323233Y-63625829D01*
X86498109Y-63663000D01*
X86498110Y-63663000D01*
X86676889Y-63663000D01*
X86676891Y-63663000D01*
X86851767Y-63625829D01*
X87015093Y-63553112D01*
X87159730Y-63448026D01*
X87279359Y-63315165D01*
X87368750Y-63160335D01*
X87423997Y-62990303D01*
X87442685Y-62812500D01*
X87423997Y-62634697D01*
X87423995Y-62634693D01*
X87423995Y-62634690D01*
X87418468Y-62617681D01*
X87416471Y-62547840D01*
X87452550Y-62488007D01*
X87485963Y-62466081D01*
X87515093Y-62453112D01*
X87659730Y-62348026D01*
X87779359Y-62215165D01*
X87868750Y-62060335D01*
X87923997Y-61890303D01*
X87942685Y-61712500D01*
X87923997Y-61534697D01*
X87868750Y-61364665D01*
X87779359Y-61209835D01*
X87732503Y-61157796D01*
X87659735Y-61076978D01*
X87659732Y-61076976D01*
X87659731Y-61076975D01*
X87659730Y-61076974D01*
X87515093Y-60971888D01*
X87351767Y-60899171D01*
X87351765Y-60899170D01*
X87224094Y-60872033D01*
X87176891Y-60862000D01*
X86998109Y-60862000D01*
X86967454Y-60868515D01*
X86823233Y-60899170D01*
X86823228Y-60899172D01*
X86659908Y-60971887D01*
X86515268Y-61076975D01*
X86395640Y-61209836D01*
X86306250Y-61364664D01*
X86306247Y-61364670D01*
X86251004Y-61534692D01*
X86251003Y-61534694D01*
X86232315Y-61712500D01*
X86251003Y-61890305D01*
X86256533Y-61907323D01*
X86258527Y-61977164D01*
X86222445Y-62036996D01*
X86189038Y-62058918D01*
X86159908Y-62071887D01*
X86015268Y-62176975D01*
X85895640Y-62309836D01*
X85806250Y-62464664D01*
X85806247Y-62464670D01*
X85751004Y-62634692D01*
X85751003Y-62634694D01*
X85732315Y-62812500D01*
X78500000Y-62812500D01*
X78500000Y-58512500D01*
X80032315Y-58512500D01*
X80051003Y-58690305D01*
X80051004Y-58690307D01*
X80106247Y-58860329D01*
X80106250Y-58860335D01*
X80195641Y-59015165D01*
X80218554Y-59040612D01*
X80315264Y-59148021D01*
X80315267Y-59148023D01*
X80315270Y-59148026D01*
X80459907Y-59253112D01*
X80623233Y-59325829D01*
X80798109Y-59363000D01*
X80798110Y-59363000D01*
X80976889Y-59363000D01*
X80976891Y-59363000D01*
X81151767Y-59325829D01*
X81315093Y-59253112D01*
X81459730Y-59148026D01*
X81579359Y-59015165D01*
X81668750Y-58860335D01*
X81723997Y-58690303D01*
X81742685Y-58512500D01*
X81723997Y-58334697D01*
X81668750Y-58164665D01*
X81579359Y-58009835D01*
X81517030Y-57940612D01*
X81459735Y-57876978D01*
X81459732Y-57876976D01*
X81459731Y-57876975D01*
X81459730Y-57876974D01*
X81315093Y-57771888D01*
X81151767Y-57699171D01*
X81151765Y-57699170D01*
X80988530Y-57664474D01*
X80976891Y-57662000D01*
X80798109Y-57662000D01*
X80786470Y-57664474D01*
X80623233Y-57699170D01*
X80623228Y-57699172D01*
X80459908Y-57771887D01*
X80315268Y-57876975D01*
X80195640Y-58009836D01*
X80106250Y-58164664D01*
X80106247Y-58164670D01*
X80051004Y-58334692D01*
X80051003Y-58334694D01*
X80032315Y-58512500D01*
X78500000Y-58512500D01*
X78500000Y-57200000D01*
X86094815Y-57200000D01*
X86113503Y-57377805D01*
X86113504Y-57377807D01*
X86168750Y-57547836D01*
X86220806Y-57638000D01*
X86237279Y-57705900D01*
X86220806Y-57762000D01*
X86168750Y-57852163D01*
X86113504Y-58022192D01*
X86113503Y-58022194D01*
X86094815Y-58200000D01*
X86113503Y-58377805D01*
X86113504Y-58377807D01*
X86168747Y-58547829D01*
X86168750Y-58547835D01*
X86258141Y-58702665D01*
X86299812Y-58748946D01*
X86377764Y-58835521D01*
X86377767Y-58835523D01*
X86377770Y-58835526D01*
X86522407Y-58940612D01*
X86685733Y-59013329D01*
X86860609Y-59050500D01*
X86860610Y-59050500D01*
X87039389Y-59050500D01*
X87039391Y-59050500D01*
X87214267Y-59013329D01*
X87377593Y-58940612D01*
X87522230Y-58835526D01*
X87641859Y-58702665D01*
X87731250Y-58547835D01*
X87786497Y-58377803D01*
X87805185Y-58200000D01*
X87786497Y-58022197D01*
X87758873Y-57937181D01*
X87731252Y-57852170D01*
X87731251Y-57852169D01*
X87731250Y-57852165D01*
X87679190Y-57761996D01*
X87662719Y-57694101D01*
X87679190Y-57638004D01*
X87731250Y-57547835D01*
X87786497Y-57377803D01*
X87805185Y-57200000D01*
X95444815Y-57200000D01*
X95463503Y-57377805D01*
X95463504Y-57377807D01*
X95518747Y-57547829D01*
X95518748Y-57547830D01*
X95518750Y-57547835D01*
X95608141Y-57702665D01*
X95649812Y-57748946D01*
X95727764Y-57835521D01*
X95727767Y-57835523D01*
X95727770Y-57835526D01*
X95872407Y-57940612D01*
X96035733Y-58013329D01*
X96210609Y-58050500D01*
X96210610Y-58050500D01*
X96389389Y-58050500D01*
X96389391Y-58050500D01*
X96564267Y-58013329D01*
X96678431Y-57962500D01*
X99644815Y-57962500D01*
X99663503Y-58140305D01*
X99663504Y-58140307D01*
X99718747Y-58310329D01*
X99718750Y-58310335D01*
X99808141Y-58465165D01*
X99849812Y-58511446D01*
X99927764Y-58598021D01*
X99927767Y-58598023D01*
X99927770Y-58598026D01*
X100072407Y-58703112D01*
X100235733Y-58775829D01*
X100410609Y-58813000D01*
X100410610Y-58813000D01*
X100589389Y-58813000D01*
X100589391Y-58813000D01*
X100764267Y-58775829D01*
X100927593Y-58703112D01*
X101072230Y-58598026D01*
X101191859Y-58465165D01*
X101281250Y-58310335D01*
X101336497Y-58140303D01*
X101355185Y-57962500D01*
X101336497Y-57784697D01*
X101298191Y-57666806D01*
X101296197Y-57596966D01*
X101332277Y-57537133D01*
X101343226Y-57528180D01*
X101384730Y-57498026D01*
X101504359Y-57365165D01*
X101593750Y-57210335D01*
X101648997Y-57040303D01*
X101667685Y-56862500D01*
X101648997Y-56684697D01*
X101593750Y-56514665D01*
X101556416Y-56450000D01*
X109094815Y-56450000D01*
X109113503Y-56627805D01*
X109113504Y-56627807D01*
X109168747Y-56797829D01*
X109168750Y-56797835D01*
X109258141Y-56952665D01*
X109299812Y-56998946D01*
X109377764Y-57085521D01*
X109377767Y-57085523D01*
X109377770Y-57085526D01*
X109522407Y-57190612D01*
X109685733Y-57263329D01*
X109860609Y-57300500D01*
X109860610Y-57300500D01*
X110039389Y-57300500D01*
X110039391Y-57300500D01*
X110214267Y-57263329D01*
X110377593Y-57190612D01*
X110522230Y-57085526D01*
X110641859Y-56952665D01*
X110731250Y-56797835D01*
X110786497Y-56627803D01*
X110805185Y-56450000D01*
X110786497Y-56272197D01*
X110737659Y-56121889D01*
X110731252Y-56102170D01*
X110731249Y-56102164D01*
X110641859Y-55947335D01*
X110595003Y-55895296D01*
X110522235Y-55814478D01*
X110522232Y-55814476D01*
X110522231Y-55814475D01*
X110522230Y-55814474D01*
X110377593Y-55709388D01*
X110214267Y-55636671D01*
X110214265Y-55636670D01*
X110086594Y-55609533D01*
X110039391Y-55599500D01*
X109860609Y-55599500D01*
X109829954Y-55606015D01*
X109685733Y-55636670D01*
X109685728Y-55636672D01*
X109522408Y-55709387D01*
X109377768Y-55814475D01*
X109258140Y-55947336D01*
X109168750Y-56102164D01*
X109168747Y-56102170D01*
X109113504Y-56272192D01*
X109113503Y-56272194D01*
X109094815Y-56450000D01*
X101556416Y-56450000D01*
X101504359Y-56359835D01*
X101457503Y-56307796D01*
X101384735Y-56226978D01*
X101384732Y-56226976D01*
X101384731Y-56226975D01*
X101384730Y-56226974D01*
X101240093Y-56121888D01*
X101076767Y-56049171D01*
X101076765Y-56049170D01*
X100949094Y-56022033D01*
X100901891Y-56012000D01*
X100723109Y-56012000D01*
X100692454Y-56018515D01*
X100548233Y-56049170D01*
X100548228Y-56049172D01*
X100384908Y-56121887D01*
X100240268Y-56226975D01*
X100120640Y-56359836D01*
X100031250Y-56514664D01*
X100031247Y-56514670D01*
X99976004Y-56684692D01*
X99976003Y-56684694D01*
X99957315Y-56862500D01*
X99976003Y-57040305D01*
X99976004Y-57040307D01*
X100014307Y-57158191D01*
X100016302Y-57228032D01*
X99980222Y-57287865D01*
X99969264Y-57296825D01*
X99927771Y-57326972D01*
X99927764Y-57326978D01*
X99808140Y-57459836D01*
X99718750Y-57614664D01*
X99718747Y-57614670D01*
X99663504Y-57784692D01*
X99663503Y-57784694D01*
X99644815Y-57962500D01*
X96678431Y-57962500D01*
X96727593Y-57940612D01*
X96872230Y-57835526D01*
X96991859Y-57702665D01*
X97081250Y-57547835D01*
X97136497Y-57377803D01*
X97155185Y-57200000D01*
X97136497Y-57022197D01*
X97081250Y-56852165D01*
X96991859Y-56697335D01*
X96945003Y-56645296D01*
X96872235Y-56564478D01*
X96872232Y-56564476D01*
X96872231Y-56564475D01*
X96872230Y-56564474D01*
X96727593Y-56459388D01*
X96564267Y-56386671D01*
X96564265Y-56386670D01*
X96406384Y-56353112D01*
X96389391Y-56349500D01*
X96210609Y-56349500D01*
X96193616Y-56353112D01*
X96035733Y-56386670D01*
X96035728Y-56386672D01*
X95872408Y-56459387D01*
X95727768Y-56564475D01*
X95608140Y-56697336D01*
X95518750Y-56852164D01*
X95518747Y-56852170D01*
X95463504Y-57022192D01*
X95463503Y-57022194D01*
X95444815Y-57200000D01*
X87805185Y-57200000D01*
X87786497Y-57022197D01*
X87731250Y-56852165D01*
X87641859Y-56697335D01*
X87595003Y-56645296D01*
X87522235Y-56564478D01*
X87522232Y-56564476D01*
X87522231Y-56564475D01*
X87522230Y-56564474D01*
X87377593Y-56459388D01*
X87214267Y-56386671D01*
X87214265Y-56386670D01*
X87056384Y-56353112D01*
X87039391Y-56349500D01*
X86860609Y-56349500D01*
X86843616Y-56353112D01*
X86685733Y-56386670D01*
X86685728Y-56386672D01*
X86522408Y-56459387D01*
X86377768Y-56564475D01*
X86258140Y-56697336D01*
X86168750Y-56852164D01*
X86168747Y-56852170D01*
X86113504Y-57022192D01*
X86113503Y-57022194D01*
X86094815Y-57200000D01*
X78500000Y-57200000D01*
X78500000Y-55612500D01*
X83832315Y-55612500D01*
X83851003Y-55790305D01*
X83851004Y-55790307D01*
X83906247Y-55960329D01*
X83906250Y-55960335D01*
X83995641Y-56115165D01*
X84037312Y-56161446D01*
X84115264Y-56248021D01*
X84115267Y-56248023D01*
X84115270Y-56248026D01*
X84259907Y-56353112D01*
X84423233Y-56425829D01*
X84598109Y-56463000D01*
X84598110Y-56463000D01*
X84776889Y-56463000D01*
X84776891Y-56463000D01*
X84951767Y-56425829D01*
X85115093Y-56353112D01*
X85259730Y-56248026D01*
X85278685Y-56226975D01*
X85285648Y-56219241D01*
X85379359Y-56115165D01*
X85468750Y-55960335D01*
X85523997Y-55790303D01*
X85542685Y-55612500D01*
X85523997Y-55434697D01*
X85468750Y-55264665D01*
X85379359Y-55109835D01*
X85332503Y-55057796D01*
X85259735Y-54976978D01*
X85259732Y-54976976D01*
X85259731Y-54976975D01*
X85259730Y-54976974D01*
X85115093Y-54871888D01*
X84951767Y-54799171D01*
X84951765Y-54799170D01*
X84824094Y-54772033D01*
X84776891Y-54762000D01*
X84598109Y-54762000D01*
X84567454Y-54768515D01*
X84423233Y-54799170D01*
X84423228Y-54799172D01*
X84259908Y-54871887D01*
X84115268Y-54976975D01*
X83995640Y-55109836D01*
X83906250Y-55264664D01*
X83906247Y-55264670D01*
X83851004Y-55434692D01*
X83851003Y-55434694D01*
X83832315Y-55612500D01*
X78500000Y-55612500D01*
X78500000Y-52051361D01*
X78519685Y-51984322D01*
X78536314Y-51963685D01*
X80199371Y-50300628D01*
X80242605Y-50272551D01*
X80425736Y-50202255D01*
X80430162Y-50200000D01*
X114044815Y-50200000D01*
X114063503Y-50377805D01*
X114063504Y-50377807D01*
X114118747Y-50547829D01*
X114118750Y-50547835D01*
X114208141Y-50702665D01*
X114249812Y-50748946D01*
X114327764Y-50835521D01*
X114327767Y-50835523D01*
X114327770Y-50835526D01*
X114472407Y-50940612D01*
X114635733Y-51013329D01*
X114810609Y-51050500D01*
X114810610Y-51050500D01*
X114989389Y-51050500D01*
X114989391Y-51050500D01*
X115164267Y-51013329D01*
X115327593Y-50940612D01*
X115472230Y-50835526D01*
X115591859Y-50702665D01*
X115681250Y-50547835D01*
X115736497Y-50377803D01*
X115755185Y-50200000D01*
X115736497Y-50022197D01*
X115681250Y-49852165D01*
X115591859Y-49697335D01*
X115508677Y-49604952D01*
X115472235Y-49564478D01*
X115472232Y-49564476D01*
X115472231Y-49564475D01*
X115472230Y-49564474D01*
X115327593Y-49459388D01*
X115164267Y-49386671D01*
X115164265Y-49386670D01*
X115036594Y-49359533D01*
X114989391Y-49349500D01*
X114810609Y-49349500D01*
X114779954Y-49356015D01*
X114635733Y-49386670D01*
X114635728Y-49386672D01*
X114472408Y-49459387D01*
X114327768Y-49564475D01*
X114208140Y-49697336D01*
X114118750Y-49852164D01*
X114118747Y-49852170D01*
X114063504Y-50022192D01*
X114063503Y-50022194D01*
X114044815Y-50200000D01*
X80430162Y-50200000D01*
X80752652Y-50035682D01*
X81060366Y-49835851D01*
X81345506Y-49604949D01*
X81604949Y-49345506D01*
X81835851Y-49060366D01*
X82035682Y-48752652D01*
X82202255Y-48425736D01*
X82231327Y-48350000D01*
X85844815Y-48350000D01*
X85863503Y-48527805D01*
X85863504Y-48527807D01*
X85918752Y-48697842D01*
X85919525Y-48699579D01*
X85919671Y-48700671D01*
X85920758Y-48704016D01*
X85920145Y-48704214D01*
X85928801Y-48768830D01*
X85919525Y-48800421D01*
X85918752Y-48802157D01*
X85863504Y-48972192D01*
X85863503Y-48972194D01*
X85844815Y-49150000D01*
X85863503Y-49327805D01*
X85863504Y-49327807D01*
X85918747Y-49497829D01*
X85918750Y-49497835D01*
X86008141Y-49652665D01*
X86048362Y-49697335D01*
X86127764Y-49785521D01*
X86127767Y-49785523D01*
X86127770Y-49785526D01*
X86272407Y-49890612D01*
X86435733Y-49963329D01*
X86610609Y-50000500D01*
X86610610Y-50000500D01*
X86789389Y-50000500D01*
X86789391Y-50000500D01*
X86964267Y-49963329D01*
X87127593Y-49890612D01*
X87272230Y-49785526D01*
X87280962Y-49775829D01*
X87298148Y-49756741D01*
X87391859Y-49652665D01*
X87481250Y-49497835D01*
X87536497Y-49327803D01*
X87555185Y-49150000D01*
X87536497Y-48972197D01*
X87481250Y-48802165D01*
X87481247Y-48802159D01*
X87480484Y-48800446D01*
X87480337Y-48799356D01*
X87479242Y-48795984D01*
X87479858Y-48795783D01*
X87471193Y-48731197D01*
X87480484Y-48699554D01*
X87481246Y-48697842D01*
X87481250Y-48697835D01*
X87536497Y-48527803D01*
X87549930Y-48400000D01*
X95544815Y-48400000D01*
X95563503Y-48577805D01*
X95563504Y-48577807D01*
X95618747Y-48747829D01*
X95618750Y-48747835D01*
X95708141Y-48902665D01*
X95749812Y-48948946D01*
X95827764Y-49035521D01*
X95827767Y-49035523D01*
X95827770Y-49035526D01*
X95972407Y-49140612D01*
X96135733Y-49213329D01*
X96310609Y-49250500D01*
X96310610Y-49250500D01*
X96489389Y-49250500D01*
X96489391Y-49250500D01*
X96664267Y-49213329D01*
X96827593Y-49140612D01*
X96972230Y-49035526D01*
X97037983Y-48962500D01*
X99844815Y-48962500D01*
X99863503Y-49140305D01*
X99863504Y-49140307D01*
X99918747Y-49310329D01*
X99918750Y-49310335D01*
X100008141Y-49465165D01*
X100049812Y-49511446D01*
X100127764Y-49598021D01*
X100127767Y-49598023D01*
X100127770Y-49598026D01*
X100272407Y-49703112D01*
X100435733Y-49775829D01*
X100610609Y-49813000D01*
X100610610Y-49813000D01*
X100789389Y-49813000D01*
X100789391Y-49813000D01*
X100964267Y-49775829D01*
X101127593Y-49703112D01*
X101272230Y-49598026D01*
X101391859Y-49465165D01*
X101481250Y-49310335D01*
X101536497Y-49140303D01*
X101555185Y-48962500D01*
X101536497Y-48784697D01*
X101498191Y-48666806D01*
X101496197Y-48596966D01*
X101532277Y-48537133D01*
X101543226Y-48528180D01*
X101584730Y-48498026D01*
X101704359Y-48365165D01*
X101793750Y-48210335D01*
X101848997Y-48040303D01*
X101867685Y-47862500D01*
X101848997Y-47684697D01*
X101793750Y-47514665D01*
X101756416Y-47450000D01*
X109294815Y-47450000D01*
X109313503Y-47627805D01*
X109313504Y-47627807D01*
X109368747Y-47797829D01*
X109368750Y-47797835D01*
X109458141Y-47952665D01*
X109499812Y-47998946D01*
X109577764Y-48085521D01*
X109577767Y-48085523D01*
X109577770Y-48085526D01*
X109722407Y-48190612D01*
X109885733Y-48263329D01*
X110060609Y-48300500D01*
X110060610Y-48300500D01*
X110239389Y-48300500D01*
X110239391Y-48300500D01*
X110414267Y-48263329D01*
X110577593Y-48190612D01*
X110722230Y-48085526D01*
X110724326Y-48083199D01*
X110752269Y-48052164D01*
X110841859Y-47952665D01*
X110931250Y-47797835D01*
X110986497Y-47627803D01*
X111005185Y-47450000D01*
X110986497Y-47272197D01*
X110937659Y-47121889D01*
X110931252Y-47102170D01*
X110931249Y-47102164D01*
X110841859Y-46947335D01*
X110795003Y-46895296D01*
X110722235Y-46814478D01*
X110722232Y-46814476D01*
X110722231Y-46814475D01*
X110722230Y-46814474D01*
X110577593Y-46709388D01*
X110414267Y-46636671D01*
X110414265Y-46636670D01*
X110286594Y-46609533D01*
X110239391Y-46599500D01*
X110060609Y-46599500D01*
X110029954Y-46606015D01*
X109885733Y-46636670D01*
X109885728Y-46636672D01*
X109722408Y-46709387D01*
X109577768Y-46814475D01*
X109458140Y-46947336D01*
X109368750Y-47102164D01*
X109368747Y-47102170D01*
X109313504Y-47272192D01*
X109313503Y-47272194D01*
X109294815Y-47450000D01*
X101756416Y-47450000D01*
X101704359Y-47359835D01*
X101657503Y-47307796D01*
X101584735Y-47226978D01*
X101584732Y-47226976D01*
X101584731Y-47226975D01*
X101584730Y-47226974D01*
X101440093Y-47121888D01*
X101276767Y-47049171D01*
X101276765Y-47049170D01*
X101149094Y-47022033D01*
X101101891Y-47012000D01*
X100923109Y-47012000D01*
X100892454Y-47018515D01*
X100748233Y-47049170D01*
X100748228Y-47049172D01*
X100584908Y-47121887D01*
X100440268Y-47226975D01*
X100320640Y-47359836D01*
X100231250Y-47514664D01*
X100231247Y-47514670D01*
X100176004Y-47684692D01*
X100176003Y-47684694D01*
X100157315Y-47862500D01*
X100176003Y-48040305D01*
X100176004Y-48040307D01*
X100214307Y-48158191D01*
X100216302Y-48228032D01*
X100180222Y-48287865D01*
X100169264Y-48296825D01*
X100127771Y-48326972D01*
X100127764Y-48326978D01*
X100008140Y-48459836D01*
X99918750Y-48614664D01*
X99918747Y-48614670D01*
X99863504Y-48784692D01*
X99863503Y-48784694D01*
X99844815Y-48962500D01*
X97037983Y-48962500D01*
X97091859Y-48902665D01*
X97181250Y-48747835D01*
X97236497Y-48577803D01*
X97255185Y-48400000D01*
X97236497Y-48222197D01*
X97181250Y-48052165D01*
X97091859Y-47897335D01*
X97045003Y-47845296D01*
X96972235Y-47764478D01*
X96972232Y-47764476D01*
X96972231Y-47764475D01*
X96972230Y-47764474D01*
X96827593Y-47659388D01*
X96664267Y-47586671D01*
X96664265Y-47586670D01*
X96536594Y-47559533D01*
X96489391Y-47549500D01*
X96310609Y-47549500D01*
X96279954Y-47556015D01*
X96135733Y-47586670D01*
X96135728Y-47586672D01*
X95972408Y-47659387D01*
X95827768Y-47764475D01*
X95708140Y-47897336D01*
X95618750Y-48052164D01*
X95618747Y-48052170D01*
X95563504Y-48222192D01*
X95563503Y-48222194D01*
X95544815Y-48400000D01*
X87549930Y-48400000D01*
X87555185Y-48350000D01*
X87536497Y-48172197D01*
X87493643Y-48040307D01*
X87481252Y-48002170D01*
X87481249Y-48002164D01*
X87420726Y-47897335D01*
X87391859Y-47847335D01*
X87317254Y-47764478D01*
X87272235Y-47714478D01*
X87272232Y-47714476D01*
X87272231Y-47714475D01*
X87272230Y-47714474D01*
X87127593Y-47609388D01*
X86964267Y-47536671D01*
X86964265Y-47536670D01*
X86836594Y-47509533D01*
X86789391Y-47499500D01*
X86610609Y-47499500D01*
X86579954Y-47506015D01*
X86435733Y-47536670D01*
X86435728Y-47536672D01*
X86272408Y-47609387D01*
X86127768Y-47714475D01*
X86008140Y-47847336D01*
X85918750Y-48002164D01*
X85918747Y-48002170D01*
X85863504Y-48172192D01*
X85863503Y-48172194D01*
X85844815Y-48350000D01*
X82231327Y-48350000D01*
X82272551Y-48242605D01*
X82300628Y-48199371D01*
X86713681Y-43786319D01*
X86775004Y-43752834D01*
X86801362Y-43750000D01*
X116126000Y-43750000D01*
X116193039Y-43769685D01*
G37*
%TD.AperFunction*%
%TD*%
%TA.AperFunction,Conductor*%
%TO.N,+100V*%
G36*
X133443039Y-57769685D02*
G01*
X133488794Y-57822489D01*
X133500000Y-57874000D01*
X133500000Y-64620500D01*
X133480315Y-64687539D01*
X133427511Y-64733294D01*
X133376000Y-64744500D01*
X128624000Y-64744500D01*
X128623991Y-64744500D01*
X128623990Y-64744501D01*
X128579457Y-64749289D01*
X128566202Y-64750000D01*
X127500000Y-64750000D01*
X127500000Y-71750000D01*
X129750000Y-74000000D01*
X133199892Y-74000000D01*
X133266931Y-74019685D01*
X133312686Y-74072489D01*
X133322630Y-74141647D01*
X133293605Y-74205203D01*
X133279598Y-74218989D01*
X133187442Y-74296317D01*
X133187440Y-74296319D01*
X132947589Y-74550544D01*
X132947584Y-74550550D01*
X132738870Y-74830902D01*
X132564113Y-75133591D01*
X132564107Y-75133604D01*
X132425674Y-75454527D01*
X132325430Y-75789365D01*
X132325428Y-75789372D01*
X132264739Y-76133561D01*
X132264738Y-76133572D01*
X132244415Y-76482496D01*
X132244415Y-76482503D01*
X132264738Y-76831427D01*
X132264739Y-76831438D01*
X132325428Y-77175627D01*
X132325430Y-77175634D01*
X132425674Y-77510472D01*
X132564107Y-77831395D01*
X132564113Y-77831408D01*
X132738870Y-78134097D01*
X132947584Y-78414449D01*
X132947589Y-78414455D01*
X133057191Y-78530625D01*
X133187442Y-78668683D01*
X133363903Y-78816751D01*
X133455186Y-78893347D01*
X133455194Y-78893353D01*
X133747203Y-79085411D01*
X133747207Y-79085413D01*
X134059549Y-79242277D01*
X134387989Y-79361819D01*
X134728086Y-79442423D01*
X135075241Y-79483000D01*
X135075248Y-79483000D01*
X135424752Y-79483000D01*
X135424759Y-79483000D01*
X135771914Y-79442423D01*
X136112011Y-79361819D01*
X136440451Y-79242277D01*
X136752793Y-79085413D01*
X137044811Y-78893349D01*
X137312558Y-78668683D01*
X137552412Y-78414453D01*
X137761130Y-78134096D01*
X137935889Y-77831404D01*
X138074326Y-77510471D01*
X138174569Y-77175636D01*
X138235262Y-76831427D01*
X138255585Y-76482500D01*
X138235262Y-76133573D01*
X138235260Y-76133561D01*
X138174571Y-75789372D01*
X138174569Y-75789365D01*
X138074325Y-75454527D01*
X137988473Y-75255500D01*
X137935889Y-75133596D01*
X137761130Y-74830904D01*
X137761129Y-74830902D01*
X137552415Y-74550550D01*
X137552410Y-74550544D01*
X137436433Y-74427617D01*
X137312558Y-74296317D01*
X137220402Y-74218989D01*
X137181700Y-74160818D01*
X137180592Y-74090957D01*
X137217429Y-74031587D01*
X137280516Y-74001558D01*
X137300108Y-74000000D01*
X140626000Y-74000000D01*
X140693039Y-74019685D01*
X140738794Y-74072489D01*
X140750000Y-74124000D01*
X140750000Y-82209985D01*
X140738587Y-82248852D01*
X140747828Y-82266909D01*
X140750000Y-82290014D01*
X140750000Y-128876000D01*
X140730315Y-128943039D01*
X140677511Y-128988794D01*
X140626000Y-129000000D01*
X127999999Y-129000000D01*
X119786859Y-137959790D01*
X119727048Y-137995907D01*
X119695452Y-138000000D01*
X112874000Y-138000000D01*
X112806961Y-137980315D01*
X112761206Y-137927511D01*
X112750000Y-137876000D01*
X112750000Y-128374000D01*
X112769685Y-128306961D01*
X112822489Y-128261206D01*
X112874000Y-128250000D01*
X116000000Y-128250000D01*
X119500000Y-124750000D01*
X119500000Y-124742135D01*
X129599500Y-124742135D01*
X129599500Y-126742870D01*
X129599501Y-126742876D01*
X129605908Y-126802483D01*
X129656202Y-126937328D01*
X129656206Y-126937335D01*
X129742452Y-127052544D01*
X129742455Y-127052547D01*
X129857664Y-127138793D01*
X129857671Y-127138797D01*
X129992517Y-127189091D01*
X129992516Y-127189091D01*
X129999444Y-127189835D01*
X130052127Y-127195500D01*
X132147872Y-127195499D01*
X132207483Y-127189091D01*
X132342331Y-127138796D01*
X132457546Y-127052546D01*
X132543796Y-126937331D01*
X132594091Y-126802483D01*
X132600500Y-126742873D01*
X132600499Y-124742128D01*
X132594091Y-124682517D01*
X132543796Y-124547669D01*
X132543795Y-124547668D01*
X132543793Y-124547664D01*
X132457547Y-124432455D01*
X132457544Y-124432452D01*
X132342335Y-124346206D01*
X132342328Y-124346202D01*
X132207482Y-124295908D01*
X132207483Y-124295908D01*
X132147883Y-124289501D01*
X132147881Y-124289500D01*
X132147873Y-124289500D01*
X132147864Y-124289500D01*
X130052129Y-124289500D01*
X130052123Y-124289501D01*
X129992516Y-124295908D01*
X129857671Y-124346202D01*
X129857664Y-124346206D01*
X129742455Y-124432452D01*
X129742452Y-124432455D01*
X129656206Y-124547664D01*
X129656202Y-124547671D01*
X129605908Y-124682517D01*
X129599501Y-124742116D01*
X129599501Y-124742123D01*
X129599500Y-124742135D01*
X119500000Y-124742135D01*
X119500000Y-115582496D01*
X132494415Y-115582496D01*
X132494415Y-115582503D01*
X132514738Y-115931427D01*
X132514739Y-115931438D01*
X132575428Y-116275627D01*
X132575430Y-116275634D01*
X132675674Y-116610472D01*
X132814107Y-116931395D01*
X132814113Y-116931408D01*
X132988870Y-117234097D01*
X133197584Y-117514449D01*
X133197589Y-117514455D01*
X133301884Y-117625000D01*
X133437442Y-117768683D01*
X133504133Y-117824643D01*
X133705186Y-117993347D01*
X133705194Y-117993353D01*
X133997203Y-118185411D01*
X133997207Y-118185413D01*
X134309549Y-118342277D01*
X134637989Y-118461819D01*
X134978086Y-118542423D01*
X135325241Y-118583000D01*
X135325248Y-118583000D01*
X135674752Y-118583000D01*
X135674759Y-118583000D01*
X136021914Y-118542423D01*
X136362011Y-118461819D01*
X136690451Y-118342277D01*
X137002793Y-118185413D01*
X137294811Y-117993349D01*
X137562558Y-117768683D01*
X137802412Y-117514453D01*
X138011130Y-117234096D01*
X138185889Y-116931404D01*
X138324326Y-116610471D01*
X138424569Y-116275636D01*
X138434490Y-116219375D01*
X138485260Y-115931438D01*
X138485259Y-115931438D01*
X138485262Y-115931427D01*
X138505585Y-115582500D01*
X138485262Y-115233573D01*
X138485260Y-115233561D01*
X138424571Y-114889372D01*
X138424569Y-114889365D01*
X138324325Y-114554527D01*
X138185892Y-114233604D01*
X138185889Y-114233596D01*
X138011130Y-113930904D01*
X138011129Y-113930902D01*
X137802415Y-113650550D01*
X137802410Y-113650544D01*
X137686433Y-113527617D01*
X137562558Y-113396317D01*
X137414488Y-113272072D01*
X137294813Y-113171652D01*
X137294805Y-113171646D01*
X137002796Y-112979588D01*
X136690458Y-112822726D01*
X136690452Y-112822723D01*
X136362012Y-112703181D01*
X136362009Y-112703180D01*
X136021915Y-112622577D01*
X135978519Y-112617504D01*
X135674759Y-112582000D01*
X135325241Y-112582000D01*
X135021480Y-112617504D01*
X134978085Y-112622577D01*
X134978083Y-112622577D01*
X134637990Y-112703180D01*
X134637987Y-112703181D01*
X134309547Y-112822723D01*
X134309541Y-112822726D01*
X133997203Y-112979588D01*
X133705194Y-113171646D01*
X133705186Y-113171652D01*
X133437442Y-113396317D01*
X133437440Y-113396319D01*
X133197589Y-113650544D01*
X133197584Y-113650550D01*
X132988870Y-113930902D01*
X132814113Y-114233591D01*
X132814107Y-114233604D01*
X132675674Y-114554527D01*
X132575430Y-114889365D01*
X132575428Y-114889372D01*
X132514739Y-115233561D01*
X132514738Y-115233572D01*
X132494415Y-115582496D01*
X119500000Y-115582496D01*
X119500000Y-99102135D01*
X136039500Y-99102135D01*
X136039500Y-101197870D01*
X136039501Y-101197876D01*
X136045908Y-101257483D01*
X136096202Y-101392328D01*
X136096206Y-101392335D01*
X136182452Y-101507544D01*
X136182455Y-101507547D01*
X136297664Y-101593793D01*
X136297671Y-101593797D01*
X136432517Y-101644091D01*
X136432516Y-101644091D01*
X136439444Y-101644835D01*
X136492127Y-101650500D01*
X138492872Y-101650499D01*
X138552483Y-101644091D01*
X138687331Y-101593796D01*
X138802546Y-101507546D01*
X138888796Y-101392331D01*
X138939091Y-101257483D01*
X138945500Y-101197873D01*
X138945499Y-99102128D01*
X138939091Y-99042517D01*
X138888796Y-98907669D01*
X138888795Y-98907668D01*
X138888793Y-98907664D01*
X138802547Y-98792455D01*
X138802544Y-98792452D01*
X138687335Y-98706206D01*
X138687328Y-98706202D01*
X138552482Y-98655908D01*
X138552483Y-98655908D01*
X138492883Y-98649501D01*
X138492881Y-98649500D01*
X138492873Y-98649500D01*
X138492864Y-98649500D01*
X136492129Y-98649500D01*
X136492123Y-98649501D01*
X136432516Y-98655908D01*
X136297671Y-98706202D01*
X136297664Y-98706206D01*
X136182455Y-98792452D01*
X136182452Y-98792455D01*
X136096206Y-98907664D01*
X136096202Y-98907671D01*
X136045908Y-99042517D01*
X136039501Y-99102116D01*
X136039501Y-99102123D01*
X136039500Y-99102135D01*
X119500000Y-99102135D01*
X119500000Y-95749996D01*
X124326915Y-95749996D01*
X124326915Y-95750003D01*
X124347238Y-96098927D01*
X124347239Y-96098938D01*
X124407928Y-96443127D01*
X124407930Y-96443134D01*
X124508174Y-96777972D01*
X124646607Y-97098895D01*
X124646613Y-97098908D01*
X124821370Y-97401597D01*
X125030084Y-97681949D01*
X125030089Y-97681955D01*
X125098708Y-97754686D01*
X125269942Y-97936183D01*
X125382494Y-98030625D01*
X125537686Y-98160847D01*
X125537694Y-98160853D01*
X125829703Y-98352911D01*
X125829707Y-98352913D01*
X126142049Y-98509777D01*
X126470489Y-98629319D01*
X126810586Y-98709923D01*
X127157741Y-98750500D01*
X127157748Y-98750500D01*
X127507252Y-98750500D01*
X127507259Y-98750500D01*
X127854414Y-98709923D01*
X128194511Y-98629319D01*
X128522951Y-98509777D01*
X128835293Y-98352913D01*
X129127311Y-98160849D01*
X129395058Y-97936183D01*
X129634912Y-97681953D01*
X129843630Y-97401596D01*
X130018389Y-97098904D01*
X130156826Y-96777971D01*
X130257069Y-96443136D01*
X130277661Y-96326356D01*
X130317760Y-96098938D01*
X130317759Y-96098938D01*
X130317762Y-96098927D01*
X130338085Y-95750000D01*
X130337587Y-95741457D01*
X130332927Y-95661440D01*
X130317762Y-95401073D01*
X130317760Y-95401061D01*
X130257071Y-95056872D01*
X130257069Y-95056865D01*
X130156825Y-94722027D01*
X130018392Y-94401104D01*
X130018389Y-94401096D01*
X129843630Y-94098404D01*
X129843629Y-94098402D01*
X129634915Y-93818050D01*
X129634910Y-93818044D01*
X129518933Y-93695117D01*
X129395058Y-93563817D01*
X129246988Y-93439572D01*
X129127313Y-93339152D01*
X129127305Y-93339146D01*
X128835296Y-93147088D01*
X128522958Y-92990226D01*
X128522952Y-92990223D01*
X128194512Y-92870681D01*
X128194509Y-92870680D01*
X127854415Y-92790077D01*
X127811019Y-92785004D01*
X127507259Y-92749500D01*
X127157741Y-92749500D01*
X126853980Y-92785004D01*
X126810585Y-92790077D01*
X126810583Y-92790077D01*
X126470490Y-92870680D01*
X126470487Y-92870681D01*
X126142047Y-92990223D01*
X126142041Y-92990226D01*
X125829703Y-93147088D01*
X125537694Y-93339146D01*
X125537686Y-93339152D01*
X125269942Y-93563817D01*
X125269940Y-93563819D01*
X125030089Y-93818044D01*
X125030084Y-93818050D01*
X124821370Y-94098402D01*
X124646613Y-94401091D01*
X124646607Y-94401104D01*
X124508174Y-94722027D01*
X124407930Y-95056865D01*
X124407928Y-95056872D01*
X124347239Y-95401061D01*
X124347238Y-95401072D01*
X124326915Y-95749996D01*
X119500000Y-95749996D01*
X119500000Y-82250000D01*
X138494659Y-82250000D01*
X138513975Y-82446129D01*
X138571188Y-82634733D01*
X138664086Y-82808532D01*
X138664090Y-82808539D01*
X138789116Y-82960883D01*
X138941460Y-83085909D01*
X138941467Y-83085913D01*
X139115266Y-83178811D01*
X139115269Y-83178811D01*
X139115273Y-83178814D01*
X139303868Y-83236024D01*
X139500000Y-83255341D01*
X139696132Y-83236024D01*
X139884727Y-83178814D01*
X140058538Y-83085910D01*
X140210883Y-82960883D01*
X140335910Y-82808538D01*
X140428814Y-82634727D01*
X140486024Y-82446132D01*
X140502597Y-82277859D01*
X140512473Y-82253401D01*
X140507023Y-82244920D01*
X140502597Y-82222139D01*
X140500789Y-82203788D01*
X140486024Y-82053868D01*
X140428814Y-81865273D01*
X140428811Y-81865269D01*
X140428811Y-81865266D01*
X140335913Y-81691467D01*
X140335909Y-81691460D01*
X140210883Y-81539116D01*
X140058539Y-81414090D01*
X140058532Y-81414086D01*
X139884733Y-81321188D01*
X139884727Y-81321186D01*
X139696132Y-81263976D01*
X139696129Y-81263975D01*
X139500000Y-81244659D01*
X139303870Y-81263975D01*
X139115266Y-81321188D01*
X138941467Y-81414086D01*
X138941460Y-81414090D01*
X138789116Y-81539116D01*
X138664090Y-81691460D01*
X138664086Y-81691467D01*
X138571188Y-81865266D01*
X138513975Y-82053870D01*
X138494659Y-82250000D01*
X119500000Y-82250000D01*
X119500000Y-60242135D01*
X129349500Y-60242135D01*
X129349500Y-62242870D01*
X129349501Y-62242876D01*
X129355908Y-62302483D01*
X129406202Y-62437328D01*
X129406206Y-62437335D01*
X129492452Y-62552544D01*
X129492455Y-62552547D01*
X129607664Y-62638793D01*
X129607671Y-62638797D01*
X129742517Y-62689091D01*
X129742516Y-62689091D01*
X129749444Y-62689835D01*
X129802127Y-62695500D01*
X131897872Y-62695499D01*
X131957483Y-62689091D01*
X132092331Y-62638796D01*
X132207546Y-62552546D01*
X132293796Y-62437331D01*
X132344091Y-62302483D01*
X132350500Y-62242873D01*
X132350499Y-60242128D01*
X132344091Y-60182517D01*
X132314419Y-60102963D01*
X132293797Y-60047671D01*
X132293793Y-60047664D01*
X132207547Y-59932455D01*
X132207544Y-59932452D01*
X132092335Y-59846206D01*
X132092328Y-59846202D01*
X131957482Y-59795908D01*
X131957483Y-59795908D01*
X131897883Y-59789501D01*
X131897881Y-59789500D01*
X131897873Y-59789500D01*
X131897864Y-59789500D01*
X129802129Y-59789500D01*
X129802123Y-59789501D01*
X129742516Y-59795908D01*
X129607671Y-59846202D01*
X129607664Y-59846206D01*
X129492455Y-59932452D01*
X129492452Y-59932455D01*
X129406206Y-60047664D01*
X129406202Y-60047671D01*
X129355908Y-60182517D01*
X129349501Y-60242116D01*
X129349501Y-60242123D01*
X129349500Y-60242135D01*
X119500000Y-60242135D01*
X119500000Y-57874000D01*
X119519685Y-57806961D01*
X119572489Y-57761206D01*
X119624000Y-57750000D01*
X133376000Y-57750000D01*
X133443039Y-57769685D01*
G37*
%TD.AperFunction*%
%TD*%
%TA.AperFunction,Conductor*%
%TO.N,Net-(Q5-S)*%
G36*
X157042539Y-125519685D02*
G01*
X157088294Y-125572489D01*
X157099500Y-125624000D01*
X157099500Y-126660370D01*
X157099501Y-126660376D01*
X157105908Y-126719983D01*
X157156202Y-126854828D01*
X157156206Y-126854835D01*
X157242452Y-126970044D01*
X157242455Y-126970047D01*
X157357664Y-127056293D01*
X157357671Y-127056297D01*
X157492517Y-127106591D01*
X157492516Y-127106591D01*
X157499444Y-127107335D01*
X157552127Y-127113000D01*
X159647872Y-127112999D01*
X159707483Y-127106591D01*
X159842331Y-127056296D01*
X159957546Y-126970046D01*
X160043796Y-126854831D01*
X160094091Y-126719983D01*
X160100500Y-126660373D01*
X160100499Y-125623998D01*
X160120183Y-125556961D01*
X160172987Y-125511206D01*
X160224499Y-125500000D01*
X166948638Y-125500000D01*
X167015677Y-125519685D01*
X167036319Y-125536319D01*
X171000000Y-129500000D01*
X178376000Y-129500000D01*
X178443039Y-129519685D01*
X178488794Y-129572489D01*
X178500000Y-129624000D01*
X178500000Y-136626000D01*
X178480315Y-136693039D01*
X178427511Y-136738794D01*
X178376000Y-136750000D01*
X177750000Y-136750000D01*
X177250000Y-136750000D01*
X168801362Y-136750000D01*
X168734323Y-136730315D01*
X168713681Y-136713681D01*
X165750000Y-133750000D01*
X158500000Y-133750000D01*
X158499999Y-133750000D01*
X155286319Y-136963681D01*
X155224996Y-136997166D01*
X155198638Y-137000000D01*
X129124000Y-137000000D01*
X129056961Y-136980315D01*
X129011206Y-136927511D01*
X129000000Y-136876000D01*
X129000000Y-130625646D01*
X157099500Y-130625646D01*
X157099500Y-130854353D01*
X157135278Y-131080246D01*
X157135278Y-131080249D01*
X157205950Y-131297755D01*
X157205952Y-131297758D01*
X157309783Y-131501538D01*
X157444214Y-131686566D01*
X157605934Y-131848286D01*
X157790962Y-131982717D01*
X157994742Y-132086548D01*
X157994744Y-132086549D01*
X158212251Y-132157221D01*
X158212252Y-132157221D01*
X158212255Y-132157222D01*
X158438146Y-132193000D01*
X158438147Y-132193000D01*
X158761853Y-132193000D01*
X158761854Y-132193000D01*
X158987745Y-132157222D01*
X158987748Y-132157221D01*
X158987749Y-132157221D01*
X159205255Y-132086549D01*
X159205255Y-132086548D01*
X159205258Y-132086548D01*
X159409038Y-131982717D01*
X159594066Y-131848286D01*
X159755786Y-131686566D01*
X159890217Y-131501538D01*
X159994048Y-131297758D01*
X160064722Y-131080245D01*
X160100500Y-130854354D01*
X160100500Y-130625646D01*
X160064722Y-130399755D01*
X160064721Y-130399751D01*
X160064721Y-130399750D01*
X159994049Y-130182244D01*
X159890216Y-129978461D01*
X159755786Y-129793434D01*
X159594066Y-129631714D01*
X159409038Y-129497283D01*
X159205255Y-129393450D01*
X158987748Y-129322778D01*
X158818326Y-129295944D01*
X158761854Y-129287000D01*
X158438146Y-129287000D01*
X158362849Y-129298926D01*
X158212253Y-129322778D01*
X158212250Y-129322778D01*
X157994744Y-129393450D01*
X157790961Y-129497283D01*
X157760128Y-129519685D01*
X157605934Y-129631714D01*
X157605932Y-129631716D01*
X157605931Y-129631716D01*
X157444216Y-129793431D01*
X157444216Y-129793432D01*
X157444214Y-129793434D01*
X157434386Y-129806961D01*
X157309783Y-129978461D01*
X157205950Y-130182244D01*
X157135278Y-130399750D01*
X157135278Y-130399753D01*
X157099500Y-130625646D01*
X129000000Y-130625646D01*
X129000000Y-129874000D01*
X129019685Y-129806961D01*
X129072489Y-129761206D01*
X129124000Y-129750000D01*
X150500000Y-129750000D01*
X154713681Y-125536319D01*
X154775004Y-125502834D01*
X154801362Y-125500000D01*
X156975500Y-125500000D01*
X157042539Y-125519685D01*
G37*
%TD.AperFunction*%
%TD*%
%TA.AperFunction,Conductor*%
%TO.N,+15V*%
G36*
X117443568Y-64519685D02*
G01*
X117489323Y-64572489D01*
X117500528Y-64623470D01*
X117522479Y-69760115D01*
X117503081Y-69827238D01*
X117450473Y-69873218D01*
X117381358Y-69883457D01*
X117317678Y-69854704D01*
X117300630Y-69833632D01*
X117299112Y-69834769D01*
X117207547Y-69712455D01*
X117207544Y-69712452D01*
X117092335Y-69626206D01*
X117092328Y-69626202D01*
X116957482Y-69575908D01*
X116957483Y-69575908D01*
X116897883Y-69569501D01*
X116897881Y-69569500D01*
X116897873Y-69569500D01*
X116897864Y-69569500D01*
X114602129Y-69569500D01*
X114602123Y-69569501D01*
X114542516Y-69575908D01*
X114407671Y-69626202D01*
X114407664Y-69626206D01*
X114292455Y-69712452D01*
X114292452Y-69712455D01*
X114206206Y-69827664D01*
X114206202Y-69827671D01*
X114155908Y-69962517D01*
X114149501Y-70022116D01*
X114149500Y-70022135D01*
X114149500Y-72317870D01*
X114149501Y-72317876D01*
X114155908Y-72377483D01*
X114206202Y-72512328D01*
X114206206Y-72512335D01*
X114292452Y-72627544D01*
X114292455Y-72627547D01*
X114407664Y-72713793D01*
X114407671Y-72713797D01*
X114542517Y-72764091D01*
X114542516Y-72764091D01*
X114549444Y-72764835D01*
X114602127Y-72770500D01*
X116897872Y-72770499D01*
X116957483Y-72764091D01*
X117092331Y-72713796D01*
X117207546Y-72627546D01*
X117293796Y-72512331D01*
X117294235Y-72511153D01*
X117294988Y-72510146D01*
X117298047Y-72504546D01*
X117298851Y-72504985D01*
X117336102Y-72455219D01*
X117401565Y-72430798D01*
X117469839Y-72445645D01*
X117519247Y-72495047D01*
X117534418Y-72553951D01*
X117749791Y-122951212D01*
X117730393Y-123018335D01*
X117716908Y-123035849D01*
X114786824Y-126210107D01*
X114726888Y-126246016D01*
X114695708Y-126250000D01*
X108249999Y-126250000D01*
X101600815Y-133547883D01*
X101541114Y-133584181D01*
X101471266Y-133582440D01*
X101413448Y-133543212D01*
X101386927Y-133483162D01*
X101386903Y-133483168D01*
X101386876Y-133483047D01*
X101386415Y-133482002D01*
X101385961Y-133478847D01*
X101385961Y-133478840D01*
X101328175Y-133213199D01*
X101233172Y-132958487D01*
X101233170Y-132958484D01*
X101233169Y-132958480D01*
X101102890Y-132719892D01*
X101102889Y-132719891D01*
X101102887Y-132719887D01*
X100939971Y-132502258D01*
X100939966Y-132502253D01*
X100939961Y-132502247D01*
X100747752Y-132310038D01*
X100747746Y-132310033D01*
X100747742Y-132310029D01*
X100530113Y-132147113D01*
X100530108Y-132147110D01*
X100530107Y-132147109D01*
X100291518Y-132016830D01*
X100291519Y-132016830D01*
X100241920Y-131998330D01*
X100036801Y-131921825D01*
X100036794Y-131921823D01*
X100036793Y-131921823D01*
X99771167Y-131864040D01*
X99771160Y-131864039D01*
X99500001Y-131844645D01*
X99499999Y-131844645D01*
X99228839Y-131864039D01*
X99228832Y-131864040D01*
X98963206Y-131921823D01*
X98963202Y-131921824D01*
X98963199Y-131921825D01*
X98867098Y-131957669D01*
X98708480Y-132016830D01*
X98469892Y-132147109D01*
X98469891Y-132147110D01*
X98252259Y-132310028D01*
X98252247Y-132310038D01*
X98060038Y-132502247D01*
X98060028Y-132502259D01*
X97897110Y-132719891D01*
X97897109Y-132719892D01*
X97766830Y-132958480D01*
X97719326Y-133085843D01*
X97671825Y-133213199D01*
X97671824Y-133213202D01*
X97671823Y-133213206D01*
X97614040Y-133478832D01*
X97614039Y-133478839D01*
X97594645Y-133749998D01*
X97594645Y-133750001D01*
X97614039Y-134021160D01*
X97614040Y-134021167D01*
X97671823Y-134286793D01*
X97671825Y-134286801D01*
X97748330Y-134491920D01*
X97766830Y-134541519D01*
X97897109Y-134780107D01*
X97897110Y-134780108D01*
X97897113Y-134780113D01*
X98060029Y-134997742D01*
X98060033Y-134997746D01*
X98060038Y-134997752D01*
X98252247Y-135189961D01*
X98252253Y-135189966D01*
X98252258Y-135189971D01*
X98469887Y-135352887D01*
X98469891Y-135352889D01*
X98469892Y-135352890D01*
X98708481Y-135483169D01*
X98708480Y-135483169D01*
X98708484Y-135483170D01*
X98708487Y-135483172D01*
X98963199Y-135578175D01*
X99228840Y-135635961D01*
X99414644Y-135649250D01*
X99480108Y-135673667D01*
X99521980Y-135729601D01*
X99526964Y-135799292D01*
X99497458Y-135856447D01*
X98036888Y-137459513D01*
X97977187Y-137495811D01*
X97945228Y-137500000D01*
X91624000Y-137500000D01*
X91556961Y-137480315D01*
X91511206Y-137427511D01*
X91500000Y-137376000D01*
X91500000Y-127874000D01*
X91519685Y-127806961D01*
X91572489Y-127761206D01*
X91624000Y-127750000D01*
X96749999Y-127750000D01*
X96750000Y-127750000D01*
X100690150Y-123682747D01*
X100726796Y-123656652D01*
X100782734Y-123630568D01*
X100969139Y-123500047D01*
X101130047Y-123339139D01*
X101260568Y-123152734D01*
X101304629Y-123058244D01*
X101327938Y-123024386D01*
X104296564Y-119959998D01*
X106444532Y-119959998D01*
X106444532Y-119960001D01*
X106464364Y-120186686D01*
X106464366Y-120186697D01*
X106523258Y-120406488D01*
X106523261Y-120406497D01*
X106619431Y-120612732D01*
X106619432Y-120612734D01*
X106749954Y-120799141D01*
X106910858Y-120960045D01*
X106935462Y-120977273D01*
X106979087Y-121031849D01*
X106986281Y-121101348D01*
X106954758Y-121163703D01*
X106894529Y-121199117D01*
X106877593Y-121202138D01*
X106842516Y-121205908D01*
X106707671Y-121256202D01*
X106707664Y-121256206D01*
X106592455Y-121342452D01*
X106592452Y-121342455D01*
X106506206Y-121457664D01*
X106506202Y-121457671D01*
X106455908Y-121592517D01*
X106449501Y-121652116D01*
X106449501Y-121652123D01*
X106449500Y-121652135D01*
X106449500Y-123347870D01*
X106449501Y-123347876D01*
X106455908Y-123407483D01*
X106506202Y-123542328D01*
X106506206Y-123542335D01*
X106592452Y-123657544D01*
X106592455Y-123657547D01*
X106707664Y-123743793D01*
X106707671Y-123743797D01*
X106842517Y-123794091D01*
X106842516Y-123794091D01*
X106849444Y-123794835D01*
X106902127Y-123800500D01*
X108597872Y-123800499D01*
X108657483Y-123794091D01*
X108792331Y-123743796D01*
X108907546Y-123657546D01*
X108993796Y-123542331D01*
X109044091Y-123407483D01*
X109050500Y-123347873D01*
X109050499Y-121652128D01*
X109044091Y-121592517D01*
X108993796Y-121457669D01*
X108993795Y-121457668D01*
X108993793Y-121457664D01*
X108907547Y-121342455D01*
X108907544Y-121342452D01*
X108792335Y-121256206D01*
X108792328Y-121256202D01*
X108657482Y-121205908D01*
X108657483Y-121205908D01*
X108622404Y-121202137D01*
X108557853Y-121175399D01*
X108518005Y-121118006D01*
X108515512Y-121048181D01*
X108551165Y-120988092D01*
X108564539Y-120977272D01*
X108589140Y-120960046D01*
X108750045Y-120799141D01*
X108750047Y-120799139D01*
X108880568Y-120612734D01*
X108976739Y-120406496D01*
X109035635Y-120186692D01*
X109055468Y-119960000D01*
X109035635Y-119733308D01*
X108976739Y-119513504D01*
X108880568Y-119307266D01*
X108750047Y-119120861D01*
X108750045Y-119120858D01*
X108589141Y-118959954D01*
X108402734Y-118829432D01*
X108402732Y-118829431D01*
X108196497Y-118733261D01*
X108196488Y-118733258D01*
X107976697Y-118674366D01*
X107976693Y-118674365D01*
X107976692Y-118674365D01*
X107976691Y-118674364D01*
X107976686Y-118674364D01*
X107750002Y-118654532D01*
X107749998Y-118654532D01*
X107523313Y-118674364D01*
X107523302Y-118674366D01*
X107303511Y-118733258D01*
X107303502Y-118733261D01*
X107097267Y-118829431D01*
X107097265Y-118829432D01*
X106910858Y-118959954D01*
X106749954Y-119120858D01*
X106619432Y-119307265D01*
X106619431Y-119307267D01*
X106523261Y-119513502D01*
X106523258Y-119513511D01*
X106464366Y-119733302D01*
X106464364Y-119733313D01*
X106444532Y-119959998D01*
X104296564Y-119959998D01*
X104500000Y-119750000D01*
X104500000Y-116750000D01*
X112294901Y-116750000D01*
X112313252Y-116936331D01*
X112313253Y-116936333D01*
X112367604Y-117115502D01*
X112455862Y-117280623D01*
X112455864Y-117280626D01*
X112574642Y-117425357D01*
X112701110Y-117529147D01*
X112740444Y-117586893D01*
X112742315Y-117656737D01*
X112706127Y-117716506D01*
X112701110Y-117720853D01*
X112574642Y-117824642D01*
X112455864Y-117969373D01*
X112455862Y-117969376D01*
X112367604Y-118134497D01*
X112313253Y-118313666D01*
X112313252Y-118313668D01*
X112294901Y-118500000D01*
X112313252Y-118686331D01*
X112313253Y-118686333D01*
X112367604Y-118865502D01*
X112455862Y-119030623D01*
X112455864Y-119030626D01*
X112574642Y-119175357D01*
X112719373Y-119294135D01*
X112719376Y-119294137D01*
X112884497Y-119382395D01*
X112884499Y-119382396D01*
X113063666Y-119436746D01*
X113063668Y-119436747D01*
X113080374Y-119438392D01*
X113250000Y-119455099D01*
X113436331Y-119436747D01*
X113615501Y-119382396D01*
X113780625Y-119294136D01*
X113925357Y-119175357D01*
X114044136Y-119030625D01*
X114132396Y-118865501D01*
X114186747Y-118686331D01*
X114205099Y-118500000D01*
X114186747Y-118313669D01*
X114132396Y-118134499D01*
X114132395Y-118134497D01*
X114044137Y-117969376D01*
X114044135Y-117969373D01*
X113925357Y-117824642D01*
X113798889Y-117720853D01*
X113759555Y-117663108D01*
X113757684Y-117593263D01*
X113793871Y-117533495D01*
X113798889Y-117529147D01*
X113925357Y-117425357D01*
X114044135Y-117280626D01*
X114044137Y-117280623D01*
X114132396Y-117115501D01*
X114186747Y-116936331D01*
X114205099Y-116750000D01*
X114186747Y-116563669D01*
X114132396Y-116384499D01*
X114044136Y-116219375D01*
X114044135Y-116219373D01*
X113925357Y-116074642D01*
X113780626Y-115955864D01*
X113780623Y-115955862D01*
X113615502Y-115867604D01*
X113436333Y-115813253D01*
X113436331Y-115813252D01*
X113250000Y-115794901D01*
X113063668Y-115813252D01*
X113063666Y-115813253D01*
X112884497Y-115867604D01*
X112719376Y-115955862D01*
X112719373Y-115955864D01*
X112574642Y-116074642D01*
X112455864Y-116219373D01*
X112455862Y-116219376D01*
X112367604Y-116384497D01*
X112313253Y-116563666D01*
X112313252Y-116563668D01*
X112294901Y-116750000D01*
X104500000Y-116750000D01*
X104500000Y-107259998D01*
X106444532Y-107259998D01*
X106444532Y-107260001D01*
X106464364Y-107486686D01*
X106464366Y-107486697D01*
X106523258Y-107706488D01*
X106523261Y-107706497D01*
X106619431Y-107912732D01*
X106619432Y-107912734D01*
X106749954Y-108099141D01*
X106910858Y-108260045D01*
X106910861Y-108260047D01*
X107097266Y-108390568D01*
X107155275Y-108417618D01*
X107207714Y-108463791D01*
X107226866Y-108530984D01*
X107206650Y-108597865D01*
X107155275Y-108642382D01*
X107097267Y-108669431D01*
X107097265Y-108669432D01*
X106910858Y-108799954D01*
X106749954Y-108960858D01*
X106619432Y-109147265D01*
X106619431Y-109147267D01*
X106523261Y-109353502D01*
X106523258Y-109353511D01*
X106464366Y-109573302D01*
X106464364Y-109573313D01*
X106444532Y-109799998D01*
X106444532Y-109800001D01*
X106464364Y-110026686D01*
X106464366Y-110026697D01*
X106523258Y-110246488D01*
X106523261Y-110246497D01*
X106619431Y-110452732D01*
X106619432Y-110452734D01*
X106749954Y-110639141D01*
X106910858Y-110800045D01*
X106910861Y-110800047D01*
X107097266Y-110930568D01*
X107155275Y-110957618D01*
X107207714Y-111003791D01*
X107226866Y-111070984D01*
X107206650Y-111137865D01*
X107155275Y-111182382D01*
X107097267Y-111209431D01*
X107097265Y-111209432D01*
X106910858Y-111339954D01*
X106749954Y-111500858D01*
X106619432Y-111687265D01*
X106619431Y-111687267D01*
X106523261Y-111893502D01*
X106523258Y-111893511D01*
X106464366Y-112113302D01*
X106464364Y-112113313D01*
X106444532Y-112339998D01*
X106444532Y-112340001D01*
X106464364Y-112566686D01*
X106464366Y-112566697D01*
X106523258Y-112786488D01*
X106523261Y-112786497D01*
X106619431Y-112992732D01*
X106619432Y-112992734D01*
X106749954Y-113179141D01*
X106910858Y-113340045D01*
X106910861Y-113340047D01*
X107097266Y-113470568D01*
X107155275Y-113497618D01*
X107207714Y-113543791D01*
X107226866Y-113610984D01*
X107206650Y-113677865D01*
X107155275Y-113722382D01*
X107097267Y-113749431D01*
X107097265Y-113749432D01*
X106910858Y-113879954D01*
X106749954Y-114040858D01*
X106619432Y-114227265D01*
X106619431Y-114227267D01*
X106523261Y-114433502D01*
X106523258Y-114433511D01*
X106464366Y-114653302D01*
X106464364Y-114653313D01*
X106444532Y-114879998D01*
X106444532Y-114880001D01*
X106464364Y-115106686D01*
X106464366Y-115106697D01*
X106523258Y-115326488D01*
X106523261Y-115326497D01*
X106619431Y-115532732D01*
X106619432Y-115532734D01*
X106749954Y-115719141D01*
X106910858Y-115880045D01*
X106910861Y-115880047D01*
X107097266Y-116010568D01*
X107303504Y-116106739D01*
X107523308Y-116165635D01*
X107685230Y-116179801D01*
X107749998Y-116185468D01*
X107750000Y-116185468D01*
X107750002Y-116185468D01*
X107806673Y-116180509D01*
X107976692Y-116165635D01*
X108196496Y-116106739D01*
X108402734Y-116010568D01*
X108589139Y-115880047D01*
X108750047Y-115719139D01*
X108880568Y-115532734D01*
X108976739Y-115326496D01*
X109035635Y-115106692D01*
X109055468Y-114880000D01*
X109035635Y-114653308D01*
X108976739Y-114433504D01*
X108880568Y-114227266D01*
X108750047Y-114040861D01*
X108750045Y-114040858D01*
X108589141Y-113879954D01*
X108402734Y-113749432D01*
X108402728Y-113749429D01*
X108344725Y-113722382D01*
X108292285Y-113676210D01*
X108273133Y-113609017D01*
X108293348Y-113542135D01*
X108344725Y-113497618D01*
X108402734Y-113470568D01*
X108589139Y-113340047D01*
X108750047Y-113179139D01*
X108880568Y-112992734D01*
X108976739Y-112786496D01*
X109035635Y-112566692D01*
X109055468Y-112340000D01*
X109035635Y-112113308D01*
X108976739Y-111893504D01*
X108880568Y-111687266D01*
X108750047Y-111500861D01*
X108750045Y-111500858D01*
X108589141Y-111339954D01*
X108402734Y-111209432D01*
X108402728Y-111209429D01*
X108344725Y-111182382D01*
X108292285Y-111136210D01*
X108273133Y-111069017D01*
X108293348Y-111002135D01*
X108344725Y-110957618D01*
X108402734Y-110930568D01*
X108589139Y-110800047D01*
X108750047Y-110639139D01*
X108880568Y-110452734D01*
X108976739Y-110246496D01*
X109035635Y-110026692D01*
X109055468Y-109800000D01*
X109035635Y-109573308D01*
X109021923Y-109522135D01*
X114149500Y-109522135D01*
X114149500Y-111817870D01*
X114149501Y-111817876D01*
X114155908Y-111877483D01*
X114206202Y-112012328D01*
X114206206Y-112012335D01*
X114292452Y-112127544D01*
X114292455Y-112127547D01*
X114407664Y-112213793D01*
X114407671Y-112213797D01*
X114542517Y-112264091D01*
X114542516Y-112264091D01*
X114549444Y-112264835D01*
X114602127Y-112270500D01*
X116897872Y-112270499D01*
X116957483Y-112264091D01*
X117092331Y-112213796D01*
X117207546Y-112127546D01*
X117293796Y-112012331D01*
X117344091Y-111877483D01*
X117350500Y-111817873D01*
X117350499Y-109522128D01*
X117344091Y-109462517D01*
X117303434Y-109353511D01*
X117293797Y-109327671D01*
X117293793Y-109327664D01*
X117207547Y-109212455D01*
X117207544Y-109212452D01*
X117092335Y-109126206D01*
X117092328Y-109126202D01*
X116957482Y-109075908D01*
X116957483Y-109075908D01*
X116897883Y-109069501D01*
X116897881Y-109069500D01*
X116897873Y-109069500D01*
X116897864Y-109069500D01*
X114602129Y-109069500D01*
X114602123Y-109069501D01*
X114542516Y-109075908D01*
X114407671Y-109126202D01*
X114407664Y-109126206D01*
X114292455Y-109212452D01*
X114292452Y-109212455D01*
X114206206Y-109327664D01*
X114206202Y-109327671D01*
X114155908Y-109462517D01*
X114149501Y-109522116D01*
X114149501Y-109522123D01*
X114149500Y-109522135D01*
X109021923Y-109522135D01*
X108976739Y-109353504D01*
X108880568Y-109147266D01*
X108750047Y-108960861D01*
X108750045Y-108960858D01*
X108589141Y-108799954D01*
X108402734Y-108669432D01*
X108402728Y-108669429D01*
X108344725Y-108642382D01*
X108292285Y-108596210D01*
X108273133Y-108529017D01*
X108293348Y-108462135D01*
X108344725Y-108417618D01*
X108402734Y-108390568D01*
X108589139Y-108260047D01*
X108750047Y-108099139D01*
X108880568Y-107912734D01*
X108976739Y-107706496D01*
X109035635Y-107486692D01*
X109055468Y-107260000D01*
X109035635Y-107033308D01*
X108976739Y-106813504D01*
X108880568Y-106607266D01*
X108750047Y-106420861D01*
X108750045Y-106420858D01*
X108589141Y-106259954D01*
X108402734Y-106129432D01*
X108402732Y-106129431D01*
X108196497Y-106033261D01*
X108196488Y-106033258D01*
X107976697Y-105974366D01*
X107976693Y-105974365D01*
X107976692Y-105974365D01*
X107976691Y-105974364D01*
X107976686Y-105974364D01*
X107750002Y-105954532D01*
X107749998Y-105954532D01*
X107523313Y-105974364D01*
X107523302Y-105974366D01*
X107303511Y-106033258D01*
X107303502Y-106033261D01*
X107097267Y-106129431D01*
X107097265Y-106129432D01*
X106910858Y-106259954D01*
X106749954Y-106420858D01*
X106619432Y-106607265D01*
X106619431Y-106607267D01*
X106523261Y-106813502D01*
X106523258Y-106813511D01*
X106464366Y-107033302D01*
X106464364Y-107033313D01*
X106444532Y-107259998D01*
X104500000Y-107259998D01*
X104500000Y-100709998D01*
X106494532Y-100709998D01*
X106494532Y-100710001D01*
X106514364Y-100936686D01*
X106514366Y-100936697D01*
X106573258Y-101156488D01*
X106573261Y-101156497D01*
X106669431Y-101362732D01*
X106669432Y-101362734D01*
X106799954Y-101549141D01*
X106960858Y-101710045D01*
X106985462Y-101727273D01*
X107029087Y-101781849D01*
X107036281Y-101851348D01*
X107004758Y-101913703D01*
X106944529Y-101949117D01*
X106927593Y-101952138D01*
X106892516Y-101955908D01*
X106757671Y-102006202D01*
X106757664Y-102006206D01*
X106642455Y-102092452D01*
X106642452Y-102092455D01*
X106556206Y-102207664D01*
X106556202Y-102207671D01*
X106505908Y-102342517D01*
X106499501Y-102402116D01*
X106499501Y-102402123D01*
X106499500Y-102402135D01*
X106499500Y-104097870D01*
X106499501Y-104097876D01*
X106505908Y-104157483D01*
X106556202Y-104292328D01*
X106556206Y-104292335D01*
X106642452Y-104407544D01*
X106642455Y-104407547D01*
X106757664Y-104493793D01*
X106757671Y-104493797D01*
X106892517Y-104544091D01*
X106892516Y-104544091D01*
X106899444Y-104544835D01*
X106952127Y-104550500D01*
X108647872Y-104550499D01*
X108707483Y-104544091D01*
X108842331Y-104493796D01*
X108957546Y-104407546D01*
X109043796Y-104292331D01*
X109094091Y-104157483D01*
X109100500Y-104097873D01*
X109100499Y-102402128D01*
X109094091Y-102342517D01*
X109085851Y-102320425D01*
X109043797Y-102207671D01*
X109043793Y-102207664D01*
X108957547Y-102092455D01*
X108957544Y-102092452D01*
X108842335Y-102006206D01*
X108842328Y-102006202D01*
X108707482Y-101955908D01*
X108707483Y-101955908D01*
X108672404Y-101952137D01*
X108607853Y-101925399D01*
X108568005Y-101868006D01*
X108565512Y-101798181D01*
X108601165Y-101738092D01*
X108614539Y-101727272D01*
X108639140Y-101710046D01*
X108800045Y-101549141D01*
X108800047Y-101549139D01*
X108930568Y-101362734D01*
X109026739Y-101156496D01*
X109085635Y-100936692D01*
X109105468Y-100710000D01*
X109085635Y-100483308D01*
X109026739Y-100263504D01*
X108930568Y-100057266D01*
X108800047Y-99870861D01*
X108800045Y-99870858D01*
X108639141Y-99709954D01*
X108452734Y-99579432D01*
X108452732Y-99579431D01*
X108246497Y-99483261D01*
X108246488Y-99483258D01*
X108026697Y-99424366D01*
X108026693Y-99424365D01*
X108026692Y-99424365D01*
X108026691Y-99424364D01*
X108026686Y-99424364D01*
X107800002Y-99404532D01*
X107799998Y-99404532D01*
X107573313Y-99424364D01*
X107573302Y-99424366D01*
X107353511Y-99483258D01*
X107353502Y-99483261D01*
X107147267Y-99579431D01*
X107147265Y-99579432D01*
X106960858Y-99709954D01*
X106799954Y-99870858D01*
X106669432Y-100057265D01*
X106669431Y-100057267D01*
X106573261Y-100263502D01*
X106573258Y-100263511D01*
X106514366Y-100483302D01*
X106514364Y-100483313D01*
X106494532Y-100709998D01*
X104500000Y-100709998D01*
X104500000Y-97500000D01*
X112294901Y-97500000D01*
X112313252Y-97686331D01*
X112313253Y-97686333D01*
X112367604Y-97865502D01*
X112455862Y-98030623D01*
X112455864Y-98030626D01*
X112574642Y-98175357D01*
X112701110Y-98279147D01*
X112740444Y-98336893D01*
X112742315Y-98406737D01*
X112706127Y-98466506D01*
X112701110Y-98470853D01*
X112574642Y-98574642D01*
X112455864Y-98719373D01*
X112455862Y-98719376D01*
X112367604Y-98884497D01*
X112313253Y-99063666D01*
X112313252Y-99063668D01*
X112294901Y-99250000D01*
X112313252Y-99436331D01*
X112313253Y-99436333D01*
X112367604Y-99615502D01*
X112455862Y-99780623D01*
X112455864Y-99780626D01*
X112574642Y-99925357D01*
X112719373Y-100044135D01*
X112719376Y-100044137D01*
X112769157Y-100070745D01*
X112884499Y-100132396D01*
X113063666Y-100186746D01*
X113063668Y-100186747D01*
X113080374Y-100188392D01*
X113250000Y-100205099D01*
X113436331Y-100186747D01*
X113615501Y-100132396D01*
X113780625Y-100044136D01*
X113925357Y-99925357D01*
X114044136Y-99780625D01*
X114132396Y-99615501D01*
X114186747Y-99436331D01*
X114205099Y-99250000D01*
X114186747Y-99063669D01*
X114132396Y-98884499D01*
X114044136Y-98719375D01*
X114044135Y-98719373D01*
X113925357Y-98574642D01*
X113798889Y-98470853D01*
X113759555Y-98413108D01*
X113757684Y-98343263D01*
X113793871Y-98283495D01*
X113798889Y-98279147D01*
X113925357Y-98175357D01*
X113954723Y-98139575D01*
X114044136Y-98030625D01*
X114132396Y-97865501D01*
X114186747Y-97686331D01*
X114205099Y-97500000D01*
X114186747Y-97313669D01*
X114132396Y-97134499D01*
X114044136Y-96969375D01*
X114044135Y-96969373D01*
X113925357Y-96824642D01*
X113780626Y-96705864D01*
X113780623Y-96705862D01*
X113615502Y-96617604D01*
X113436333Y-96563253D01*
X113436331Y-96563252D01*
X113250000Y-96544901D01*
X113063668Y-96563252D01*
X113063666Y-96563253D01*
X112884497Y-96617604D01*
X112719376Y-96705862D01*
X112719373Y-96705864D01*
X112574642Y-96824642D01*
X112455864Y-96969373D01*
X112455862Y-96969376D01*
X112367604Y-97134497D01*
X112313253Y-97313666D01*
X112313252Y-97313668D01*
X112294901Y-97500000D01*
X104500000Y-97500000D01*
X104500000Y-88009998D01*
X106494532Y-88009998D01*
X106494532Y-88010001D01*
X106514364Y-88236686D01*
X106514366Y-88236697D01*
X106573258Y-88456488D01*
X106573261Y-88456497D01*
X106669431Y-88662732D01*
X106669432Y-88662734D01*
X106799954Y-88849141D01*
X106960858Y-89010045D01*
X106960861Y-89010047D01*
X107147266Y-89140568D01*
X107205275Y-89167618D01*
X107257714Y-89213791D01*
X107276866Y-89280984D01*
X107256650Y-89347865D01*
X107205275Y-89392382D01*
X107147267Y-89419431D01*
X107147265Y-89419432D01*
X106960858Y-89549954D01*
X106799954Y-89710858D01*
X106669432Y-89897265D01*
X106669431Y-89897267D01*
X106573261Y-90103502D01*
X106573258Y-90103511D01*
X106514366Y-90323302D01*
X106514364Y-90323313D01*
X106494532Y-90549998D01*
X106494532Y-90550001D01*
X106514364Y-90776686D01*
X106514366Y-90776697D01*
X106573258Y-90996488D01*
X106573261Y-90996497D01*
X106669431Y-91202732D01*
X106669432Y-91202734D01*
X106799954Y-91389141D01*
X106960858Y-91550045D01*
X106960861Y-91550047D01*
X107147266Y-91680568D01*
X107205275Y-91707618D01*
X107257714Y-91753791D01*
X107276866Y-91820984D01*
X107256650Y-91887865D01*
X107205275Y-91932382D01*
X107147267Y-91959431D01*
X107147265Y-91959432D01*
X106960858Y-92089954D01*
X106799954Y-92250858D01*
X106669432Y-92437265D01*
X106669431Y-92437267D01*
X106573261Y-92643502D01*
X106573258Y-92643511D01*
X106514366Y-92863302D01*
X106514364Y-92863313D01*
X106494532Y-93089998D01*
X106494532Y-93090001D01*
X106514364Y-93316686D01*
X106514366Y-93316697D01*
X106573258Y-93536488D01*
X106573261Y-93536497D01*
X106669431Y-93742732D01*
X106669432Y-93742734D01*
X106799954Y-93929141D01*
X106960858Y-94090045D01*
X106960861Y-94090047D01*
X107147266Y-94220568D01*
X107205275Y-94247618D01*
X107257714Y-94293791D01*
X107276866Y-94360984D01*
X107256650Y-94427865D01*
X107205275Y-94472382D01*
X107147267Y-94499431D01*
X107147265Y-94499432D01*
X106960858Y-94629954D01*
X106799954Y-94790858D01*
X106669432Y-94977265D01*
X106669431Y-94977267D01*
X106573261Y-95183502D01*
X106573258Y-95183511D01*
X106514366Y-95403302D01*
X106514364Y-95403313D01*
X106494532Y-95629998D01*
X106494532Y-95630001D01*
X106514364Y-95856686D01*
X106514366Y-95856697D01*
X106573258Y-96076488D01*
X106573261Y-96076497D01*
X106669431Y-96282732D01*
X106669432Y-96282734D01*
X106799954Y-96469141D01*
X106960858Y-96630045D01*
X106960861Y-96630047D01*
X107147266Y-96760568D01*
X107353504Y-96856739D01*
X107573308Y-96915635D01*
X107735230Y-96929801D01*
X107799998Y-96935468D01*
X107800000Y-96935468D01*
X107800002Y-96935468D01*
X107856673Y-96930509D01*
X108026692Y-96915635D01*
X108246496Y-96856739D01*
X108452734Y-96760568D01*
X108639139Y-96630047D01*
X108800047Y-96469139D01*
X108930568Y-96282734D01*
X109026739Y-96076496D01*
X109085635Y-95856692D01*
X109105468Y-95630000D01*
X109085635Y-95403308D01*
X109026739Y-95183504D01*
X108930568Y-94977266D01*
X108800047Y-94790861D01*
X108800045Y-94790858D01*
X108639141Y-94629954D01*
X108452734Y-94499432D01*
X108452728Y-94499429D01*
X108394725Y-94472382D01*
X108342285Y-94426210D01*
X108323133Y-94359017D01*
X108343348Y-94292135D01*
X108394725Y-94247618D01*
X108452734Y-94220568D01*
X108639139Y-94090047D01*
X108800047Y-93929139D01*
X108930568Y-93742734D01*
X109026739Y-93536496D01*
X109085635Y-93316692D01*
X109105468Y-93090000D01*
X109085635Y-92863308D01*
X109026739Y-92643504D01*
X108930568Y-92437266D01*
X108800047Y-92250861D01*
X108800045Y-92250858D01*
X108639141Y-92089954D01*
X108452734Y-91959432D01*
X108452728Y-91959429D01*
X108394725Y-91932382D01*
X108342285Y-91886210D01*
X108323133Y-91819017D01*
X108343348Y-91752135D01*
X108394725Y-91707618D01*
X108452734Y-91680568D01*
X108639139Y-91550047D01*
X108800047Y-91389139D01*
X108930568Y-91202734D01*
X109026739Y-90996496D01*
X109085635Y-90776692D01*
X109105468Y-90550000D01*
X109085635Y-90323308D01*
X109026739Y-90103504D01*
X108930568Y-89897266D01*
X108842951Y-89772135D01*
X113899500Y-89772135D01*
X113899500Y-92067870D01*
X113899501Y-92067876D01*
X113905908Y-92127483D01*
X113956202Y-92262328D01*
X113956206Y-92262335D01*
X114042452Y-92377544D01*
X114042455Y-92377547D01*
X114157664Y-92463793D01*
X114157671Y-92463797D01*
X114292517Y-92514091D01*
X114292516Y-92514091D01*
X114299444Y-92514835D01*
X114352127Y-92520500D01*
X116647872Y-92520499D01*
X116707483Y-92514091D01*
X116842331Y-92463796D01*
X116957546Y-92377546D01*
X117043796Y-92262331D01*
X117094091Y-92127483D01*
X117100500Y-92067873D01*
X117100499Y-89772128D01*
X117094091Y-89712517D01*
X117093473Y-89710861D01*
X117043797Y-89577671D01*
X117043793Y-89577664D01*
X116957547Y-89462455D01*
X116957544Y-89462452D01*
X116842335Y-89376206D01*
X116842328Y-89376202D01*
X116707482Y-89325908D01*
X116707483Y-89325908D01*
X116647883Y-89319501D01*
X116647881Y-89319500D01*
X116647873Y-89319500D01*
X116647864Y-89319500D01*
X114352129Y-89319500D01*
X114352123Y-89319501D01*
X114292516Y-89325908D01*
X114157671Y-89376202D01*
X114157664Y-89376206D01*
X114042455Y-89462452D01*
X114042452Y-89462455D01*
X113956206Y-89577664D01*
X113956202Y-89577671D01*
X113905908Y-89712517D01*
X113899501Y-89772116D01*
X113899501Y-89772123D01*
X113899500Y-89772135D01*
X108842951Y-89772135D01*
X108800047Y-89710861D01*
X108800045Y-89710858D01*
X108639141Y-89549954D01*
X108452734Y-89419432D01*
X108452728Y-89419429D01*
X108394725Y-89392382D01*
X108342285Y-89346210D01*
X108323133Y-89279017D01*
X108343348Y-89212135D01*
X108394725Y-89167618D01*
X108452734Y-89140568D01*
X108639139Y-89010047D01*
X108800047Y-88849139D01*
X108930568Y-88662734D01*
X109026739Y-88456496D01*
X109085635Y-88236692D01*
X109105468Y-88010000D01*
X109085635Y-87783308D01*
X109026739Y-87563504D01*
X108930568Y-87357266D01*
X108800047Y-87170861D01*
X108800045Y-87170858D01*
X108639141Y-87009954D01*
X108452734Y-86879432D01*
X108452732Y-86879431D01*
X108246497Y-86783261D01*
X108246488Y-86783258D01*
X108026697Y-86724366D01*
X108026693Y-86724365D01*
X108026692Y-86724365D01*
X108026691Y-86724364D01*
X108026686Y-86724364D01*
X107800002Y-86704532D01*
X107799998Y-86704532D01*
X107573313Y-86724364D01*
X107573302Y-86724366D01*
X107353511Y-86783258D01*
X107353502Y-86783261D01*
X107147267Y-86879431D01*
X107147265Y-86879432D01*
X106960858Y-87009954D01*
X106799954Y-87170858D01*
X106669432Y-87357265D01*
X106669431Y-87357267D01*
X106573261Y-87563502D01*
X106573258Y-87563511D01*
X106514366Y-87783302D01*
X106514364Y-87783313D01*
X106494532Y-88009998D01*
X104500000Y-88009998D01*
X104500000Y-81459998D01*
X106494532Y-81459998D01*
X106494532Y-81460001D01*
X106514364Y-81686686D01*
X106514366Y-81686697D01*
X106573258Y-81906488D01*
X106573261Y-81906497D01*
X106669431Y-82112732D01*
X106669432Y-82112734D01*
X106799954Y-82299141D01*
X106960858Y-82460045D01*
X106985462Y-82477273D01*
X107029087Y-82531849D01*
X107036281Y-82601348D01*
X107004758Y-82663703D01*
X106944529Y-82699117D01*
X106927593Y-82702138D01*
X106892516Y-82705908D01*
X106757671Y-82756202D01*
X106757664Y-82756206D01*
X106642455Y-82842452D01*
X106642452Y-82842455D01*
X106556206Y-82957664D01*
X106556202Y-82957671D01*
X106505908Y-83092517D01*
X106499501Y-83152116D01*
X106499501Y-83152123D01*
X106499500Y-83152135D01*
X106499500Y-84847870D01*
X106499501Y-84847876D01*
X106505908Y-84907483D01*
X106556202Y-85042328D01*
X106556206Y-85042335D01*
X106642452Y-85157544D01*
X106642455Y-85157547D01*
X106757664Y-85243793D01*
X106757671Y-85243797D01*
X106892517Y-85294091D01*
X106892516Y-85294091D01*
X106899444Y-85294835D01*
X106952127Y-85300500D01*
X108647872Y-85300499D01*
X108707483Y-85294091D01*
X108842331Y-85243796D01*
X108957546Y-85157546D01*
X109043796Y-85042331D01*
X109094091Y-84907483D01*
X109100500Y-84847873D01*
X109100499Y-83152128D01*
X109094091Y-83092517D01*
X109044665Y-82960000D01*
X109043797Y-82957671D01*
X109043793Y-82957664D01*
X108957547Y-82842455D01*
X108957544Y-82842452D01*
X108842335Y-82756206D01*
X108842328Y-82756202D01*
X108707482Y-82705908D01*
X108707483Y-82705908D01*
X108672404Y-82702137D01*
X108607853Y-82675399D01*
X108568005Y-82618006D01*
X108565512Y-82548181D01*
X108601165Y-82488092D01*
X108614539Y-82477272D01*
X108639140Y-82460046D01*
X108800045Y-82299141D01*
X108800047Y-82299139D01*
X108930568Y-82112734D01*
X109026739Y-81906496D01*
X109085635Y-81686692D01*
X109105468Y-81460000D01*
X109085635Y-81233308D01*
X109026739Y-81013504D01*
X108930568Y-80807266D01*
X108800047Y-80620861D01*
X108800045Y-80620858D01*
X108639141Y-80459954D01*
X108452734Y-80329432D01*
X108452732Y-80329431D01*
X108246497Y-80233261D01*
X108246488Y-80233258D01*
X108026697Y-80174366D01*
X108026693Y-80174365D01*
X108026692Y-80174365D01*
X108026691Y-80174364D01*
X108026686Y-80174364D01*
X107800002Y-80154532D01*
X107799998Y-80154532D01*
X107573313Y-80174364D01*
X107573302Y-80174366D01*
X107353511Y-80233258D01*
X107353502Y-80233261D01*
X107147267Y-80329431D01*
X107147265Y-80329432D01*
X106960858Y-80459954D01*
X106799954Y-80620858D01*
X106669432Y-80807265D01*
X106669431Y-80807267D01*
X106573261Y-81013502D01*
X106573258Y-81013511D01*
X106514366Y-81233302D01*
X106514364Y-81233313D01*
X106494532Y-81459998D01*
X104500000Y-81459998D01*
X104500000Y-78000000D01*
X112544901Y-78000000D01*
X112563252Y-78186331D01*
X112563253Y-78186333D01*
X112617604Y-78365502D01*
X112705862Y-78530623D01*
X112705864Y-78530626D01*
X112821341Y-78671335D01*
X112848654Y-78735645D01*
X112836863Y-78804513D01*
X112821341Y-78828665D01*
X112705864Y-78969373D01*
X112705862Y-78969376D01*
X112617604Y-79134497D01*
X112563253Y-79313666D01*
X112563252Y-79313668D01*
X112544901Y-79500000D01*
X112563252Y-79686331D01*
X112563253Y-79686333D01*
X112617604Y-79865502D01*
X112705862Y-80030623D01*
X112705864Y-80030626D01*
X112824642Y-80175357D01*
X112969373Y-80294135D01*
X112969376Y-80294137D01*
X113134497Y-80382395D01*
X113134499Y-80382396D01*
X113313666Y-80436746D01*
X113313668Y-80436747D01*
X113330374Y-80438392D01*
X113500000Y-80455099D01*
X113686331Y-80436747D01*
X113865501Y-80382396D01*
X114030625Y-80294136D01*
X114175357Y-80175357D01*
X114294136Y-80030625D01*
X114382396Y-79865501D01*
X114436747Y-79686331D01*
X114455099Y-79500000D01*
X114436747Y-79313669D01*
X114382396Y-79134499D01*
X114294136Y-78969375D01*
X114294135Y-78969373D01*
X114178658Y-78828665D01*
X114151345Y-78764355D01*
X114163136Y-78695488D01*
X114178658Y-78671335D01*
X114294135Y-78530626D01*
X114294137Y-78530623D01*
X114382396Y-78365501D01*
X114436747Y-78186331D01*
X114455099Y-78000000D01*
X114436747Y-77813669D01*
X114382396Y-77634499D01*
X114316154Y-77510568D01*
X114294137Y-77469376D01*
X114294135Y-77469373D01*
X114175357Y-77324642D01*
X114030626Y-77205864D01*
X114030623Y-77205862D01*
X113865502Y-77117604D01*
X113686333Y-77063253D01*
X113686331Y-77063252D01*
X113500000Y-77044901D01*
X113313668Y-77063252D01*
X113313666Y-77063253D01*
X113134497Y-77117604D01*
X112969376Y-77205862D01*
X112969373Y-77205864D01*
X112824642Y-77324642D01*
X112705864Y-77469373D01*
X112705862Y-77469376D01*
X112617604Y-77634497D01*
X112563253Y-77813666D01*
X112563252Y-77813668D01*
X112544901Y-78000000D01*
X104500000Y-78000000D01*
X104500000Y-68759998D01*
X106494532Y-68759998D01*
X106494532Y-68760001D01*
X106514364Y-68986686D01*
X106514366Y-68986697D01*
X106573258Y-69206488D01*
X106573261Y-69206497D01*
X106669431Y-69412732D01*
X106669432Y-69412734D01*
X106799954Y-69599141D01*
X106960858Y-69760045D01*
X106960861Y-69760047D01*
X107147266Y-69890568D01*
X107205275Y-69917618D01*
X107257714Y-69963791D01*
X107276866Y-70030984D01*
X107256650Y-70097865D01*
X107205275Y-70142382D01*
X107147267Y-70169431D01*
X107147265Y-70169432D01*
X106960858Y-70299954D01*
X106799954Y-70460858D01*
X106669432Y-70647265D01*
X106669431Y-70647267D01*
X106573261Y-70853502D01*
X106573258Y-70853511D01*
X106514366Y-71073302D01*
X106514364Y-71073313D01*
X106494532Y-71299998D01*
X106494532Y-71300001D01*
X106514364Y-71526686D01*
X106514366Y-71526697D01*
X106573258Y-71746488D01*
X106573261Y-71746497D01*
X106669431Y-71952732D01*
X106669432Y-71952734D01*
X106799954Y-72139141D01*
X106960858Y-72300045D01*
X106960861Y-72300047D01*
X107147266Y-72430568D01*
X107179599Y-72445645D01*
X107205275Y-72457618D01*
X107257714Y-72503791D01*
X107276866Y-72570984D01*
X107256650Y-72637865D01*
X107205275Y-72682382D01*
X107147267Y-72709431D01*
X107147265Y-72709432D01*
X106960858Y-72839954D01*
X106799954Y-73000858D01*
X106669432Y-73187265D01*
X106669431Y-73187267D01*
X106573261Y-73393502D01*
X106573258Y-73393511D01*
X106514366Y-73613302D01*
X106514364Y-73613313D01*
X106494532Y-73839998D01*
X106494532Y-73840001D01*
X106514364Y-74066686D01*
X106514366Y-74066697D01*
X106573258Y-74286488D01*
X106573261Y-74286497D01*
X106669431Y-74492732D01*
X106669432Y-74492734D01*
X106799954Y-74679141D01*
X106960858Y-74840045D01*
X106960861Y-74840047D01*
X107147266Y-74970568D01*
X107205275Y-74997618D01*
X107257714Y-75043791D01*
X107276866Y-75110984D01*
X107256650Y-75177865D01*
X107205275Y-75222382D01*
X107147267Y-75249431D01*
X107147265Y-75249432D01*
X106960858Y-75379954D01*
X106799954Y-75540858D01*
X106669432Y-75727265D01*
X106669431Y-75727267D01*
X106573261Y-75933502D01*
X106573258Y-75933511D01*
X106514366Y-76153302D01*
X106514364Y-76153313D01*
X106494532Y-76379998D01*
X106494532Y-76380001D01*
X106514364Y-76606686D01*
X106514366Y-76606697D01*
X106573258Y-76826488D01*
X106573261Y-76826497D01*
X106669431Y-77032732D01*
X106669432Y-77032734D01*
X106799954Y-77219141D01*
X106960858Y-77380045D01*
X106960861Y-77380047D01*
X107147266Y-77510568D01*
X107353504Y-77606739D01*
X107573308Y-77665635D01*
X107735230Y-77679801D01*
X107799998Y-77685468D01*
X107800000Y-77685468D01*
X107800002Y-77685468D01*
X107856673Y-77680509D01*
X108026692Y-77665635D01*
X108246496Y-77606739D01*
X108452734Y-77510568D01*
X108639139Y-77380047D01*
X108800047Y-77219139D01*
X108930568Y-77032734D01*
X109026739Y-76826496D01*
X109085635Y-76606692D01*
X109105468Y-76380000D01*
X109085635Y-76153308D01*
X109026739Y-75933504D01*
X108930568Y-75727266D01*
X108800047Y-75540861D01*
X108800045Y-75540858D01*
X108639141Y-75379954D01*
X108452734Y-75249432D01*
X108452728Y-75249429D01*
X108394725Y-75222382D01*
X108342285Y-75176210D01*
X108323133Y-75109017D01*
X108343348Y-75042135D01*
X108394725Y-74997618D01*
X108452734Y-74970568D01*
X108639139Y-74840047D01*
X108800047Y-74679139D01*
X108930568Y-74492734D01*
X109026739Y-74286496D01*
X109085635Y-74066692D01*
X109105468Y-73840000D01*
X109085635Y-73613308D01*
X109026739Y-73393504D01*
X108930568Y-73187266D01*
X108800047Y-73000861D01*
X108800045Y-73000858D01*
X108639141Y-72839954D01*
X108452734Y-72709432D01*
X108452728Y-72709429D01*
X108394725Y-72682382D01*
X108342285Y-72636210D01*
X108323133Y-72569017D01*
X108343348Y-72502135D01*
X108394725Y-72457618D01*
X108399870Y-72455219D01*
X108452734Y-72430568D01*
X108639139Y-72300047D01*
X108800047Y-72139139D01*
X108930568Y-71952734D01*
X109026739Y-71746496D01*
X109085635Y-71526692D01*
X109105468Y-71300000D01*
X109085635Y-71073308D01*
X109026739Y-70853504D01*
X108930568Y-70647266D01*
X108832839Y-70507693D01*
X108800045Y-70460858D01*
X108639141Y-70299954D01*
X108452734Y-70169432D01*
X108452728Y-70169429D01*
X108394725Y-70142382D01*
X108342285Y-70096210D01*
X108323133Y-70029017D01*
X108343348Y-69962135D01*
X108394725Y-69917618D01*
X108452734Y-69890568D01*
X108639139Y-69760047D01*
X108800047Y-69599139D01*
X108930568Y-69412734D01*
X109026739Y-69206496D01*
X109085635Y-68986692D01*
X109105468Y-68760000D01*
X109085635Y-68533308D01*
X109026739Y-68313504D01*
X108930568Y-68107266D01*
X108800047Y-67920861D01*
X108800045Y-67920858D01*
X108639141Y-67759954D01*
X108452734Y-67629432D01*
X108452732Y-67629431D01*
X108246497Y-67533261D01*
X108246488Y-67533258D01*
X108026697Y-67474366D01*
X108026693Y-67474365D01*
X108026692Y-67474365D01*
X108026691Y-67474364D01*
X108026686Y-67474364D01*
X107800002Y-67454532D01*
X107799998Y-67454532D01*
X107573313Y-67474364D01*
X107573302Y-67474366D01*
X107353511Y-67533258D01*
X107353502Y-67533261D01*
X107147267Y-67629431D01*
X107147265Y-67629432D01*
X106960858Y-67759954D01*
X106799954Y-67920858D01*
X106669432Y-68107265D01*
X106669431Y-68107267D01*
X106573261Y-68313502D01*
X106573258Y-68313511D01*
X106514366Y-68533302D01*
X106514364Y-68533313D01*
X106494532Y-68759998D01*
X104500000Y-68759998D01*
X104500000Y-64624000D01*
X104519685Y-64556961D01*
X104572489Y-64511206D01*
X104624000Y-64500000D01*
X117376529Y-64500000D01*
X117443568Y-64519685D01*
G37*
%TD.AperFunction*%
%TD*%
%TA.AperFunction,Conductor*%
%TO.N,+5V*%
G36*
X98961590Y-69269685D02*
G01*
X99006933Y-69321595D01*
X99049430Y-69412731D01*
X99179954Y-69599141D01*
X99340858Y-69760045D01*
X99340861Y-69760047D01*
X99527266Y-69890568D01*
X99585865Y-69917893D01*
X99638305Y-69964065D01*
X99657457Y-70031258D01*
X99637242Y-70098139D01*
X99585867Y-70142657D01*
X99527515Y-70169867D01*
X99341179Y-70300342D01*
X99180342Y-70461179D01*
X99049865Y-70647517D01*
X98953734Y-70853673D01*
X98953730Y-70853682D01*
X98901127Y-71049999D01*
X98901128Y-71050000D01*
X99864314Y-71050000D01*
X99859920Y-71054394D01*
X99807259Y-71145606D01*
X99780000Y-71247339D01*
X99780000Y-71352661D01*
X99807259Y-71454394D01*
X99859920Y-71545606D01*
X99864314Y-71550000D01*
X98901128Y-71550000D01*
X98953730Y-71746317D01*
X98953734Y-71746326D01*
X99049865Y-71952482D01*
X99180342Y-72138820D01*
X99341179Y-72299657D01*
X99527518Y-72430134D01*
X99527520Y-72430135D01*
X99585865Y-72457342D01*
X99638305Y-72503514D01*
X99657457Y-72570707D01*
X99637242Y-72637589D01*
X99585867Y-72682105D01*
X99527268Y-72709431D01*
X99527264Y-72709433D01*
X99340858Y-72839954D01*
X99179954Y-73000858D01*
X99049432Y-73187265D01*
X99049431Y-73187267D01*
X98953261Y-73393502D01*
X98953258Y-73393511D01*
X98894366Y-73613302D01*
X98894364Y-73613313D01*
X98874532Y-73839998D01*
X98874532Y-73840001D01*
X98894364Y-74066686D01*
X98894366Y-74066697D01*
X98953258Y-74286488D01*
X98953261Y-74286497D01*
X99049431Y-74492732D01*
X99049432Y-74492734D01*
X99179954Y-74679141D01*
X99340858Y-74840045D01*
X99340861Y-74840047D01*
X99527266Y-74970568D01*
X99585275Y-74997618D01*
X99637714Y-75043791D01*
X99656866Y-75110984D01*
X99636650Y-75177865D01*
X99585275Y-75222382D01*
X99527267Y-75249431D01*
X99527265Y-75249432D01*
X99340858Y-75379954D01*
X99179954Y-75540858D01*
X99049432Y-75727265D01*
X99049431Y-75727267D01*
X98953261Y-75933502D01*
X98953258Y-75933511D01*
X98894366Y-76153302D01*
X98894364Y-76153313D01*
X98874532Y-76379998D01*
X98874532Y-76380001D01*
X98894364Y-76606686D01*
X98894366Y-76606697D01*
X98953258Y-76826488D01*
X98953261Y-76826497D01*
X99049431Y-77032732D01*
X99049432Y-77032734D01*
X99179954Y-77219141D01*
X99340858Y-77380045D01*
X99340861Y-77380047D01*
X99527266Y-77510568D01*
X99585275Y-77537618D01*
X99637714Y-77583791D01*
X99656866Y-77650984D01*
X99636650Y-77717865D01*
X99585275Y-77762382D01*
X99527267Y-77789431D01*
X99527265Y-77789432D01*
X99340858Y-77919954D01*
X99179954Y-78080858D01*
X99049432Y-78267265D01*
X99049431Y-78267267D01*
X98953261Y-78473502D01*
X98953258Y-78473511D01*
X98894366Y-78693302D01*
X98894364Y-78693313D01*
X98874532Y-78919998D01*
X98874532Y-78920001D01*
X98894364Y-79146686D01*
X98894366Y-79146697D01*
X98953258Y-79366488D01*
X98953261Y-79366497D01*
X99049431Y-79572732D01*
X99049432Y-79572734D01*
X99179954Y-79759141D01*
X99340858Y-79920045D01*
X99340861Y-79920047D01*
X99527266Y-80050568D01*
X99585275Y-80077618D01*
X99637714Y-80123791D01*
X99656866Y-80190984D01*
X99636650Y-80257865D01*
X99585275Y-80302382D01*
X99527267Y-80329431D01*
X99527265Y-80329432D01*
X99340858Y-80459954D01*
X99179954Y-80620858D01*
X99049432Y-80807265D01*
X99049431Y-80807267D01*
X98953261Y-81013502D01*
X98953258Y-81013511D01*
X98894366Y-81233302D01*
X98894364Y-81233313D01*
X98874532Y-81459998D01*
X98874532Y-81460001D01*
X98894364Y-81686686D01*
X98894366Y-81686697D01*
X98953258Y-81906488D01*
X98953261Y-81906497D01*
X99049431Y-82112732D01*
X99049432Y-82112734D01*
X99179954Y-82299141D01*
X99340858Y-82460045D01*
X99340861Y-82460047D01*
X99527266Y-82590568D01*
X99585275Y-82617618D01*
X99637714Y-82663791D01*
X99656866Y-82730984D01*
X99636650Y-82797865D01*
X99585275Y-82842382D01*
X99527267Y-82869431D01*
X99527265Y-82869432D01*
X99340858Y-82999954D01*
X99179954Y-83160858D01*
X99049432Y-83347265D01*
X99049431Y-83347267D01*
X98953261Y-83553502D01*
X98953258Y-83553511D01*
X98894366Y-83773302D01*
X98894364Y-83773313D01*
X98874532Y-83999998D01*
X98874532Y-84000001D01*
X98894364Y-84226686D01*
X98894366Y-84226697D01*
X98953258Y-84446488D01*
X98953261Y-84446497D01*
X99049431Y-84652732D01*
X99049432Y-84652734D01*
X99179954Y-84839141D01*
X99340858Y-85000045D01*
X99340861Y-85000047D01*
X99527266Y-85130568D01*
X99733504Y-85226739D01*
X99953308Y-85285635D01*
X100115230Y-85299801D01*
X100179998Y-85305468D01*
X100180000Y-85305468D01*
X100180002Y-85305468D01*
X100236673Y-85300509D01*
X100406692Y-85285635D01*
X100626496Y-85226739D01*
X100832734Y-85130568D01*
X101019139Y-85000047D01*
X101180047Y-84839139D01*
X101310568Y-84652734D01*
X101406739Y-84446496D01*
X101465635Y-84226692D01*
X101485468Y-84000000D01*
X101465635Y-83773308D01*
X101406739Y-83553504D01*
X101310568Y-83347266D01*
X101180047Y-83160861D01*
X101180045Y-83160858D01*
X101019141Y-82999954D01*
X100832734Y-82869432D01*
X100832728Y-82869429D01*
X100774725Y-82842382D01*
X100722285Y-82796210D01*
X100703133Y-82729017D01*
X100723348Y-82662135D01*
X100774725Y-82617618D01*
X100832734Y-82590568D01*
X101019139Y-82460047D01*
X101180047Y-82299139D01*
X101310568Y-82112734D01*
X101406739Y-81906496D01*
X101465635Y-81686692D01*
X101485468Y-81460000D01*
X101465635Y-81233308D01*
X101406739Y-81013504D01*
X101310568Y-80807266D01*
X101180047Y-80620861D01*
X101180045Y-80620858D01*
X101019141Y-80459954D01*
X100832734Y-80329432D01*
X100832728Y-80329429D01*
X100774725Y-80302382D01*
X100722285Y-80256210D01*
X100703133Y-80189017D01*
X100723348Y-80122135D01*
X100774725Y-80077618D01*
X100832734Y-80050568D01*
X101019139Y-79920047D01*
X101180047Y-79759139D01*
X101310568Y-79572734D01*
X101406739Y-79366496D01*
X101465635Y-79146692D01*
X101485468Y-78920000D01*
X101465635Y-78693308D01*
X101406739Y-78473504D01*
X101310568Y-78267266D01*
X101180047Y-78080861D01*
X101180045Y-78080858D01*
X101019141Y-77919954D01*
X100832734Y-77789432D01*
X100832728Y-77789429D01*
X100774725Y-77762382D01*
X100722285Y-77716210D01*
X100703133Y-77649017D01*
X100723348Y-77582135D01*
X100774725Y-77537618D01*
X100832734Y-77510568D01*
X101019139Y-77380047D01*
X101180047Y-77219139D01*
X101310568Y-77032734D01*
X101406739Y-76826496D01*
X101465635Y-76606692D01*
X101485468Y-76380000D01*
X101465635Y-76153308D01*
X101406739Y-75933504D01*
X101310568Y-75727266D01*
X101180047Y-75540861D01*
X101180045Y-75540858D01*
X101019141Y-75379954D01*
X100832734Y-75249432D01*
X100832728Y-75249429D01*
X100774725Y-75222382D01*
X100722285Y-75176210D01*
X100703133Y-75109017D01*
X100723348Y-75042135D01*
X100774725Y-74997618D01*
X100832734Y-74970568D01*
X101019139Y-74840047D01*
X101180047Y-74679139D01*
X101310568Y-74492734D01*
X101406739Y-74286496D01*
X101465635Y-74066692D01*
X101485468Y-73840000D01*
X101465635Y-73613308D01*
X101406739Y-73393504D01*
X101310568Y-73187266D01*
X101180047Y-73000861D01*
X101180045Y-73000858D01*
X101019141Y-72839954D01*
X100832734Y-72709432D01*
X100832732Y-72709431D01*
X100821275Y-72704088D01*
X100774132Y-72682105D01*
X100721694Y-72635934D01*
X100702542Y-72568740D01*
X100722758Y-72501859D01*
X100774134Y-72457341D01*
X100832484Y-72430132D01*
X101018820Y-72299657D01*
X101179657Y-72138820D01*
X101310134Y-71952482D01*
X101406265Y-71746326D01*
X101406269Y-71746317D01*
X101458872Y-71550000D01*
X100495686Y-71550000D01*
X100500080Y-71545606D01*
X100552741Y-71454394D01*
X100580000Y-71352661D01*
X100580000Y-71247339D01*
X100552741Y-71145606D01*
X100500080Y-71054394D01*
X100495686Y-71050000D01*
X101458872Y-71050000D01*
X101458872Y-71049999D01*
X101406269Y-70853682D01*
X101406265Y-70853673D01*
X101310134Y-70647517D01*
X101179657Y-70461179D01*
X101018820Y-70300342D01*
X100832482Y-70169865D01*
X100774133Y-70142657D01*
X100721694Y-70096484D01*
X100702542Y-70029291D01*
X100722758Y-69962410D01*
X100774129Y-69917895D01*
X100832734Y-69890568D01*
X101019139Y-69760047D01*
X101180047Y-69599139D01*
X101310568Y-69412734D01*
X101353067Y-69321594D01*
X101399239Y-69269156D01*
X101465449Y-69250000D01*
X102126000Y-69250000D01*
X102193039Y-69269685D01*
X102238794Y-69322489D01*
X102250000Y-69374000D01*
X102250000Y-118698637D01*
X102230315Y-118765676D01*
X102213681Y-118786318D01*
X101523224Y-119476774D01*
X101461901Y-119510259D01*
X101392209Y-119505275D01*
X101336276Y-119463403D01*
X101323164Y-119441504D01*
X101260568Y-119307266D01*
X101130047Y-119120861D01*
X101130045Y-119120858D01*
X100969141Y-118959954D01*
X100782734Y-118829432D01*
X100782728Y-118829429D01*
X100724725Y-118802382D01*
X100672285Y-118756210D01*
X100653133Y-118689017D01*
X100673348Y-118622135D01*
X100724725Y-118577618D01*
X100782734Y-118550568D01*
X100969139Y-118420047D01*
X101130047Y-118259139D01*
X101260568Y-118072734D01*
X101356739Y-117866496D01*
X101415635Y-117646692D01*
X101435468Y-117420000D01*
X101415635Y-117193308D01*
X101356739Y-116973504D01*
X101260568Y-116767266D01*
X101130047Y-116580861D01*
X101130045Y-116580858D01*
X100969141Y-116419954D01*
X100782734Y-116289432D01*
X100782728Y-116289429D01*
X100724725Y-116262382D01*
X100672285Y-116216210D01*
X100653133Y-116149017D01*
X100673348Y-116082135D01*
X100724725Y-116037618D01*
X100782734Y-116010568D01*
X100969139Y-115880047D01*
X101130047Y-115719139D01*
X101260568Y-115532734D01*
X101356739Y-115326496D01*
X101415635Y-115106692D01*
X101435468Y-114880000D01*
X101415635Y-114653308D01*
X101356739Y-114433504D01*
X101260568Y-114227266D01*
X101130047Y-114040861D01*
X101130045Y-114040858D01*
X100969141Y-113879954D01*
X100782734Y-113749432D01*
X100782728Y-113749429D01*
X100724725Y-113722382D01*
X100672285Y-113676210D01*
X100653133Y-113609017D01*
X100673348Y-113542135D01*
X100724725Y-113497618D01*
X100782734Y-113470568D01*
X100969139Y-113340047D01*
X101130047Y-113179139D01*
X101260568Y-112992734D01*
X101356739Y-112786496D01*
X101415635Y-112566692D01*
X101435468Y-112340000D01*
X101415635Y-112113308D01*
X101356739Y-111893504D01*
X101260568Y-111687266D01*
X101130047Y-111500861D01*
X101130045Y-111500858D01*
X100969141Y-111339954D01*
X100782734Y-111209432D01*
X100782732Y-111209431D01*
X100771275Y-111204088D01*
X100724132Y-111182105D01*
X100671694Y-111135934D01*
X100652542Y-111068740D01*
X100672758Y-111001859D01*
X100724134Y-110957341D01*
X100782484Y-110930132D01*
X100968820Y-110799657D01*
X101129657Y-110638820D01*
X101260134Y-110452482D01*
X101356265Y-110246326D01*
X101356269Y-110246317D01*
X101408872Y-110050000D01*
X100445686Y-110050000D01*
X100450080Y-110045606D01*
X100502741Y-109954394D01*
X100530000Y-109852661D01*
X100530000Y-109747339D01*
X100502741Y-109645606D01*
X100450080Y-109554394D01*
X100445686Y-109550000D01*
X101408872Y-109550000D01*
X101408872Y-109549999D01*
X101356269Y-109353682D01*
X101356265Y-109353673D01*
X101260134Y-109147517D01*
X101129657Y-108961179D01*
X100968820Y-108800342D01*
X100782482Y-108669865D01*
X100724133Y-108642657D01*
X100671694Y-108596484D01*
X100652542Y-108529291D01*
X100672758Y-108462410D01*
X100724129Y-108417895D01*
X100782734Y-108390568D01*
X100969139Y-108260047D01*
X101130047Y-108099139D01*
X101260568Y-107912734D01*
X101356739Y-107706496D01*
X101415635Y-107486692D01*
X101435468Y-107260000D01*
X101415635Y-107033308D01*
X101356739Y-106813504D01*
X101260568Y-106607266D01*
X101130047Y-106420861D01*
X101130045Y-106420858D01*
X100969141Y-106259954D01*
X100782734Y-106129432D01*
X100782732Y-106129431D01*
X100576497Y-106033261D01*
X100576488Y-106033258D01*
X100356697Y-105974366D01*
X100356693Y-105974365D01*
X100356692Y-105974365D01*
X100356691Y-105974364D01*
X100356686Y-105974364D01*
X100130002Y-105954532D01*
X100129998Y-105954532D01*
X99903313Y-105974364D01*
X99903302Y-105974366D01*
X99683511Y-106033258D01*
X99683502Y-106033261D01*
X99477267Y-106129431D01*
X99477265Y-106129432D01*
X99290858Y-106259954D01*
X99129954Y-106420858D01*
X98999432Y-106607265D01*
X98999431Y-106607267D01*
X98903261Y-106813502D01*
X98903258Y-106813511D01*
X98844366Y-107033302D01*
X98844364Y-107033313D01*
X98824532Y-107259998D01*
X98824532Y-107260001D01*
X98844364Y-107486686D01*
X98844366Y-107486697D01*
X98903258Y-107706488D01*
X98903261Y-107706497D01*
X98999431Y-107912732D01*
X98999432Y-107912734D01*
X99129954Y-108099141D01*
X99290858Y-108260045D01*
X99290861Y-108260047D01*
X99477266Y-108390568D01*
X99535865Y-108417893D01*
X99588305Y-108464065D01*
X99607457Y-108531258D01*
X99587242Y-108598139D01*
X99535867Y-108642657D01*
X99477515Y-108669867D01*
X99291179Y-108800342D01*
X99130342Y-108961179D01*
X98999865Y-109147517D01*
X98903734Y-109353673D01*
X98903730Y-109353682D01*
X98851127Y-109549999D01*
X98851128Y-109550000D01*
X99814314Y-109550000D01*
X99809920Y-109554394D01*
X99757259Y-109645606D01*
X99730000Y-109747339D01*
X99730000Y-109852661D01*
X99757259Y-109954394D01*
X99809920Y-110045606D01*
X99814314Y-110050000D01*
X98851128Y-110050000D01*
X98903730Y-110246317D01*
X98903734Y-110246326D01*
X98999865Y-110452482D01*
X99130342Y-110638820D01*
X99291179Y-110799657D01*
X99477518Y-110930134D01*
X99477520Y-110930135D01*
X99535865Y-110957342D01*
X99588305Y-111003514D01*
X99607457Y-111070707D01*
X99587242Y-111137589D01*
X99535867Y-111182105D01*
X99477268Y-111209431D01*
X99477264Y-111209433D01*
X99290858Y-111339954D01*
X99129954Y-111500858D01*
X98999432Y-111687265D01*
X98999431Y-111687267D01*
X98903261Y-111893502D01*
X98903258Y-111893511D01*
X98844366Y-112113302D01*
X98844364Y-112113313D01*
X98824532Y-112339998D01*
X98824532Y-112340001D01*
X98844364Y-112566686D01*
X98844366Y-112566697D01*
X98903258Y-112786488D01*
X98903261Y-112786497D01*
X98999431Y-112992732D01*
X98999432Y-112992734D01*
X99129954Y-113179141D01*
X99290858Y-113340045D01*
X99290861Y-113340047D01*
X99477266Y-113470568D01*
X99535275Y-113497618D01*
X99587714Y-113543791D01*
X99606866Y-113610984D01*
X99586650Y-113677865D01*
X99535275Y-113722382D01*
X99477267Y-113749431D01*
X99477265Y-113749432D01*
X99290858Y-113879954D01*
X99129954Y-114040858D01*
X98999432Y-114227265D01*
X98999431Y-114227267D01*
X98903261Y-114433502D01*
X98903258Y-114433511D01*
X98844366Y-114653302D01*
X98844364Y-114653313D01*
X98824532Y-114879998D01*
X98824532Y-114880001D01*
X98844364Y-115106686D01*
X98844366Y-115106697D01*
X98903258Y-115326488D01*
X98903261Y-115326497D01*
X98999431Y-115532732D01*
X98999432Y-115532734D01*
X99129954Y-115719141D01*
X99290858Y-115880045D01*
X99290861Y-115880047D01*
X99477266Y-116010568D01*
X99535275Y-116037618D01*
X99587714Y-116083791D01*
X99606866Y-116150984D01*
X99586650Y-116217865D01*
X99535275Y-116262382D01*
X99477267Y-116289431D01*
X99477265Y-116289432D01*
X99290858Y-116419954D01*
X99129954Y-116580858D01*
X98999432Y-116767265D01*
X98999431Y-116767267D01*
X98903261Y-116973502D01*
X98903258Y-116973511D01*
X98844366Y-117193302D01*
X98844364Y-117193313D01*
X98824532Y-117419998D01*
X98824532Y-117420001D01*
X98844364Y-117646686D01*
X98844366Y-117646697D01*
X98903258Y-117866488D01*
X98903261Y-117866497D01*
X98999431Y-118072732D01*
X98999432Y-118072734D01*
X99129954Y-118259141D01*
X99290858Y-118420045D01*
X99290861Y-118420047D01*
X99477266Y-118550568D01*
X99535275Y-118577618D01*
X99587714Y-118623791D01*
X99606866Y-118690984D01*
X99586650Y-118757865D01*
X99535275Y-118802382D01*
X99477267Y-118829431D01*
X99477265Y-118829432D01*
X99290858Y-118959954D01*
X99129954Y-119120858D01*
X98999432Y-119307265D01*
X98999431Y-119307267D01*
X98903261Y-119513502D01*
X98903258Y-119513511D01*
X98844366Y-119733302D01*
X98844364Y-119733313D01*
X98824532Y-119959998D01*
X98824532Y-119960001D01*
X98844364Y-120186686D01*
X98844366Y-120186697D01*
X98903258Y-120406488D01*
X98903261Y-120406497D01*
X98999431Y-120612732D01*
X98999432Y-120612734D01*
X99129954Y-120799141D01*
X99290858Y-120960045D01*
X99290861Y-120960047D01*
X99477266Y-121090568D01*
X99535273Y-121117617D01*
X99587713Y-121163789D01*
X99606865Y-121230982D01*
X99586650Y-121297864D01*
X99535276Y-121342380D01*
X99477269Y-121369430D01*
X99477265Y-121369432D01*
X99322820Y-121477575D01*
X99256613Y-121499902D01*
X99251697Y-121500000D01*
X90874000Y-121500000D01*
X90806961Y-121480315D01*
X90761206Y-121427511D01*
X90750000Y-121376000D01*
X90750000Y-120840939D01*
X90769685Y-120773900D01*
X90822489Y-120728145D01*
X90891647Y-120718201D01*
X90893295Y-120718450D01*
X91095646Y-120750500D01*
X91095647Y-120750500D01*
X91324353Y-120750500D01*
X91324354Y-120750500D01*
X91550245Y-120714722D01*
X91550248Y-120714721D01*
X91550249Y-120714721D01*
X91767755Y-120644049D01*
X91767755Y-120644048D01*
X91767758Y-120644048D01*
X91971538Y-120540217D01*
X92156566Y-120405786D01*
X92318286Y-120244066D01*
X92379992Y-120159134D01*
X92435319Y-120116470D01*
X92504932Y-120110491D01*
X92566727Y-120143096D01*
X92580626Y-120159135D01*
X92642097Y-120243741D01*
X92642097Y-120243742D01*
X92803757Y-120405402D01*
X92988723Y-120539788D01*
X93192429Y-120643582D01*
X93409871Y-120714234D01*
X93500000Y-120728509D01*
X93500000Y-119740747D01*
X93537708Y-119762518D01*
X93677591Y-119800000D01*
X93822409Y-119800000D01*
X93962292Y-119762518D01*
X94000000Y-119740747D01*
X94000000Y-120728508D01*
X94090128Y-120714234D01*
X94307570Y-120643582D01*
X94511276Y-120539788D01*
X94696242Y-120405402D01*
X94857902Y-120243742D01*
X94992288Y-120058776D01*
X95096082Y-119855070D01*
X95166734Y-119637628D01*
X95188532Y-119500000D01*
X94240748Y-119500000D01*
X94262518Y-119462292D01*
X94300000Y-119322409D01*
X94300000Y-119177591D01*
X94262518Y-119037708D01*
X94240748Y-119000000D01*
X95188532Y-119000000D01*
X95166734Y-118862371D01*
X95096082Y-118644929D01*
X94992288Y-118441223D01*
X94857902Y-118256257D01*
X94696242Y-118094597D01*
X94511276Y-117960211D01*
X94307568Y-117856417D01*
X94090124Y-117785765D01*
X94000000Y-117771490D01*
X94000000Y-118759252D01*
X93962292Y-118737482D01*
X93822409Y-118700000D01*
X93677591Y-118700000D01*
X93537708Y-118737482D01*
X93500000Y-118759252D01*
X93500000Y-117771490D01*
X93499999Y-117771490D01*
X93409875Y-117785765D01*
X93192431Y-117856417D01*
X92988723Y-117960211D01*
X92803757Y-118094597D01*
X92642097Y-118256257D01*
X92580627Y-118340864D01*
X92525297Y-118383529D01*
X92455684Y-118389508D01*
X92393889Y-118356902D01*
X92379991Y-118340864D01*
X92318286Y-118255934D01*
X92156566Y-118094214D01*
X91971538Y-117959783D01*
X91767755Y-117855950D01*
X91550248Y-117785278D01*
X91380826Y-117758444D01*
X91324354Y-117749500D01*
X91095646Y-117749500D01*
X91022049Y-117761156D01*
X90893398Y-117781533D01*
X90824104Y-117772578D01*
X90770652Y-117727582D01*
X90750013Y-117660831D01*
X90750000Y-117659060D01*
X90750000Y-116124000D01*
X90769685Y-116056961D01*
X90822489Y-116011206D01*
X90874000Y-116000000D01*
X94500000Y-116000000D01*
X94500000Y-109631440D01*
X94519685Y-109564401D01*
X94572489Y-109518646D01*
X94641647Y-109508702D01*
X94705203Y-109537727D01*
X94711681Y-109543759D01*
X94797738Y-109629816D01*
X94950478Y-109725789D01*
X95047033Y-109759575D01*
X95120745Y-109785368D01*
X95120750Y-109785369D01*
X95299996Y-109805565D01*
X95300000Y-109805565D01*
X95300004Y-109805565D01*
X95479249Y-109785369D01*
X95479252Y-109785368D01*
X95479255Y-109785368D01*
X95649522Y-109725789D01*
X95802262Y-109629816D01*
X95929816Y-109502262D01*
X96025789Y-109349522D01*
X96085368Y-109179255D01*
X96105565Y-109000000D01*
X96085368Y-108820745D01*
X96025789Y-108650478D01*
X95929816Y-108497738D01*
X95832259Y-108400181D01*
X95798774Y-108338858D01*
X95803758Y-108269166D01*
X95832259Y-108224819D01*
X95879816Y-108177262D01*
X95975789Y-108024522D01*
X96035368Y-107854255D01*
X96035369Y-107854249D01*
X96055565Y-107675003D01*
X96055565Y-107674996D01*
X96035369Y-107495750D01*
X96035368Y-107495745D01*
X96002014Y-107400425D01*
X95975789Y-107325478D01*
X95956812Y-107295277D01*
X95934645Y-107259998D01*
X95879816Y-107172738D01*
X95752262Y-107045184D01*
X95599523Y-106949211D01*
X95429254Y-106889631D01*
X95429249Y-106889630D01*
X95250004Y-106869435D01*
X95249996Y-106869435D01*
X95070750Y-106889630D01*
X95070745Y-106889631D01*
X94900476Y-106949211D01*
X94747737Y-107045184D01*
X94711681Y-107081241D01*
X94650358Y-107114726D01*
X94580666Y-107109742D01*
X94524733Y-107067870D01*
X94500316Y-107002406D01*
X94500000Y-106993560D01*
X94500000Y-91416153D01*
X94519685Y-91349114D01*
X94572489Y-91303359D01*
X94637883Y-91292933D01*
X94749996Y-91305565D01*
X94750000Y-91305565D01*
X94750004Y-91305565D01*
X94929249Y-91285369D01*
X94929252Y-91285368D01*
X94929255Y-91285368D01*
X95099522Y-91225789D01*
X95252262Y-91129816D01*
X95379816Y-91002262D01*
X95475789Y-90849522D01*
X95535368Y-90679255D01*
X95539364Y-90643793D01*
X95555565Y-90500003D01*
X95555565Y-90499996D01*
X95535369Y-90320750D01*
X95535368Y-90320745D01*
X95475788Y-90150476D01*
X95379815Y-89997737D01*
X95344759Y-89962681D01*
X95311274Y-89901358D01*
X95316258Y-89831666D01*
X95344759Y-89787319D01*
X95379816Y-89752262D01*
X95475789Y-89599522D01*
X95535368Y-89429255D01*
X95539492Y-89392657D01*
X95555565Y-89250003D01*
X95555565Y-89249996D01*
X95535369Y-89070750D01*
X95535368Y-89070745D01*
X95475788Y-88900476D01*
X95379815Y-88747737D01*
X95252262Y-88620184D01*
X95099523Y-88524211D01*
X94929254Y-88464631D01*
X94929249Y-88464630D01*
X94750004Y-88444435D01*
X94749995Y-88444435D01*
X94637882Y-88457066D01*
X94569061Y-88445011D01*
X94517682Y-88397662D01*
X94500000Y-88333846D01*
X94500000Y-88009998D01*
X98874532Y-88009998D01*
X98874532Y-88010001D01*
X98894364Y-88236686D01*
X98894366Y-88236697D01*
X98953258Y-88456488D01*
X98953261Y-88456497D01*
X99049431Y-88662732D01*
X99049432Y-88662734D01*
X99179954Y-88849141D01*
X99340858Y-89010045D01*
X99340861Y-89010047D01*
X99527266Y-89140568D01*
X99585865Y-89167893D01*
X99638305Y-89214065D01*
X99657457Y-89281258D01*
X99637242Y-89348139D01*
X99585867Y-89392657D01*
X99527515Y-89419867D01*
X99341179Y-89550342D01*
X99180342Y-89711179D01*
X99049865Y-89897517D01*
X98953734Y-90103673D01*
X98953730Y-90103682D01*
X98901127Y-90299999D01*
X98901128Y-90300000D01*
X99864314Y-90300000D01*
X99859920Y-90304394D01*
X99807259Y-90395606D01*
X99780000Y-90497339D01*
X99780000Y-90602661D01*
X99807259Y-90704394D01*
X99859920Y-90795606D01*
X99864314Y-90800000D01*
X98901128Y-90800000D01*
X98953730Y-90996317D01*
X98953734Y-90996326D01*
X99049865Y-91202482D01*
X99180342Y-91388820D01*
X99341179Y-91549657D01*
X99527518Y-91680134D01*
X99527520Y-91680135D01*
X99585865Y-91707342D01*
X99638305Y-91753514D01*
X99657457Y-91820707D01*
X99637242Y-91887589D01*
X99585867Y-91932105D01*
X99527268Y-91959431D01*
X99527264Y-91959433D01*
X99340858Y-92089954D01*
X99179954Y-92250858D01*
X99049432Y-92437265D01*
X99049431Y-92437267D01*
X98953261Y-92643502D01*
X98953258Y-92643511D01*
X98894366Y-92863302D01*
X98894364Y-92863313D01*
X98874532Y-93089998D01*
X98874532Y-93090001D01*
X98894364Y-93316686D01*
X98894366Y-93316697D01*
X98953258Y-93536488D01*
X98953261Y-93536497D01*
X99049431Y-93742732D01*
X99049432Y-93742734D01*
X99179954Y-93929141D01*
X99340858Y-94090045D01*
X99340861Y-94090047D01*
X99527266Y-94220568D01*
X99585275Y-94247618D01*
X99637714Y-94293791D01*
X99656866Y-94360984D01*
X99636650Y-94427865D01*
X99585275Y-94472382D01*
X99527267Y-94499431D01*
X99527265Y-94499432D01*
X99340858Y-94629954D01*
X99179954Y-94790858D01*
X99049432Y-94977265D01*
X99049431Y-94977267D01*
X98953261Y-95183502D01*
X98953258Y-95183511D01*
X98894366Y-95403302D01*
X98894364Y-95403313D01*
X98874532Y-95629998D01*
X98874532Y-95630001D01*
X98894364Y-95856686D01*
X98894366Y-95856697D01*
X98953258Y-96076488D01*
X98953261Y-96076497D01*
X99049431Y-96282732D01*
X99049432Y-96282734D01*
X99179954Y-96469141D01*
X99340858Y-96630045D01*
X99340861Y-96630047D01*
X99527266Y-96760568D01*
X99585275Y-96787618D01*
X99637714Y-96833791D01*
X99656866Y-96900984D01*
X99636650Y-96967865D01*
X99585275Y-97012382D01*
X99527267Y-97039431D01*
X99527265Y-97039432D01*
X99340858Y-97169954D01*
X99179954Y-97330858D01*
X99049432Y-97517265D01*
X99049431Y-97517267D01*
X98953261Y-97723502D01*
X98953258Y-97723511D01*
X98894366Y-97943302D01*
X98894364Y-97943313D01*
X98874532Y-98169998D01*
X98874532Y-98170001D01*
X98894364Y-98396686D01*
X98894366Y-98396697D01*
X98953258Y-98616488D01*
X98953261Y-98616497D01*
X99049431Y-98822732D01*
X99049432Y-98822734D01*
X99179954Y-99009141D01*
X99340858Y-99170045D01*
X99340861Y-99170047D01*
X99527266Y-99300568D01*
X99585275Y-99327618D01*
X99637714Y-99373791D01*
X99656866Y-99440984D01*
X99636650Y-99507865D01*
X99585275Y-99552382D01*
X99527267Y-99579431D01*
X99527265Y-99579432D01*
X99340858Y-99709954D01*
X99179954Y-99870858D01*
X99049432Y-100057265D01*
X99049431Y-100057267D01*
X98953261Y-100263502D01*
X98953258Y-100263511D01*
X98894366Y-100483302D01*
X98894364Y-100483313D01*
X98874532Y-100709998D01*
X98874532Y-100710001D01*
X98894364Y-100936686D01*
X98894366Y-100936697D01*
X98953258Y-101156488D01*
X98953261Y-101156497D01*
X99049431Y-101362732D01*
X99049432Y-101362734D01*
X99179954Y-101549141D01*
X99340858Y-101710045D01*
X99340861Y-101710047D01*
X99527266Y-101840568D01*
X99585275Y-101867618D01*
X99637714Y-101913791D01*
X99656866Y-101980984D01*
X99636650Y-102047865D01*
X99585275Y-102092382D01*
X99527267Y-102119431D01*
X99527265Y-102119432D01*
X99340858Y-102249954D01*
X99179954Y-102410858D01*
X99049432Y-102597265D01*
X99049431Y-102597267D01*
X98953261Y-102803502D01*
X98953258Y-102803511D01*
X98894366Y-103023302D01*
X98894364Y-103023313D01*
X98874532Y-103249998D01*
X98874532Y-103250001D01*
X98894364Y-103476686D01*
X98894366Y-103476697D01*
X98953258Y-103696488D01*
X98953261Y-103696497D01*
X99049431Y-103902732D01*
X99049432Y-103902734D01*
X99179954Y-104089141D01*
X99340858Y-104250045D01*
X99340861Y-104250047D01*
X99527266Y-104380568D01*
X99733504Y-104476739D01*
X99953308Y-104535635D01*
X100115230Y-104549801D01*
X100179998Y-104555468D01*
X100180000Y-104555468D01*
X100180002Y-104555468D01*
X100236673Y-104550509D01*
X100406692Y-104535635D01*
X100626496Y-104476739D01*
X100832734Y-104380568D01*
X101019139Y-104250047D01*
X101180047Y-104089139D01*
X101310568Y-103902734D01*
X101406739Y-103696496D01*
X101465635Y-103476692D01*
X101485468Y-103250000D01*
X101465635Y-103023308D01*
X101406739Y-102803504D01*
X101310568Y-102597266D01*
X101180047Y-102410861D01*
X101180045Y-102410858D01*
X101019141Y-102249954D01*
X100832734Y-102119432D01*
X100832728Y-102119429D01*
X100774725Y-102092382D01*
X100722285Y-102046210D01*
X100703133Y-101979017D01*
X100723348Y-101912135D01*
X100774725Y-101867618D01*
X100832734Y-101840568D01*
X101019139Y-101710047D01*
X101180047Y-101549139D01*
X101310568Y-101362734D01*
X101406739Y-101156496D01*
X101465635Y-100936692D01*
X101485468Y-100710000D01*
X101465635Y-100483308D01*
X101406739Y-100263504D01*
X101310568Y-100057266D01*
X101180047Y-99870861D01*
X101180045Y-99870858D01*
X101019141Y-99709954D01*
X100832734Y-99579432D01*
X100832728Y-99579429D01*
X100774725Y-99552382D01*
X100722285Y-99506210D01*
X100703133Y-99439017D01*
X100723348Y-99372135D01*
X100774725Y-99327618D01*
X100832734Y-99300568D01*
X101019139Y-99170047D01*
X101180047Y-99009139D01*
X101310568Y-98822734D01*
X101406739Y-98616496D01*
X101465635Y-98396692D01*
X101485468Y-98170000D01*
X101465635Y-97943308D01*
X101406739Y-97723504D01*
X101310568Y-97517266D01*
X101180047Y-97330861D01*
X101180045Y-97330858D01*
X101019141Y-97169954D01*
X100832734Y-97039432D01*
X100832728Y-97039429D01*
X100774725Y-97012382D01*
X100722285Y-96966210D01*
X100703133Y-96899017D01*
X100723348Y-96832135D01*
X100774725Y-96787618D01*
X100832734Y-96760568D01*
X101019139Y-96630047D01*
X101180047Y-96469139D01*
X101310568Y-96282734D01*
X101406739Y-96076496D01*
X101465635Y-95856692D01*
X101485468Y-95630000D01*
X101465635Y-95403308D01*
X101406739Y-95183504D01*
X101310568Y-94977266D01*
X101180047Y-94790861D01*
X101180045Y-94790858D01*
X101019141Y-94629954D01*
X100832734Y-94499432D01*
X100832728Y-94499429D01*
X100774725Y-94472382D01*
X100722285Y-94426210D01*
X100703133Y-94359017D01*
X100723348Y-94292135D01*
X100774725Y-94247618D01*
X100832734Y-94220568D01*
X101019139Y-94090047D01*
X101180047Y-93929139D01*
X101310568Y-93742734D01*
X101406739Y-93536496D01*
X101465635Y-93316692D01*
X101485468Y-93090000D01*
X101465635Y-92863308D01*
X101406739Y-92643504D01*
X101310568Y-92437266D01*
X101180047Y-92250861D01*
X101180045Y-92250858D01*
X101019141Y-92089954D01*
X100832734Y-91959432D01*
X100832732Y-91959431D01*
X100821275Y-91954088D01*
X100774132Y-91932105D01*
X100721694Y-91885934D01*
X100702542Y-91818740D01*
X100722758Y-91751859D01*
X100774134Y-91707341D01*
X100832484Y-91680132D01*
X101018820Y-91549657D01*
X101179657Y-91388820D01*
X101310134Y-91202482D01*
X101406265Y-90996326D01*
X101406269Y-90996317D01*
X101458872Y-90800000D01*
X100495686Y-90800000D01*
X100500080Y-90795606D01*
X100552741Y-90704394D01*
X100580000Y-90602661D01*
X100580000Y-90497339D01*
X100552741Y-90395606D01*
X100500080Y-90304394D01*
X100495686Y-90300000D01*
X101458872Y-90300000D01*
X101458872Y-90299999D01*
X101406269Y-90103682D01*
X101406265Y-90103673D01*
X101310134Y-89897517D01*
X101179657Y-89711179D01*
X101018820Y-89550342D01*
X100832482Y-89419865D01*
X100774133Y-89392657D01*
X100721694Y-89346484D01*
X100702542Y-89279291D01*
X100722758Y-89212410D01*
X100774129Y-89167895D01*
X100832734Y-89140568D01*
X101019139Y-89010047D01*
X101180047Y-88849139D01*
X101310568Y-88662734D01*
X101406739Y-88456496D01*
X101465635Y-88236692D01*
X101485468Y-88010000D01*
X101465635Y-87783308D01*
X101406739Y-87563504D01*
X101310568Y-87357266D01*
X101180047Y-87170861D01*
X101180045Y-87170858D01*
X101019141Y-87009954D01*
X100832734Y-86879432D01*
X100832732Y-86879431D01*
X100626497Y-86783261D01*
X100626488Y-86783258D01*
X100406697Y-86724366D01*
X100406693Y-86724365D01*
X100406692Y-86724365D01*
X100406691Y-86724364D01*
X100406686Y-86724364D01*
X100180002Y-86704532D01*
X100179998Y-86704532D01*
X99953313Y-86724364D01*
X99953302Y-86724366D01*
X99733511Y-86783258D01*
X99733502Y-86783261D01*
X99527267Y-86879431D01*
X99527265Y-86879432D01*
X99340858Y-87009954D01*
X99179954Y-87170858D01*
X99049432Y-87357265D01*
X99049431Y-87357267D01*
X98953261Y-87563502D01*
X98953258Y-87563511D01*
X98894366Y-87783302D01*
X98894364Y-87783313D01*
X98874532Y-88009998D01*
X94500000Y-88009998D01*
X94500000Y-73166378D01*
X94519685Y-73099339D01*
X94572489Y-73053584D01*
X94610117Y-73043158D01*
X94679250Y-73035369D01*
X94679253Y-73035368D01*
X94679255Y-73035368D01*
X94849522Y-72975789D01*
X95002262Y-72879816D01*
X95129816Y-72752262D01*
X95225789Y-72599522D01*
X95285368Y-72429255D01*
X95305565Y-72250000D01*
X95293038Y-72138820D01*
X95285369Y-72070750D01*
X95285368Y-72070745D01*
X95225788Y-71900475D01*
X95172691Y-71815973D01*
X95153690Y-71748736D01*
X95172691Y-71684027D01*
X95225788Y-71599524D01*
X95285368Y-71429254D01*
X95285369Y-71429249D01*
X95305565Y-71250003D01*
X95305565Y-71249996D01*
X95285369Y-71070750D01*
X95285368Y-71070745D01*
X95225788Y-70900476D01*
X95129815Y-70747737D01*
X95002262Y-70620184D01*
X94849523Y-70524211D01*
X94679254Y-70464631D01*
X94679250Y-70464630D01*
X94610116Y-70456841D01*
X94545702Y-70429774D01*
X94506147Y-70372179D01*
X94500000Y-70333621D01*
X94500000Y-69374000D01*
X94519685Y-69306961D01*
X94572489Y-69261206D01*
X94624000Y-69250000D01*
X98894551Y-69250000D01*
X98961590Y-69269685D01*
G37*
%TD.AperFunction*%
%TD*%
M02*
