%TF.GenerationSoftware,KiCad,Pcbnew,8.0.8*%
%TF.CreationDate,2025-03-02T14:03:49-08:00*%
%TF.ProjectId,motor_driver,6d6f746f-725f-4647-9269-7665722e6b69,rev?*%
%TF.SameCoordinates,Original*%
%TF.FileFunction,Soldermask,Top*%
%TF.FilePolarity,Negative*%
%FSLAX46Y46*%
G04 Gerber Fmt 4.6, Leading zero omitted, Abs format (unit mm)*
G04 Created by KiCad (PCBNEW 8.0.8) date 2025-03-02 14:03:49*
%MOMM*%
%LPD*%
G01*
G04 APERTURE LIST*
G04 Aperture macros list*
%AMRoundRect*
0 Rectangle with rounded corners*
0 $1 Rounding radius*
0 $2 $3 $4 $5 $6 $7 $8 $9 X,Y pos of 4 corners*
0 Add a 4 corners polygon primitive as box body*
4,1,4,$2,$3,$4,$5,$6,$7,$8,$9,$2,$3,0*
0 Add four circle primitives for the rounded corners*
1,1,$1+$1,$2,$3*
1,1,$1+$1,$4,$5*
1,1,$1+$1,$6,$7*
1,1,$1+$1,$8,$9*
0 Add four rect primitives between the rounded corners*
20,1,$1+$1,$2,$3,$4,$5,0*
20,1,$1+$1,$4,$5,$6,$7,0*
20,1,$1+$1,$6,$7,$8,$9,0*
20,1,$1+$1,$8,$9,$2,$3,0*%
G04 Aperture macros list end*
%ADD10C,1.000000*%
%ADD11RoundRect,0.250000X-0.400000X-0.625000X0.400000X-0.625000X0.400000X0.625000X-0.400000X0.625000X0*%
%ADD12RoundRect,0.250000X-0.337500X-0.475000X0.337500X-0.475000X0.337500X0.475000X-0.337500X0.475000X0*%
%ADD13RoundRect,0.237500X-0.300000X-0.237500X0.300000X-0.237500X0.300000X0.237500X-0.300000X0.237500X0*%
%ADD14RoundRect,0.250000X-0.450000X0.350000X-0.450000X-0.350000X0.450000X-0.350000X0.450000X0.350000X0*%
%ADD15RoundRect,0.162500X-0.162500X0.617500X-0.162500X-0.617500X0.162500X-0.617500X0.162500X0.617500X0*%
%ADD16RoundRect,0.250000X0.450000X-0.350000X0.450000X0.350000X-0.450000X0.350000X-0.450000X-0.350000X0*%
%ADD17RoundRect,0.155000X-0.155000X0.212500X-0.155000X-0.212500X0.155000X-0.212500X0.155000X0.212500X0*%
%ADD18RoundRect,0.162500X0.617500X0.162500X-0.617500X0.162500X-0.617500X-0.162500X0.617500X-0.162500X0*%
%ADD19RoundRect,0.250000X0.350000X0.450000X-0.350000X0.450000X-0.350000X-0.450000X0.350000X-0.450000X0*%
%ADD20C,5.000000*%
%ADD21R,2.000000X1.905000*%
%ADD22O,2.000000X1.905000*%
%ADD23RoundRect,0.237500X0.300000X0.237500X-0.300000X0.237500X-0.300000X-0.237500X0.300000X-0.237500X0*%
%ADD24R,1.600000X1.600000*%
%ADD25O,1.600000X1.600000*%
%ADD26RoundRect,0.250000X0.337500X0.475000X-0.337500X0.475000X-0.337500X-0.475000X0.337500X-0.475000X0*%
%ADD27RoundRect,0.250000X-0.475000X0.337500X-0.475000X-0.337500X0.475000X-0.337500X0.475000X0.337500X0*%
%ADD28RoundRect,0.150000X-0.587500X-0.150000X0.587500X-0.150000X0.587500X0.150000X-0.587500X0.150000X0*%
%ADD29RoundRect,0.237500X-0.237500X0.300000X-0.237500X-0.300000X0.237500X-0.300000X0.237500X0.300000X0*%
%ADD30RoundRect,0.250000X-0.350000X-0.450000X0.350000X-0.450000X0.350000X0.450000X-0.350000X0.450000X0*%
%ADD31RoundRect,0.250000X0.475000X-0.337500X0.475000X0.337500X-0.475000X0.337500X-0.475000X-0.337500X0*%
%ADD32R,1.700000X1.700000*%
%ADD33O,1.700000X1.700000*%
%ADD34R,2.600000X2.600000*%
%ADD35C,2.600000*%
%ADD36RoundRect,0.155000X-0.212500X-0.155000X0.212500X-0.155000X0.212500X0.155000X-0.212500X0.155000X0*%
%ADD37R,2.200000X2.200000*%
%ADD38O,2.200000X2.200000*%
%ADD39RoundRect,0.250000X0.400000X0.625000X-0.400000X0.625000X-0.400000X-0.625000X0.400000X-0.625000X0*%
%ADD40R,1.800000X3.400000*%
%ADD41R,1.000000X2.000000*%
%ADD42C,1.500000*%
%ADD43R,1.905000X2.000000*%
%ADD44O,1.905000X2.000000*%
%ADD45RoundRect,0.237500X0.237500X-0.300000X0.237500X0.300000X-0.237500X0.300000X-0.237500X-0.300000X0*%
%ADD46RoundRect,0.150000X-0.750000X-0.150000X0.750000X-0.150000X0.750000X0.150000X-0.750000X0.150000X0*%
%ADD47RoundRect,0.155000X0.155000X-0.212500X0.155000X0.212500X-0.155000X0.212500X-0.155000X-0.212500X0*%
%ADD48RoundRect,0.250001X-1.149999X-1.149999X1.149999X-1.149999X1.149999X1.149999X-1.149999X1.149999X0*%
%ADD49C,2.800000*%
%ADD50RoundRect,0.150000X0.750000X0.150000X-0.750000X0.150000X-0.750000X-0.150000X0.750000X-0.150000X0*%
G04 APERTURE END LIST*
D10*
X120500000Y-87750000D02*
G75*
G02*
X119500000Y-87750000I-500000J0D01*
G01*
X119500000Y-87750000D02*
G75*
G02*
X120500000Y-87750000I500000J0D01*
G01*
X120500000Y-84250000D02*
G75*
G02*
X119500000Y-84250000I-500000J0D01*
G01*
X119500000Y-84250000D02*
G75*
G02*
X120500000Y-84250000I500000J0D01*
G01*
X121500000Y-124000000D02*
G75*
G02*
X120500000Y-124000000I-500000J0D01*
G01*
X120500000Y-124000000D02*
G75*
G02*
X121500000Y-124000000I500000J0D01*
G01*
X105000000Y-53000000D02*
G75*
G02*
X104000000Y-53000000I-500000J0D01*
G01*
X104000000Y-53000000D02*
G75*
G02*
X105000000Y-53000000I500000J0D01*
G01*
X120500000Y-107250000D02*
G75*
G02*
X119500000Y-107250000I-500000J0D01*
G01*
X119500000Y-107250000D02*
G75*
G02*
X120500000Y-107250000I500000J0D01*
G01*
X109750000Y-51250000D02*
G75*
G02*
X108750000Y-51250000I-500000J0D01*
G01*
X108750000Y-51250000D02*
G75*
G02*
X109750000Y-51250000I500000J0D01*
G01*
X187250000Y-138250000D02*
G75*
G02*
X186250000Y-138250000I-500000J0D01*
G01*
X186250000Y-138250000D02*
G75*
G02*
X187250000Y-138250000I500000J0D01*
G01*
X183500000Y-114250000D02*
G75*
G02*
X182500000Y-114250000I-500000J0D01*
G01*
X182500000Y-114250000D02*
G75*
G02*
X183500000Y-114250000I500000J0D01*
G01*
X120250000Y-65500000D02*
G75*
G02*
X119250000Y-65500000I-500000J0D01*
G01*
X119250000Y-65500000D02*
G75*
G02*
X120250000Y-65500000I500000J0D01*
G01*
X99500000Y-43250000D02*
G75*
G02*
X98500000Y-43250000I-500000J0D01*
G01*
X98500000Y-43250000D02*
G75*
G02*
X99500000Y-43250000I500000J0D01*
G01*
X183000000Y-82000000D02*
G75*
G02*
X182000000Y-82000000I-500000J0D01*
G01*
X182000000Y-82000000D02*
G75*
G02*
X183000000Y-82000000I500000J0D01*
G01*
X120750000Y-111000000D02*
G75*
G02*
X119750000Y-111000000I-500000J0D01*
G01*
X119750000Y-111000000D02*
G75*
G02*
X120750000Y-111000000I500000J0D01*
G01*
X95600000Y-63300000D02*
G75*
G02*
X94600000Y-63300000I-500000J0D01*
G01*
X94600000Y-63300000D02*
G75*
G02*
X95600000Y-63300000I500000J0D01*
G01*
D11*
%TO.C,R21*%
X182000000Y-119115000D03*
X185100000Y-119115000D03*
%TD*%
D12*
%TO.C,C26*%
X109925000Y-99250000D03*
X112000000Y-99250000D03*
%TD*%
D13*
%TO.C,C28*%
X188125000Y-111480000D03*
X189850000Y-111480000D03*
%TD*%
D14*
%TO.C,R47*%
X80787500Y-55212500D03*
X80787500Y-57212500D03*
%TD*%
D15*
%TO.C,U19*%
X81587500Y-60112500D03*
X80637500Y-60112500D03*
X79687500Y-60112500D03*
X79687500Y-62812500D03*
X81587500Y-62812500D03*
%TD*%
D14*
%TO.C,R38*%
X82800000Y-66000000D03*
X82800000Y-68000000D03*
%TD*%
D11*
%TO.C,R46*%
X113900000Y-124000000D03*
X117000000Y-124000000D03*
%TD*%
D13*
%TO.C,C8*%
X110000000Y-77500000D03*
X111725000Y-77500000D03*
%TD*%
D16*
%TO.C,R48*%
X83087500Y-57212500D03*
X83087500Y-55212500D03*
%TD*%
D17*
%TO.C,C27*%
X186675000Y-117297500D03*
X186675000Y-118432500D03*
%TD*%
D18*
%TO.C,U12*%
X108750000Y-48400000D03*
X108750000Y-47450000D03*
X108750000Y-46500000D03*
X106050000Y-46500000D03*
X106050000Y-48400000D03*
%TD*%
D13*
%TO.C,C35*%
X202000000Y-141500000D03*
X203725000Y-141500000D03*
%TD*%
D19*
%TO.C,R1*%
X92950000Y-53950000D03*
X90950000Y-53950000D03*
%TD*%
D11*
%TO.C,R41*%
X113900000Y-107750000D03*
X117000000Y-107750000D03*
%TD*%
D20*
%TO.C,Q5*%
X135500000Y-115582500D03*
X135500000Y-140982500D03*
D21*
X131100000Y-125742500D03*
D22*
X131100000Y-128282500D03*
X131100000Y-130822500D03*
%TD*%
D14*
%TO.C,R33*%
X83000000Y-70700000D03*
X83000000Y-72700000D03*
%TD*%
D23*
%TO.C,C40*%
X98000000Y-109000000D03*
X96275000Y-109000000D03*
%TD*%
D24*
%TO.C,U18*%
X107750000Y-122500000D03*
D25*
X107750000Y-119960000D03*
X107750000Y-117420000D03*
X107750000Y-114880000D03*
X107750000Y-112340000D03*
X107750000Y-109800000D03*
X107750000Y-107260000D03*
X100130000Y-107260000D03*
X100130000Y-109800000D03*
X100130000Y-112340000D03*
X100130000Y-114880000D03*
X100130000Y-117420000D03*
X100130000Y-119960000D03*
X100130000Y-122500000D03*
%TD*%
D26*
%TO.C,C7*%
X98000000Y-73250000D03*
X95925000Y-73250000D03*
%TD*%
D27*
%TO.C,C38*%
X86200000Y-74100000D03*
X86200000Y-76175000D03*
%TD*%
D28*
%TO.C,U10*%
X177875000Y-114280000D03*
X177875000Y-116180000D03*
X179750000Y-115230000D03*
%TD*%
D29*
%TO.C,C11*%
X191850000Y-79500000D03*
X191850000Y-81225000D03*
%TD*%
D30*
%TO.C,R45*%
X81000000Y-111000000D03*
X83000000Y-111000000D03*
%TD*%
D26*
%TO.C,C17*%
X103500000Y-58800000D03*
X101425000Y-58800000D03*
%TD*%
D31*
%TO.C,C19*%
X200750000Y-113575000D03*
X200750000Y-111500000D03*
%TD*%
D32*
%TO.C,J4*%
X78000000Y-89340000D03*
D33*
X78000000Y-91880000D03*
X78000000Y-94420000D03*
X78000000Y-96960000D03*
X78000000Y-99500000D03*
X78000000Y-102040000D03*
%TD*%
D34*
%TO.C,J1*%
X117500000Y-133500000D03*
D35*
X107500000Y-133500000D03*
%TD*%
D26*
%TO.C,C24*%
X98000000Y-89000000D03*
X95925000Y-89000000D03*
%TD*%
D12*
%TO.C,C43*%
X109925000Y-118500000D03*
X112000000Y-118500000D03*
%TD*%
D26*
%TO.C,C41*%
X98000000Y-107000000D03*
X95925000Y-107000000D03*
%TD*%
D14*
%TO.C,R39*%
X95500000Y-102750000D03*
X95500000Y-104750000D03*
%TD*%
D16*
%TO.C,R8*%
X95500000Y-84750000D03*
X95500000Y-82750000D03*
%TD*%
D30*
%TO.C,R10*%
X81000000Y-80500000D03*
X83000000Y-80500000D03*
%TD*%
D36*
%TO.C,C5*%
X92065000Y-55450000D03*
X93200000Y-55450000D03*
%TD*%
D37*
%TO.C,D1*%
X115750000Y-71170000D03*
D38*
X115750000Y-81330000D03*
%TD*%
D12*
%TO.C,C53*%
X84425000Y-114500000D03*
X86500000Y-114500000D03*
%TD*%
D39*
%TO.C,R20*%
X185250000Y-111980000D03*
X182150000Y-111980000D03*
%TD*%
D12*
%TO.C,C36*%
X202000000Y-139500000D03*
X204075000Y-139500000D03*
%TD*%
D40*
%TO.C,R44*%
X177475000Y-133865000D03*
D41*
X179275000Y-135965000D03*
X180875000Y-135965000D03*
D40*
X182675000Y-133865000D03*
%TD*%
D26*
%TO.C,C34*%
X103900000Y-49900000D03*
X101825000Y-49900000D03*
%TD*%
D19*
%TO.C,R17*%
X93200000Y-44850000D03*
X91200000Y-44850000D03*
%TD*%
D11*
%TO.C,R14*%
X113900000Y-84250000D03*
X117000000Y-84250000D03*
%TD*%
D19*
%TO.C,R19*%
X99100000Y-49750000D03*
X97100000Y-49750000D03*
%TD*%
D42*
%TO.C,U15*%
X85380000Y-103500000D03*
X85380000Y-106040000D03*
X85380000Y-108580000D03*
X85380000Y-111120000D03*
X93000000Y-111120000D03*
X93000000Y-108580000D03*
X93000000Y-106040000D03*
X93000000Y-103500000D03*
%TD*%
D11*
%TO.C,R9*%
X114150000Y-68000000D03*
X117250000Y-68000000D03*
%TD*%
D16*
%TO.C,R11*%
X98950000Y-56450000D03*
X98950000Y-54450000D03*
%TD*%
D18*
%TO.C,U6*%
X108450000Y-57450000D03*
X108450000Y-56500000D03*
X108450000Y-55550000D03*
X105750000Y-55550000D03*
X105750000Y-57450000D03*
%TD*%
D27*
%TO.C,C31*%
X112000000Y-91175000D03*
X112000000Y-93250000D03*
%TD*%
D14*
%TO.C,R23*%
X95500000Y-93000000D03*
X95500000Y-95000000D03*
%TD*%
D36*
%TO.C,C22*%
X92432500Y-46450000D03*
X93567500Y-46450000D03*
%TD*%
D23*
%TO.C,C20*%
X90162500Y-47650000D03*
X88437500Y-47650000D03*
%TD*%
D43*
%TO.C,U1*%
X88670000Y-119250000D03*
D44*
X91210000Y-119250000D03*
X93750000Y-119250000D03*
%TD*%
D20*
%TO.C,Q4*%
X164332500Y-95750000D03*
X189732500Y-95750000D03*
D43*
X174492500Y-100150000D03*
D44*
X177032500Y-100150000D03*
X179572500Y-100150000D03*
%TD*%
D31*
%TO.C,C46*%
X188925000Y-139115000D03*
X188925000Y-137040000D03*
%TD*%
D17*
%TO.C,C44*%
X187325000Y-142980000D03*
X187325000Y-144115000D03*
%TD*%
D13*
%TO.C,C42*%
X110025000Y-116500000D03*
X111750000Y-116500000D03*
%TD*%
D27*
%TO.C,C48*%
X112000000Y-110250000D03*
X112000000Y-112325000D03*
%TD*%
D37*
%TO.C,D2*%
X115500000Y-90920000D03*
D38*
X115500000Y-101080000D03*
%TD*%
D24*
%TO.C,U5*%
X107800000Y-84000000D03*
D25*
X107800000Y-81460000D03*
X107800000Y-78920000D03*
X107800000Y-76380000D03*
X107800000Y-73840000D03*
X107800000Y-71300000D03*
X107800000Y-68760000D03*
X100180000Y-68760000D03*
X100180000Y-71300000D03*
X100180000Y-73840000D03*
X100180000Y-76380000D03*
X100180000Y-78920000D03*
X100180000Y-81460000D03*
X100180000Y-84000000D03*
%TD*%
D30*
%TO.C,R42*%
X81000000Y-103500000D03*
X83000000Y-103500000D03*
%TD*%
D23*
%TO.C,C3*%
X89950000Y-56950000D03*
X88225000Y-56950000D03*
%TD*%
D13*
%TO.C,C50*%
X83562500Y-63012500D03*
X85287500Y-63012500D03*
%TD*%
D26*
%TO.C,C4*%
X89950000Y-58950000D03*
X87875000Y-58950000D03*
%TD*%
D45*
%TO.C,C18*%
X198750000Y-113612500D03*
X198750000Y-111887500D03*
%TD*%
D28*
%TO.C,U16*%
X182800000Y-138165000D03*
X182800000Y-140065000D03*
X184675000Y-139115000D03*
%TD*%
D39*
%TO.C,R5*%
X198150000Y-74000000D03*
X195050000Y-74000000D03*
%TD*%
D18*
%TO.C,U8*%
X94900000Y-49800000D03*
X94900000Y-48850000D03*
X94900000Y-47900000D03*
X92200000Y-47900000D03*
X92200000Y-49800000D03*
%TD*%
D46*
%TO.C,U13*%
X189175000Y-141595000D03*
X189175000Y-142865000D03*
X189175000Y-144135000D03*
X189175000Y-145405000D03*
X199825000Y-145405000D03*
X199825000Y-144135000D03*
X199825000Y-142865000D03*
X199825000Y-141595000D03*
%TD*%
D15*
%TO.C,U14*%
X86900000Y-69300000D03*
X85950000Y-69300000D03*
X85000000Y-69300000D03*
X85000000Y-72000000D03*
X86900000Y-72000000D03*
%TD*%
D47*
%TO.C,C10*%
X193300000Y-75885000D03*
X193300000Y-74750000D03*
%TD*%
D19*
%TO.C,R31*%
X113400000Y-47900000D03*
X111400000Y-47900000D03*
%TD*%
D30*
%TO.C,R26*%
X81000000Y-91500000D03*
X83000000Y-91500000D03*
%TD*%
D23*
%TO.C,C6*%
X97975000Y-71250000D03*
X96250000Y-71250000D03*
%TD*%
D16*
%TO.C,R24*%
X95500000Y-99000000D03*
X95500000Y-97000000D03*
%TD*%
D20*
%TO.C,Q2*%
X162650000Y-50992500D03*
X162650000Y-76392500D03*
D21*
X158250000Y-61152500D03*
D22*
X158250000Y-63692500D03*
X158250000Y-66232500D03*
%TD*%
D11*
%TO.C,R25*%
X113900000Y-87750000D03*
X117000000Y-87750000D03*
%TD*%
D12*
%TO.C,C51*%
X83612500Y-61012500D03*
X85687500Y-61012500D03*
%TD*%
D14*
%TO.C,R7*%
X95500000Y-76750000D03*
X95500000Y-78750000D03*
%TD*%
D20*
%TO.C,Q6*%
X163000000Y-115500000D03*
X163000000Y-140900000D03*
D21*
X158600000Y-125660000D03*
D22*
X158600000Y-128200000D03*
X158600000Y-130740000D03*
%TD*%
D27*
%TO.C,C14*%
X112000000Y-71500000D03*
X112000000Y-73575000D03*
%TD*%
D16*
%TO.C,R40*%
X95500000Y-114500000D03*
X95500000Y-112500000D03*
%TD*%
D40*
%TO.C,R28*%
X178550000Y-123980000D03*
D41*
X180350000Y-121905000D03*
X181950000Y-121905000D03*
D40*
X183750000Y-123980000D03*
%TD*%
D47*
%TO.C,C39*%
X81400000Y-72135000D03*
X81400000Y-71000000D03*
%TD*%
D37*
%TO.C,D3*%
X115750000Y-110670000D03*
D38*
X115750000Y-120830000D03*
%TD*%
D24*
%TO.C,U11*%
X107800000Y-103250000D03*
D25*
X107800000Y-100710000D03*
X107800000Y-98170000D03*
X107800000Y-95630000D03*
X107800000Y-93090000D03*
X107800000Y-90550000D03*
X107800000Y-88010000D03*
X100180000Y-88010000D03*
X100180000Y-90550000D03*
X100180000Y-93090000D03*
X100180000Y-95630000D03*
X100180000Y-98170000D03*
X100180000Y-100710000D03*
X100180000Y-103250000D03*
%TD*%
D19*
%TO.C,R6*%
X96950000Y-53950000D03*
X94950000Y-53950000D03*
%TD*%
D12*
%TO.C,C29*%
X188275000Y-113480000D03*
X190350000Y-113480000D03*
%TD*%
D39*
%TO.C,R2*%
X198150000Y-76500000D03*
X195050000Y-76500000D03*
%TD*%
D16*
%TO.C,R43*%
X86900000Y-67200000D03*
X86900000Y-65200000D03*
%TD*%
D27*
%TO.C,C12*%
X189850000Y-79500000D03*
X189850000Y-81575000D03*
%TD*%
D20*
%TO.C,Q1*%
X135250000Y-51082500D03*
X135250000Y-76482500D03*
D21*
X130850000Y-61242500D03*
D22*
X130850000Y-63782500D03*
X130850000Y-66322500D03*
%TD*%
D26*
%TO.C,C21*%
X90150000Y-49650000D03*
X88075000Y-49650000D03*
%TD*%
%TO.C,C2*%
X178500000Y-79250000D03*
X176425000Y-79250000D03*
%TD*%
D40*
%TO.C,R12*%
X196250000Y-69050000D03*
D41*
X198050000Y-71150000D03*
X199650000Y-71150000D03*
D40*
X201450000Y-69050000D03*
%TD*%
D14*
%TO.C,R35*%
X89000000Y-67500000D03*
X89000000Y-69500000D03*
%TD*%
D11*
%TO.C,R34*%
X182725000Y-142365000D03*
X185825000Y-142365000D03*
%TD*%
D48*
%TO.C,J2*%
X94500000Y-133750000D03*
D49*
X99500000Y-133750000D03*
%TD*%
D42*
%TO.C,U4*%
X85380000Y-80420000D03*
X85380000Y-82960000D03*
X85380000Y-85500000D03*
X85380000Y-88040000D03*
X93000000Y-88040000D03*
X93000000Y-85500000D03*
X93000000Y-82960000D03*
X93000000Y-80420000D03*
%TD*%
D11*
%TO.C,R30*%
X113900000Y-104250000D03*
X117000000Y-104250000D03*
%TD*%
D20*
%TO.C,Q3*%
X127332500Y-95750000D03*
X152732500Y-95750000D03*
D43*
X137492500Y-100150000D03*
D44*
X140032500Y-100150000D03*
X142572500Y-100150000D03*
%TD*%
D42*
%TO.C,U9*%
X85380000Y-91880000D03*
X85380000Y-94420000D03*
X85380000Y-96960000D03*
X85380000Y-99500000D03*
X93000000Y-99500000D03*
X93000000Y-96960000D03*
X93000000Y-94420000D03*
X93000000Y-91880000D03*
%TD*%
D23*
%TO.C,C16*%
X103612500Y-56800000D03*
X101887500Y-56800000D03*
%TD*%
D29*
%TO.C,C47*%
X110000000Y-110500000D03*
X110000000Y-112225000D03*
%TD*%
D30*
%TO.C,R29*%
X81000000Y-99500000D03*
X83000000Y-99500000D03*
%TD*%
D47*
%TO.C,C32*%
X97500000Y-47850000D03*
X97500000Y-46715000D03*
%TD*%
D19*
%TO.C,R15*%
X113200000Y-56950000D03*
X111200000Y-56950000D03*
%TD*%
D29*
%TO.C,C30*%
X110000000Y-91275000D03*
X110000000Y-93000000D03*
%TD*%
D16*
%TO.C,R27*%
X99300000Y-47650000D03*
X99300000Y-45650000D03*
%TD*%
D23*
%TO.C,C1*%
X178525000Y-77250000D03*
X176800000Y-77250000D03*
%TD*%
D39*
%TO.C,R4*%
X183500000Y-79800000D03*
X180400000Y-79800000D03*
%TD*%
D50*
%TO.C,U2*%
X191375000Y-77155000D03*
X191375000Y-75885000D03*
X191375000Y-74615000D03*
X191375000Y-73345000D03*
X180725000Y-73345000D03*
X180725000Y-74615000D03*
X180725000Y-75885000D03*
X180725000Y-77155000D03*
%TD*%
D11*
%TO.C,R37*%
X182725000Y-144865000D03*
X185825000Y-144865000D03*
%TD*%
%TO.C,R36*%
X188875000Y-134615000D03*
X191975000Y-134615000D03*
%TD*%
D32*
%TO.C,J5*%
X78000000Y-68920000D03*
D33*
X78000000Y-71460000D03*
X78000000Y-74000000D03*
X78000000Y-76540000D03*
X78000000Y-79080000D03*
%TD*%
D19*
%TO.C,R3*%
X98950000Y-58700000D03*
X96950000Y-58700000D03*
%TD*%
D23*
%TO.C,C33*%
X103900000Y-47900000D03*
X102175000Y-47900000D03*
%TD*%
D47*
%TO.C,C15*%
X97200000Y-56700000D03*
X97200000Y-55565000D03*
%TD*%
D28*
%TO.C,U17*%
X185762500Y-79500000D03*
X185762500Y-81400000D03*
X187637500Y-80450000D03*
%TD*%
D11*
%TO.C,R18*%
X182000000Y-116730000D03*
X185100000Y-116730000D03*
%TD*%
D45*
%TO.C,C45*%
X190925000Y-139115000D03*
X190925000Y-137390000D03*
%TD*%
D18*
%TO.C,U3*%
X94800000Y-58850000D03*
X94800000Y-57900000D03*
X94800000Y-56950000D03*
X92100000Y-56950000D03*
X92100000Y-58850000D03*
%TD*%
D29*
%TO.C,C13*%
X110000000Y-71750000D03*
X110000000Y-73475000D03*
%TD*%
D23*
%TO.C,C52*%
X93500000Y-114750000D03*
X91775000Y-114750000D03*
%TD*%
D29*
%TO.C,C37*%
X88300000Y-74100000D03*
X88300000Y-75825000D03*
%TD*%
D46*
%TO.C,U7*%
X188600000Y-115960000D03*
X188600000Y-117230000D03*
X188600000Y-118500000D03*
X188600000Y-119770000D03*
X199250000Y-119770000D03*
X199250000Y-118500000D03*
X199250000Y-117230000D03*
X199250000Y-115960000D03*
%TD*%
D47*
%TO.C,C49*%
X85200000Y-66135000D03*
X85200000Y-65000000D03*
%TD*%
D23*
%TO.C,C23*%
X98000000Y-91000000D03*
X96275000Y-91000000D03*
%TD*%
D30*
%TO.C,R32*%
X111400000Y-50150000D03*
X113400000Y-50150000D03*
%TD*%
D12*
%TO.C,C9*%
X110000000Y-79500000D03*
X112075000Y-79500000D03*
%TD*%
D30*
%TO.C,R16*%
X111200000Y-59200000D03*
X113200000Y-59200000D03*
%TD*%
D34*
%TO.C,J3*%
X208000000Y-113750000D03*
D35*
X208000000Y-123750000D03*
X208000000Y-133750000D03*
%TD*%
D13*
%TO.C,C25*%
X110025000Y-97250000D03*
X111750000Y-97250000D03*
%TD*%
D30*
%TO.C,R13*%
X81000000Y-88000000D03*
X83000000Y-88000000D03*
%TD*%
D19*
%TO.C,R22*%
X97100000Y-45050000D03*
X95100000Y-45050000D03*
%TD*%
M02*
