%TF.GenerationSoftware,KiCad,Pcbnew,8.0.8*%
%TF.CreationDate,2025-03-02T04:32:18-08:00*%
%TF.ProjectId,motor_driver,6d6f746f-725f-4647-9269-7665722e6b69,rev?*%
%TF.SameCoordinates,Original*%
%TF.FileFunction,Copper,L1,Top*%
%TF.FilePolarity,Positive*%
%FSLAX46Y46*%
G04 Gerber Fmt 4.6, Leading zero omitted, Abs format (unit mm)*
G04 Created by KiCad (PCBNEW 8.0.8) date 2025-03-02 04:32:18*
%MOMM*%
%LPD*%
G01*
G04 APERTURE LIST*
G04 Aperture macros list*
%AMRoundRect*
0 Rectangle with rounded corners*
0 $1 Rounding radius*
0 $2 $3 $4 $5 $6 $7 $8 $9 X,Y pos of 4 corners*
0 Add a 4 corners polygon primitive as box body*
4,1,4,$2,$3,$4,$5,$6,$7,$8,$9,$2,$3,0*
0 Add four circle primitives for the rounded corners*
1,1,$1+$1,$2,$3*
1,1,$1+$1,$4,$5*
1,1,$1+$1,$6,$7*
1,1,$1+$1,$8,$9*
0 Add four rect primitives between the rounded corners*
20,1,$1+$1,$2,$3,$4,$5,0*
20,1,$1+$1,$4,$5,$6,$7,0*
20,1,$1+$1,$6,$7,$8,$9,0*
20,1,$1+$1,$8,$9,$2,$3,0*%
G04 Aperture macros list end*
%TA.AperFunction,Conductor*%
%ADD10C,1.000000*%
%TD*%
%TA.AperFunction,SMDPad,CuDef*%
%ADD11RoundRect,0.250000X-0.400000X-0.625000X0.400000X-0.625000X0.400000X0.625000X-0.400000X0.625000X0*%
%TD*%
%TA.AperFunction,SMDPad,CuDef*%
%ADD12RoundRect,0.250000X-0.337500X-0.475000X0.337500X-0.475000X0.337500X0.475000X-0.337500X0.475000X0*%
%TD*%
%TA.AperFunction,SMDPad,CuDef*%
%ADD13RoundRect,0.237500X-0.300000X-0.237500X0.300000X-0.237500X0.300000X0.237500X-0.300000X0.237500X0*%
%TD*%
%TA.AperFunction,SMDPad,CuDef*%
%ADD14RoundRect,0.250000X-0.450000X0.350000X-0.450000X-0.350000X0.450000X-0.350000X0.450000X0.350000X0*%
%TD*%
%TA.AperFunction,SMDPad,CuDef*%
%ADD15RoundRect,0.162500X-0.162500X0.617500X-0.162500X-0.617500X0.162500X-0.617500X0.162500X0.617500X0*%
%TD*%
%TA.AperFunction,SMDPad,CuDef*%
%ADD16RoundRect,0.250000X0.450000X-0.350000X0.450000X0.350000X-0.450000X0.350000X-0.450000X-0.350000X0*%
%TD*%
%TA.AperFunction,SMDPad,CuDef*%
%ADD17RoundRect,0.155000X-0.155000X0.212500X-0.155000X-0.212500X0.155000X-0.212500X0.155000X0.212500X0*%
%TD*%
%TA.AperFunction,SMDPad,CuDef*%
%ADD18RoundRect,0.162500X0.617500X0.162500X-0.617500X0.162500X-0.617500X-0.162500X0.617500X-0.162500X0*%
%TD*%
%TA.AperFunction,SMDPad,CuDef*%
%ADD19RoundRect,0.250000X0.350000X0.450000X-0.350000X0.450000X-0.350000X-0.450000X0.350000X-0.450000X0*%
%TD*%
%TA.AperFunction,ComponentPad*%
%ADD20C,5.000000*%
%TD*%
%TA.AperFunction,ComponentPad*%
%ADD21R,2.000000X1.905000*%
%TD*%
%TA.AperFunction,ComponentPad*%
%ADD22O,2.000000X1.905000*%
%TD*%
%TA.AperFunction,SMDPad,CuDef*%
%ADD23RoundRect,0.237500X0.300000X0.237500X-0.300000X0.237500X-0.300000X-0.237500X0.300000X-0.237500X0*%
%TD*%
%TA.AperFunction,ComponentPad*%
%ADD24R,1.600000X1.600000*%
%TD*%
%TA.AperFunction,ComponentPad*%
%ADD25O,1.600000X1.600000*%
%TD*%
%TA.AperFunction,SMDPad,CuDef*%
%ADD26RoundRect,0.250000X0.337500X0.475000X-0.337500X0.475000X-0.337500X-0.475000X0.337500X-0.475000X0*%
%TD*%
%TA.AperFunction,SMDPad,CuDef*%
%ADD27RoundRect,0.250000X-0.475000X0.337500X-0.475000X-0.337500X0.475000X-0.337500X0.475000X0.337500X0*%
%TD*%
%TA.AperFunction,SMDPad,CuDef*%
%ADD28RoundRect,0.150000X-0.587500X-0.150000X0.587500X-0.150000X0.587500X0.150000X-0.587500X0.150000X0*%
%TD*%
%TA.AperFunction,SMDPad,CuDef*%
%ADD29RoundRect,0.237500X-0.237500X0.300000X-0.237500X-0.300000X0.237500X-0.300000X0.237500X0.300000X0*%
%TD*%
%TA.AperFunction,SMDPad,CuDef*%
%ADD30RoundRect,0.250000X-0.350000X-0.450000X0.350000X-0.450000X0.350000X0.450000X-0.350000X0.450000X0*%
%TD*%
%TA.AperFunction,SMDPad,CuDef*%
%ADD31RoundRect,0.250000X0.475000X-0.337500X0.475000X0.337500X-0.475000X0.337500X-0.475000X-0.337500X0*%
%TD*%
%TA.AperFunction,ComponentPad*%
%ADD32R,1.700000X1.700000*%
%TD*%
%TA.AperFunction,ComponentPad*%
%ADD33O,1.700000X1.700000*%
%TD*%
%TA.AperFunction,ComponentPad*%
%ADD34R,2.600000X2.600000*%
%TD*%
%TA.AperFunction,ComponentPad*%
%ADD35C,2.600000*%
%TD*%
%TA.AperFunction,SMDPad,CuDef*%
%ADD36RoundRect,0.155000X-0.212500X-0.155000X0.212500X-0.155000X0.212500X0.155000X-0.212500X0.155000X0*%
%TD*%
%TA.AperFunction,ComponentPad*%
%ADD37R,2.200000X2.200000*%
%TD*%
%TA.AperFunction,ComponentPad*%
%ADD38O,2.200000X2.200000*%
%TD*%
%TA.AperFunction,SMDPad,CuDef*%
%ADD39RoundRect,0.250000X0.400000X0.625000X-0.400000X0.625000X-0.400000X-0.625000X0.400000X-0.625000X0*%
%TD*%
%TA.AperFunction,SMDPad,CuDef*%
%ADD40R,1.800000X3.400000*%
%TD*%
%TA.AperFunction,SMDPad,CuDef*%
%ADD41R,1.000000X2.000000*%
%TD*%
%TA.AperFunction,ComponentPad*%
%ADD42C,1.500000*%
%TD*%
%TA.AperFunction,ComponentPad*%
%ADD43R,1.905000X2.000000*%
%TD*%
%TA.AperFunction,ComponentPad*%
%ADD44O,1.905000X2.000000*%
%TD*%
%TA.AperFunction,SMDPad,CuDef*%
%ADD45RoundRect,0.237500X0.237500X-0.300000X0.237500X0.300000X-0.237500X0.300000X-0.237500X-0.300000X0*%
%TD*%
%TA.AperFunction,SMDPad,CuDef*%
%ADD46RoundRect,0.150000X-0.750000X-0.150000X0.750000X-0.150000X0.750000X0.150000X-0.750000X0.150000X0*%
%TD*%
%TA.AperFunction,SMDPad,CuDef*%
%ADD47RoundRect,0.155000X0.155000X-0.212500X0.155000X0.212500X-0.155000X0.212500X-0.155000X-0.212500X0*%
%TD*%
%TA.AperFunction,ComponentPad*%
%ADD48RoundRect,0.250001X-1.149999X-1.149999X1.149999X-1.149999X1.149999X1.149999X-1.149999X1.149999X0*%
%TD*%
%TA.AperFunction,ComponentPad*%
%ADD49C,2.800000*%
%TD*%
%TA.AperFunction,SMDPad,CuDef*%
%ADD50RoundRect,0.150000X0.750000X0.150000X-0.750000X0.150000X-0.750000X-0.150000X0.750000X-0.150000X0*%
%TD*%
%TA.AperFunction,ViaPad*%
%ADD51C,1.200000*%
%TD*%
%TA.AperFunction,ViaPad*%
%ADD52C,6.000000*%
%TD*%
%TA.AperFunction,ViaPad*%
%ADD53C,0.900000*%
%TD*%
%TA.AperFunction,ViaPad*%
%ADD54C,0.600000*%
%TD*%
%TA.AperFunction,ViaPad*%
%ADD55C,1.000000*%
%TD*%
%TA.AperFunction,ViaPad*%
%ADD56C,0.700000*%
%TD*%
%TA.AperFunction,Conductor*%
%ADD57C,0.500000*%
%TD*%
%TA.AperFunction,Conductor*%
%ADD58C,0.250000*%
%TD*%
%TA.AperFunction,Conductor*%
%ADD59C,0.200000*%
%TD*%
%TA.AperFunction,Conductor*%
%ADD60C,2.000000*%
%TD*%
%TA.AperFunction,Conductor*%
%ADD61C,1.500000*%
%TD*%
G04 APERTURE END LIST*
%TA.AperFunction,Conductor*%
%TO.N,/PHASE_C*%
G36*
X182000000Y-129500000D02*
G01*
X187250000Y-129500000D01*
X187250000Y-136750000D01*
X182000000Y-136750000D01*
X182000000Y-129500000D01*
G37*
%TD.AperFunction*%
%TA.AperFunction,Conductor*%
%TO.N,Net-(Q5-S)*%
G36*
X172700000Y-129500000D02*
G01*
X178200000Y-129500000D01*
X178200000Y-136750000D01*
X172700000Y-136750000D01*
X172700000Y-129500000D01*
G37*
%TD.AperFunction*%
%TA.AperFunction,Conductor*%
%TO.N,/PHASE_B*%
G36*
X183950000Y-120750000D02*
G01*
X188750000Y-120750000D01*
X188750000Y-127450000D01*
X183950000Y-127450000D01*
X183950000Y-120750000D01*
G37*
%TD.AperFunction*%
%TA.AperFunction,Conductor*%
%TO.N,Net-(Q3-S)*%
G36*
X173850000Y-120650000D02*
G01*
X179350000Y-120650000D01*
X179350000Y-127350000D01*
X173850000Y-127350000D01*
X173850000Y-120650000D01*
G37*
%TD.AperFunction*%
%TA.AperFunction,Conductor*%
%TO.N,/PHASE_A*%
G36*
X200700000Y-65250000D02*
G01*
X206200000Y-65250000D01*
X206200000Y-72500000D01*
X200700000Y-72500000D01*
X200700000Y-65250000D01*
G37*
%TD.AperFunction*%
%TA.AperFunction,Conductor*%
%TO.N,Net-(Q1-S)*%
G36*
X191550000Y-65250000D02*
G01*
X197050000Y-65250000D01*
X197050000Y-72500000D01*
X191550000Y-72500000D01*
X191550000Y-65250000D01*
G37*
%TD.AperFunction*%
%TO.N,Net-(Q6-G)*%
D10*
X121500000Y-124000000D02*
G75*
G02*
X120500000Y-124000000I-500000J0D01*
G01*
X120500000Y-124000000D02*
G75*
G02*
X121500000Y-124000000I500000J0D01*
G01*
%TO.N,Net-(Q2-G)*%
X120500000Y-84250000D02*
G75*
G02*
X119500000Y-84250000I-500000J0D01*
G01*
X119500000Y-84250000D02*
G75*
G02*
X120500000Y-84250000I500000J0D01*
G01*
%TO.N,Net-(U2-OUTN)*%
X105000000Y-53000000D02*
G75*
G02*
X104000000Y-53000000I-500000J0D01*
G01*
X104000000Y-53000000D02*
G75*
G02*
X105000000Y-53000000I500000J0D01*
G01*
%TO.N,Net-(U13-OUTP)*%
X95600000Y-63300000D02*
G75*
G02*
X94600000Y-63300000I-500000J0D01*
G01*
X94600000Y-63300000D02*
G75*
G02*
X95600000Y-63300000I500000J0D01*
G01*
%TO.N,Net-(U13-VDD1)*%
X187250000Y-138250000D02*
G75*
G02*
X186250000Y-138250000I-500000J0D01*
G01*
X186250000Y-138250000D02*
G75*
G02*
X187250000Y-138250000I500000J0D01*
G01*
%TO.N,Net-(U7-OUTN)*%
X99500000Y-43250000D02*
G75*
G02*
X98500000Y-43250000I-500000J0D01*
G01*
X98500000Y-43250000D02*
G75*
G02*
X99500000Y-43250000I500000J0D01*
G01*
%TO.N,Net-(U10-K)*%
X183500000Y-114250000D02*
G75*
G02*
X182500000Y-114250000I-500000J0D01*
G01*
X182500000Y-114250000D02*
G75*
G02*
X183500000Y-114250000I500000J0D01*
G01*
%TO.N,Net-(Q3-G)*%
X120500000Y-87750000D02*
G75*
G02*
X119500000Y-87750000I-500000J0D01*
G01*
X119500000Y-87750000D02*
G75*
G02*
X120500000Y-87750000I500000J0D01*
G01*
%TO.N,Net-(U17-K)*%
X183000000Y-82000000D02*
G75*
G02*
X182000000Y-82000000I-500000J0D01*
G01*
X182000000Y-82000000D02*
G75*
G02*
X183000000Y-82000000I500000J0D01*
G01*
%TO.N,Net-(Q1-G)*%
X120250000Y-65500000D02*
G75*
G02*
X119250000Y-65500000I-500000J0D01*
G01*
X119250000Y-65500000D02*
G75*
G02*
X120250000Y-65500000I500000J0D01*
G01*
%TO.N,Net-(U7-OUTP)*%
X109750000Y-51250000D02*
G75*
G02*
X108750000Y-51250000I-500000J0D01*
G01*
X108750000Y-51250000D02*
G75*
G02*
X109750000Y-51250000I500000J0D01*
G01*
%TO.N,Net-(Q5-G)*%
X120750000Y-111000000D02*
G75*
G02*
X119750000Y-111000000I-500000J0D01*
G01*
X119750000Y-111000000D02*
G75*
G02*
X120750000Y-111000000I500000J0D01*
G01*
%TO.N,Net-(Q4-G)*%
X120500000Y-107250000D02*
G75*
G02*
X119500000Y-107250000I-500000J0D01*
G01*
X119500000Y-107250000D02*
G75*
G02*
X120500000Y-107250000I500000J0D01*
G01*
%TD*%
D11*
%TO.P,R21,1*%
%TO.N,Net-(Q3-S)*%
X182000000Y-119115000D03*
%TO.P,R21,2*%
%TO.N,Net-(U7-INN)*%
X185100000Y-119115000D03*
%TD*%
D12*
%TO.P,C26,1*%
%TO.N,+15V*%
X109925000Y-99250000D03*
%TO.P,C26,2*%
%TO.N,GND*%
X112000000Y-99250000D03*
%TD*%
D13*
%TO.P,C28,1*%
%TO.N,Net-(U10-K)*%
X188125000Y-111480000D03*
%TO.P,C28,2*%
%TO.N,Net-(Q3-S)*%
X189850000Y-111480000D03*
%TD*%
D14*
%TO.P,R47,1*%
%TO.N,+3.3V*%
X80787500Y-55212500D03*
%TO.P,R47,2*%
%TO.N,Net-(U19-+)*%
X80787500Y-57212500D03*
%TD*%
D15*
%TO.P,U19,1,+*%
%TO.N,Net-(U19-+)*%
X81587500Y-60112500D03*
%TO.P,U19,2,V-*%
%TO.N,MCU_GND*%
X80637500Y-60112500D03*
%TO.P,U19,3,-*%
%TO.N,Net-(U19--)*%
X79687500Y-60112500D03*
%TO.P,U19,4*%
X79687500Y-62812500D03*
%TO.P,U19,5,V+*%
%TO.N,+3.3V*%
X81587500Y-62812500D03*
%TD*%
D14*
%TO.P,R38,1*%
%TO.N,Net-(U13-OUTN)*%
X82800000Y-66000000D03*
%TO.P,R38,2*%
%TO.N,Net-(U14--)*%
X82800000Y-68000000D03*
%TD*%
D11*
%TO.P,R46,1*%
%TO.N,Net-(U18-LO)*%
X113900000Y-124000000D03*
%TO.P,R46,2*%
%TO.N,Net-(Q6-G)*%
X117000000Y-124000000D03*
%TD*%
D13*
%TO.P,C8,1*%
%TO.N,+15V*%
X110000000Y-77500000D03*
%TO.P,C8,2*%
%TO.N,GND*%
X111725000Y-77500000D03*
%TD*%
D16*
%TO.P,R48,1*%
%TO.N,Net-(U19-+)*%
X83087500Y-57212500D03*
%TO.P,R48,2*%
%TO.N,MCU_GND*%
X83087500Y-55212500D03*
%TD*%
D17*
%TO.P,C27,1*%
%TO.N,Net-(U7-INP)*%
X186675000Y-117297500D03*
%TO.P,C27,2*%
%TO.N,Net-(U7-INN)*%
X186675000Y-118432500D03*
%TD*%
D18*
%TO.P,U12,1,+*%
%TO.N,Net-(U12-+)*%
X108750000Y-48400000D03*
%TO.P,U12,2,V-*%
%TO.N,MCU_GND*%
X108750000Y-47450000D03*
%TO.P,U12,3,-*%
%TO.N,Net-(U12--)*%
X108750000Y-46500000D03*
%TO.P,U12,4*%
X106050000Y-46500000D03*
%TO.P,U12,5,V+*%
%TO.N,+3.3V*%
X106050000Y-48400000D03*
%TD*%
D13*
%TO.P,C35,1*%
%TO.N,+3.3V*%
X202000000Y-141500000D03*
%TO.P,C35,2*%
%TO.N,MCU_GND*%
X203725000Y-141500000D03*
%TD*%
D19*
%TO.P,R1,1*%
%TO.N,Net-(U3--)*%
X92950000Y-53950000D03*
%TO.P,R1,2*%
%TO.N,/I_A*%
X90950000Y-53950000D03*
%TD*%
D11*
%TO.P,R41,1*%
%TO.N,Net-(U18-HO)*%
X113900000Y-107750000D03*
%TO.P,R41,2*%
%TO.N,Net-(Q5-G)*%
X117000000Y-107750000D03*
%TD*%
D20*
%TO.P,Q5,*%
%TO.N,*%
X135500000Y-115582500D03*
X135500000Y-140982500D03*
D21*
%TO.P,Q5,1,G*%
%TO.N,Net-(Q5-G)*%
X131100000Y-125742500D03*
D22*
%TO.P,Q5,2,D*%
%TO.N,+100V*%
X131100000Y-128282500D03*
%TO.P,Q5,3,S*%
%TO.N,Net-(Q5-S)*%
X131100000Y-130822500D03*
%TD*%
D14*
%TO.P,R33,1*%
%TO.N,Net-(U14--)*%
X83000000Y-70700000D03*
%TO.P,R33,2*%
%TO.N,/I_C*%
X83000000Y-72700000D03*
%TD*%
D23*
%TO.P,C40,1*%
%TO.N,+5V*%
X98000000Y-109000000D03*
%TO.P,C40,2*%
%TO.N,GND*%
X96275000Y-109000000D03*
%TD*%
D24*
%TO.P,U18,1,LO*%
%TO.N,Net-(U18-LO)*%
X107750000Y-122500000D03*
D25*
%TO.P,U18,2,COM*%
%TO.N,GND*%
X107750000Y-119960000D03*
%TO.P,U18,3,VCC*%
%TO.N,+15V*%
X107750000Y-117420000D03*
%TO.P,U18,4,NC*%
%TO.N,unconnected-(U18-NC-Pad4)*%
X107750000Y-114880000D03*
%TO.P,U18,5,VS*%
%TO.N,Net-(Q5-S)*%
X107750000Y-112340000D03*
%TO.P,U18,6,VB*%
%TO.N,Net-(D3-K)*%
X107750000Y-109800000D03*
%TO.P,U18,7,HO*%
%TO.N,Net-(U18-HO)*%
X107750000Y-107260000D03*
%TO.P,U18,8,NC*%
%TO.N,unconnected-(U18-NC-Pad8)*%
X100130000Y-107260000D03*
%TO.P,U18,9,VDD*%
%TO.N,+5V*%
X100130000Y-109800000D03*
%TO.P,U18,10,HIN*%
%TO.N,Net-(U18-HIN)*%
X100130000Y-112340000D03*
%TO.P,U18,11,SD*%
%TO.N,GND*%
X100130000Y-114880000D03*
%TO.P,U18,12,LIN*%
%TO.N,Net-(U18-LIN)*%
X100130000Y-117420000D03*
%TO.P,U18,13,VSS*%
%TO.N,GND*%
X100130000Y-119960000D03*
%TO.P,U18,14,NC*%
%TO.N,unconnected-(U18-NC-Pad14)*%
X100130000Y-122500000D03*
%TD*%
D26*
%TO.P,C7,1*%
%TO.N,+5V*%
X98000000Y-73250000D03*
%TO.P,C7,2*%
%TO.N,GND*%
X95925000Y-73250000D03*
%TD*%
D27*
%TO.P,C38,1*%
%TO.N,+3.3V*%
X86200000Y-74100000D03*
%TO.P,C38,2*%
%TO.N,MCU_GND*%
X86200000Y-76175000D03*
%TD*%
D28*
%TO.P,U10,1,K*%
%TO.N,Net-(U10-K)*%
X177875000Y-114280000D03*
%TO.P,U10,2,A*%
%TO.N,Net-(Q3-S)*%
X177875000Y-116180000D03*
%TO.P,U10,3,NC*%
%TO.N,unconnected-(U10-NC-Pad3)*%
X179750000Y-115230000D03*
%TD*%
D29*
%TO.P,C11,1*%
%TO.N,Net-(U17-K)*%
X191850000Y-79500000D03*
%TO.P,C11,2*%
%TO.N,Net-(Q1-S)*%
X191850000Y-81225000D03*
%TD*%
D30*
%TO.P,R45,1*%
%TO.N,/LO_C*%
X81000000Y-111000000D03*
%TO.P,R45,2*%
%TO.N,Net-(R45-Pad2)*%
X83000000Y-111000000D03*
%TD*%
D26*
%TO.P,C17,1*%
%TO.N,+3.3V*%
X103500000Y-58800000D03*
%TO.P,C17,2*%
%TO.N,MCU_GND*%
X101425000Y-58800000D03*
%TD*%
D31*
%TO.P,C19,1*%
%TO.N,+3.3V*%
X200750000Y-113575000D03*
%TO.P,C19,2*%
%TO.N,MCU_GND*%
X200750000Y-111500000D03*
%TD*%
D32*
%TO.P,J4,1,Pin_1*%
%TO.N,/HI_A*%
X78000000Y-89340000D03*
D33*
%TO.P,J4,2,Pin_2*%
%TO.N,/LO_A*%
X78000000Y-91880000D03*
%TO.P,J4,3,Pin_3*%
%TO.N,/HI_B*%
X78000000Y-94420000D03*
%TO.P,J4,4,Pin_4*%
%TO.N,/LO_B*%
X78000000Y-96960000D03*
%TO.P,J4,5,Pin_5*%
%TO.N,/HI_C*%
X78000000Y-99500000D03*
%TO.P,J4,6,Pin_6*%
%TO.N,/LO_C*%
X78000000Y-102040000D03*
%TD*%
D34*
%TO.P,J1,1,Pin_1*%
%TO.N,+100V*%
X118250000Y-131500000D03*
D35*
%TO.P,J1,2,Pin_2*%
%TO.N,GND*%
X108250000Y-131500000D03*
%TD*%
D26*
%TO.P,C24,1*%
%TO.N,+5V*%
X98000000Y-89000000D03*
%TO.P,C24,2*%
%TO.N,GND*%
X95925000Y-89000000D03*
%TD*%
D12*
%TO.P,C43,1*%
%TO.N,+15V*%
X109925000Y-118500000D03*
%TO.P,C43,2*%
%TO.N,GND*%
X112000000Y-118500000D03*
%TD*%
D26*
%TO.P,C41,1*%
%TO.N,+5V*%
X98000000Y-107000000D03*
%TO.P,C41,2*%
%TO.N,GND*%
X95925000Y-107000000D03*
%TD*%
D14*
%TO.P,R39,1*%
%TO.N,+5V*%
X95500000Y-102750000D03*
%TO.P,R39,2*%
%TO.N,Net-(U18-HIN)*%
X95500000Y-104750000D03*
%TD*%
D16*
%TO.P,R8,1*%
%TO.N,+5V*%
X95500000Y-84750000D03*
%TO.P,R8,2*%
%TO.N,Net-(U5-LIN)*%
X95500000Y-82750000D03*
%TD*%
D30*
%TO.P,R10,1*%
%TO.N,/HI_A*%
X81000000Y-80500000D03*
%TO.P,R10,2*%
%TO.N,Net-(R10-Pad2)*%
X83000000Y-80500000D03*
%TD*%
D36*
%TO.P,C5,1*%
%TO.N,/I_A*%
X92065000Y-55450000D03*
%TO.P,C5,2*%
%TO.N,Net-(U3--)*%
X93200000Y-55450000D03*
%TD*%
D37*
%TO.P,D1,1,K*%
%TO.N,Net-(D1-K)*%
X115750000Y-71170000D03*
D38*
%TO.P,D1,2,A*%
%TO.N,+15V*%
X115750000Y-81330000D03*
%TD*%
D12*
%TO.P,C53,1*%
%TO.N,+15V*%
X84425000Y-114500000D03*
%TO.P,C53,2*%
%TO.N,GND*%
X86500000Y-114500000D03*
%TD*%
D39*
%TO.P,R20,1*%
%TO.N,Net-(U10-K)*%
X185250000Y-111980000D03*
%TO.P,R20,2*%
%TO.N,Net-(D2-K)*%
X182150000Y-111980000D03*
%TD*%
D12*
%TO.P,C36,1*%
%TO.N,+3.3V*%
X202000000Y-139500000D03*
%TO.P,C36,2*%
%TO.N,MCU_GND*%
X204075000Y-139500000D03*
%TD*%
D40*
%TO.P,R44,1*%
%TO.N,Net-(Q5-S)*%
X177475000Y-133865000D03*
D41*
X179275000Y-135965000D03*
%TO.P,R44,2*%
%TO.N,/PHASE_C*%
X180875000Y-135965000D03*
D40*
X182675000Y-133865000D03*
%TD*%
D26*
%TO.P,C34,1*%
%TO.N,+3.3V*%
X103900000Y-49900000D03*
%TO.P,C34,2*%
%TO.N,MCU_GND*%
X101825000Y-49900000D03*
%TD*%
D19*
%TO.P,R17,1*%
%TO.N,Net-(U8--)*%
X93200000Y-44850000D03*
%TO.P,R17,2*%
%TO.N,/I_B*%
X91200000Y-44850000D03*
%TD*%
D11*
%TO.P,R14,1*%
%TO.N,Net-(U5-LO)*%
X113900000Y-84250000D03*
%TO.P,R14,2*%
%TO.N,Net-(Q2-G)*%
X117000000Y-84250000D03*
%TD*%
D19*
%TO.P,R19,1*%
%TO.N,Net-(U7-OUTP)*%
X99100000Y-49750000D03*
%TO.P,R19,2*%
%TO.N,Net-(U8-+)*%
X97100000Y-49750000D03*
%TD*%
D42*
%TO.P,U15,1,AN*%
%TO.N,Net-(R42-Pad2)*%
X85380000Y-103500000D03*
%TO.P,U15,2,CA*%
%TO.N,MCU_GND*%
X85380000Y-106040000D03*
%TO.P,U15,3,CA*%
X85380000Y-108580000D03*
%TO.P,U15,4,AN*%
%TO.N,Net-(R45-Pad2)*%
X85380000Y-111120000D03*
%TO.P,U15,5,EM*%
%TO.N,GND*%
X93000000Y-111120000D03*
%TO.P,U15,6,COL*%
%TO.N,Net-(U18-LIN)*%
X93000000Y-108580000D03*
%TO.P,U15,7,COL*%
%TO.N,Net-(U18-HIN)*%
X93000000Y-106040000D03*
%TO.P,U15,8,EM*%
%TO.N,GND*%
X93000000Y-103500000D03*
%TD*%
D11*
%TO.P,R9,1*%
%TO.N,Net-(U5-HO)*%
X114150000Y-68000000D03*
%TO.P,R9,2*%
%TO.N,Net-(Q1-G)*%
X117250000Y-68000000D03*
%TD*%
D16*
%TO.P,R11,1*%
%TO.N,Net-(U3-+)*%
X98950000Y-56450000D03*
%TO.P,R11,2*%
%TO.N,Net-(U6--)*%
X98950000Y-54450000D03*
%TD*%
D18*
%TO.P,U6,1,+*%
%TO.N,Net-(U6-+)*%
X108450000Y-57450000D03*
%TO.P,U6,2,V-*%
%TO.N,MCU_GND*%
X108450000Y-56500000D03*
%TO.P,U6,3,-*%
%TO.N,Net-(U6--)*%
X108450000Y-55550000D03*
%TO.P,U6,4*%
X105750000Y-55550000D03*
%TO.P,U6,5,V+*%
%TO.N,+3.3V*%
X105750000Y-57450000D03*
%TD*%
D27*
%TO.P,C31,1*%
%TO.N,Net-(D2-K)*%
X112000000Y-91175000D03*
%TO.P,C31,2*%
%TO.N,Net-(Q3-S)*%
X112000000Y-93250000D03*
%TD*%
D14*
%TO.P,R23,1*%
%TO.N,+5V*%
X95500000Y-93000000D03*
%TO.P,R23,2*%
%TO.N,Net-(U11-HIN)*%
X95500000Y-95000000D03*
%TD*%
D36*
%TO.P,C22,1*%
%TO.N,/I_B*%
X92432500Y-46450000D03*
%TO.P,C22,2*%
%TO.N,Net-(U8--)*%
X93567500Y-46450000D03*
%TD*%
D23*
%TO.P,C20,1*%
%TO.N,+3.3V*%
X90162500Y-47650000D03*
%TO.P,C20,2*%
%TO.N,MCU_GND*%
X88437500Y-47650000D03*
%TD*%
D43*
%TO.P,U1,1,IN*%
%TO.N,+15V*%
X88670000Y-119250000D03*
D44*
%TO.P,U1,2,GND*%
%TO.N,GND*%
X91210000Y-119250000D03*
%TO.P,U1,3,OUT*%
%TO.N,+5V*%
X93750000Y-119250000D03*
%TD*%
D20*
%TO.P,Q4,*%
%TO.N,*%
X164332500Y-95750000D03*
X189732500Y-95750000D03*
D43*
%TO.P,Q4,1,G*%
%TO.N,Net-(Q4-G)*%
X174492500Y-100150000D03*
D44*
%TO.P,Q4,2,D*%
%TO.N,Net-(Q3-S)*%
X177032500Y-100150000D03*
%TO.P,Q4,3,S*%
%TO.N,GND*%
X179572500Y-100150000D03*
%TD*%
D31*
%TO.P,C46,1*%
%TO.N,Net-(U13-VDD1)*%
X188925000Y-139115000D03*
%TO.P,C46,2*%
%TO.N,Net-(Q5-S)*%
X188925000Y-137040000D03*
%TD*%
D17*
%TO.P,C44,1*%
%TO.N,Net-(U13-INP)*%
X187325000Y-142980000D03*
%TO.P,C44,2*%
%TO.N,Net-(U13-INN)*%
X187325000Y-144115000D03*
%TD*%
D13*
%TO.P,C42,1*%
%TO.N,+15V*%
X110025000Y-116500000D03*
%TO.P,C42,2*%
%TO.N,GND*%
X111750000Y-116500000D03*
%TD*%
D27*
%TO.P,C48,1*%
%TO.N,Net-(D3-K)*%
X112000000Y-110250000D03*
%TO.P,C48,2*%
%TO.N,Net-(Q5-S)*%
X112000000Y-112325000D03*
%TD*%
D37*
%TO.P,D2,1,K*%
%TO.N,Net-(D2-K)*%
X115500000Y-90920000D03*
D38*
%TO.P,D2,2,A*%
%TO.N,+15V*%
X115500000Y-101080000D03*
%TD*%
D24*
%TO.P,U5,1,LO*%
%TO.N,Net-(U5-LO)*%
X107800000Y-84000000D03*
D25*
%TO.P,U5,2,COM*%
%TO.N,GND*%
X107800000Y-81460000D03*
%TO.P,U5,3,VCC*%
%TO.N,+15V*%
X107800000Y-78920000D03*
%TO.P,U5,4,NC*%
%TO.N,unconnected-(U5-NC-Pad4)*%
X107800000Y-76380000D03*
%TO.P,U5,5,VS*%
%TO.N,Net-(Q1-S)*%
X107800000Y-73840000D03*
%TO.P,U5,6,VB*%
%TO.N,Net-(D1-K)*%
X107800000Y-71300000D03*
%TO.P,U5,7,HO*%
%TO.N,Net-(U5-HO)*%
X107800000Y-68760000D03*
%TO.P,U5,8,NC*%
%TO.N,unconnected-(U5-NC-Pad8)*%
X100180000Y-68760000D03*
%TO.P,U5,9,VDD*%
%TO.N,+5V*%
X100180000Y-71300000D03*
%TO.P,U5,10,HIN*%
%TO.N,Net-(U5-HIN)*%
X100180000Y-73840000D03*
%TO.P,U5,11,SD*%
%TO.N,GND*%
X100180000Y-76380000D03*
%TO.P,U5,12,LIN*%
%TO.N,Net-(U5-LIN)*%
X100180000Y-78920000D03*
%TO.P,U5,13,VSS*%
%TO.N,GND*%
X100180000Y-81460000D03*
%TO.P,U5,14,NC*%
%TO.N,unconnected-(U5-NC-Pad14)*%
X100180000Y-84000000D03*
%TD*%
D30*
%TO.P,R42,1*%
%TO.N,/HI_C*%
X81000000Y-103500000D03*
%TO.P,R42,2*%
%TO.N,Net-(R42-Pad2)*%
X83000000Y-103500000D03*
%TD*%
D23*
%TO.P,C3,1*%
%TO.N,+3.3V*%
X89950000Y-56950000D03*
%TO.P,C3,2*%
%TO.N,MCU_GND*%
X88225000Y-56950000D03*
%TD*%
D13*
%TO.P,C50,1*%
%TO.N,+3.3V*%
X83562500Y-63012500D03*
%TO.P,C50,2*%
%TO.N,MCU_GND*%
X85287500Y-63012500D03*
%TD*%
D26*
%TO.P,C4,1*%
%TO.N,+3.3V*%
X89950000Y-58950000D03*
%TO.P,C4,2*%
%TO.N,MCU_GND*%
X87875000Y-58950000D03*
%TD*%
D45*
%TO.P,C18,1*%
%TO.N,+3.3V*%
X198750000Y-113612500D03*
%TO.P,C18,2*%
%TO.N,MCU_GND*%
X198750000Y-111887500D03*
%TD*%
D28*
%TO.P,U16,1,K*%
%TO.N,Net-(U13-VDD1)*%
X182800000Y-138165000D03*
%TO.P,U16,2,A*%
%TO.N,Net-(Q5-S)*%
X182800000Y-140065000D03*
%TO.P,U16,3,NC*%
%TO.N,unconnected-(U16-NC-Pad3)*%
X184675000Y-139115000D03*
%TD*%
D39*
%TO.P,R5,1*%
%TO.N,Net-(Q1-S)*%
X198150000Y-74000000D03*
%TO.P,R5,2*%
%TO.N,Net-(U2-INN)*%
X195050000Y-74000000D03*
%TD*%
D18*
%TO.P,U8,1,+*%
%TO.N,Net-(U8-+)*%
X94900000Y-49800000D03*
%TO.P,U8,2,V-*%
%TO.N,MCU_GND*%
X94900000Y-48850000D03*
%TO.P,U8,3,-*%
%TO.N,Net-(U8--)*%
X94900000Y-47900000D03*
%TO.P,U8,4*%
%TO.N,/I_B*%
X92200000Y-47900000D03*
%TO.P,U8,5,V+*%
%TO.N,+3.3V*%
X92200000Y-49800000D03*
%TD*%
D46*
%TO.P,U13,1,VDD1*%
%TO.N,Net-(U13-VDD1)*%
X189175000Y-141595000D03*
%TO.P,U13,2,INP*%
%TO.N,Net-(U13-INP)*%
X189175000Y-142865000D03*
%TO.P,U13,3,INN*%
%TO.N,Net-(U13-INN)*%
X189175000Y-144135000D03*
%TO.P,U13,4,GND1*%
%TO.N,Net-(Q5-S)*%
X189175000Y-145405000D03*
%TO.P,U13,5,GND2*%
%TO.N,MCU_GND*%
X199825000Y-145405000D03*
%TO.P,U13,6,OUTN*%
%TO.N,Net-(U13-OUTN)*%
X199825000Y-144135000D03*
%TO.P,U13,7,OUTP*%
%TO.N,Net-(U13-OUTP)*%
X199825000Y-142865000D03*
%TO.P,U13,8,VDD2*%
%TO.N,+3.3V*%
X199825000Y-141595000D03*
%TD*%
D15*
%TO.P,U14,1,+*%
%TO.N,Net-(U14-+)*%
X86900000Y-69300000D03*
%TO.P,U14,2,V-*%
%TO.N,MCU_GND*%
X85950000Y-69300000D03*
%TO.P,U14,3,-*%
%TO.N,Net-(U14--)*%
X85000000Y-69300000D03*
%TO.P,U14,4*%
%TO.N,/I_C*%
X85000000Y-72000000D03*
%TO.P,U14,5,V+*%
%TO.N,+3.3V*%
X86900000Y-72000000D03*
%TD*%
D47*
%TO.P,C10,1*%
%TO.N,Net-(U2-INP)*%
X193300000Y-75885000D03*
%TO.P,C10,2*%
%TO.N,Net-(U2-INN)*%
X193300000Y-74750000D03*
%TD*%
D19*
%TO.P,R31,1*%
%TO.N,+3.3V*%
X113400000Y-47900000D03*
%TO.P,R31,2*%
%TO.N,Net-(U12-+)*%
X111400000Y-47900000D03*
%TD*%
D30*
%TO.P,R26,1*%
%TO.N,/HI_B*%
X81000000Y-91500000D03*
%TO.P,R26,2*%
%TO.N,Net-(R26-Pad2)*%
X83000000Y-91500000D03*
%TD*%
D23*
%TO.P,C6,1*%
%TO.N,+5V*%
X97975000Y-71250000D03*
%TO.P,C6,2*%
%TO.N,GND*%
X96250000Y-71250000D03*
%TD*%
D16*
%TO.P,R24,1*%
%TO.N,+5V*%
X95500000Y-99000000D03*
%TO.P,R24,2*%
%TO.N,Net-(U11-LIN)*%
X95500000Y-97000000D03*
%TD*%
D20*
%TO.P,Q2,*%
%TO.N,*%
X162650000Y-50992500D03*
X162650000Y-76392500D03*
D21*
%TO.P,Q2,1,G*%
%TO.N,Net-(Q2-G)*%
X158250000Y-61152500D03*
D22*
%TO.P,Q2,2,D*%
%TO.N,Net-(Q1-S)*%
X158250000Y-63692500D03*
%TO.P,Q2,3,S*%
%TO.N,GND*%
X158250000Y-66232500D03*
%TD*%
D11*
%TO.P,R25,1*%
%TO.N,Net-(U11-HO)*%
X113900000Y-87750000D03*
%TO.P,R25,2*%
%TO.N,Net-(Q3-G)*%
X117000000Y-87750000D03*
%TD*%
D12*
%TO.P,C51,1*%
%TO.N,+3.3V*%
X83612500Y-61012500D03*
%TO.P,C51,2*%
%TO.N,MCU_GND*%
X85687500Y-61012500D03*
%TD*%
D14*
%TO.P,R7,1*%
%TO.N,+5V*%
X95500000Y-76750000D03*
%TO.P,R7,2*%
%TO.N,Net-(U5-HIN)*%
X95500000Y-78750000D03*
%TD*%
D20*
%TO.P,Q6,*%
%TO.N,*%
X163000000Y-115500000D03*
X163000000Y-140900000D03*
D21*
%TO.P,Q6,1,G*%
%TO.N,Net-(Q6-G)*%
X158600000Y-125660000D03*
D22*
%TO.P,Q6,2,D*%
%TO.N,Net-(Q5-S)*%
X158600000Y-128200000D03*
%TO.P,Q6,3,S*%
%TO.N,GND*%
X158600000Y-130740000D03*
%TD*%
D27*
%TO.P,C14,1*%
%TO.N,Net-(D1-K)*%
X112000000Y-71500000D03*
%TO.P,C14,2*%
%TO.N,Net-(Q1-S)*%
X112000000Y-73575000D03*
%TD*%
D16*
%TO.P,R40,1*%
%TO.N,+5V*%
X95500000Y-114500000D03*
%TO.P,R40,2*%
%TO.N,Net-(U18-LIN)*%
X95500000Y-112500000D03*
%TD*%
D40*
%TO.P,R28,1*%
%TO.N,Net-(Q3-S)*%
X178550000Y-123980000D03*
D41*
X180350000Y-121905000D03*
%TO.P,R28,2*%
%TO.N,/PHASE_B*%
X181950000Y-121905000D03*
D40*
X183750000Y-123980000D03*
%TD*%
D47*
%TO.P,C39,1*%
%TO.N,/I_C*%
X81400000Y-72135000D03*
%TO.P,C39,2*%
%TO.N,Net-(U14--)*%
X81400000Y-71000000D03*
%TD*%
D37*
%TO.P,D3,1,K*%
%TO.N,Net-(D3-K)*%
X115750000Y-110670000D03*
D38*
%TO.P,D3,2,A*%
%TO.N,+15V*%
X115750000Y-120830000D03*
%TD*%
D24*
%TO.P,U11,1,LO*%
%TO.N,Net-(U11-LO)*%
X107800000Y-103250000D03*
D25*
%TO.P,U11,2,COM*%
%TO.N,GND*%
X107800000Y-100710000D03*
%TO.P,U11,3,VCC*%
%TO.N,+15V*%
X107800000Y-98170000D03*
%TO.P,U11,4,NC*%
%TO.N,unconnected-(U11-NC-Pad4)*%
X107800000Y-95630000D03*
%TO.P,U11,5,VS*%
%TO.N,Net-(Q3-S)*%
X107800000Y-93090000D03*
%TO.P,U11,6,VB*%
%TO.N,Net-(D2-K)*%
X107800000Y-90550000D03*
%TO.P,U11,7,HO*%
%TO.N,Net-(U11-HO)*%
X107800000Y-88010000D03*
%TO.P,U11,8,NC*%
%TO.N,unconnected-(U11-NC-Pad8)*%
X100180000Y-88010000D03*
%TO.P,U11,9,VDD*%
%TO.N,+5V*%
X100180000Y-90550000D03*
%TO.P,U11,10,HIN*%
%TO.N,Net-(U11-HIN)*%
X100180000Y-93090000D03*
%TO.P,U11,11,SD*%
%TO.N,GND*%
X100180000Y-95630000D03*
%TO.P,U11,12,LIN*%
%TO.N,Net-(U11-LIN)*%
X100180000Y-98170000D03*
%TO.P,U11,13,VSS*%
%TO.N,GND*%
X100180000Y-100710000D03*
%TO.P,U11,14,NC*%
%TO.N,unconnected-(U11-NC-Pad14)*%
X100180000Y-103250000D03*
%TD*%
D19*
%TO.P,R6,1*%
%TO.N,Net-(U2-OUTN)*%
X96950000Y-53950000D03*
%TO.P,R6,2*%
%TO.N,Net-(U3--)*%
X94950000Y-53950000D03*
%TD*%
D12*
%TO.P,C29,1*%
%TO.N,Net-(U10-K)*%
X188275000Y-113480000D03*
%TO.P,C29,2*%
%TO.N,Net-(Q3-S)*%
X190350000Y-113480000D03*
%TD*%
D39*
%TO.P,R2,1*%
%TO.N,/PHASE_A*%
X198150000Y-76500000D03*
%TO.P,R2,2*%
%TO.N,Net-(U2-INP)*%
X195050000Y-76500000D03*
%TD*%
D16*
%TO.P,R43,1*%
%TO.N,Net-(U14-+)*%
X86900000Y-67200000D03*
%TO.P,R43,2*%
%TO.N,Net-(U19--)*%
X86900000Y-65200000D03*
%TD*%
D27*
%TO.P,C12,1*%
%TO.N,Net-(U17-K)*%
X189850000Y-79500000D03*
%TO.P,C12,2*%
%TO.N,Net-(Q1-S)*%
X189850000Y-81575000D03*
%TD*%
D20*
%TO.P,Q1,*%
%TO.N,*%
X135250000Y-51082500D03*
X135250000Y-76482500D03*
D21*
%TO.P,Q1,1,G*%
%TO.N,Net-(Q1-G)*%
X130850000Y-61242500D03*
D22*
%TO.P,Q1,2,D*%
%TO.N,+100V*%
X130850000Y-63782500D03*
%TO.P,Q1,3,S*%
%TO.N,Net-(Q1-S)*%
X130850000Y-66322500D03*
%TD*%
D26*
%TO.P,C21,1*%
%TO.N,+3.3V*%
X90150000Y-49650000D03*
%TO.P,C21,2*%
%TO.N,MCU_GND*%
X88075000Y-49650000D03*
%TD*%
%TO.P,C2,1*%
%TO.N,+3.3V*%
X178500000Y-79250000D03*
%TO.P,C2,2*%
%TO.N,MCU_GND*%
X176425000Y-79250000D03*
%TD*%
D40*
%TO.P,R12,1*%
%TO.N,Net-(Q1-S)*%
X196250000Y-69050000D03*
D41*
X198050000Y-71150000D03*
%TO.P,R12,2*%
%TO.N,/PHASE_A*%
X199650000Y-71150000D03*
D40*
X201450000Y-69050000D03*
%TD*%
D14*
%TO.P,R35,1*%
%TO.N,Net-(U13-OUTP)*%
X89000000Y-67500000D03*
%TO.P,R35,2*%
%TO.N,Net-(U14-+)*%
X89000000Y-69500000D03*
%TD*%
D11*
%TO.P,R34,1*%
%TO.N,/PHASE_C*%
X182725000Y-142365000D03*
%TO.P,R34,2*%
%TO.N,Net-(U13-INP)*%
X185825000Y-142365000D03*
%TD*%
D48*
%TO.P,J2,1,Pin_1*%
%TO.N,+15V*%
X95750000Y-131500000D03*
D49*
%TO.P,J2,2,Pin_2*%
%TO.N,GND*%
X100750000Y-131500000D03*
%TD*%
D42*
%TO.P,U4,1,AN*%
%TO.N,Net-(R10-Pad2)*%
X85380000Y-80420000D03*
%TO.P,U4,2,CA*%
%TO.N,MCU_GND*%
X85380000Y-82960000D03*
%TO.P,U4,3,CA*%
X85380000Y-85500000D03*
%TO.P,U4,4,AN*%
%TO.N,Net-(R13-Pad2)*%
X85380000Y-88040000D03*
%TO.P,U4,5,EM*%
%TO.N,GND*%
X93000000Y-88040000D03*
%TO.P,U4,6,COL*%
%TO.N,Net-(U5-LIN)*%
X93000000Y-85500000D03*
%TO.P,U4,7,COL*%
%TO.N,Net-(U5-HIN)*%
X93000000Y-82960000D03*
%TO.P,U4,8,EM*%
%TO.N,GND*%
X93000000Y-80420000D03*
%TD*%
D11*
%TO.P,R30,1*%
%TO.N,Net-(U11-LO)*%
X113900000Y-104250000D03*
%TO.P,R30,2*%
%TO.N,Net-(Q4-G)*%
X117000000Y-104250000D03*
%TD*%
D20*
%TO.P,Q3,*%
%TO.N,*%
X127332500Y-95750000D03*
X152732500Y-95750000D03*
D43*
%TO.P,Q3,1,G*%
%TO.N,Net-(Q3-G)*%
X137492500Y-100150000D03*
D44*
%TO.P,Q3,2,D*%
%TO.N,+100V*%
X140032500Y-100150000D03*
%TO.P,Q3,3,S*%
%TO.N,Net-(Q3-S)*%
X142572500Y-100150000D03*
%TD*%
D42*
%TO.P,U9,1,AN*%
%TO.N,Net-(R26-Pad2)*%
X85380000Y-91880000D03*
%TO.P,U9,2,CA*%
%TO.N,MCU_GND*%
X85380000Y-94420000D03*
%TO.P,U9,3,CA*%
X85380000Y-96960000D03*
%TO.P,U9,4,AN*%
%TO.N,Net-(R29-Pad2)*%
X85380000Y-99500000D03*
%TO.P,U9,5,EM*%
%TO.N,GND*%
X93000000Y-99500000D03*
%TO.P,U9,6,COL*%
%TO.N,Net-(U11-LIN)*%
X93000000Y-96960000D03*
%TO.P,U9,7,COL*%
%TO.N,Net-(U11-HIN)*%
X93000000Y-94420000D03*
%TO.P,U9,8,EM*%
%TO.N,GND*%
X93000000Y-91880000D03*
%TD*%
D23*
%TO.P,C16,1*%
%TO.N,+3.3V*%
X103612500Y-56800000D03*
%TO.P,C16,2*%
%TO.N,MCU_GND*%
X101887500Y-56800000D03*
%TD*%
D29*
%TO.P,C47,1*%
%TO.N,Net-(D3-K)*%
X110000000Y-110500000D03*
%TO.P,C47,2*%
%TO.N,Net-(Q5-S)*%
X110000000Y-112225000D03*
%TD*%
D30*
%TO.P,R29,1*%
%TO.N,/LO_B*%
X81000000Y-99500000D03*
%TO.P,R29,2*%
%TO.N,Net-(R29-Pad2)*%
X83000000Y-99500000D03*
%TD*%
D47*
%TO.P,C32,1*%
%TO.N,Net-(U8-+)*%
X97500000Y-47850000D03*
%TO.P,C32,2*%
%TO.N,Net-(U12--)*%
X97500000Y-46715000D03*
%TD*%
D19*
%TO.P,R15,1*%
%TO.N,+3.3V*%
X113200000Y-56950000D03*
%TO.P,R15,2*%
%TO.N,Net-(U6-+)*%
X111200000Y-56950000D03*
%TD*%
D29*
%TO.P,C30,1*%
%TO.N,Net-(D2-K)*%
X110000000Y-91275000D03*
%TO.P,C30,2*%
%TO.N,Net-(Q3-S)*%
X110000000Y-93000000D03*
%TD*%
D16*
%TO.P,R27,1*%
%TO.N,Net-(U8-+)*%
X99300000Y-47650000D03*
%TO.P,R27,2*%
%TO.N,Net-(U12--)*%
X99300000Y-45650000D03*
%TD*%
D23*
%TO.P,C1,1*%
%TO.N,+3.3V*%
X178525000Y-77250000D03*
%TO.P,C1,2*%
%TO.N,MCU_GND*%
X176800000Y-77250000D03*
%TD*%
D39*
%TO.P,R4,1*%
%TO.N,Net-(U17-K)*%
X183500000Y-79800000D03*
%TO.P,R4,2*%
%TO.N,Net-(D1-K)*%
X180400000Y-79800000D03*
%TD*%
D50*
%TO.P,U2,1,VDD1*%
%TO.N,Net-(U17-K)*%
X191375000Y-77155000D03*
%TO.P,U2,2,INP*%
%TO.N,Net-(U2-INP)*%
X191375000Y-75885000D03*
%TO.P,U2,3,INN*%
%TO.N,Net-(U2-INN)*%
X191375000Y-74615000D03*
%TO.P,U2,4,GND1*%
%TO.N,Net-(Q1-S)*%
X191375000Y-73345000D03*
%TO.P,U2,5,GND2*%
%TO.N,MCU_GND*%
X180725000Y-73345000D03*
%TO.P,U2,6,OUTN*%
%TO.N,Net-(U2-OUTN)*%
X180725000Y-74615000D03*
%TO.P,U2,7,OUTP*%
%TO.N,Net-(U2-OUTP)*%
X180725000Y-75885000D03*
%TO.P,U2,8,VDD2*%
%TO.N,+3.3V*%
X180725000Y-77155000D03*
%TD*%
D11*
%TO.P,R37,1*%
%TO.N,Net-(Q5-S)*%
X182725000Y-144865000D03*
%TO.P,R37,2*%
%TO.N,Net-(U13-INN)*%
X185825000Y-144865000D03*
%TD*%
%TO.P,R36,1*%
%TO.N,Net-(U13-VDD1)*%
X188875000Y-134615000D03*
%TO.P,R36,2*%
%TO.N,Net-(D3-K)*%
X191975000Y-134615000D03*
%TD*%
D32*
%TO.P,J5,1,Pin_1*%
%TO.N,/I_A*%
X78000000Y-68920000D03*
D33*
%TO.P,J5,2,Pin_2*%
%TO.N,/I_B*%
X78000000Y-71460000D03*
%TO.P,J5,3,Pin_3*%
%TO.N,/I_C*%
X78000000Y-74000000D03*
%TO.P,J5,4,Pin_4*%
%TO.N,MCU_GND*%
X78000000Y-76540000D03*
%TO.P,J5,5,Pin_5*%
%TO.N,+3.3V*%
X78000000Y-79080000D03*
%TD*%
D19*
%TO.P,R3,1*%
%TO.N,Net-(U2-OUTP)*%
X98950000Y-58700000D03*
%TO.P,R3,2*%
%TO.N,Net-(U3-+)*%
X96950000Y-58700000D03*
%TD*%
D23*
%TO.P,C33,1*%
%TO.N,+3.3V*%
X103900000Y-47900000D03*
%TO.P,C33,2*%
%TO.N,MCU_GND*%
X102175000Y-47900000D03*
%TD*%
D47*
%TO.P,C15,1*%
%TO.N,Net-(U3-+)*%
X97200000Y-56700000D03*
%TO.P,C15,2*%
%TO.N,Net-(U6--)*%
X97200000Y-55565000D03*
%TD*%
D28*
%TO.P,U17,1,K*%
%TO.N,Net-(U17-K)*%
X185762500Y-79500000D03*
%TO.P,U17,2,A*%
%TO.N,Net-(Q1-S)*%
X185762500Y-81400000D03*
%TO.P,U17,3,NC*%
%TO.N,unconnected-(U17-NC-Pad3)*%
X187637500Y-80450000D03*
%TD*%
D11*
%TO.P,R18,1*%
%TO.N,/PHASE_B*%
X182000000Y-116730000D03*
%TO.P,R18,2*%
%TO.N,Net-(U7-INP)*%
X185100000Y-116730000D03*
%TD*%
D45*
%TO.P,C45,1*%
%TO.N,Net-(U13-VDD1)*%
X190925000Y-139115000D03*
%TO.P,C45,2*%
%TO.N,Net-(Q5-S)*%
X190925000Y-137390000D03*
%TD*%
D18*
%TO.P,U3,1,+*%
%TO.N,Net-(U3-+)*%
X94800000Y-58850000D03*
%TO.P,U3,2,V-*%
%TO.N,MCU_GND*%
X94800000Y-57900000D03*
%TO.P,U3,3,-*%
%TO.N,Net-(U3--)*%
X94800000Y-56950000D03*
%TO.P,U3,4*%
%TO.N,/I_A*%
X92100000Y-56950000D03*
%TO.P,U3,5,V+*%
%TO.N,+3.3V*%
X92100000Y-58850000D03*
%TD*%
D29*
%TO.P,C13,1*%
%TO.N,Net-(D1-K)*%
X110000000Y-71750000D03*
%TO.P,C13,2*%
%TO.N,Net-(Q1-S)*%
X110000000Y-73475000D03*
%TD*%
D23*
%TO.P,C52,1*%
%TO.N,+5V*%
X93500000Y-114750000D03*
%TO.P,C52,2*%
%TO.N,GND*%
X91775000Y-114750000D03*
%TD*%
D29*
%TO.P,C37,1*%
%TO.N,+3.3V*%
X88300000Y-74100000D03*
%TO.P,C37,2*%
%TO.N,MCU_GND*%
X88300000Y-75825000D03*
%TD*%
D46*
%TO.P,U7,1,VDD1*%
%TO.N,Net-(U10-K)*%
X188600000Y-115960000D03*
%TO.P,U7,2,INP*%
%TO.N,Net-(U7-INP)*%
X188600000Y-117230000D03*
%TO.P,U7,3,INN*%
%TO.N,Net-(U7-INN)*%
X188600000Y-118500000D03*
%TO.P,U7,4,GND1*%
%TO.N,Net-(Q3-S)*%
X188600000Y-119770000D03*
%TO.P,U7,5,GND2*%
%TO.N,MCU_GND*%
X199250000Y-119770000D03*
%TO.P,U7,6,OUTN*%
%TO.N,Net-(U7-OUTN)*%
X199250000Y-118500000D03*
%TO.P,U7,7,OUTP*%
%TO.N,Net-(U7-OUTP)*%
X199250000Y-117230000D03*
%TO.P,U7,8,VDD2*%
%TO.N,+3.3V*%
X199250000Y-115960000D03*
%TD*%
D47*
%TO.P,C49,1*%
%TO.N,Net-(U14-+)*%
X85200000Y-66135000D03*
%TO.P,C49,2*%
%TO.N,Net-(U19--)*%
X85200000Y-65000000D03*
%TD*%
D23*
%TO.P,C23,1*%
%TO.N,+5V*%
X98000000Y-91000000D03*
%TO.P,C23,2*%
%TO.N,GND*%
X96275000Y-91000000D03*
%TD*%
D30*
%TO.P,R32,1*%
%TO.N,Net-(U12-+)*%
X111400000Y-50150000D03*
%TO.P,R32,2*%
%TO.N,MCU_GND*%
X113400000Y-50150000D03*
%TD*%
D12*
%TO.P,C9,1*%
%TO.N,+15V*%
X110000000Y-79500000D03*
%TO.P,C9,2*%
%TO.N,GND*%
X112075000Y-79500000D03*
%TD*%
D30*
%TO.P,R16,1*%
%TO.N,Net-(U6-+)*%
X111200000Y-59200000D03*
%TO.P,R16,2*%
%TO.N,MCU_GND*%
X113200000Y-59200000D03*
%TD*%
D34*
%TO.P,J3,1,Pin_1*%
%TO.N,/PHASE_A*%
X206500000Y-113750000D03*
D35*
%TO.P,J3,2,Pin_2*%
%TO.N,/PHASE_B*%
X206500000Y-123750000D03*
%TO.P,J3,3,Pin_3*%
%TO.N,/PHASE_C*%
X206500000Y-133750000D03*
%TD*%
D13*
%TO.P,C25,1*%
%TO.N,+15V*%
X110025000Y-97250000D03*
%TO.P,C25,2*%
%TO.N,GND*%
X111750000Y-97250000D03*
%TD*%
D30*
%TO.P,R13,1*%
%TO.N,/LO_A*%
X81000000Y-88000000D03*
%TO.P,R13,2*%
%TO.N,Net-(R13-Pad2)*%
X83000000Y-88000000D03*
%TD*%
D19*
%TO.P,R22,1*%
%TO.N,Net-(U7-OUTN)*%
X97100000Y-45050000D03*
%TO.P,R22,2*%
%TO.N,Net-(U8--)*%
X95100000Y-45050000D03*
%TD*%
D51*
%TO.N,GND*%
X213000000Y-105000000D03*
X213000000Y-100000000D03*
X213000000Y-95000000D03*
X213000000Y-90000000D03*
X213000000Y-85000000D03*
X213000000Y-80000000D03*
X213000000Y-75000000D03*
X155000000Y-80000000D03*
X165000000Y-70000000D03*
X170000000Y-55000000D03*
X185000000Y-75000000D03*
X200000000Y-80000000D03*
X210000000Y-65000000D03*
X175000000Y-145000000D03*
X175000000Y-140000000D03*
X170000000Y-145000000D03*
X170000000Y-140000000D03*
X155000000Y-145000000D03*
X155000000Y-140000000D03*
X140000000Y-140000000D03*
X145000000Y-140000000D03*
X144947392Y-145000000D03*
X140000000Y-145000000D03*
X125000000Y-145000000D03*
X130000000Y-145000000D03*
X130055773Y-139944226D03*
X125000000Y-140000000D03*
X125000000Y-135000000D03*
X165000000Y-120000000D03*
X155000000Y-120000000D03*
X145000000Y-125000000D03*
X145000000Y-120000000D03*
X155000000Y-115000000D03*
X145000000Y-115000000D03*
X190000000Y-100000000D03*
X190000000Y-105000000D03*
X185000000Y-105000000D03*
X185000000Y-100000000D03*
X210000000Y-60000000D03*
X210000000Y-55000000D03*
X205000000Y-55000000D03*
X185000000Y-95000000D03*
X180000000Y-95000000D03*
X175000000Y-95000000D03*
X170000000Y-95000000D03*
X175000000Y-90000000D03*
X170000000Y-90000000D03*
X165000000Y-90000000D03*
X170000000Y-85000000D03*
X165000000Y-85000000D03*
X144996834Y-89983519D03*
X150000000Y-90000000D03*
X155000000Y-90000000D03*
X155000000Y-85000000D03*
X150000000Y-85000000D03*
X145000000Y-85000000D03*
X155000000Y-75000000D03*
X200000000Y-60000000D03*
X195000000Y-60000000D03*
X190000000Y-60000000D03*
X185000000Y-55000000D03*
X190000000Y-55000000D03*
X195000000Y-55000000D03*
X200000000Y-55000000D03*
X200000000Y-50000000D03*
X195000000Y-50000000D03*
X190000000Y-50000000D03*
X185000000Y-50000000D03*
X180000000Y-50000000D03*
X155000000Y-60000000D03*
X145000000Y-60000000D03*
X140000000Y-60000000D03*
X155000000Y-50000000D03*
X145000000Y-50000000D03*
X140000000Y-50000000D03*
X130000000Y-50000000D03*
X125000000Y-50000000D03*
D52*
%TO.N,*%
X79000000Y-47000000D03*
X79000000Y-142000000D03*
X209000000Y-142000000D03*
X209000000Y-47000000D03*
D53*
%TO.N,GND*%
X113500000Y-79500000D03*
X89000000Y-115250000D03*
D54*
X94500000Y-72250000D03*
D53*
X88250000Y-114500000D03*
X113250000Y-116750000D03*
X113250000Y-99250000D03*
X113250000Y-97500000D03*
D54*
X94750000Y-89250000D03*
X95250000Y-107675000D03*
X94500000Y-71250000D03*
D53*
X89750000Y-116000000D03*
D54*
X95300000Y-109000000D03*
D53*
X113250000Y-118500000D03*
X113500000Y-78000000D03*
D54*
X94750000Y-90500000D03*
%TO.N,+5V*%
X95500000Y-86000000D03*
X97000000Y-115000000D03*
X95500000Y-75500000D03*
X95500000Y-101500000D03*
X95500000Y-100250000D03*
X96970729Y-92834129D03*
D55*
%TO.N,Net-(D1-K)*%
X139500000Y-82250000D03*
D56*
%TO.N,MCU_GND*%
X86700000Y-49150000D03*
X201742088Y-145745089D03*
X109950000Y-56450000D03*
X87087500Y-61712500D03*
X84687500Y-55612500D03*
X110150000Y-47450000D03*
X176125000Y-75375000D03*
X86700000Y-77500000D03*
X205500000Y-140000000D03*
X200250000Y-110000000D03*
X85300000Y-67700000D03*
X114900000Y-50200000D03*
X96400000Y-48400000D03*
X101012500Y-47862500D03*
X86950000Y-58200000D03*
X86950000Y-57200000D03*
X87700000Y-77500000D03*
X201250000Y-120000000D03*
X114700000Y-58300000D03*
X100700000Y-48962500D03*
X80887500Y-58512500D03*
X100812500Y-56862500D03*
X96300000Y-57200000D03*
X178750000Y-72750000D03*
X100500000Y-57962500D03*
X86700000Y-48350000D03*
X86587500Y-62812500D03*
X205500000Y-140950000D03*
X176800000Y-76050000D03*
X199250000Y-110000000D03*
%TO.N,+3.3V*%
X83587500Y-59412500D03*
X114900000Y-47950000D03*
X105900000Y-49950000D03*
X90700000Y-60450000D03*
X113600000Y-55500000D03*
X105700000Y-58950000D03*
X79387500Y-55512500D03*
D51*
X80500000Y-67250000D03*
D56*
X84750000Y-74250000D03*
X197250000Y-113500000D03*
X178000000Y-81250000D03*
D51*
X80500000Y-68750000D03*
X80500000Y-65750000D03*
D56*
X200750000Y-139500000D03*
X90900000Y-51450000D03*
D51*
%TO.N,Net-(Q1-S)*%
X192700000Y-69800000D03*
X194200000Y-68300000D03*
X194200000Y-69800000D03*
X192700000Y-71300000D03*
X194200000Y-71300000D03*
X192700000Y-68300000D03*
D56*
X190250000Y-71750000D03*
X189950000Y-82550000D03*
D51*
X194200000Y-66800000D03*
X192700000Y-66800000D03*
D56*
X184200000Y-81550000D03*
X191950000Y-82550000D03*
D55*
%TO.N,Net-(D3-K)*%
X142500000Y-109750000D03*
D51*
%TO.N,Net-(Q3-S)*%
X175000000Y-124750000D03*
X176500000Y-124750000D03*
X176500000Y-121750000D03*
X175000000Y-123250000D03*
X175000000Y-126250000D03*
D56*
X191500000Y-113500000D03*
D51*
X176500000Y-126250000D03*
D56*
X177500000Y-117250000D03*
D51*
X176500000Y-123250000D03*
D56*
X187000000Y-120000000D03*
X191000000Y-111500000D03*
D51*
X175000000Y-121750000D03*
%TO.N,Net-(Q5-S)*%
X174000000Y-132750000D03*
X174000000Y-135750000D03*
D56*
X187500000Y-145500000D03*
D51*
X175500000Y-131250000D03*
X175500000Y-132750000D03*
D56*
X192000000Y-137250000D03*
D51*
X175500000Y-134250000D03*
X174000000Y-134250000D03*
X174000000Y-131250000D03*
X175500000Y-135750000D03*
D56*
X182000000Y-139250000D03*
D55*
%TO.N,Net-(D2-K)*%
X147750000Y-109500000D03*
D51*
%TO.N,/PHASE_C*%
X184500000Y-131250000D03*
X184500000Y-132750000D03*
X184500000Y-135750000D03*
X186000000Y-131250000D03*
X186000000Y-135750000D03*
X186000000Y-134250000D03*
X186000000Y-132750000D03*
X184500000Y-134250000D03*
%TO.N,/PHASE_A*%
X203450000Y-66800000D03*
X203450000Y-69800000D03*
X204950000Y-69800000D03*
X203450000Y-68300000D03*
X204950000Y-71300000D03*
X204950000Y-66800000D03*
X203450000Y-71300000D03*
X204950000Y-68300000D03*
%TO.N,/PHASE_B*%
X185750000Y-126250000D03*
X185750000Y-123250000D03*
X187250000Y-126250000D03*
X187250000Y-124750000D03*
X185750000Y-121750000D03*
X185750000Y-124750000D03*
X187250000Y-121750000D03*
X187250000Y-123250000D03*
D56*
%TO.N,Net-(U7-OUTP)*%
X117800000Y-48300000D03*
X201250000Y-117500000D03*
%TO.N,Net-(U7-OUTN)*%
X201250000Y-118750000D03*
X120250000Y-43000000D03*
%TO.N,Net-(U13-OUTP)*%
X118000000Y-61500000D03*
X201750000Y-143250000D03*
%TO.N,Net-(U13-OUTN)*%
X201750000Y-144500000D03*
D55*
X82800000Y-64950000D03*
D56*
X118000000Y-62500000D03*
%TO.N,Net-(U2-OUTP)*%
X117850000Y-49350000D03*
D55*
X99900000Y-60200000D03*
D56*
X178750000Y-75250000D03*
%TO.N,Net-(U2-OUTN)*%
X117887500Y-50662500D03*
X178748113Y-74013011D03*
%TD*%
D57*
%TO.N,Net-(Q1-S)*%
X190250000Y-71750000D02*
X190250000Y-72925000D01*
X190250000Y-72925000D02*
X190670000Y-73345000D01*
X190670000Y-73345000D02*
X191375000Y-73345000D01*
%TO.N,Net-(U13-VDD1)*%
X187750000Y-137250000D02*
X186835000Y-138165000D01*
X188875000Y-134615000D02*
X187750000Y-135740000D01*
X187750000Y-135740000D02*
X187750000Y-137250000D01*
D10*
%TO.N,/PHASE_B*%
X183500000Y-117250000D02*
X182980000Y-116730000D01*
X182800430Y-120690000D02*
X183500000Y-119990430D01*
X183500000Y-119990430D02*
X183500000Y-117250000D01*
X182980000Y-116730000D02*
X182000000Y-116730000D01*
X181950000Y-120862056D02*
X182122056Y-120690000D01*
X181950000Y-121905000D02*
X181950000Y-120862056D01*
X182122056Y-120690000D02*
X182800430Y-120690000D01*
%TO.N,Net-(Q3-S)*%
X180350000Y-120765000D02*
X182000000Y-119115000D01*
X180350000Y-121905000D02*
X180350000Y-120765000D01*
D58*
%TO.N,Net-(U3-+)*%
X97100000Y-58550000D02*
X96950000Y-58700000D01*
X97100000Y-56800000D02*
X97100000Y-58550000D01*
X97200000Y-56700000D02*
X97100000Y-56800000D01*
D59*
%TO.N,Net-(U13-OUTN)*%
X82800000Y-64950000D02*
X82800000Y-66000000D01*
D58*
%TO.N,Net-(U14-+)*%
X85200000Y-66500000D02*
X85900000Y-67200000D01*
X85200000Y-66135000D02*
X85200000Y-66500000D01*
X85900000Y-67200000D02*
X86900000Y-67200000D01*
%TO.N,Net-(U14--)*%
X85000000Y-68500000D02*
X85000000Y-69300000D01*
X84500000Y-68000000D02*
X85000000Y-68500000D01*
X82800000Y-68000000D02*
X84500000Y-68000000D01*
D10*
%TO.N,Net-(Q5-S)*%
X178865000Y-133865000D02*
X177475000Y-133865000D01*
X179275000Y-134275000D02*
X178865000Y-133865000D01*
X179275000Y-135965000D02*
X179275000Y-134275000D01*
%TO.N,/PHASE_C*%
X180875000Y-134325000D02*
X181335000Y-133865000D01*
X181335000Y-133865000D02*
X182675000Y-133865000D01*
X180875000Y-135965000D02*
X180875000Y-134325000D01*
%TO.N,/PHASE_A*%
X199650000Y-69550000D02*
X200150000Y-69050000D01*
X199650000Y-71150000D02*
X199650000Y-69550000D01*
X200150000Y-69050000D02*
X201450000Y-69050000D01*
%TO.N,Net-(Q1-S)*%
X198050000Y-69450000D02*
X197650000Y-69050000D01*
X197650000Y-69050000D02*
X196250000Y-69050000D01*
X198050000Y-71150000D02*
X198050000Y-69450000D01*
%TO.N,/PHASE_B*%
X182380000Y-123980000D02*
X183750000Y-123980000D01*
X181950000Y-121905000D02*
X181950000Y-123550000D01*
X181950000Y-123550000D02*
X182380000Y-123980000D01*
%TO.N,Net-(Q3-S)*%
X180350000Y-123650000D02*
X180020000Y-123980000D01*
X180350000Y-121905000D02*
X180350000Y-123650000D01*
X180020000Y-123980000D02*
X178550000Y-123980000D01*
D58*
%TO.N,/I_B*%
X90750000Y-46450000D02*
X85250000Y-46450000D01*
X92300000Y-48000000D02*
X90750000Y-46450000D01*
X77560000Y-71460000D02*
X78000000Y-71460000D01*
X75800000Y-55900000D02*
X75800000Y-69700000D01*
X75800000Y-69700000D02*
X77560000Y-71460000D01*
X85250000Y-46450000D02*
X75800000Y-55900000D01*
D10*
%TO.N,GND*%
X94750000Y-89250000D02*
X94750000Y-90500000D01*
D60*
X88250000Y-114500000D02*
X89000000Y-115250000D01*
D10*
X113250000Y-97500000D02*
X113000000Y-97250000D01*
X112000000Y-99250000D02*
X113250000Y-99250000D01*
X113500000Y-78000000D02*
X113500000Y-79500000D01*
X95250000Y-107675000D02*
X95925000Y-107000000D01*
X95500000Y-73250000D02*
X94500000Y-72250000D01*
X113250000Y-99250000D02*
X113250000Y-97500000D01*
X96250000Y-71250000D02*
X94500000Y-71250000D01*
X112000000Y-118500000D02*
X113250000Y-118500000D01*
X113500000Y-79500000D02*
X112075000Y-79500000D01*
X113000000Y-77500000D02*
X113500000Y-78000000D01*
X95300000Y-109000000D02*
X96275000Y-109000000D01*
X111750000Y-97250000D02*
X113000000Y-97250000D01*
D61*
X89000000Y-115250000D02*
X89500000Y-114750000D01*
D60*
X89000000Y-115250000D02*
X91210000Y-117460000D01*
D10*
X95250000Y-91000000D02*
X94750000Y-90500000D01*
X95000000Y-89000000D02*
X94750000Y-89250000D01*
X111750000Y-116500000D02*
X113000000Y-116500000D01*
D60*
X86500000Y-114500000D02*
X88250000Y-114500000D01*
D10*
X95925000Y-89000000D02*
X95000000Y-89000000D01*
X113250000Y-118500000D02*
X113250000Y-116750000D01*
X96275000Y-91000000D02*
X95250000Y-91000000D01*
X113000000Y-116500000D02*
X113250000Y-116750000D01*
D61*
X89500000Y-114750000D02*
X91775000Y-114750000D01*
D10*
X94500000Y-72250000D02*
X94500000Y-71250000D01*
X111725000Y-77500000D02*
X113000000Y-77500000D01*
X95250000Y-108950000D02*
X95300000Y-109000000D01*
X95925000Y-73250000D02*
X95500000Y-73250000D01*
X95250000Y-107675000D02*
X95250000Y-108950000D01*
D60*
X91210000Y-117460000D02*
X91210000Y-119250000D01*
D61*
%TO.N,+5V*%
X93500000Y-119000000D02*
X93750000Y-119250000D01*
D10*
X99950000Y-71300000D02*
X98000000Y-73250000D01*
D58*
X96500000Y-114500000D02*
X95500000Y-114500000D01*
D10*
X99550000Y-90550000D02*
X98000000Y-89000000D01*
D58*
X95500000Y-76750000D02*
X95500000Y-75500000D01*
X96804858Y-93000000D02*
X96970729Y-92834129D01*
X95500000Y-100250000D02*
X95500000Y-99000000D01*
D10*
X98000000Y-107000000D02*
X98000000Y-107330000D01*
D58*
X97000000Y-115000000D02*
X96500000Y-114500000D01*
X95500000Y-93000000D02*
X96804858Y-93000000D01*
D10*
X98025000Y-71300000D02*
X97975000Y-71250000D01*
D61*
X93500000Y-114750000D02*
X93500000Y-119000000D01*
D58*
X95500000Y-102750000D02*
X95500000Y-101500000D01*
D10*
X100180000Y-71300000D02*
X98025000Y-71300000D01*
X98450000Y-90550000D02*
X98000000Y-91000000D01*
X100180000Y-90550000D02*
X98450000Y-90550000D01*
X100180000Y-71300000D02*
X99950000Y-71300000D01*
X100180000Y-90550000D02*
X99550000Y-90550000D01*
D58*
X95500000Y-86000000D02*
X95500000Y-84750000D01*
D10*
X100130000Y-109460000D02*
X100130000Y-109800000D01*
X98000000Y-107330000D02*
X100130000Y-109460000D01*
X98000000Y-109000000D02*
X99330000Y-109000000D01*
X99330000Y-109000000D02*
X100130000Y-109800000D01*
D61*
%TO.N,+15V*%
X84425000Y-114500000D02*
X84425000Y-115225000D01*
D10*
X107800000Y-98170000D02*
X108880000Y-99250000D01*
D60*
X88670000Y-119250000D02*
X88670000Y-120420000D01*
D10*
X108720000Y-97250000D02*
X110025000Y-97250000D01*
X108380000Y-79500000D02*
X107800000Y-78920000D01*
X110000000Y-79500000D02*
X108380000Y-79500000D01*
X109250000Y-77500000D02*
X110000000Y-77500000D01*
X108830000Y-118500000D02*
X107750000Y-117420000D01*
D60*
X95750000Y-127500000D02*
X95750000Y-131500000D01*
D10*
X107800000Y-78920000D02*
X107830000Y-78920000D01*
D61*
X88450000Y-119250000D02*
X88670000Y-119250000D01*
X84425000Y-115225000D02*
X88450000Y-119250000D01*
D10*
X108880000Y-99250000D02*
X109925000Y-99250000D01*
X109925000Y-118500000D02*
X108830000Y-118500000D01*
D60*
X88670000Y-120420000D02*
X95750000Y-127500000D01*
D10*
X107800000Y-98170000D02*
X108720000Y-97250000D01*
X110025000Y-116500000D02*
X108670000Y-116500000D01*
X108670000Y-116500000D02*
X107750000Y-117420000D01*
X107830000Y-78920000D02*
X109250000Y-77500000D01*
%TO.N,Net-(D1-K)*%
X111750000Y-71750000D02*
X112000000Y-71500000D01*
X109550000Y-71300000D02*
X110000000Y-71750000D01*
D57*
X179250000Y-82250000D02*
X180400000Y-81100000D01*
X180400000Y-81100000D02*
X180400000Y-79800000D01*
X139500000Y-82250000D02*
X179250000Y-82250000D01*
D10*
X115420000Y-71500000D02*
X115750000Y-71170000D01*
X107800000Y-71300000D02*
X109550000Y-71300000D01*
X110000000Y-71750000D02*
X111750000Y-71750000D01*
X112000000Y-71500000D02*
X115420000Y-71500000D01*
D57*
%TO.N,Net-(U17-K)*%
X183800000Y-79500000D02*
X185762500Y-79500000D01*
X183500000Y-79800000D02*
X183500000Y-81000000D01*
X191850000Y-79500000D02*
X191850000Y-77630000D01*
X191850000Y-77630000D02*
X191375000Y-77155000D01*
X185762500Y-79500000D02*
X189850000Y-79500000D01*
X189850000Y-79500000D02*
X191850000Y-79500000D01*
X183500000Y-79800000D02*
X183800000Y-79500000D01*
X183500000Y-81000000D02*
X182500000Y-82000000D01*
D58*
%TO.N,MCU_GND*%
X80637500Y-58762500D02*
X80887500Y-58512500D01*
X84287500Y-55212500D02*
X84687500Y-55612500D01*
X85687500Y-61012500D02*
X86387500Y-61012500D01*
X199825000Y-145405000D02*
X201405000Y-145405000D01*
X86700000Y-48350000D02*
X87100000Y-47950000D01*
X100500000Y-57962500D02*
X100587500Y-57962500D01*
X100787500Y-48962500D02*
X101625000Y-49800000D01*
X87125000Y-58200000D02*
X87875000Y-58950000D01*
D57*
X200250000Y-110000000D02*
X199250000Y-110000000D01*
D58*
X108650000Y-47500000D02*
X108700000Y-47450000D01*
X113400000Y-50200000D02*
X113450000Y-50150000D01*
X114850000Y-50150000D02*
X114900000Y-50200000D01*
D57*
X205500000Y-140950000D02*
X205500000Y-140000000D01*
D58*
X201405000Y-145405000D02*
X201750000Y-145750000D01*
X94800000Y-57900000D02*
X95600000Y-57900000D01*
X199250000Y-110000000D02*
X198750000Y-110500000D01*
X86200000Y-77000000D02*
X86700000Y-77500000D01*
X176425000Y-79250000D02*
X176425000Y-77625000D01*
X204075000Y-139500000D02*
X205000000Y-139500000D01*
X100587500Y-57962500D02*
X101425000Y-58800000D01*
X85950000Y-68350000D02*
X85300000Y-67700000D01*
X108700000Y-47450000D02*
X110150000Y-47450000D01*
X204950000Y-141500000D02*
X203725000Y-141500000D01*
X85950000Y-69300000D02*
X85950000Y-68350000D01*
D57*
X86700000Y-48350000D02*
X86700000Y-49150000D01*
D58*
X80637500Y-60112500D02*
X80637500Y-58762500D01*
X108450000Y-56500000D02*
X109900000Y-56500000D01*
D57*
X176800000Y-76050000D02*
X176125000Y-75375000D01*
D58*
X101075000Y-47800000D02*
X102087500Y-47800000D01*
X87300000Y-49950000D02*
X88075000Y-49950000D01*
D57*
X86950000Y-57200000D02*
X86950000Y-58200000D01*
X87087500Y-62312500D02*
X86587500Y-62812500D01*
D58*
X176425000Y-77625000D02*
X176800000Y-77250000D01*
X205000000Y-139500000D02*
X205500000Y-140000000D01*
X205500000Y-140950000D02*
X204950000Y-141500000D01*
X114700000Y-58300000D02*
X113800000Y-59200000D01*
X94900000Y-48850000D02*
X95950000Y-48850000D01*
X201020000Y-119770000D02*
X201250000Y-120000000D01*
X178750000Y-72750000D02*
X179345000Y-73345000D01*
X200750000Y-110500000D02*
X200750000Y-111500000D01*
X86700000Y-49150000D02*
X86700000Y-49350000D01*
X86700000Y-49350000D02*
X87300000Y-49950000D01*
X100700000Y-48962500D02*
X100787500Y-48962500D01*
X83087500Y-55212500D02*
X84287500Y-55212500D01*
X101012500Y-47862500D02*
X101075000Y-47800000D01*
X113800000Y-59200000D02*
X113200000Y-59200000D01*
X109900000Y-56500000D02*
X109950000Y-56450000D01*
X198750000Y-110500000D02*
X198750000Y-111887500D01*
D57*
X87087500Y-61712500D02*
X87087500Y-62312500D01*
D58*
X199250000Y-119770000D02*
X201020000Y-119770000D01*
X100812500Y-56862500D02*
X100875000Y-56800000D01*
X113450000Y-50150000D02*
X114850000Y-50150000D01*
D57*
X100500000Y-57175000D02*
X100500000Y-57962500D01*
D58*
X86387500Y-61012500D02*
X87087500Y-61712500D01*
D57*
X101012500Y-47862500D02*
X100700000Y-48175000D01*
X100812500Y-56862500D02*
X100500000Y-57175000D01*
D58*
X86200000Y-76175000D02*
X86200000Y-77000000D01*
X200250000Y-110000000D02*
X200750000Y-110500000D01*
X179345000Y-73345000D02*
X180725000Y-73345000D01*
X100875000Y-56800000D02*
X101887500Y-56800000D01*
D57*
X100700000Y-48175000D02*
X100700000Y-48962500D01*
D58*
X86587500Y-62812500D02*
X85487500Y-62812500D01*
D57*
X87700000Y-77500000D02*
X86700000Y-77500000D01*
D58*
X95950000Y-48850000D02*
X96400000Y-48400000D01*
D57*
X176800000Y-77250000D02*
X176800000Y-76050000D01*
D58*
X87100000Y-47950000D02*
X88425000Y-47950000D01*
X87700000Y-77500000D02*
X88300000Y-76900000D01*
X87200000Y-56950000D02*
X88225000Y-56950000D01*
X85487500Y-62812500D02*
X85287500Y-63012500D01*
X86950000Y-58200000D02*
X87125000Y-58200000D01*
X86950000Y-57200000D02*
X87200000Y-56950000D01*
X95600000Y-57900000D02*
X96300000Y-57200000D01*
X88300000Y-76900000D02*
X88300000Y-75825000D01*
%TO.N,+3.3V*%
X92050000Y-58950000D02*
X89950000Y-58950000D01*
X198787500Y-113575000D02*
X198750000Y-113612500D01*
X84900000Y-74100000D02*
X84750000Y-74250000D01*
X86200000Y-74100000D02*
X88300000Y-74100000D01*
X105750000Y-57450000D02*
X105100000Y-56800000D01*
X92250000Y-49950000D02*
X90150000Y-49950000D01*
X88300000Y-72800000D02*
X87500000Y-72000000D01*
X105750000Y-57450000D02*
X105750000Y-58900000D01*
X92100000Y-58900000D02*
X92050000Y-58950000D01*
X83612500Y-61012500D02*
X83612500Y-61137500D01*
X90700000Y-60450000D02*
X90450000Y-60450000D01*
X197250000Y-113500000D02*
X197362500Y-113612500D01*
X90150000Y-50950000D02*
X90150000Y-49950000D01*
X113400000Y-47900000D02*
X113450000Y-47950000D01*
X83587500Y-59412500D02*
X83587500Y-60987500D01*
X89950000Y-59950000D02*
X89950000Y-58950000D01*
X113450000Y-47950000D02*
X114900000Y-47950000D01*
X202000000Y-141500000D02*
X202000000Y-139500000D01*
X106050000Y-49800000D02*
X105900000Y-49950000D01*
X178620000Y-77155000D02*
X178525000Y-77250000D01*
X80787500Y-55212500D02*
X79687500Y-55212500D01*
X199825000Y-141595000D02*
X201905000Y-141595000D01*
X103700000Y-48100000D02*
X104000000Y-47800000D01*
X79687500Y-55212500D02*
X79387500Y-55512500D01*
X197362500Y-113612500D02*
X198750000Y-113612500D01*
X178525000Y-77250000D02*
X178525000Y-79225000D01*
X106050000Y-48400000D02*
X106050000Y-49800000D01*
X105750000Y-58900000D02*
X105700000Y-58950000D01*
X89950000Y-56950000D02*
X89950000Y-58950000D01*
X83362500Y-62812500D02*
X83562500Y-63012500D01*
X90650000Y-51450000D02*
X90150000Y-50950000D01*
X92300000Y-49850000D02*
X92300000Y-49900000D01*
X81587500Y-62812500D02*
X83362500Y-62812500D01*
X105450000Y-47800000D02*
X106050000Y-48400000D01*
X103700000Y-49800000D02*
X103700000Y-48100000D01*
X200750000Y-114460000D02*
X200750000Y-113575000D01*
X178000000Y-81250000D02*
X178500000Y-80750000D01*
X92100000Y-58850000D02*
X92100000Y-58900000D01*
X104000000Y-47800000D02*
X105450000Y-47800000D01*
X103612500Y-56800000D02*
X103612500Y-58687500D01*
X88300000Y-74100000D02*
X88300000Y-72800000D01*
X201905000Y-141595000D02*
X202000000Y-141500000D01*
X86200000Y-74100000D02*
X84900000Y-74100000D01*
X90450000Y-60450000D02*
X89950000Y-59950000D01*
X202000000Y-139500000D02*
X200750000Y-139500000D01*
X105100000Y-56800000D02*
X103612500Y-56800000D01*
X90900000Y-51450000D02*
X90650000Y-51450000D01*
X113600000Y-55500000D02*
X113200000Y-55900000D01*
X180725000Y-77155000D02*
X178620000Y-77155000D01*
X200750000Y-113575000D02*
X198787500Y-113575000D01*
X199250000Y-115960000D02*
X200750000Y-114460000D01*
X87500000Y-72000000D02*
X86900000Y-72000000D01*
X83587500Y-60987500D02*
X83612500Y-61012500D01*
X103612500Y-58687500D02*
X103500000Y-58800000D01*
X178500000Y-80750000D02*
X178500000Y-79250000D01*
X92300000Y-49900000D02*
X92250000Y-49950000D01*
X113200000Y-55900000D02*
X113200000Y-56950000D01*
X83612500Y-61137500D02*
X83562500Y-61187500D01*
X83562500Y-61187500D02*
X83562500Y-63012500D01*
X178525000Y-79225000D02*
X178500000Y-79250000D01*
X90150000Y-47950000D02*
X90150000Y-49950000D01*
%TO.N,Net-(U6--)*%
X105750000Y-54900000D02*
X106200000Y-54450000D01*
X97835000Y-55565000D02*
X97200000Y-55565000D01*
X100050000Y-55550000D02*
X98950000Y-54450000D01*
X105750000Y-55550000D02*
X100050000Y-55550000D01*
X108450000Y-54950000D02*
X108450000Y-55550000D01*
X105750000Y-55550000D02*
X105750000Y-54900000D01*
X106200000Y-54450000D02*
X107950000Y-54450000D01*
X98950000Y-54450000D02*
X97835000Y-55565000D01*
X107950000Y-54450000D02*
X108450000Y-54950000D01*
%TO.N,/I_A*%
X90950000Y-54950000D02*
X90950000Y-53950000D01*
X91450000Y-55450000D02*
X90950000Y-54950000D01*
X79800000Y-53400000D02*
X78000000Y-55200000D01*
X88550000Y-53400000D02*
X79800000Y-53400000D01*
X92100000Y-56950000D02*
X92100000Y-55485000D01*
X92065000Y-56935000D02*
X92080000Y-56950000D01*
X92100000Y-55485000D02*
X92065000Y-55450000D01*
X78000000Y-55200000D02*
X78000000Y-68920000D01*
X92065000Y-55450000D02*
X91450000Y-55450000D01*
X92100000Y-56950000D02*
X88550000Y-53400000D01*
X92080000Y-56950000D02*
X92100000Y-56950000D01*
%TO.N,Net-(U8-+)*%
X99150000Y-47450000D02*
X98850000Y-47750000D01*
X97150000Y-47950000D02*
X97150000Y-49700000D01*
X96950000Y-49900000D02*
X95000000Y-49900000D01*
X98850000Y-47750000D02*
X97350000Y-47750000D01*
X97350000Y-47750000D02*
X97150000Y-47950000D01*
X97150000Y-49700000D02*
X96950000Y-49900000D01*
%TO.N,/I_B*%
X92397500Y-46485000D02*
X92432500Y-46450000D01*
X91650000Y-46450000D02*
X91150000Y-45950000D01*
X92432500Y-46450000D02*
X91650000Y-46450000D01*
X91150000Y-45950000D02*
X91150000Y-44950000D01*
X92432500Y-46450000D02*
X92432500Y-47667500D01*
X92432500Y-47667500D02*
X92200000Y-47900000D01*
X92300000Y-46485000D02*
X92397500Y-46485000D01*
D10*
%TO.N,Net-(Q1-S)*%
X109635000Y-73840000D02*
X110000000Y-73475000D01*
X123597500Y-73575000D02*
X130850000Y-66322500D01*
D57*
X191850000Y-81225000D02*
X191850000Y-82450000D01*
X184350000Y-81400000D02*
X184200000Y-81550000D01*
D10*
X111900000Y-73475000D02*
X112000000Y-73575000D01*
X112000000Y-73575000D02*
X123597500Y-73575000D01*
D57*
X185762500Y-81400000D02*
X184350000Y-81400000D01*
X189850000Y-81575000D02*
X189850000Y-82450000D01*
D10*
X107800000Y-73840000D02*
X109635000Y-73840000D01*
D57*
X191850000Y-82450000D02*
X191950000Y-82550000D01*
X189850000Y-82450000D02*
X189950000Y-82550000D01*
D10*
X110000000Y-73475000D02*
X111900000Y-73475000D01*
D57*
%TO.N,Net-(D3-K)*%
X188000000Y-128500000D02*
X191975000Y-132475000D01*
D10*
X108450000Y-110500000D02*
X107750000Y-109800000D01*
X112000000Y-110250000D02*
X110250000Y-110250000D01*
D57*
X168500000Y-114706928D02*
X168500000Y-125750000D01*
X115330000Y-110250000D02*
X115750000Y-110670000D01*
D10*
X110000000Y-110500000D02*
X108450000Y-110500000D01*
D57*
X164793072Y-111000000D02*
X168500000Y-114706928D01*
D10*
X110250000Y-110250000D02*
X110000000Y-110500000D01*
D57*
X191975000Y-132475000D02*
X191975000Y-134615000D01*
X168500000Y-125750000D02*
X171250000Y-128500000D01*
X142500000Y-109750000D02*
X143750000Y-111000000D01*
D10*
X115330000Y-110250000D02*
X112000000Y-110250000D01*
D57*
X143750000Y-111000000D02*
X164793072Y-111000000D01*
X171250000Y-128500000D02*
X188000000Y-128500000D01*
%TO.N,Net-(Q3-S)*%
X190350000Y-113480000D02*
X191480000Y-113480000D01*
D10*
X110000000Y-93000000D02*
X111750000Y-93000000D01*
D57*
X191480000Y-113480000D02*
X191500000Y-113500000D01*
D10*
X120750000Y-102000000D02*
X141500000Y-102000000D01*
X107800000Y-93090000D02*
X109910000Y-93090000D01*
D57*
X187000000Y-120000000D02*
X187230000Y-119770000D01*
D10*
X111750000Y-93000000D02*
X112000000Y-93250000D01*
D57*
X177875000Y-116180000D02*
X177875000Y-116875000D01*
X187230000Y-119770000D02*
X188600000Y-119770000D01*
X189850000Y-111480000D02*
X190980000Y-111480000D01*
D10*
X141500000Y-102000000D02*
X142572500Y-100927500D01*
X142572500Y-100927500D02*
X142572500Y-100150000D01*
X112000000Y-93250000D02*
X120750000Y-102000000D01*
D57*
X190980000Y-111480000D02*
X191000000Y-111500000D01*
X177875000Y-116875000D02*
X177500000Y-117250000D01*
D10*
X109910000Y-93090000D02*
X110000000Y-93000000D01*
D58*
%TO.N,Net-(U8--)*%
X95000000Y-48000000D02*
X93450000Y-46450000D01*
X93450000Y-46450000D02*
X93400000Y-46450000D01*
X93400000Y-45200000D02*
X93150000Y-44950000D01*
X95150000Y-44950000D02*
X95150000Y-47850000D01*
X93400000Y-46450000D02*
X93400000Y-45200000D01*
X95150000Y-47850000D02*
X95000000Y-48000000D01*
%TO.N,/I_C*%
X85000000Y-72000000D02*
X85000000Y-72900000D01*
X81400000Y-72135000D02*
X81965000Y-72700000D01*
X83000000Y-72700000D02*
X84300000Y-72700000D01*
X84300000Y-72700000D02*
X85000000Y-72000000D01*
X85000000Y-72900000D02*
X83900000Y-74000000D01*
X81965000Y-72700000D02*
X83000000Y-72700000D01*
X83900000Y-74000000D02*
X78000000Y-74000000D01*
D57*
%TO.N,Net-(U10-K)*%
X185250000Y-111980000D02*
X182950000Y-114280000D01*
X185250000Y-111980000D02*
X185250000Y-111750000D01*
X182950000Y-114280000D02*
X177875000Y-114280000D01*
X188125000Y-111480000D02*
X188125000Y-113330000D01*
X186000000Y-111000000D02*
X187645000Y-111000000D01*
X188125000Y-113330000D02*
X188275000Y-113480000D01*
X188275000Y-115635000D02*
X188600000Y-115960000D01*
X188275000Y-113480000D02*
X188275000Y-115635000D01*
X187645000Y-111000000D02*
X188125000Y-111480000D01*
X185250000Y-111750000D02*
X186000000Y-111000000D01*
D58*
%TO.N,Net-(U12--)*%
X99300000Y-45650000D02*
X100200000Y-46550000D01*
X106050000Y-46550000D02*
X106050000Y-45800000D01*
X108750000Y-45900000D02*
X108750000Y-46500000D01*
X98385000Y-46565000D02*
X99300000Y-45650000D01*
X108300000Y-45450000D02*
X108750000Y-45900000D01*
X106050000Y-45800000D02*
X106400000Y-45450000D01*
X100200000Y-46550000D02*
X106050000Y-46550000D01*
X97400000Y-46565000D02*
X98385000Y-46565000D01*
X106400000Y-45450000D02*
X108300000Y-45450000D01*
%TO.N,Net-(U14-+)*%
X89000000Y-69500000D02*
X87100000Y-69500000D01*
X86900000Y-67200000D02*
X86900000Y-69300000D01*
X87100000Y-69500000D02*
X86900000Y-69300000D01*
D57*
%TO.N,Net-(U13-VDD1)*%
X186835000Y-138165000D02*
X182800000Y-138165000D01*
X188925000Y-139115000D02*
X187785000Y-139115000D01*
X188925000Y-141345000D02*
X189175000Y-141595000D01*
X188925000Y-139115000D02*
X190925000Y-139115000D01*
X187785000Y-139115000D02*
X186835000Y-138165000D01*
X188925000Y-139115000D02*
X188925000Y-141345000D01*
%TO.N,Net-(Q5-S)*%
X189175000Y-145405000D02*
X187595000Y-145405000D01*
X182000000Y-140007500D02*
X182057500Y-140065000D01*
D10*
X128250000Y-125500000D02*
X128250000Y-127972500D01*
X110000000Y-112225000D02*
X111900000Y-112225000D01*
X109885000Y-112340000D02*
X110000000Y-112225000D01*
X107750000Y-112340000D02*
X109885000Y-112340000D01*
D57*
X187595000Y-145405000D02*
X187500000Y-145500000D01*
X182057500Y-140065000D02*
X182800000Y-140065000D01*
D10*
X112000000Y-112325000D02*
X112145000Y-112470000D01*
D57*
X190925000Y-137390000D02*
X191860000Y-137390000D01*
D10*
X115220000Y-112470000D02*
X128250000Y-125500000D01*
X128250000Y-127972500D02*
X131100000Y-130822500D01*
X112145000Y-112470000D02*
X115220000Y-112470000D01*
D57*
X191860000Y-137390000D02*
X192000000Y-137250000D01*
X182000000Y-139250000D02*
X182000000Y-140007500D01*
D10*
X111900000Y-112225000D02*
X112000000Y-112325000D01*
%TO.N,Net-(D2-K)*%
X107800000Y-90550000D02*
X109275000Y-90550000D01*
X111900000Y-91275000D02*
X112000000Y-91175000D01*
D57*
X179670000Y-109500000D02*
X182150000Y-111980000D01*
D10*
X109275000Y-90550000D02*
X110000000Y-91275000D01*
X112000000Y-91175000D02*
X115245000Y-91175000D01*
D57*
X147750000Y-109500000D02*
X179670000Y-109500000D01*
D10*
X110000000Y-91275000D02*
X111900000Y-91275000D01*
X115245000Y-91175000D02*
X115500000Y-90920000D01*
D58*
%TO.N,Net-(U14--)*%
X83000000Y-70000000D02*
X83000000Y-70700000D01*
X85000000Y-69300000D02*
X83700000Y-69300000D01*
X83700000Y-69300000D02*
X83000000Y-70000000D01*
X83000000Y-70700000D02*
X81700000Y-70700000D01*
X81700000Y-70700000D02*
X81400000Y-71000000D01*
X81400000Y-71200000D02*
X81500000Y-71300000D01*
%TO.N,Net-(U19--)*%
X78587500Y-60512500D02*
X78587500Y-62312500D01*
X79687500Y-60112500D02*
X78987500Y-60112500D01*
X78987500Y-60112500D02*
X78587500Y-60512500D01*
X85200000Y-65000000D02*
X86700000Y-65000000D01*
X80975000Y-64100000D02*
X84300000Y-64100000D01*
X84300000Y-64100000D02*
X85200000Y-65000000D01*
X79687500Y-62812500D02*
X80975000Y-64100000D01*
X86700000Y-65000000D02*
X86900000Y-65200000D01*
X78587500Y-62312500D02*
X79087500Y-62812500D01*
X79087500Y-62812500D02*
X79687500Y-62812500D01*
%TO.N,/LO_C*%
X78000000Y-102040000D02*
X78000000Y-108000000D01*
X78000000Y-108000000D02*
X81000000Y-111000000D01*
%TO.N,/LO_A*%
X81000000Y-88880000D02*
X81000000Y-88000000D01*
X78000000Y-91880000D02*
X81000000Y-88880000D01*
%TO.N,/HI_A*%
X78000000Y-89340000D02*
X78000000Y-83500000D01*
X78000000Y-83500000D02*
X81000000Y-80500000D01*
%TO.N,/HI_B*%
X78000000Y-94420000D02*
X80920000Y-91500000D01*
X80920000Y-91500000D02*
X81000000Y-91500000D01*
%TO.N,/LO_B*%
X80540000Y-99500000D02*
X81000000Y-99500000D01*
X78000000Y-96960000D02*
X80540000Y-99500000D01*
%TO.N,/HI_C*%
X78000000Y-99500000D02*
X81000000Y-102500000D01*
X81000000Y-102500000D02*
X81000000Y-103500000D01*
D10*
%TO.N,Net-(Q1-G)*%
X117250000Y-68000000D02*
X124007500Y-61242500D01*
X124007500Y-61242500D02*
X130850000Y-61242500D01*
%TO.N,Net-(Q2-G)*%
X117000000Y-84250000D02*
X135152500Y-84250000D01*
X135152500Y-84250000D02*
X158250000Y-61152500D01*
%TO.N,Net-(Q3-G)*%
X137492500Y-96242500D02*
X137492500Y-100150000D01*
X117000000Y-87750000D02*
X129000000Y-87750000D01*
X129000000Y-87750000D02*
X137492500Y-96242500D01*
%TO.N,Net-(Q4-G)*%
X167392500Y-107250000D02*
X174492500Y-100150000D01*
X117000000Y-104250000D02*
X120000000Y-107250000D01*
X120000000Y-107250000D02*
X167392500Y-107250000D01*
%TO.N,Net-(Q5-G)*%
X131100000Y-121850000D02*
X131100000Y-125742500D01*
X117000000Y-107750000D02*
X131100000Y-121850000D01*
%TO.N,Net-(Q6-G)*%
X149010000Y-135250000D02*
X158600000Y-125660000D01*
X121000000Y-124000000D02*
X132250000Y-135250000D01*
X117000000Y-124000000D02*
X121000000Y-124000000D01*
X132250000Y-135250000D02*
X149010000Y-135250000D01*
D59*
%TO.N,Net-(R10-Pad2)*%
X85300000Y-80500000D02*
X85380000Y-80420000D01*
X83000000Y-80500000D02*
X85300000Y-80500000D01*
%TO.N,Net-(R13-Pad2)*%
X85340000Y-88000000D02*
X85380000Y-88040000D01*
X83000000Y-88000000D02*
X85340000Y-88000000D01*
D58*
%TO.N,Net-(U6-+)*%
X108450000Y-57450000D02*
X109100000Y-58100000D01*
X109100000Y-58100000D02*
X111200000Y-58100000D01*
X111200000Y-58200000D02*
X111200000Y-59200000D01*
X111200000Y-56950000D02*
X111200000Y-58200000D01*
D57*
%TO.N,Net-(U7-INP)*%
X185100000Y-116730000D02*
X186107500Y-116730000D01*
X186107500Y-116730000D02*
X186675000Y-117297500D01*
X188532500Y-117297500D02*
X188600000Y-117230000D01*
X186675000Y-117297500D02*
X188532500Y-117297500D01*
D58*
%TO.N,Net-(U7-OUTP)*%
X200980000Y-117230000D02*
X201250000Y-117500000D01*
X117800000Y-48300000D02*
X114700000Y-51400000D01*
X114700000Y-51400000D02*
X100750000Y-51400000D01*
X100750000Y-51400000D02*
X99100000Y-49750000D01*
X199250000Y-117230000D02*
X200980000Y-117230000D01*
D57*
%TO.N,Net-(U7-INN)*%
X185100000Y-119115000D02*
X185992500Y-119115000D01*
X185992500Y-119115000D02*
X186675000Y-118432500D01*
X186675000Y-118432500D02*
X188532500Y-118432500D01*
X188532500Y-118432500D02*
X188600000Y-118500000D01*
D58*
%TO.N,Net-(U7-OUTN)*%
X120250000Y-43000000D02*
X99150000Y-43000000D01*
X199250000Y-118500000D02*
X201000000Y-118500000D01*
X99150000Y-43000000D02*
X97100000Y-45050000D01*
X201000000Y-118500000D02*
X201250000Y-118750000D01*
%TO.N,Net-(U11-HIN)*%
X98270000Y-95000000D02*
X100180000Y-93090000D01*
X94500000Y-95000000D02*
X95500000Y-95000000D01*
X93920000Y-94420000D02*
X94500000Y-95000000D01*
X95500000Y-95000000D02*
X98270000Y-95000000D01*
X93000000Y-94420000D02*
X93920000Y-94420000D01*
%TO.N,Net-(U11-LIN)*%
X95460000Y-96960000D02*
X95500000Y-97000000D01*
X95500000Y-97000000D02*
X99010000Y-97000000D01*
X99010000Y-97000000D02*
X100180000Y-98170000D01*
X93000000Y-96960000D02*
X95460000Y-96960000D01*
D10*
%TO.N,Net-(U11-HO)*%
X107800000Y-88010000D02*
X113640000Y-88010000D01*
X113640000Y-88010000D02*
X113900000Y-87750000D01*
D59*
%TO.N,Net-(R26-Pad2)*%
X83000000Y-91500000D02*
X85000000Y-91500000D01*
X85000000Y-91500000D02*
X85380000Y-91880000D01*
D58*
%TO.N,Net-(R29-Pad2)*%
X83000000Y-99500000D02*
X85380000Y-99500000D01*
D10*
%TO.N,Net-(U11-LO)*%
X111593503Y-104250000D02*
X113900000Y-104250000D01*
X107800000Y-103250000D02*
X110593503Y-103250000D01*
X110593503Y-103250000D02*
X111593503Y-104250000D01*
D58*
%TO.N,Net-(U12-+)*%
X111400000Y-49200000D02*
X111400000Y-50200000D01*
X109450000Y-49100000D02*
X111400000Y-49100000D01*
X111400000Y-47950000D02*
X111400000Y-49200000D01*
X108750000Y-48400000D02*
X109450000Y-49100000D01*
D57*
%TO.N,Net-(U13-INP)*%
X186440000Y-142980000D02*
X185825000Y-142365000D01*
X189140000Y-142900000D02*
X189175000Y-142865000D01*
X187325000Y-142980000D02*
X186440000Y-142980000D01*
X187405000Y-142900000D02*
X189140000Y-142900000D01*
X187325000Y-142980000D02*
X187405000Y-142900000D01*
D59*
%TO.N,Net-(U13-OUTP)*%
X97000000Y-61500000D02*
X91000000Y-67500000D01*
X91000000Y-67500000D02*
X89000000Y-67500000D01*
D58*
X199825000Y-142865000D02*
X201365000Y-142865000D01*
X201365000Y-142865000D02*
X201750000Y-143250000D01*
D59*
X118000000Y-61500000D02*
X97000000Y-61500000D01*
D57*
%TO.N,Net-(U13-INN)*%
X186575000Y-144115000D02*
X185825000Y-144865000D01*
X187325000Y-144115000D02*
X189155000Y-144115000D01*
X189155000Y-144115000D02*
X189175000Y-144135000D01*
X187325000Y-144115000D02*
X186575000Y-144115000D01*
D58*
%TO.N,Net-(U13-OUTN)*%
X199825000Y-144135000D02*
X201385000Y-144135000D01*
X201385000Y-144135000D02*
X201750000Y-144500000D01*
%TO.N,Net-(U18-HIN)*%
X94290000Y-104750000D02*
X95500000Y-104750000D01*
X93000000Y-106040000D02*
X94290000Y-104750000D01*
X100040000Y-112250000D02*
X100130000Y-112340000D01*
X97250000Y-112250000D02*
X100040000Y-112250000D01*
X94250000Y-109250000D02*
X97250000Y-112250000D01*
X95500000Y-104750000D02*
X94250000Y-106000000D01*
X94250000Y-106000000D02*
X94250000Y-109250000D01*
%TO.N,Net-(U18-LIN)*%
X95500000Y-112500000D02*
X95750000Y-112750000D01*
X95500000Y-112500000D02*
X95500000Y-111750000D01*
X95500000Y-111750000D02*
X93000000Y-109250000D01*
X100130000Y-117080000D02*
X100130000Y-117420000D01*
X93000000Y-109250000D02*
X93000000Y-108580000D01*
X95800000Y-112750000D02*
X100130000Y-117080000D01*
X95750000Y-112750000D02*
X95800000Y-112750000D01*
D10*
%TO.N,Net-(U18-HO)*%
X113410000Y-107260000D02*
X113900000Y-107750000D01*
X107750000Y-107260000D02*
X113410000Y-107260000D01*
D58*
%TO.N,Net-(R42-Pad2)*%
X83000000Y-103500000D02*
X85380000Y-103500000D01*
%TO.N,Net-(R45-Pad2)*%
X85260000Y-111000000D02*
X85380000Y-111120000D01*
X83000000Y-111000000D02*
X85260000Y-111000000D01*
D10*
%TO.N,Net-(U18-LO)*%
X112400000Y-122500000D02*
X113900000Y-124000000D01*
X107750000Y-122500000D02*
X112400000Y-122500000D01*
D58*
%TO.N,Net-(U19-+)*%
X81987500Y-57212500D02*
X83087500Y-57212500D01*
X81587500Y-60112500D02*
X81987500Y-59712500D01*
X81987500Y-59712500D02*
X81987500Y-57212500D01*
X80787500Y-57212500D02*
X81987500Y-57212500D01*
%TO.N,Net-(U3-+)*%
X98700000Y-56700000D02*
X97200000Y-56700000D01*
X96750000Y-58900000D02*
X94800000Y-58900000D01*
X98950000Y-56450000D02*
X98700000Y-56700000D01*
X96950000Y-58700000D02*
X96750000Y-58900000D01*
%TO.N,Net-(U3--)*%
X94950000Y-56850000D02*
X94800000Y-57000000D01*
X94950000Y-53950000D02*
X94950000Y-56850000D01*
X93200000Y-55450000D02*
X93200000Y-54200000D01*
X93200000Y-54200000D02*
X92950000Y-53950000D01*
X94800000Y-57000000D02*
X93250000Y-55450000D01*
X93250000Y-55450000D02*
X93200000Y-55450000D01*
D57*
%TO.N,Net-(U2-INP)*%
X193915000Y-76500000D02*
X193300000Y-75885000D01*
X195050000Y-76500000D02*
X193915000Y-76500000D01*
X193300000Y-75885000D02*
X191375000Y-75885000D01*
D58*
%TO.N,Net-(U2-OUTP)*%
X179385000Y-75885000D02*
X180725000Y-75885000D01*
X98950000Y-59250000D02*
X99900000Y-60200000D01*
X98950000Y-58700000D02*
X98950000Y-59250000D01*
X178750000Y-75250000D02*
X179385000Y-75885000D01*
D57*
%TO.N,Net-(U2-INN)*%
X191375000Y-74615000D02*
X193165000Y-74615000D01*
X195050000Y-74000000D02*
X194050000Y-74000000D01*
X194050000Y-74000000D02*
X193300000Y-74750000D01*
X193165000Y-74615000D02*
X193300000Y-74750000D01*
D58*
%TO.N,Net-(U2-OUTN)*%
X98000000Y-52900000D02*
X96950000Y-53950000D01*
X179350102Y-74615000D02*
X180725000Y-74615000D01*
X178748113Y-74013011D02*
X179350102Y-74615000D01*
X117887500Y-50662500D02*
X115650000Y-52900000D01*
X115650000Y-52900000D02*
X98000000Y-52900000D01*
%TO.N,Net-(U5-HIN)*%
X100180000Y-74070000D02*
X100180000Y-73840000D01*
X95500000Y-80460000D02*
X95500000Y-78750000D01*
X93000000Y-82960000D02*
X95500000Y-80460000D01*
X95500000Y-78750000D02*
X100180000Y-74070000D01*
%TO.N,Net-(U5-LIN)*%
X93000000Y-85500000D02*
X93000000Y-85250000D01*
X99830000Y-78920000D02*
X100180000Y-78920000D01*
X95500000Y-82750000D02*
X96000000Y-82750000D01*
X96000000Y-82750000D02*
X99830000Y-78920000D01*
X93000000Y-85250000D02*
X95500000Y-82750000D01*
D10*
%TO.N,Net-(U5-HO)*%
X107800000Y-68760000D02*
X113390000Y-68760000D01*
X113390000Y-68760000D02*
X114150000Y-68000000D01*
%TO.N,Net-(U5-LO)*%
X107800000Y-84000000D02*
X113650000Y-84000000D01*
X113650000Y-84000000D02*
X113900000Y-84250000D01*
%TO.N,/PHASE_A*%
X199650000Y-71150000D02*
X199650000Y-75600000D01*
X198750000Y-76500000D02*
X198150000Y-76500000D01*
X199650000Y-75600000D02*
X198750000Y-76500000D01*
%TO.N,Net-(Q1-S)*%
X198050000Y-73900000D02*
X198150000Y-74000000D01*
X198050000Y-71150000D02*
X198050000Y-73900000D01*
%TO.N,/PHASE_C*%
X180875000Y-140515000D02*
X182725000Y-142365000D01*
X180875000Y-135965000D02*
X180875000Y-140515000D01*
%TO.N,Net-(Q5-S)*%
X179275000Y-135965000D02*
X179275000Y-141415000D01*
X179275000Y-141415000D02*
X182725000Y-144865000D01*
D57*
X190575000Y-137040000D02*
X190925000Y-137390000D01*
X188925000Y-137040000D02*
X190575000Y-137040000D01*
%TD*%
%TA.AperFunction,Conductor*%
%TO.N,GND*%
G36*
X141198557Y-108770185D02*
G01*
X141244312Y-108822989D01*
X141254256Y-108892147D01*
X141235327Y-108942319D01*
X141205112Y-108988569D01*
X141175825Y-109033396D01*
X141075936Y-109261118D01*
X141014892Y-109502175D01*
X141014890Y-109502187D01*
X140994357Y-109749994D01*
X140994357Y-109750005D01*
X141014890Y-109997812D01*
X141014892Y-109997824D01*
X141075936Y-110238881D01*
X141175826Y-110466606D01*
X141311833Y-110674782D01*
X141311836Y-110674785D01*
X141480256Y-110857738D01*
X141676491Y-111010474D01*
X141895190Y-111128828D01*
X142063640Y-111186657D01*
X142130380Y-111209569D01*
X142130385Y-111209571D01*
X142164073Y-111215192D01*
X142226959Y-111245641D01*
X142231346Y-111249820D01*
X142935354Y-111953828D01*
X143094595Y-112069524D01*
X143190975Y-112118632D01*
X143269978Y-112158886D01*
X143328283Y-112177830D01*
X143328284Y-112177830D01*
X143392729Y-112198769D01*
X143457173Y-112219709D01*
X143651578Y-112250500D01*
X143651583Y-112250500D01*
X161157981Y-112250500D01*
X161225020Y-112270185D01*
X161270775Y-112322989D01*
X161280719Y-112392147D01*
X161251694Y-112455703D01*
X161225516Y-112478495D01*
X160939635Y-112664147D01*
X160654498Y-112895047D01*
X160654490Y-112895054D01*
X160395054Y-113154490D01*
X160395047Y-113154498D01*
X160164147Y-113439635D01*
X159964320Y-113747343D01*
X159797746Y-114074260D01*
X159666260Y-114416793D01*
X159571294Y-114771209D01*
X159571294Y-114771211D01*
X159513898Y-115133594D01*
X159496385Y-115467763D01*
X159494696Y-115500000D01*
X159513898Y-115866404D01*
X159571295Y-116228794D01*
X159664492Y-116576610D01*
X159666260Y-116583206D01*
X159797746Y-116925739D01*
X159964320Y-117252656D01*
X160164147Y-117560364D01*
X160288287Y-117713664D01*
X160395051Y-117845506D01*
X160654494Y-118104949D01*
X160654498Y-118104952D01*
X160939635Y-118335852D01*
X161247343Y-118535679D01*
X161247348Y-118535682D01*
X161574264Y-118702255D01*
X161916801Y-118833742D01*
X162271206Y-118928705D01*
X162633596Y-118986102D01*
X162979734Y-119004241D01*
X162999999Y-119005304D01*
X163000000Y-119005304D01*
X163000001Y-119005304D01*
X163019203Y-119004297D01*
X163366404Y-118986102D01*
X163728794Y-118928705D01*
X164083199Y-118833742D01*
X164425736Y-118702255D01*
X164752652Y-118535682D01*
X165060366Y-118335851D01*
X165345506Y-118104949D01*
X165604949Y-117845506D01*
X165835851Y-117560366D01*
X166035682Y-117252652D01*
X166202255Y-116925736D01*
X166333742Y-116583199D01*
X166428705Y-116228794D01*
X166486102Y-115866404D01*
X166505304Y-115500000D01*
X166486102Y-115133596D01*
X166428705Y-114771206D01*
X166414111Y-114716740D01*
X166415774Y-114646894D01*
X166454936Y-114589032D01*
X166519164Y-114561527D01*
X166588066Y-114573113D01*
X166621567Y-114596969D01*
X167213181Y-115188583D01*
X167246666Y-115249906D01*
X167249500Y-115276264D01*
X167249500Y-125848422D01*
X167280290Y-126042826D01*
X167341117Y-126230030D01*
X167423192Y-126391109D01*
X167430476Y-126405405D01*
X167546172Y-126564646D01*
X170296171Y-129314645D01*
X170296172Y-129314646D01*
X170435354Y-129453828D01*
X170594595Y-129569524D01*
X170709336Y-129627987D01*
X170769979Y-129658886D01*
X170854223Y-129686258D01*
X170896346Y-129699944D01*
X170896347Y-129699945D01*
X170896348Y-129699945D01*
X170957173Y-129719709D01*
X171030076Y-129731255D01*
X171151578Y-129750500D01*
X171151583Y-129750500D01*
X171575500Y-129750500D01*
X171642539Y-129770185D01*
X171688294Y-129822989D01*
X171699500Y-129874500D01*
X171699500Y-136848541D01*
X171699500Y-136848543D01*
X171699499Y-136848543D01*
X171737947Y-137041829D01*
X171737950Y-137041839D01*
X171813364Y-137223907D01*
X171813371Y-137223920D01*
X171922860Y-137387781D01*
X171922863Y-137387785D01*
X172062214Y-137527136D01*
X172062218Y-137527139D01*
X172226079Y-137636628D01*
X172226092Y-137636635D01*
X172373627Y-137697745D01*
X172408165Y-137712051D01*
X172408169Y-137712051D01*
X172408170Y-137712052D01*
X172601456Y-137750500D01*
X172601459Y-137750500D01*
X172798541Y-137750500D01*
X176876000Y-137750500D01*
X176943039Y-137770185D01*
X176988794Y-137822989D01*
X177000000Y-137874500D01*
X177000000Y-146376000D01*
X176980315Y-146443039D01*
X176927511Y-146488794D01*
X176876000Y-146500000D01*
X121624000Y-146500000D01*
X121556961Y-146480315D01*
X121511206Y-146427511D01*
X121500000Y-146376000D01*
X121500000Y-140982499D01*
X131994696Y-140982499D01*
X131994696Y-140982500D01*
X132013898Y-141348905D01*
X132054841Y-141607409D01*
X132071295Y-141711294D01*
X132123099Y-141904630D01*
X132166260Y-142065706D01*
X132297746Y-142408239D01*
X132464320Y-142735156D01*
X132664147Y-143042864D01*
X132664149Y-143042866D01*
X132895051Y-143328006D01*
X133154494Y-143587449D01*
X133310355Y-143713663D01*
X133439635Y-143818352D01*
X133747343Y-144018179D01*
X133747348Y-144018182D01*
X134074264Y-144184755D01*
X134416801Y-144316242D01*
X134771206Y-144411205D01*
X135133596Y-144468602D01*
X135479734Y-144486741D01*
X135499999Y-144487804D01*
X135500000Y-144487804D01*
X135500001Y-144487804D01*
X135519203Y-144486797D01*
X135866404Y-144468602D01*
X136228794Y-144411205D01*
X136583199Y-144316242D01*
X136925736Y-144184755D01*
X137252652Y-144018182D01*
X137560366Y-143818351D01*
X137845506Y-143587449D01*
X138104949Y-143328006D01*
X138335851Y-143042866D01*
X138535682Y-142735152D01*
X138702255Y-142408236D01*
X138833742Y-142065699D01*
X138928705Y-141711294D01*
X138986102Y-141348904D01*
X139005304Y-140982500D01*
X139000980Y-140900000D01*
X159494696Y-140900000D01*
X159513898Y-141266404D01*
X159571295Y-141628794D01*
X159645205Y-141904630D01*
X159666260Y-141983206D01*
X159797746Y-142325739D01*
X159964320Y-142652656D01*
X160164147Y-142960364D01*
X160230956Y-143042866D01*
X160395051Y-143245506D01*
X160654494Y-143504949D01*
X160654498Y-143504952D01*
X160939635Y-143735852D01*
X161174073Y-143888097D01*
X161247348Y-143935682D01*
X161574264Y-144102255D01*
X161916801Y-144233742D01*
X162271206Y-144328705D01*
X162633596Y-144386102D01*
X162979734Y-144404241D01*
X162999999Y-144405304D01*
X163000000Y-144405304D01*
X163000001Y-144405304D01*
X163019203Y-144404297D01*
X163366404Y-144386102D01*
X163728794Y-144328705D01*
X164083199Y-144233742D01*
X164425736Y-144102255D01*
X164752652Y-143935682D01*
X165060366Y-143735851D01*
X165345506Y-143504949D01*
X165604949Y-143245506D01*
X165835851Y-142960366D01*
X166035682Y-142652652D01*
X166202255Y-142325736D01*
X166333742Y-141983199D01*
X166428705Y-141628794D01*
X166486102Y-141266404D01*
X166505304Y-140900000D01*
X166486102Y-140533596D01*
X166428705Y-140171206D01*
X166333742Y-139816801D01*
X166202255Y-139474264D01*
X166035682Y-139147348D01*
X165835851Y-138839634D01*
X165604949Y-138554494D01*
X165345506Y-138295051D01*
X165162245Y-138146649D01*
X165060364Y-138064147D01*
X164752656Y-137864320D01*
X164425739Y-137697746D01*
X164083206Y-137566260D01*
X164083199Y-137566258D01*
X163728794Y-137471295D01*
X163728790Y-137471294D01*
X163728789Y-137471294D01*
X163366405Y-137413898D01*
X163000001Y-137394696D01*
X162999999Y-137394696D01*
X162633594Y-137413898D01*
X162271211Y-137471294D01*
X162271209Y-137471294D01*
X161916793Y-137566260D01*
X161574260Y-137697746D01*
X161247343Y-137864320D01*
X160939635Y-138064147D01*
X160654498Y-138295047D01*
X160654490Y-138295054D01*
X160395054Y-138554490D01*
X160395047Y-138554498D01*
X160164147Y-138839635D01*
X159964320Y-139147343D01*
X159797746Y-139474260D01*
X159666260Y-139816793D01*
X159571294Y-140171209D01*
X159571294Y-140171211D01*
X159513898Y-140533594D01*
X159509574Y-140616096D01*
X159494696Y-140900000D01*
X139000980Y-140900000D01*
X138986102Y-140616096D01*
X138928705Y-140253706D01*
X138833742Y-139899301D01*
X138702255Y-139556764D01*
X138535682Y-139229848D01*
X138335851Y-138922134D01*
X138321038Y-138903842D01*
X138131429Y-138669694D01*
X138104949Y-138636994D01*
X137845506Y-138377551D01*
X137560366Y-138146649D01*
X137560364Y-138146647D01*
X137252656Y-137946820D01*
X136925739Y-137780246D01*
X136583206Y-137648760D01*
X136583199Y-137648758D01*
X136228794Y-137553795D01*
X136228790Y-137553794D01*
X136228789Y-137553794D01*
X135866405Y-137496398D01*
X135500001Y-137477196D01*
X135499999Y-137477196D01*
X135133594Y-137496398D01*
X134771211Y-137553794D01*
X134771209Y-137553794D01*
X134416793Y-137648760D01*
X134074260Y-137780246D01*
X133747343Y-137946820D01*
X133439635Y-138146647D01*
X133154498Y-138377547D01*
X133154490Y-138377554D01*
X132895054Y-138636990D01*
X132895047Y-138636998D01*
X132664147Y-138922135D01*
X132464320Y-139229843D01*
X132297746Y-139556760D01*
X132166260Y-139899293D01*
X132071294Y-140253709D01*
X132071294Y-140253711D01*
X132013898Y-140616094D01*
X131994696Y-140982499D01*
X121500000Y-140982499D01*
X121500000Y-126921389D01*
X121519685Y-126854350D01*
X121572489Y-126808595D01*
X121641647Y-126798651D01*
X121705203Y-126827676D01*
X121711679Y-126833706D01*
X131272490Y-136394518D01*
X131426054Y-136506088D01*
X131463567Y-136533343D01*
X131539771Y-136572171D01*
X131674003Y-136640566D01*
X131674005Y-136640566D01*
X131674008Y-136640568D01*
X131794412Y-136679689D01*
X131898631Y-136713553D01*
X132131903Y-136750500D01*
X132131908Y-136750500D01*
X149128097Y-136750500D01*
X149361368Y-136713553D01*
X149585992Y-136640568D01*
X149796434Y-136533343D01*
X149987510Y-136394517D01*
X156898878Y-129483147D01*
X156960199Y-129449664D01*
X157029891Y-129454648D01*
X157077933Y-129487797D01*
X157078136Y-129487595D01*
X157079241Y-129488700D01*
X157079796Y-129489083D01*
X157081002Y-129490459D01*
X157081007Y-129490465D01*
X157081011Y-129490469D01*
X157081019Y-129490478D01*
X157262029Y-129671488D01*
X157262033Y-129671491D01*
X157262035Y-129671493D01*
X157465143Y-129827344D01*
X157465147Y-129827347D01*
X157686853Y-129955348D01*
X157686868Y-129955355D01*
X157809182Y-130006018D01*
X157923382Y-130053322D01*
X158170671Y-130119583D01*
X158424494Y-130153000D01*
X158424501Y-130153000D01*
X158775499Y-130153000D01*
X158775506Y-130153000D01*
X159029329Y-130119583D01*
X159276618Y-130053322D01*
X159513143Y-129955350D01*
X159734857Y-129827344D01*
X159937965Y-129671493D01*
X160118993Y-129490465D01*
X160274844Y-129287357D01*
X160402850Y-129065643D01*
X160500822Y-128829118D01*
X160567083Y-128581829D01*
X160600500Y-128328006D01*
X160600500Y-128071994D01*
X160567083Y-127818171D01*
X160500822Y-127570882D01*
X160435514Y-127413215D01*
X160402854Y-127334365D01*
X160401054Y-127330715D01*
X160402442Y-127330030D01*
X160387479Y-127268376D01*
X160410325Y-127202347D01*
X160415217Y-127195929D01*
X160439698Y-127165907D01*
X160533909Y-126985549D01*
X160589886Y-126789918D01*
X160600500Y-126670537D01*
X160600499Y-124649464D01*
X160589886Y-124530082D01*
X160537411Y-124346691D01*
X160533910Y-124334454D01*
X160533909Y-124334453D01*
X160533909Y-124334451D01*
X160439698Y-124154093D01*
X160387684Y-124090303D01*
X160311109Y-123996390D01*
X160191484Y-123898850D01*
X160153407Y-123867802D01*
X159973049Y-123773591D01*
X159973048Y-123773590D01*
X159973045Y-123773589D01*
X159855829Y-123740050D01*
X159777418Y-123717614D01*
X159777415Y-123717613D01*
X159777413Y-123717613D01*
X159711102Y-123711717D01*
X159658037Y-123707000D01*
X159658032Y-123707000D01*
X157541971Y-123707000D01*
X157541965Y-123707000D01*
X157541964Y-123707001D01*
X157530316Y-123708036D01*
X157422584Y-123717613D01*
X157226954Y-123773589D01*
X157136772Y-123820696D01*
X157046593Y-123867802D01*
X157046591Y-123867803D01*
X157046590Y-123867804D01*
X156888890Y-123996390D01*
X156760304Y-124154090D01*
X156760302Y-124154093D01*
X156717209Y-124236590D01*
X156666089Y-124334454D01*
X156610114Y-124530083D01*
X156610113Y-124530086D01*
X156599500Y-124649466D01*
X156599500Y-125487110D01*
X156579815Y-125554149D01*
X156563181Y-125574791D01*
X148424792Y-133713181D01*
X148363469Y-133746666D01*
X148337111Y-133749500D01*
X132922890Y-133749500D01*
X132855851Y-133729815D01*
X132835209Y-133713181D01*
X131922855Y-132800827D01*
X131889370Y-132739504D01*
X131894354Y-132669812D01*
X131936226Y-132613879D01*
X131963080Y-132598586D01*
X132013143Y-132577850D01*
X132234857Y-132449844D01*
X132437965Y-132293993D01*
X132618993Y-132112965D01*
X132774844Y-131909857D01*
X132902850Y-131688143D01*
X133000822Y-131451618D01*
X133067083Y-131204329D01*
X133100500Y-130950506D01*
X133100500Y-130694494D01*
X133067083Y-130440671D01*
X133000822Y-130193382D01*
X132902850Y-129956857D01*
X132901979Y-129955348D01*
X132774844Y-129735142D01*
X132692620Y-129627987D01*
X132667425Y-129562818D01*
X132681463Y-129494373D01*
X132692620Y-129477013D01*
X132774844Y-129369857D01*
X132806720Y-129314646D01*
X132902850Y-129148143D01*
X133000822Y-128911618D01*
X133067083Y-128664329D01*
X133100500Y-128410506D01*
X133100500Y-128154494D01*
X133067083Y-127900671D01*
X133000822Y-127653382D01*
X132912811Y-127440904D01*
X132902854Y-127416865D01*
X132901054Y-127413215D01*
X132902442Y-127412530D01*
X132887479Y-127350876D01*
X132910325Y-127284847D01*
X132915217Y-127278429D01*
X132939698Y-127248407D01*
X133033909Y-127068049D01*
X133089886Y-126872418D01*
X133100500Y-126753037D01*
X133100499Y-124731964D01*
X133089886Y-124612582D01*
X133033909Y-124416951D01*
X132939698Y-124236593D01*
X132872426Y-124154090D01*
X132811109Y-124078890D01*
X132648533Y-123946328D01*
X132649892Y-123944660D01*
X132611117Y-123898850D01*
X132600500Y-123848648D01*
X132600500Y-121731902D01*
X132563553Y-121498631D01*
X132490566Y-121274003D01*
X132404123Y-121104350D01*
X132383343Y-121063566D01*
X132244517Y-120872490D01*
X126954526Y-115582499D01*
X131994696Y-115582499D01*
X131994696Y-115582500D01*
X132013898Y-115948905D01*
X132071294Y-116311288D01*
X132071294Y-116311290D01*
X132166260Y-116665706D01*
X132297746Y-117008239D01*
X132464320Y-117335156D01*
X132664147Y-117642864D01*
X132721473Y-117713655D01*
X132895051Y-117928006D01*
X133154494Y-118187449D01*
X133154498Y-118187452D01*
X133439635Y-118418352D01*
X133696349Y-118585063D01*
X133747348Y-118618182D01*
X134074264Y-118784755D01*
X134416801Y-118916242D01*
X134771206Y-119011205D01*
X135133596Y-119068602D01*
X135479734Y-119086741D01*
X135499999Y-119087804D01*
X135500000Y-119087804D01*
X135500001Y-119087804D01*
X135519203Y-119086797D01*
X135866404Y-119068602D01*
X136228794Y-119011205D01*
X136583199Y-118916242D01*
X136925736Y-118784755D01*
X137252652Y-118618182D01*
X137560366Y-118418351D01*
X137845506Y-118187449D01*
X138104949Y-117928006D01*
X138335851Y-117642866D01*
X138535682Y-117335152D01*
X138702255Y-117008236D01*
X138833742Y-116665699D01*
X138928705Y-116311294D01*
X138986102Y-115948904D01*
X139005304Y-115582500D01*
X138986102Y-115216096D01*
X138928705Y-114853706D01*
X138833742Y-114499301D01*
X138702255Y-114156764D01*
X138535682Y-113829848D01*
X138492152Y-113762817D01*
X138335852Y-113522135D01*
X138104952Y-113236998D01*
X138104949Y-113236994D01*
X137845506Y-112977551D01*
X137653628Y-112822171D01*
X137560364Y-112746647D01*
X137252656Y-112546820D01*
X136925739Y-112380246D01*
X136583206Y-112248760D01*
X136498627Y-112226097D01*
X136228794Y-112153795D01*
X136228790Y-112153794D01*
X136228789Y-112153794D01*
X135866405Y-112096398D01*
X135500001Y-112077196D01*
X135499999Y-112077196D01*
X135133594Y-112096398D01*
X134771211Y-112153794D01*
X134771209Y-112153794D01*
X134416793Y-112248760D01*
X134074260Y-112380246D01*
X133747343Y-112546820D01*
X133439635Y-112746647D01*
X133154498Y-112977547D01*
X133154490Y-112977554D01*
X132895054Y-113236990D01*
X132895047Y-113236998D01*
X132664147Y-113522135D01*
X132464320Y-113829843D01*
X132297746Y-114156760D01*
X132166260Y-114499293D01*
X132071294Y-114853709D01*
X132071294Y-114853711D01*
X132013898Y-115216094D01*
X131994696Y-115582499D01*
X126954526Y-115582499D01*
X122279345Y-110907318D01*
X122245860Y-110845995D01*
X122243343Y-110828490D01*
X122235196Y-110714572D01*
X122199471Y-110550346D01*
X122174371Y-110434962D01*
X122174370Y-110434960D01*
X122174369Y-110434954D01*
X122074367Y-110166839D01*
X122073328Y-110164937D01*
X121937229Y-109915690D01*
X121937224Y-109915682D01*
X121765745Y-109686612D01*
X121765729Y-109686594D01*
X121563405Y-109484270D01*
X121563398Y-109484264D01*
X121563395Y-109484261D01*
X121563390Y-109484257D01*
X121563385Y-109484253D01*
X121549686Y-109473997D01*
X121507817Y-109418062D01*
X121500000Y-109374733D01*
X121500000Y-108874500D01*
X121519685Y-108807461D01*
X121572489Y-108761706D01*
X121624000Y-108750500D01*
X141131518Y-108750500D01*
X141198557Y-108770185D01*
G37*
%TD.AperFunction*%
%TA.AperFunction,Conductor*%
G36*
X204765677Y-42519685D02*
G01*
X204786319Y-42536319D01*
X206206854Y-43956854D01*
X206240339Y-44018177D01*
X206235355Y-44087869D01*
X206202448Y-44136411D01*
X206167803Y-44167811D01*
X205903846Y-44459043D01*
X205669692Y-44774763D01*
X205467620Y-45111899D01*
X205299562Y-45467227D01*
X205299561Y-45467229D01*
X205167143Y-45837315D01*
X205071637Y-46218593D01*
X205058477Y-46307314D01*
X205013962Y-46607409D01*
X204994675Y-47000000D01*
X205013962Y-47392591D01*
X205013962Y-47392597D01*
X205013963Y-47392599D01*
X205071637Y-47781406D01*
X205167143Y-48162684D01*
X205299561Y-48532770D01*
X205299562Y-48532772D01*
X205467620Y-48888100D01*
X205547958Y-49022135D01*
X205669694Y-49225239D01*
X205747277Y-49329848D01*
X205903846Y-49540956D01*
X206167807Y-49832192D01*
X206459043Y-50096153D01*
X206459049Y-50096158D01*
X206774761Y-50330306D01*
X206774763Y-50330307D01*
X207111899Y-50532379D01*
X207111902Y-50532380D01*
X207111903Y-50532381D01*
X207467228Y-50700438D01*
X207837316Y-50832857D01*
X208218600Y-50928364D01*
X208607409Y-50986038D01*
X209000000Y-51005325D01*
X209392591Y-50986038D01*
X209781400Y-50928364D01*
X210162684Y-50832857D01*
X210532772Y-50700438D01*
X210888097Y-50532381D01*
X211225239Y-50330306D01*
X211540951Y-50096158D01*
X211832192Y-49832192D01*
X211863586Y-49797553D01*
X211923189Y-49761100D01*
X211993042Y-49762657D01*
X212043145Y-49793145D01*
X213713903Y-51463903D01*
X213747388Y-51525226D01*
X213750221Y-51551045D01*
X213914133Y-89250500D01*
X213999458Y-108875432D01*
X213999459Y-108875461D01*
X213980066Y-108942585D01*
X213927461Y-108988569D01*
X213875460Y-109000000D01*
X201211258Y-109000000D01*
X201144219Y-108980315D01*
X201123577Y-108963681D01*
X201121402Y-108961506D01*
X201121395Y-108961501D01*
X200927834Y-108825967D01*
X200927830Y-108825965D01*
X200921448Y-108822989D01*
X200713663Y-108726097D01*
X200713659Y-108726096D01*
X200713655Y-108726094D01*
X200485413Y-108664938D01*
X200485403Y-108664936D01*
X200250001Y-108644341D01*
X200249999Y-108644341D01*
X200014596Y-108664936D01*
X200014586Y-108664938D01*
X199782093Y-108727233D01*
X199717907Y-108727233D01*
X199485413Y-108664938D01*
X199485403Y-108664936D01*
X199250001Y-108644341D01*
X199249999Y-108644341D01*
X199014596Y-108664936D01*
X199014586Y-108664938D01*
X198786344Y-108726094D01*
X198786335Y-108726098D01*
X198572171Y-108825964D01*
X198572169Y-108825965D01*
X198378597Y-108961505D01*
X198376422Y-108963681D01*
X198375225Y-108964334D01*
X198374449Y-108964986D01*
X198374318Y-108964829D01*
X198315099Y-108997166D01*
X198288741Y-109000000D01*
X180989836Y-109000000D01*
X180922797Y-108980315D01*
X180902155Y-108963681D01*
X180484648Y-108546174D01*
X180484646Y-108546172D01*
X180325405Y-108430476D01*
X180150030Y-108341117D01*
X179962826Y-108280290D01*
X179768422Y-108249500D01*
X179768417Y-108249500D01*
X168814389Y-108249500D01*
X168747350Y-108229815D01*
X168701595Y-108177011D01*
X168691651Y-108107853D01*
X168720676Y-108044297D01*
X168726708Y-108037819D01*
X174577708Y-102186818D01*
X174639031Y-102153333D01*
X174665389Y-102150499D01*
X175503028Y-102150499D01*
X175503036Y-102150499D01*
X175622418Y-102139886D01*
X175818049Y-102083909D01*
X175998407Y-101989698D01*
X176028404Y-101965238D01*
X176092796Y-101938128D01*
X176161626Y-101950135D01*
X176164878Y-101951874D01*
X176166865Y-101952854D01*
X176314360Y-102013948D01*
X176403382Y-102050822D01*
X176650671Y-102117083D01*
X176893081Y-102148997D01*
X176904478Y-102150498D01*
X176904494Y-102150500D01*
X176904501Y-102150500D01*
X177160499Y-102150500D01*
X177160506Y-102150500D01*
X177414329Y-102117083D01*
X177661618Y-102050822D01*
X177898143Y-101952850D01*
X178119857Y-101824844D01*
X178322965Y-101668993D01*
X178503993Y-101487965D01*
X178659844Y-101284857D01*
X178787850Y-101063143D01*
X178885822Y-100826618D01*
X178952083Y-100579329D01*
X178985500Y-100325506D01*
X178985500Y-99974494D01*
X178952083Y-99720671D01*
X178885822Y-99473382D01*
X178787850Y-99236857D01*
X178787414Y-99236101D01*
X178659847Y-99015147D01*
X178611588Y-98952255D01*
X178503993Y-98812035D01*
X178503991Y-98812033D01*
X178503988Y-98812029D01*
X178322970Y-98631011D01*
X178119852Y-98475152D01*
X177898146Y-98347151D01*
X177898131Y-98347144D01*
X177661616Y-98249177D01*
X177538128Y-98216089D01*
X177414329Y-98182917D01*
X177357923Y-98175491D01*
X177160513Y-98149500D01*
X177160506Y-98149500D01*
X176904494Y-98149500D01*
X176904486Y-98149500D01*
X176678873Y-98179204D01*
X176650671Y-98182917D01*
X176584411Y-98200671D01*
X176403383Y-98249177D01*
X176166868Y-98347144D01*
X176163222Y-98348943D01*
X176162543Y-98347567D01*
X176100819Y-98362517D01*
X176034801Y-98339640D01*
X176028406Y-98334762D01*
X175998412Y-98310305D01*
X175998408Y-98310303D01*
X175998407Y-98310302D01*
X175818049Y-98216091D01*
X175818048Y-98216090D01*
X175818045Y-98216089D01*
X175700829Y-98182550D01*
X175622418Y-98160114D01*
X175622415Y-98160113D01*
X175622413Y-98160113D01*
X175556102Y-98154217D01*
X175503037Y-98149500D01*
X175503032Y-98149500D01*
X173481971Y-98149500D01*
X173481965Y-98149500D01*
X173481964Y-98149501D01*
X173470316Y-98150536D01*
X173362584Y-98160113D01*
X173166954Y-98216089D01*
X173133462Y-98233584D01*
X172986593Y-98310302D01*
X172986591Y-98310303D01*
X172986590Y-98310304D01*
X172828890Y-98438890D01*
X172700304Y-98596590D01*
X172606089Y-98776954D01*
X172550114Y-98972583D01*
X172550113Y-98972586D01*
X172539500Y-99091966D01*
X172539500Y-99929610D01*
X172519815Y-99996649D01*
X172503181Y-100017291D01*
X166807292Y-105713181D01*
X166745969Y-105746666D01*
X166719611Y-105749500D01*
X121624000Y-105749500D01*
X121556961Y-105729815D01*
X121511206Y-105677011D01*
X121500000Y-105625500D01*
X121500000Y-103624500D01*
X121519685Y-103557461D01*
X121572489Y-103511706D01*
X121624000Y-103500500D01*
X141618097Y-103500500D01*
X141851368Y-103463553D01*
X142075992Y-103390568D01*
X142286434Y-103283343D01*
X142477510Y-103144517D01*
X143717017Y-101905010D01*
X143855843Y-101713934D01*
X143886216Y-101654322D01*
X143909013Y-101622943D01*
X144043993Y-101487965D01*
X144199844Y-101284857D01*
X144327850Y-101063143D01*
X144425822Y-100826618D01*
X144492083Y-100579329D01*
X144525500Y-100325506D01*
X144525500Y-99974494D01*
X144492083Y-99720671D01*
X144425822Y-99473382D01*
X144327850Y-99236857D01*
X144327414Y-99236101D01*
X144199847Y-99015147D01*
X144151588Y-98952255D01*
X144043993Y-98812035D01*
X144043991Y-98812033D01*
X144043988Y-98812029D01*
X143862970Y-98631011D01*
X143659852Y-98475152D01*
X143438146Y-98347151D01*
X143438131Y-98347144D01*
X143201616Y-98249177D01*
X143078128Y-98216089D01*
X142954329Y-98182917D01*
X142897923Y-98175491D01*
X142700513Y-98149500D01*
X142700506Y-98149500D01*
X142444494Y-98149500D01*
X142444486Y-98149500D01*
X142218873Y-98179204D01*
X142190671Y-98182917D01*
X142124411Y-98200671D01*
X141943383Y-98249177D01*
X141706868Y-98347144D01*
X141706853Y-98347151D01*
X141485143Y-98475155D01*
X141377986Y-98557380D01*
X141312817Y-98582574D01*
X141244372Y-98568536D01*
X141227014Y-98557380D01*
X141119856Y-98475155D01*
X140898146Y-98347151D01*
X140898131Y-98347144D01*
X140661616Y-98249177D01*
X140538128Y-98216089D01*
X140414329Y-98182917D01*
X140357923Y-98175491D01*
X140160513Y-98149500D01*
X140160506Y-98149500D01*
X139904494Y-98149500D01*
X139904486Y-98149500D01*
X139678873Y-98179204D01*
X139650671Y-98182917D01*
X139584411Y-98200671D01*
X139403383Y-98249177D01*
X139164452Y-98348145D01*
X139094983Y-98355614D01*
X139032504Y-98324339D01*
X138996852Y-98264249D01*
X138993000Y-98233584D01*
X138993000Y-96124402D01*
X138956053Y-95891131D01*
X138910196Y-95749999D01*
X149227196Y-95749999D01*
X149227196Y-95750000D01*
X149246398Y-96116405D01*
X149303794Y-96478788D01*
X149303794Y-96478790D01*
X149398760Y-96833206D01*
X149530246Y-97175739D01*
X149696820Y-97502656D01*
X149896647Y-97810364D01*
X149896649Y-97810366D01*
X150127551Y-98095506D01*
X150386994Y-98354949D01*
X150490654Y-98438891D01*
X150672135Y-98585852D01*
X150966403Y-98776951D01*
X150979848Y-98785682D01*
X151306764Y-98952255D01*
X151649301Y-99083742D01*
X152003706Y-99178705D01*
X152366096Y-99236102D01*
X152712234Y-99254241D01*
X152732499Y-99255304D01*
X152732500Y-99255304D01*
X152732501Y-99255304D01*
X152751703Y-99254297D01*
X153098904Y-99236102D01*
X153461294Y-99178705D01*
X153815699Y-99083742D01*
X154158236Y-98952255D01*
X154485152Y-98785682D01*
X154792866Y-98585851D01*
X155078006Y-98354949D01*
X155337449Y-98095506D01*
X155568351Y-97810366D01*
X155768182Y-97502652D01*
X155934755Y-97175736D01*
X156066242Y-96833199D01*
X156161205Y-96478794D01*
X156218602Y-96116404D01*
X156237804Y-95750000D01*
X156237804Y-95749999D01*
X160827196Y-95749999D01*
X160827196Y-95750000D01*
X160846398Y-96116405D01*
X160903794Y-96478788D01*
X160903794Y-96478790D01*
X160998760Y-96833206D01*
X161130246Y-97175739D01*
X161296820Y-97502656D01*
X161496647Y-97810364D01*
X161496649Y-97810366D01*
X161727551Y-98095506D01*
X161986994Y-98354949D01*
X162090654Y-98438891D01*
X162272135Y-98585852D01*
X162566403Y-98776951D01*
X162579848Y-98785682D01*
X162906764Y-98952255D01*
X163249301Y-99083742D01*
X163603706Y-99178705D01*
X163966096Y-99236102D01*
X164312234Y-99254241D01*
X164332499Y-99255304D01*
X164332500Y-99255304D01*
X164332501Y-99255304D01*
X164351703Y-99254297D01*
X164698904Y-99236102D01*
X165061294Y-99178705D01*
X165415699Y-99083742D01*
X165758236Y-98952255D01*
X166085152Y-98785682D01*
X166392866Y-98585851D01*
X166678006Y-98354949D01*
X166937449Y-98095506D01*
X167168351Y-97810366D01*
X167368182Y-97502652D01*
X167534755Y-97175736D01*
X167666242Y-96833199D01*
X167761205Y-96478794D01*
X167818602Y-96116404D01*
X167837804Y-95750000D01*
X167837804Y-95749999D01*
X186227196Y-95749999D01*
X186227196Y-95750000D01*
X186246398Y-96116405D01*
X186303794Y-96478788D01*
X186303794Y-96478790D01*
X186398760Y-96833206D01*
X186530246Y-97175739D01*
X186696820Y-97502656D01*
X186896647Y-97810364D01*
X186896649Y-97810366D01*
X187127551Y-98095506D01*
X187386994Y-98354949D01*
X187490654Y-98438891D01*
X187672135Y-98585852D01*
X187966403Y-98776951D01*
X187979848Y-98785682D01*
X188306764Y-98952255D01*
X188649301Y-99083742D01*
X189003706Y-99178705D01*
X189366096Y-99236102D01*
X189712234Y-99254241D01*
X189732499Y-99255304D01*
X189732500Y-99255304D01*
X189732501Y-99255304D01*
X189751703Y-99254297D01*
X190098904Y-99236102D01*
X190461294Y-99178705D01*
X190815699Y-99083742D01*
X191158236Y-98952255D01*
X191485152Y-98785682D01*
X191792866Y-98585851D01*
X192078006Y-98354949D01*
X192337449Y-98095506D01*
X192568351Y-97810366D01*
X192768182Y-97502652D01*
X192934755Y-97175736D01*
X193066242Y-96833199D01*
X193161205Y-96478794D01*
X193218602Y-96116404D01*
X193237804Y-95750000D01*
X193218602Y-95383596D01*
X193161205Y-95021206D01*
X193066242Y-94666801D01*
X192934755Y-94324264D01*
X192768182Y-93997348D01*
X192568351Y-93689634D01*
X192337449Y-93404494D01*
X192078006Y-93145051D01*
X191792866Y-92914149D01*
X191792864Y-92914147D01*
X191485156Y-92714320D01*
X191158239Y-92547746D01*
X190815706Y-92416260D01*
X190815699Y-92416258D01*
X190461294Y-92321295D01*
X190461290Y-92321294D01*
X190461289Y-92321294D01*
X190098905Y-92263898D01*
X189732501Y-92244696D01*
X189732499Y-92244696D01*
X189366094Y-92263898D01*
X189003711Y-92321294D01*
X189003709Y-92321294D01*
X188649293Y-92416260D01*
X188306760Y-92547746D01*
X187979843Y-92714320D01*
X187672135Y-92914147D01*
X187386998Y-93145047D01*
X187386990Y-93145054D01*
X187127554Y-93404490D01*
X187127547Y-93404498D01*
X186896647Y-93689635D01*
X186696820Y-93997343D01*
X186530246Y-94324260D01*
X186398760Y-94666793D01*
X186303794Y-95021209D01*
X186303794Y-95021211D01*
X186246398Y-95383594D01*
X186227196Y-95749999D01*
X167837804Y-95749999D01*
X167818602Y-95383596D01*
X167761205Y-95021206D01*
X167666242Y-94666801D01*
X167534755Y-94324264D01*
X167368182Y-93997348D01*
X167168351Y-93689634D01*
X166937449Y-93404494D01*
X166678006Y-93145051D01*
X166392866Y-92914149D01*
X166392864Y-92914147D01*
X166085156Y-92714320D01*
X165758239Y-92547746D01*
X165415706Y-92416260D01*
X165415699Y-92416258D01*
X165061294Y-92321295D01*
X165061290Y-92321294D01*
X165061289Y-92321294D01*
X164698905Y-92263898D01*
X164332501Y-92244696D01*
X164332499Y-92244696D01*
X163966094Y-92263898D01*
X163603711Y-92321294D01*
X163603709Y-92321294D01*
X163249293Y-92416260D01*
X162906760Y-92547746D01*
X162579843Y-92714320D01*
X162272135Y-92914147D01*
X161986998Y-93145047D01*
X161986990Y-93145054D01*
X161727554Y-93404490D01*
X161727547Y-93404498D01*
X161496647Y-93689635D01*
X161296820Y-93997343D01*
X161130246Y-94324260D01*
X160998760Y-94666793D01*
X160903794Y-95021209D01*
X160903794Y-95021211D01*
X160846398Y-95383594D01*
X160827196Y-95749999D01*
X156237804Y-95749999D01*
X156218602Y-95383596D01*
X156161205Y-95021206D01*
X156066242Y-94666801D01*
X155934755Y-94324264D01*
X155768182Y-93997348D01*
X155568351Y-93689634D01*
X155337449Y-93404494D01*
X155078006Y-93145051D01*
X154792866Y-92914149D01*
X154792864Y-92914147D01*
X154485156Y-92714320D01*
X154158239Y-92547746D01*
X153815706Y-92416260D01*
X153815699Y-92416258D01*
X153461294Y-92321295D01*
X153461290Y-92321294D01*
X153461289Y-92321294D01*
X153098905Y-92263898D01*
X152732501Y-92244696D01*
X152732499Y-92244696D01*
X152366094Y-92263898D01*
X152003711Y-92321294D01*
X152003709Y-92321294D01*
X151649293Y-92416260D01*
X151306760Y-92547746D01*
X150979843Y-92714320D01*
X150672135Y-92914147D01*
X150386998Y-93145047D01*
X150386990Y-93145054D01*
X150127554Y-93404490D01*
X150127547Y-93404498D01*
X149896647Y-93689635D01*
X149696820Y-93997343D01*
X149530246Y-94324260D01*
X149398760Y-94666793D01*
X149303794Y-95021209D01*
X149303794Y-95021211D01*
X149246398Y-95383594D01*
X149227196Y-95749999D01*
X138910196Y-95749999D01*
X138883066Y-95666503D01*
X138775842Y-95456066D01*
X138723190Y-95383596D01*
X138637018Y-95264990D01*
X129977510Y-86605483D01*
X129786434Y-86466657D01*
X129575996Y-86359433D01*
X129351368Y-86286446D01*
X129118097Y-86249500D01*
X129118092Y-86249500D01*
X121624000Y-86249500D01*
X121556961Y-86229815D01*
X121511206Y-86177011D01*
X121500000Y-86125500D01*
X121500000Y-85874500D01*
X121519685Y-85807461D01*
X121572489Y-85761706D01*
X121624000Y-85750500D01*
X135270597Y-85750500D01*
X135503868Y-85713553D01*
X135728492Y-85640568D01*
X135938934Y-85533343D01*
X136130010Y-85394517D01*
X138238624Y-83285901D01*
X138299945Y-83252418D01*
X138369637Y-83257402D01*
X138417532Y-83289601D01*
X138480256Y-83357738D01*
X138676491Y-83510474D01*
X138686220Y-83515739D01*
X138895182Y-83628824D01*
X138895190Y-83628828D01*
X139130386Y-83709571D01*
X139375665Y-83750500D01*
X139624335Y-83750500D01*
X139869614Y-83709571D01*
X140104810Y-83628828D01*
X140307614Y-83519076D01*
X140314324Y-83515445D01*
X140373341Y-83500500D01*
X179348422Y-83500500D01*
X179542826Y-83469709D01*
X179573027Y-83459896D01*
X179730026Y-83408884D01*
X179905405Y-83319524D01*
X180064646Y-83203828D01*
X180474005Y-82794467D01*
X180535328Y-82760983D01*
X180605019Y-82765967D01*
X180660953Y-82807838D01*
X180674482Y-82830640D01*
X180675637Y-82833169D01*
X180812770Y-83084309D01*
X180812775Y-83084317D01*
X180984254Y-83313387D01*
X180984270Y-83313405D01*
X181186594Y-83515729D01*
X181186612Y-83515745D01*
X181415682Y-83687224D01*
X181415690Y-83687229D01*
X181666833Y-83824364D01*
X181666832Y-83824364D01*
X181666836Y-83824365D01*
X181666839Y-83824367D01*
X181934954Y-83924369D01*
X181934960Y-83924370D01*
X181934962Y-83924371D01*
X182214566Y-83985195D01*
X182214568Y-83985195D01*
X182214572Y-83985196D01*
X182468220Y-84003337D01*
X182499999Y-84005610D01*
X182500000Y-84005610D01*
X182500001Y-84005610D01*
X182528595Y-84003564D01*
X182785428Y-83985196D01*
X183065046Y-83924369D01*
X183333161Y-83824367D01*
X183584315Y-83687226D01*
X183813395Y-83515739D01*
X184015739Y-83313395D01*
X184187226Y-83084315D01*
X184257193Y-82956178D01*
X184306597Y-82906774D01*
X184355215Y-82892078D01*
X184435408Y-82885063D01*
X184663663Y-82823903D01*
X184877830Y-82724035D01*
X184898672Y-82709440D01*
X184964876Y-82687111D01*
X184998188Y-82690307D01*
X185015370Y-82694349D01*
X185044909Y-82696399D01*
X185103984Y-82700500D01*
X185103988Y-82700500D01*
X186421016Y-82700500D01*
X186456459Y-82698039D01*
X186509630Y-82694349D01*
X186509636Y-82694347D01*
X186509640Y-82694347D01*
X186717176Y-82645534D01*
X186717174Y-82645534D01*
X186717185Y-82645532D01*
X186912237Y-82559409D01*
X187088142Y-82438911D01*
X187238911Y-82288142D01*
X187359409Y-82112237D01*
X187445532Y-81917185D01*
X187462249Y-81846110D01*
X187496759Y-81785358D01*
X187558636Y-81752908D01*
X187582955Y-81750500D01*
X188000501Y-81750500D01*
X188067540Y-81770185D01*
X188113295Y-81822989D01*
X188124501Y-81874500D01*
X188124501Y-81976723D01*
X188134904Y-82108913D01*
X188134905Y-82108920D01*
X188189902Y-82327178D01*
X188189903Y-82327181D01*
X188282991Y-82532122D01*
X188282997Y-82532132D01*
X188411174Y-82717145D01*
X188411178Y-82717150D01*
X188411181Y-82717154D01*
X188570346Y-82876319D01*
X188593093Y-82892078D01*
X188617625Y-82909074D01*
X188661522Y-82963433D01*
X188666784Y-82978908D01*
X188676095Y-83013657D01*
X188676097Y-83013663D01*
X188760433Y-83194521D01*
X188775965Y-83227830D01*
X188775967Y-83227834D01*
X188866927Y-83357737D01*
X188911505Y-83421401D01*
X189078599Y-83588495D01*
X189175384Y-83656265D01*
X189272165Y-83724032D01*
X189272167Y-83724033D01*
X189272170Y-83724035D01*
X189486337Y-83823903D01*
X189486343Y-83823904D01*
X189486344Y-83823905D01*
X189541285Y-83838626D01*
X189714592Y-83885063D01*
X189902918Y-83901539D01*
X189949999Y-83905659D01*
X189950000Y-83905659D01*
X189950001Y-83905659D01*
X189989234Y-83902226D01*
X190185408Y-83885063D01*
X190413663Y-83823903D01*
X190627830Y-83724035D01*
X190821401Y-83588495D01*
X190862319Y-83547577D01*
X190923642Y-83514092D01*
X190993334Y-83519076D01*
X191037681Y-83547577D01*
X191078599Y-83588495D01*
X191175384Y-83656265D01*
X191272165Y-83724032D01*
X191272167Y-83724033D01*
X191272170Y-83724035D01*
X191486337Y-83823903D01*
X191486343Y-83823904D01*
X191486344Y-83823905D01*
X191541285Y-83838626D01*
X191714592Y-83885063D01*
X191902918Y-83901539D01*
X191949999Y-83905659D01*
X191950000Y-83905659D01*
X191950001Y-83905659D01*
X191989234Y-83902226D01*
X192185408Y-83885063D01*
X192413663Y-83823903D01*
X192627830Y-83724035D01*
X192821401Y-83588495D01*
X192988495Y-83421401D01*
X193124035Y-83227830D01*
X193223903Y-83013663D01*
X193285063Y-82785408D01*
X193305659Y-82550000D01*
X193285063Y-82314592D01*
X193223903Y-82086337D01*
X193223902Y-82086335D01*
X193223660Y-82085431D01*
X193225323Y-82015581D01*
X193230531Y-82002068D01*
X193260751Y-81935538D01*
X193265379Y-81917175D01*
X193315199Y-81719457D01*
X193315200Y-81719451D01*
X193315201Y-81719449D01*
X193325500Y-81588584D01*
X193325500Y-80861416D01*
X193315201Y-80730551D01*
X193304687Y-80688825D01*
X193260753Y-80514467D01*
X193260751Y-80514462D01*
X193215018Y-80413780D01*
X193205216Y-80344603D01*
X193215017Y-80311221D01*
X193260751Y-80210538D01*
X193278607Y-80139678D01*
X193315199Y-79994457D01*
X193315200Y-79994451D01*
X193315201Y-79994449D01*
X193325500Y-79863584D01*
X193325500Y-79136416D01*
X193315201Y-79005551D01*
X193313159Y-78997449D01*
X193260752Y-78789466D01*
X193260751Y-78789463D01*
X193237378Y-78738006D01*
X193168592Y-78586567D01*
X193122570Y-78520139D01*
X193100575Y-78453823D01*
X193100500Y-78449524D01*
X193100500Y-77955135D01*
X193120185Y-77888096D01*
X193122167Y-77885106D01*
X193134409Y-77867237D01*
X193211769Y-77692031D01*
X193256851Y-77638658D01*
X193323637Y-77618130D01*
X193381495Y-77631634D01*
X193395279Y-77638658D01*
X193434974Y-77658884D01*
X193434980Y-77658886D01*
X193481623Y-77674041D01*
X193539299Y-77713478D01*
X193556204Y-77740688D01*
X193557992Y-77744625D01*
X193557996Y-77744633D01*
X193686174Y-77929645D01*
X193686178Y-77929650D01*
X193686181Y-77929654D01*
X193845346Y-78088819D01*
X193845350Y-78088822D01*
X193845354Y-78088825D01*
X193984603Y-78185297D01*
X194030374Y-78217007D01*
X194235317Y-78310096D01*
X194235321Y-78310097D01*
X194453579Y-78365094D01*
X194453581Y-78365094D01*
X194453588Y-78365096D01*
X194585783Y-78375500D01*
X195514216Y-78375499D01*
X195646412Y-78365096D01*
X195864683Y-78310096D01*
X196069626Y-78217007D01*
X196254654Y-78088819D01*
X196413819Y-77929654D01*
X196498073Y-77808039D01*
X196552430Y-77764146D01*
X196621892Y-77756606D01*
X196684403Y-77787817D01*
X196701923Y-77808035D01*
X196786181Y-77929654D01*
X196945346Y-78088819D01*
X196945350Y-78088822D01*
X196945354Y-78088825D01*
X197084603Y-78185297D01*
X197130374Y-78217007D01*
X197335317Y-78310096D01*
X197335321Y-78310097D01*
X197553579Y-78365094D01*
X197553581Y-78365094D01*
X197553588Y-78365096D01*
X197685783Y-78375500D01*
X198614216Y-78375499D01*
X198746412Y-78365096D01*
X198964683Y-78310096D01*
X199169626Y-78217007D01*
X199354654Y-78088819D01*
X199513819Y-77929654D01*
X199642007Y-77744626D01*
X199654226Y-77717724D01*
X199694237Y-77668690D01*
X199727510Y-77644517D01*
X200794517Y-76577510D01*
X200933343Y-76386434D01*
X201040568Y-76175992D01*
X201049458Y-76148632D01*
X201060031Y-76116094D01*
X201113552Y-75951372D01*
X201113552Y-75951371D01*
X201113553Y-75951368D01*
X201144859Y-75753709D01*
X201150500Y-75718097D01*
X201150500Y-73624500D01*
X201170185Y-73557461D01*
X201222989Y-73511706D01*
X201274500Y-73500500D01*
X206298543Y-73500500D01*
X206428582Y-73474632D01*
X206491835Y-73462051D01*
X206673914Y-73386632D01*
X206837782Y-73277139D01*
X206977139Y-73137782D01*
X207086632Y-72973914D01*
X207162051Y-72791835D01*
X207200500Y-72598541D01*
X207200500Y-65151459D01*
X207200500Y-65151456D01*
X207162052Y-64958170D01*
X207162051Y-64958169D01*
X207162051Y-64958165D01*
X207088192Y-64779852D01*
X207086635Y-64776092D01*
X207086628Y-64776079D01*
X206977139Y-64612218D01*
X206977136Y-64612214D01*
X206837785Y-64472863D01*
X206837781Y-64472860D01*
X206673920Y-64363371D01*
X206673907Y-64363364D01*
X206491839Y-64287950D01*
X206491829Y-64287947D01*
X206298543Y-64249500D01*
X206298541Y-64249500D01*
X200798541Y-64249500D01*
X200601459Y-64249500D01*
X200601457Y-64249500D01*
X200408170Y-64287947D01*
X200408160Y-64287950D01*
X200226092Y-64363364D01*
X200226079Y-64363371D01*
X200062218Y-64472860D01*
X200062214Y-64472863D01*
X199922863Y-64612214D01*
X199922860Y-64612218D01*
X199813371Y-64776079D01*
X199813364Y-64776092D01*
X199737950Y-64958160D01*
X199737947Y-64958170D01*
X199699500Y-65151456D01*
X199699500Y-66786837D01*
X199685409Y-66844248D01*
X199616089Y-66976954D01*
X199560114Y-67172583D01*
X199560113Y-67172586D01*
X199549500Y-67291966D01*
X199549500Y-67595931D01*
X199529815Y-67662970D01*
X199481796Y-67706415D01*
X199363565Y-67766657D01*
X199172496Y-67905476D01*
X199172491Y-67905480D01*
X198987680Y-68090291D01*
X198926357Y-68123776D01*
X198856665Y-68118792D01*
X198812318Y-68090291D01*
X198627511Y-67905484D01*
X198627508Y-67905482D01*
X198436434Y-67766657D01*
X198318202Y-67706415D01*
X198221651Y-67657220D01*
X198222264Y-67656016D01*
X198172639Y-67616022D01*
X198150578Y-67549727D01*
X198150499Y-67545307D01*
X198150499Y-67291971D01*
X198150499Y-67291964D01*
X198139886Y-67172582D01*
X198083909Y-66976951D01*
X198064589Y-66939965D01*
X198050500Y-66882557D01*
X198050500Y-65151456D01*
X198012052Y-64958170D01*
X198012051Y-64958169D01*
X198012051Y-64958165D01*
X197938192Y-64779852D01*
X197936635Y-64776092D01*
X197936628Y-64776079D01*
X197827139Y-64612218D01*
X197827136Y-64612214D01*
X197687785Y-64472863D01*
X197687781Y-64472860D01*
X197523920Y-64363371D01*
X197523907Y-64363364D01*
X197341839Y-64287950D01*
X197341829Y-64287947D01*
X197148543Y-64249500D01*
X197148541Y-64249500D01*
X191648541Y-64249500D01*
X191451459Y-64249500D01*
X191451457Y-64249500D01*
X191258170Y-64287947D01*
X191258160Y-64287950D01*
X191076092Y-64363364D01*
X191076079Y-64363371D01*
X190912218Y-64472860D01*
X190912214Y-64472863D01*
X190772863Y-64612214D01*
X190772860Y-64612218D01*
X190663371Y-64776079D01*
X190663364Y-64776092D01*
X190587950Y-64958160D01*
X190587947Y-64958170D01*
X190549500Y-65151456D01*
X190549500Y-70285222D01*
X190529815Y-70352261D01*
X190477011Y-70398016D01*
X190414692Y-70408750D01*
X190250001Y-70394341D01*
X190249999Y-70394341D01*
X190014596Y-70414936D01*
X190014586Y-70414938D01*
X189786344Y-70476094D01*
X189786335Y-70476098D01*
X189572171Y-70575964D01*
X189572169Y-70575965D01*
X189378597Y-70711505D01*
X189211505Y-70878597D01*
X189075965Y-71072169D01*
X189075964Y-71072171D01*
X188976098Y-71286335D01*
X188976094Y-71286344D01*
X188914938Y-71514586D01*
X188914936Y-71514596D01*
X188894341Y-71749999D01*
X188894341Y-71750000D01*
X188914936Y-71985403D01*
X188914938Y-71985413D01*
X188976094Y-72213655D01*
X188976095Y-72213658D01*
X188976097Y-72213663D01*
X188987882Y-72238936D01*
X188999500Y-72291340D01*
X188999500Y-73023422D01*
X189030290Y-73217826D01*
X189091117Y-73405030D01*
X189164655Y-73549355D01*
X189180476Y-73580405D01*
X189296172Y-73739646D01*
X189296174Y-73739648D01*
X189507653Y-73951127D01*
X189541138Y-74012450D01*
X189536154Y-74082142D01*
X189533409Y-74088888D01*
X189529470Y-74097809D01*
X189529465Y-74097824D01*
X189480652Y-74305360D01*
X189480650Y-74305375D01*
X189474500Y-74393984D01*
X189474500Y-74836015D01*
X189480650Y-74924624D01*
X189480652Y-74924639D01*
X189529465Y-75132175D01*
X189529468Y-75132186D01*
X189559373Y-75199915D01*
X189568444Y-75269194D01*
X189559373Y-75300085D01*
X189529468Y-75367813D01*
X189529465Y-75367824D01*
X189480652Y-75575360D01*
X189480650Y-75575375D01*
X189474500Y-75663984D01*
X189474500Y-76106015D01*
X189480650Y-76194624D01*
X189480652Y-76194639D01*
X189529465Y-76402175D01*
X189529468Y-76402186D01*
X189559373Y-76469915D01*
X189568444Y-76539194D01*
X189559373Y-76570085D01*
X189529468Y-76637813D01*
X189529465Y-76637824D01*
X189480652Y-76845360D01*
X189480650Y-76845375D01*
X189474500Y-76933984D01*
X189474500Y-77376015D01*
X189480650Y-77464624D01*
X189480652Y-77464640D01*
X189529465Y-77672176D01*
X189529468Y-77672186D01*
X189558490Y-77737915D01*
X189567561Y-77807193D01*
X189537737Y-77870378D01*
X189478487Y-77907408D01*
X189445056Y-77912000D01*
X189310792Y-77912000D01*
X189310776Y-77912001D01*
X189178586Y-77922404D01*
X189178579Y-77922405D01*
X188960321Y-77977402D01*
X188960318Y-77977403D01*
X188755377Y-78070491D01*
X188755367Y-78070497D01*
X188570354Y-78198674D01*
X188570342Y-78198684D01*
X188555846Y-78213181D01*
X188494523Y-78246666D01*
X188468165Y-78249500D01*
X186710448Y-78249500D01*
X186682058Y-78246206D01*
X186635060Y-78235152D01*
X186509637Y-78205652D01*
X186509624Y-78205650D01*
X186421016Y-78199500D01*
X186421012Y-78199500D01*
X185103988Y-78199500D01*
X185103984Y-78199500D01*
X185015375Y-78205650D01*
X185015362Y-78205652D01*
X184889940Y-78235152D01*
X184842941Y-78246206D01*
X184814552Y-78249500D01*
X184794335Y-78249500D01*
X184727296Y-78229815D01*
X184706654Y-78213181D01*
X184704657Y-78211184D01*
X184704654Y-78211181D01*
X184704650Y-78211178D01*
X184704645Y-78211174D01*
X184519632Y-78082997D01*
X184519630Y-78082995D01*
X184519626Y-78082993D01*
X184492106Y-78070493D01*
X184314681Y-77989903D01*
X184314678Y-77989902D01*
X184096420Y-77934905D01*
X184096413Y-77934904D01*
X184052347Y-77931436D01*
X183964217Y-77924500D01*
X183964215Y-77924500D01*
X183035791Y-77924500D01*
X183035776Y-77924501D01*
X182903586Y-77934904D01*
X182903579Y-77934905D01*
X182685321Y-77989902D01*
X182685318Y-77989903D01*
X182662308Y-78000354D01*
X182593129Y-78010154D01*
X182529634Y-77980997D01*
X182491982Y-77922141D01*
X182492127Y-77852271D01*
X182497591Y-77837382D01*
X182570532Y-77672185D01*
X182619349Y-77464630D01*
X182625500Y-77376012D01*
X182625500Y-76933988D01*
X182619349Y-76845370D01*
X182619347Y-76845360D01*
X182619347Y-76845359D01*
X182570534Y-76637823D01*
X182570531Y-76637812D01*
X182540627Y-76570087D01*
X182531555Y-76500808D01*
X182540626Y-76469915D01*
X182570532Y-76402185D01*
X182607172Y-76246402D01*
X182619347Y-76194640D01*
X182619347Y-76194636D01*
X182619349Y-76194630D01*
X182625500Y-76106012D01*
X182625500Y-75663988D01*
X182625480Y-75663706D01*
X182619349Y-75575375D01*
X182619349Y-75575370D01*
X182619347Y-75575360D01*
X182619347Y-75575359D01*
X182570534Y-75367823D01*
X182570531Y-75367812D01*
X182557116Y-75337432D01*
X182540626Y-75300085D01*
X182531555Y-75230808D01*
X182540626Y-75199915D01*
X182570532Y-75132185D01*
X182609440Y-74966760D01*
X182619347Y-74924640D01*
X182619347Y-74924636D01*
X182619349Y-74924630D01*
X182625500Y-74836012D01*
X182625500Y-74393988D01*
X182619349Y-74305370D01*
X182619347Y-74305360D01*
X182619347Y-74305359D01*
X182570534Y-74097823D01*
X182570531Y-74097812D01*
X182548094Y-74046998D01*
X182540626Y-74030085D01*
X182531555Y-73960808D01*
X182540627Y-73929913D01*
X182542193Y-73926368D01*
X182570532Y-73862185D01*
X182619349Y-73654630D01*
X182625500Y-73566012D01*
X182625500Y-73123988D01*
X182619349Y-73035370D01*
X182619347Y-73035364D01*
X182619347Y-73035359D01*
X182570534Y-72827823D01*
X182570532Y-72827817D01*
X182570532Y-72827815D01*
X182484409Y-72632763D01*
X182363911Y-72456858D01*
X182363906Y-72456852D01*
X182213147Y-72306093D01*
X182213141Y-72306088D01*
X182037238Y-72185592D01*
X182037239Y-72185592D01*
X182037237Y-72185591D01*
X181842185Y-72099468D01*
X181842183Y-72099467D01*
X181842182Y-72099467D01*
X181842176Y-72099465D01*
X181634640Y-72050652D01*
X181634624Y-72050650D01*
X181546016Y-72044500D01*
X181546012Y-72044500D01*
X179969210Y-72044500D01*
X179902171Y-72024815D01*
X179867635Y-71991623D01*
X179788498Y-71878603D01*
X179788493Y-71878597D01*
X179621402Y-71711506D01*
X179621395Y-71711501D01*
X179427834Y-71575967D01*
X179427830Y-71575965D01*
X179427828Y-71575964D01*
X179213663Y-71476097D01*
X179213659Y-71476096D01*
X179213655Y-71476094D01*
X178985413Y-71414938D01*
X178985403Y-71414936D01*
X178750001Y-71394341D01*
X178749999Y-71394341D01*
X178514596Y-71414936D01*
X178514586Y-71414938D01*
X178286344Y-71476094D01*
X178286335Y-71476098D01*
X178072171Y-71575964D01*
X178072169Y-71575965D01*
X177878597Y-71711505D01*
X177711505Y-71878597D01*
X177575965Y-72072169D01*
X177575964Y-72072171D01*
X177476098Y-72286335D01*
X177476094Y-72286344D01*
X177414938Y-72514586D01*
X177414936Y-72514596D01*
X177394341Y-72749999D01*
X177394341Y-72750000D01*
X177414936Y-72985403D01*
X177414938Y-72985413D01*
X177476094Y-73213655D01*
X177476096Y-73213659D01*
X177476097Y-73213663D01*
X177507145Y-73280245D01*
X177528983Y-73327077D01*
X177539475Y-73396155D01*
X177528983Y-73431887D01*
X177474211Y-73549346D01*
X177474207Y-73549355D01*
X177413051Y-73777597D01*
X177413049Y-73777607D01*
X177392454Y-74013010D01*
X177392454Y-74013011D01*
X177413049Y-74248414D01*
X177413051Y-74248424D01*
X177474207Y-74476666D01*
X177474212Y-74476680D01*
X177522915Y-74581124D01*
X177533407Y-74650201D01*
X177522916Y-74685930D01*
X177520655Y-74690779D01*
X177474484Y-74743220D01*
X177407291Y-74762373D01*
X177340409Y-74742159D01*
X177300878Y-74700365D01*
X177299033Y-74697169D01*
X177299032Y-74697167D01*
X177299030Y-74697163D01*
X177163494Y-74503597D01*
X176996402Y-74336506D01*
X176996395Y-74336501D01*
X176990158Y-74332134D01*
X176951920Y-74305359D01*
X176802834Y-74200967D01*
X176802830Y-74200965D01*
X176802828Y-74200964D01*
X176588663Y-74101097D01*
X176588659Y-74101096D01*
X176588655Y-74101094D01*
X176360413Y-74039938D01*
X176360403Y-74039936D01*
X176125001Y-74019341D01*
X176124999Y-74019341D01*
X175889596Y-74039936D01*
X175889586Y-74039938D01*
X175661344Y-74101094D01*
X175661335Y-74101098D01*
X175447171Y-74200964D01*
X175447169Y-74200965D01*
X175253597Y-74336505D01*
X175086505Y-74503597D01*
X174950965Y-74697169D01*
X174950964Y-74697171D01*
X174851098Y-74911335D01*
X174851094Y-74911344D01*
X174789938Y-75139586D01*
X174789936Y-75139596D01*
X174769341Y-75374999D01*
X174769341Y-75375000D01*
X174789936Y-75610403D01*
X174789938Y-75610413D01*
X174851094Y-75838655D01*
X174851096Y-75838659D01*
X174851097Y-75838663D01*
X174903653Y-75951369D01*
X174950965Y-76052830D01*
X174950967Y-76052834D01*
X175086501Y-76246395D01*
X175086506Y-76246402D01*
X175253597Y-76413493D01*
X175253603Y-76413498D01*
X175289674Y-76438755D01*
X175333299Y-76493331D01*
X175340493Y-76562830D01*
X175331452Y-76591608D01*
X175326747Y-76601967D01*
X175272300Y-76818042D01*
X175272299Y-76818048D01*
X175262000Y-76948910D01*
X175262000Y-77551089D01*
X175272299Y-77681951D01*
X175272300Y-77681957D01*
X175283239Y-77725367D01*
X175280532Y-77795184D01*
X175250680Y-77843346D01*
X175123679Y-77970348D01*
X175123674Y-77970354D01*
X174995497Y-78155367D01*
X174995491Y-78155377D01*
X174902403Y-78360318D01*
X174902402Y-78360321D01*
X174847405Y-78578579D01*
X174847404Y-78578586D01*
X174837000Y-78710777D01*
X174837000Y-79789208D01*
X174837001Y-79789223D01*
X174847404Y-79921413D01*
X174847405Y-79921420D01*
X174902402Y-80139678D01*
X174902403Y-80139681D01*
X174995491Y-80344622D01*
X174995497Y-80344632D01*
X175123674Y-80529645D01*
X175123678Y-80529650D01*
X175123681Y-80529654D01*
X175282846Y-80688819D01*
X175282850Y-80688822D01*
X175282854Y-80688825D01*
X175405179Y-80773572D01*
X175449076Y-80827930D01*
X175456615Y-80897392D01*
X175425404Y-80959903D01*
X175365352Y-80995617D01*
X175334563Y-80999500D01*
X140824389Y-80999500D01*
X140757350Y-80979815D01*
X140711595Y-80927011D01*
X140701651Y-80857853D01*
X140730676Y-80794297D01*
X140736708Y-80787819D01*
X145132028Y-76392499D01*
X159144696Y-76392499D01*
X159144696Y-76392500D01*
X159163898Y-76758905D01*
X159178153Y-76848905D01*
X159221295Y-77121294D01*
X159313290Y-77464624D01*
X159316260Y-77475706D01*
X159447746Y-77818239D01*
X159614320Y-78145156D01*
X159814147Y-78452864D01*
X159897158Y-78555374D01*
X160045051Y-78738006D01*
X160304494Y-78997449D01*
X160314499Y-79005551D01*
X160589635Y-79228352D01*
X160897343Y-79428179D01*
X160897348Y-79428182D01*
X161224264Y-79594755D01*
X161566801Y-79726242D01*
X161921206Y-79821205D01*
X162283596Y-79878602D01*
X162629734Y-79896741D01*
X162649999Y-79897804D01*
X162650000Y-79897804D01*
X162650001Y-79897804D01*
X162669203Y-79896797D01*
X163016404Y-79878602D01*
X163378794Y-79821205D01*
X163733199Y-79726242D01*
X164075736Y-79594755D01*
X164402652Y-79428182D01*
X164710366Y-79228351D01*
X164995506Y-78997449D01*
X165254949Y-78738006D01*
X165485851Y-78452866D01*
X165685682Y-78145152D01*
X165852255Y-77818236D01*
X165983742Y-77475699D01*
X166078705Y-77121294D01*
X166136102Y-76758904D01*
X166155304Y-76392500D01*
X166136102Y-76026096D01*
X166078705Y-75663706D01*
X165983742Y-75309301D01*
X165852255Y-74966764D01*
X165685682Y-74639848D01*
X165685679Y-74639843D01*
X165485852Y-74332135D01*
X165327826Y-74136990D01*
X165254949Y-74046994D01*
X164995506Y-73787551D01*
X164831375Y-73654640D01*
X164710364Y-73556647D01*
X164402656Y-73356820D01*
X164075739Y-73190246D01*
X163733206Y-73058760D01*
X163733199Y-73058758D01*
X163378794Y-72963795D01*
X163378790Y-72963794D01*
X163378789Y-72963794D01*
X163016405Y-72906398D01*
X162650001Y-72887196D01*
X162649999Y-72887196D01*
X162283594Y-72906398D01*
X161921211Y-72963794D01*
X161921209Y-72963794D01*
X161566793Y-73058760D01*
X161224260Y-73190246D01*
X160897343Y-73356820D01*
X160589635Y-73556647D01*
X160304498Y-73787547D01*
X160304490Y-73787554D01*
X160045054Y-74046990D01*
X160045047Y-74046998D01*
X159814147Y-74332135D01*
X159614320Y-74639843D01*
X159447746Y-74966760D01*
X159316260Y-75309293D01*
X159221294Y-75663709D01*
X159221294Y-75663711D01*
X159163898Y-76026094D01*
X159144696Y-76392499D01*
X145132028Y-76392499D01*
X148637331Y-72887196D01*
X156548878Y-64975648D01*
X156610199Y-64942165D01*
X156679891Y-64947149D01*
X156727934Y-64980296D01*
X156728136Y-64980095D01*
X156729232Y-64981191D01*
X156729787Y-64981574D01*
X156731012Y-64982971D01*
X156912029Y-65163988D01*
X156912033Y-65163991D01*
X156912035Y-65163993D01*
X156977951Y-65214572D01*
X157115147Y-65319847D01*
X157336853Y-65447848D01*
X157336868Y-65447855D01*
X157459182Y-65498518D01*
X157573382Y-65545822D01*
X157820671Y-65612083D01*
X158074494Y-65645500D01*
X158074501Y-65645500D01*
X158425499Y-65645500D01*
X158425506Y-65645500D01*
X158679329Y-65612083D01*
X158926618Y-65545822D01*
X159163143Y-65447850D01*
X159384857Y-65319844D01*
X159587965Y-65163993D01*
X159768993Y-64982965D01*
X159924844Y-64779857D01*
X160052850Y-64558143D01*
X160150822Y-64321618D01*
X160217083Y-64074329D01*
X160250500Y-63820506D01*
X160250500Y-63564494D01*
X160217083Y-63310671D01*
X160150822Y-63063382D01*
X160090133Y-62916865D01*
X160052854Y-62826865D01*
X160051054Y-62823215D01*
X160052442Y-62822530D01*
X160037479Y-62760876D01*
X160060325Y-62694847D01*
X160065217Y-62688429D01*
X160089698Y-62658407D01*
X160183909Y-62478049D01*
X160239886Y-62282418D01*
X160250500Y-62163037D01*
X160250499Y-60141964D01*
X160239886Y-60022582D01*
X160183909Y-59826951D01*
X160089698Y-59646593D01*
X160034494Y-59578891D01*
X159961109Y-59488890D01*
X159803409Y-59360304D01*
X159803410Y-59360304D01*
X159803407Y-59360302D01*
X159623049Y-59266091D01*
X159623048Y-59266090D01*
X159623045Y-59266089D01*
X159505829Y-59232550D01*
X159427418Y-59210114D01*
X159427415Y-59210113D01*
X159427413Y-59210113D01*
X159361102Y-59204217D01*
X159308037Y-59199500D01*
X159308032Y-59199500D01*
X157191971Y-59199500D01*
X157191965Y-59199500D01*
X157191964Y-59199501D01*
X157180316Y-59200536D01*
X157072584Y-59210113D01*
X156876954Y-59266089D01*
X156811819Y-59300113D01*
X156696593Y-59360302D01*
X156696591Y-59360303D01*
X156696590Y-59360304D01*
X156538890Y-59488890D01*
X156410304Y-59646590D01*
X156410302Y-59646593D01*
X156363663Y-59735878D01*
X156316089Y-59826954D01*
X156260114Y-60022583D01*
X156260113Y-60022586D01*
X156249500Y-60141966D01*
X156249500Y-60979609D01*
X156229815Y-61046648D01*
X156213181Y-61067290D01*
X134567292Y-82713181D01*
X134505969Y-82746666D01*
X134479611Y-82749500D01*
X121624000Y-82749500D01*
X121556961Y-82729815D01*
X121511206Y-82677011D01*
X121500000Y-82625500D01*
X121500000Y-76482499D01*
X131744696Y-76482499D01*
X131744696Y-76482500D01*
X131763898Y-76848904D01*
X131821295Y-77211294D01*
X131914802Y-77560267D01*
X131916260Y-77565706D01*
X132047746Y-77908239D01*
X132214320Y-78235156D01*
X132414147Y-78542864D01*
X132572166Y-78738001D01*
X132645051Y-78828006D01*
X132904494Y-79087449D01*
X132904498Y-79087452D01*
X133189635Y-79318352D01*
X133497343Y-79518179D01*
X133497348Y-79518182D01*
X133824264Y-79684755D01*
X134166801Y-79816242D01*
X134521206Y-79911205D01*
X134883596Y-79968602D01*
X135229734Y-79986741D01*
X135249999Y-79987804D01*
X135250000Y-79987804D01*
X135250001Y-79987804D01*
X135269203Y-79986797D01*
X135616404Y-79968602D01*
X135978794Y-79911205D01*
X136333199Y-79816242D01*
X136675736Y-79684755D01*
X137002652Y-79518182D01*
X137310366Y-79318351D01*
X137595506Y-79087449D01*
X137854949Y-78828006D01*
X138085851Y-78542866D01*
X138285682Y-78235152D01*
X138452255Y-77908236D01*
X138583742Y-77565699D01*
X138678705Y-77211294D01*
X138736102Y-76848904D01*
X138755304Y-76482500D01*
X138736102Y-76116096D01*
X138678705Y-75753706D01*
X138583742Y-75399301D01*
X138452255Y-75056764D01*
X138285682Y-74729848D01*
X138266536Y-74700365D01*
X138085852Y-74422135D01*
X137854952Y-74136998D01*
X137854949Y-74136994D01*
X137595506Y-73877551D01*
X137484365Y-73787551D01*
X137310364Y-73646647D01*
X137002656Y-73446820D01*
X136675739Y-73280246D01*
X136333206Y-73148760D01*
X136292232Y-73137781D01*
X135978794Y-73053795D01*
X135978790Y-73053794D01*
X135978789Y-73053794D01*
X135616405Y-72996398D01*
X135250001Y-72977196D01*
X135249999Y-72977196D01*
X134883594Y-72996398D01*
X134521211Y-73053794D01*
X134521209Y-73053794D01*
X134166793Y-73148760D01*
X133824260Y-73280246D01*
X133497343Y-73446820D01*
X133189635Y-73646647D01*
X132904498Y-73877547D01*
X132904490Y-73877554D01*
X132645054Y-74136990D01*
X132645047Y-74136998D01*
X132414147Y-74422135D01*
X132214320Y-74729843D01*
X132047746Y-75056760D01*
X131916260Y-75399293D01*
X131821294Y-75753709D01*
X131821294Y-75753711D01*
X131763898Y-76116094D01*
X131744696Y-76482499D01*
X121500000Y-76482499D01*
X121500000Y-75199500D01*
X121519685Y-75132461D01*
X121572489Y-75086706D01*
X121624000Y-75075500D01*
X123715597Y-75075500D01*
X123948868Y-75038553D01*
X124173492Y-74965568D01*
X124383934Y-74858343D01*
X124575010Y-74719517D01*
X130988282Y-68306244D01*
X131049603Y-68272761D01*
X131059771Y-68270988D01*
X131279329Y-68242083D01*
X131526618Y-68175822D01*
X131763143Y-68077850D01*
X131984857Y-67949844D01*
X132187965Y-67793993D01*
X132368993Y-67612965D01*
X132524844Y-67409857D01*
X132652850Y-67188143D01*
X132750822Y-66951618D01*
X132817083Y-66704329D01*
X132850500Y-66450506D01*
X132850500Y-66194494D01*
X132817083Y-65940671D01*
X132750822Y-65693382D01*
X132652850Y-65456857D01*
X132573746Y-65319844D01*
X132524844Y-65235142D01*
X132442620Y-65127987D01*
X132417425Y-65062818D01*
X132431463Y-64994373D01*
X132442620Y-64977013D01*
X132524844Y-64869857D01*
X132652848Y-64648146D01*
X132652850Y-64648143D01*
X132750822Y-64411618D01*
X132817083Y-64164329D01*
X132850500Y-63910506D01*
X132850500Y-63654494D01*
X132817083Y-63400671D01*
X132750822Y-63153382D01*
X132713543Y-63063382D01*
X132652854Y-62916865D01*
X132651054Y-62913215D01*
X132652442Y-62912530D01*
X132637479Y-62850876D01*
X132660325Y-62784847D01*
X132665217Y-62778429D01*
X132689698Y-62748407D01*
X132783909Y-62568049D01*
X132839886Y-62372418D01*
X132850500Y-62253037D01*
X132850499Y-60231964D01*
X132839886Y-60112582D01*
X132783909Y-59916951D01*
X132689698Y-59736593D01*
X132616310Y-59646590D01*
X132561109Y-59578890D01*
X132403409Y-59450304D01*
X132403410Y-59450304D01*
X132403407Y-59450302D01*
X132223049Y-59356091D01*
X132223048Y-59356090D01*
X132223045Y-59356089D01*
X132105829Y-59322550D01*
X132027418Y-59300114D01*
X132027415Y-59300113D01*
X132027413Y-59300113D01*
X131961102Y-59294217D01*
X131908037Y-59289500D01*
X131908032Y-59289500D01*
X129791971Y-59289500D01*
X129791965Y-59289500D01*
X129791964Y-59289501D01*
X129780316Y-59290536D01*
X129672584Y-59300113D01*
X129476954Y-59356089D01*
X129386772Y-59403196D01*
X129296593Y-59450302D01*
X129296591Y-59450303D01*
X129296590Y-59450304D01*
X129138890Y-59578890D01*
X129043107Y-59696361D01*
X128985486Y-59735878D01*
X128947005Y-59742000D01*
X123889403Y-59742000D01*
X123656134Y-59778946D01*
X123431505Y-59851933D01*
X123221065Y-59959157D01*
X123029988Y-60097984D01*
X121711681Y-61416291D01*
X121650358Y-61449776D01*
X121580666Y-61444792D01*
X121524733Y-61402920D01*
X121500316Y-61337456D01*
X121500000Y-61328610D01*
X121500000Y-51082499D01*
X131744696Y-51082499D01*
X131744696Y-51082500D01*
X131763898Y-51448905D01*
X131807039Y-51721288D01*
X131821295Y-51811294D01*
X131892142Y-52075699D01*
X131916260Y-52165706D01*
X132047746Y-52508239D01*
X132214320Y-52835156D01*
X132414147Y-53142864D01*
X132414149Y-53142866D01*
X132645051Y-53428006D01*
X132904494Y-53687449D01*
X132904498Y-53687452D01*
X133189635Y-53918352D01*
X133497343Y-54118179D01*
X133497348Y-54118182D01*
X133824264Y-54284755D01*
X134166801Y-54416242D01*
X134521206Y-54511205D01*
X134883596Y-54568602D01*
X135229734Y-54586741D01*
X135249999Y-54587804D01*
X135250000Y-54587804D01*
X135250001Y-54587804D01*
X135269203Y-54586797D01*
X135616404Y-54568602D01*
X135978794Y-54511205D01*
X136333199Y-54416242D01*
X136675736Y-54284755D01*
X137002652Y-54118182D01*
X137310366Y-53918351D01*
X137595506Y-53687449D01*
X137854949Y-53428006D01*
X138085851Y-53142866D01*
X138285682Y-52835152D01*
X138452255Y-52508236D01*
X138583742Y-52165699D01*
X138678705Y-51811294D01*
X138736102Y-51448904D01*
X138755304Y-51082500D01*
X138750587Y-50992499D01*
X159144696Y-50992499D01*
X159144696Y-50992500D01*
X159163898Y-51358905D01*
X159178153Y-51448905D01*
X159221295Y-51721294D01*
X159245409Y-51811290D01*
X159316260Y-52075706D01*
X159447746Y-52418239D01*
X159614320Y-52745156D01*
X159814147Y-53052864D01*
X160018736Y-53305510D01*
X160045051Y-53338006D01*
X160304494Y-53597449D01*
X160304498Y-53597452D01*
X160589635Y-53828352D01*
X160897343Y-54028179D01*
X160897348Y-54028182D01*
X161224264Y-54194755D01*
X161566801Y-54326242D01*
X161921206Y-54421205D01*
X162283596Y-54478602D01*
X162629734Y-54496741D01*
X162649999Y-54497804D01*
X162650000Y-54497804D01*
X162650001Y-54497804D01*
X162669203Y-54496797D01*
X163016404Y-54478602D01*
X163378794Y-54421205D01*
X163733199Y-54326242D01*
X164075736Y-54194755D01*
X164402652Y-54028182D01*
X164710366Y-53828351D01*
X164995506Y-53597449D01*
X165254949Y-53338006D01*
X165485851Y-53052866D01*
X165685682Y-52745152D01*
X165852255Y-52418236D01*
X165983742Y-52075699D01*
X166078705Y-51721294D01*
X166136102Y-51358904D01*
X166155304Y-50992500D01*
X166136102Y-50626096D01*
X166078705Y-50263706D01*
X165983742Y-49909301D01*
X165852255Y-49566764D01*
X165685682Y-49239848D01*
X165544298Y-49022135D01*
X165485852Y-48932135D01*
X165254952Y-48646998D01*
X165254949Y-48646994D01*
X164995506Y-48387551D01*
X164710366Y-48156649D01*
X164710364Y-48156647D01*
X164402656Y-47956820D01*
X164075739Y-47790246D01*
X163733206Y-47658760D01*
X163733199Y-47658758D01*
X163378794Y-47563795D01*
X163378790Y-47563794D01*
X163378789Y-47563794D01*
X163016405Y-47506398D01*
X162650001Y-47487196D01*
X162649999Y-47487196D01*
X162283594Y-47506398D01*
X161921211Y-47563794D01*
X161921209Y-47563794D01*
X161566793Y-47658760D01*
X161224260Y-47790246D01*
X160897343Y-47956820D01*
X160589635Y-48156647D01*
X160304498Y-48387547D01*
X160304490Y-48387554D01*
X160045054Y-48646990D01*
X160045047Y-48646998D01*
X159814147Y-48932135D01*
X159614320Y-49239843D01*
X159447746Y-49566760D01*
X159316260Y-49909293D01*
X159221294Y-50263709D01*
X159221294Y-50263711D01*
X159163898Y-50626094D01*
X159144696Y-50992499D01*
X138750587Y-50992499D01*
X138736102Y-50716096D01*
X138678705Y-50353706D01*
X138583742Y-49999301D01*
X138452255Y-49656764D01*
X138285682Y-49329848D01*
X138227236Y-49239848D01*
X138085852Y-49022135D01*
X137854952Y-48736998D01*
X137854949Y-48736994D01*
X137595506Y-48477551D01*
X137484365Y-48387551D01*
X137310364Y-48246647D01*
X137002656Y-48046820D01*
X136675739Y-47880246D01*
X136333206Y-47748760D01*
X136333199Y-47748758D01*
X135978794Y-47653795D01*
X135978790Y-47653794D01*
X135978789Y-47653794D01*
X135616405Y-47596398D01*
X135250001Y-47577196D01*
X135249999Y-47577196D01*
X134883594Y-47596398D01*
X134521211Y-47653794D01*
X134521209Y-47653794D01*
X134166793Y-47748760D01*
X133824260Y-47880246D01*
X133497343Y-48046820D01*
X133189635Y-48246647D01*
X132904498Y-48477547D01*
X132904490Y-48477554D01*
X132645054Y-48736990D01*
X132645047Y-48736998D01*
X132414147Y-49022135D01*
X132214320Y-49329843D01*
X132047746Y-49656760D01*
X131916260Y-49999293D01*
X131821294Y-50353709D01*
X131821294Y-50353711D01*
X131763898Y-50716094D01*
X131744696Y-51082499D01*
X121500000Y-51082499D01*
X121500000Y-43542413D01*
X121511618Y-43490008D01*
X121523903Y-43463663D01*
X121585063Y-43235408D01*
X121605659Y-43000000D01*
X121585063Y-42764592D01*
X121555991Y-42656092D01*
X121557654Y-42586243D01*
X121596817Y-42528381D01*
X121661045Y-42500877D01*
X121675766Y-42500000D01*
X204698638Y-42500000D01*
X204765677Y-42519685D01*
G37*
%TD.AperFunction*%
%TD*%
M02*
